<svg width="79" height="59" viewBox="0 0 79 59" fill="none" xmlns="http://www.w3.org/2000/svg">
<path d="M22.76 0.679996C28.36 0.679996 32.8133 1.58666 36.12 3.4C39.4267 5.16 41.8 8.14666 43.24 12.36C44.68 16.52 45.4 22.2 45.4 29.4C45.4 36.6 44.68 42.3067 43.24 46.52C41.8 50.68 39.4267 53.6667 36.12 55.48C32.8133 57.24 28.36 58.12 22.76 58.12C17.2133 58.12 12.7867 57.24 9.48 55.48C6.17333 53.6667 3.8 50.68 2.36 46.52C0.973333 42.3067 0.28 36.6 0.28 29.4C0.28 22.2 0.973333 16.52 2.36 12.36C3.8 8.14666 6.17333 5.16 9.48 3.4C12.7867 1.58666 17.2133 0.679996 22.76 0.679996ZM22.68 12.04C21.1867 12.04 19.9333 12.28 18.92 12.76C17.96 13.1867 17.1867 14.0133 16.6 15.24C16.0667 16.4133 15.6933 18.1467 15.48 20.44C15.2667 22.7333 15.16 25.72 15.16 29.4C15.16 33.08 15.2667 36.0667 15.48 38.36C15.6933 40.6533 16.0667 42.4133 16.6 43.64C17.1867 44.8133 17.96 45.64 18.92 46.12C19.9333 46.5467 21.1867 46.76 22.68 46.76C24.2267 46.76 25.5067 46.5467 26.52 46.12C27.5333 45.64 28.3333 44.8133 28.92 43.64C29.5067 42.4133 29.9067 40.6533 30.12 38.36C30.3867 36.0667 30.52 33.08 30.52 29.4C30.52 25.72 30.3867 22.7333 30.12 20.44C29.9067 18.1467 29.5067 16.4133 28.92 15.24C28.3333 14.0133 27.5333 13.1867 26.52 12.76C25.5067 12.28 24.2267 12.04 22.68 12.04ZM78.3188 1.8V57H63.3588V20.36C63.3588 19.24 63.3854 18.1467 63.4388 17.08C63.4921 15.96 63.6521 14.8667 63.9188 13.8L51.0388 16.68L49.2788 7.24L63.3588 1.8H78.3188Z" fill="#970010"/>
</svg>
