<svg width="94" height="59" viewBox="0 0 94 59" fill="none" xmlns="http://www.w3.org/2000/svg">
<path d="M22.76 0.679996C28.36 0.679996 32.8133 1.58666 36.12 3.4C39.4267 5.16 41.8 8.14666 43.24 12.36C44.68 16.52 45.4 22.2 45.4 29.4C45.4 36.6 44.68 42.3067 43.24 46.52C41.8 50.68 39.4267 53.6667 36.12 55.48C32.8133 57.24 28.36 58.12 22.76 58.12C17.2133 58.12 12.7867 57.24 9.48 55.48C6.17333 53.6667 3.8 50.68 2.36 46.52C0.973333 42.3067 0.28 36.6 0.28 29.4C0.28 22.2 0.973333 16.52 2.36 12.36C3.8 8.14666 6.17333 5.16 9.48 3.4C12.7867 1.58666 17.2133 0.679996 22.76 0.679996ZM22.68 12.04C21.1867 12.04 19.9333 12.28 18.92 12.76C17.96 13.1867 17.1867 14.0133 16.6 15.24C16.0667 16.4133 15.6933 18.1467 15.48 20.44C15.2667 22.7333 15.16 25.72 15.16 29.4C15.16 33.08 15.2667 36.0667 15.48 38.36C15.6933 40.6533 16.0667 42.4133 16.6 43.64C17.1867 44.8133 17.96 45.64 18.92 46.12C19.9333 46.5467 21.1867 46.76 22.68 46.76C24.2267 46.76 25.5067 46.5467 26.52 46.12C27.5333 45.64 28.3333 44.8133 28.92 43.64C29.5067 42.4133 29.9067 40.6533 30.12 38.36C30.3867 36.0667 30.52 33.08 30.52 29.4C30.52 25.72 30.3867 22.7333 30.12 20.44C29.9067 18.1467 29.5067 16.4133 28.92 15.24C28.3333 14.0133 27.5333 13.1867 26.52 12.76C25.5067 12.28 24.2267 12.04 22.68 12.04ZM71.9988 0.839998C75.9988 0.839998 79.4388 1.21333 82.3188 1.96C85.2521 2.65333 87.5188 3.96 89.1187 5.88C90.7721 7.8 91.5988 10.5733 91.5988 14.2C91.5988 16.1733 91.3854 17.9867 90.9587 19.64C90.5321 21.2933 89.6788 23.0267 88.3988 24.84C87.1721 26.6533 85.3321 28.8133 82.8788 31.32L69.1988 44.92C70.4788 44.6 71.7321 44.3867 72.9588 44.28C74.2388 44.1733 75.5721 44.1467 76.9588 44.2H93.0388V57H51.7588V49.32C51.7588 48.0933 51.9188 47 52.2388 46.04C52.5588 45.08 53.0921 44.1467 53.8388 43.24L66.3988 30.44C69.4921 27.24 71.9188 24.4133 73.6788 21.96C75.4388 19.5067 76.2921 17.5067 76.2388 15.96C76.2388 15.16 76.0254 14.6 75.5988 14.28C75.1721 13.9067 74.5054 13.6667 73.5988 13.56C72.7454 13.4 71.5988 13.32 70.1588 13.32C68.2388 13.32 66.4521 13.3467 64.7988 13.4C63.1454 13.4 61.3588 13.4267 59.4388 13.48C57.5188 13.5333 55.3054 13.6133 52.7988 13.72L52.2388 2.68C54.9588 2.14667 57.4121 1.74667 59.5988 1.48C61.8388 1.21333 63.9721 1.05333 65.9988 0.999996C68.0254 0.893331 70.0254 0.839998 71.9988 0.839998Z" fill="#970010"/>
</svg>
