<svg width="92" height="59" viewBox="0 0 92 59" fill="none" xmlns="http://www.w3.org/2000/svg">
<path d="M22.76 0.679996C28.36 0.679996 32.8133 1.58666 36.12 3.4C39.4267 5.16 41.8 8.14666 43.24 12.36C44.68 16.52 45.4 22.2 45.4 29.4C45.4 36.6 44.68 42.3067 43.24 46.52C41.8 50.68 39.4267 53.6667 36.12 55.48C32.8133 57.24 28.36 58.12 22.76 58.12C17.2133 58.12 12.7867 57.24 9.48 55.48C6.17333 53.6667 3.8 50.68 2.36 46.52C0.973333 42.3067 0.28 36.6 0.28 29.4C0.28 22.2 0.973333 16.52 2.36 12.36C3.8 8.14666 6.17333 5.16 9.48 3.4C12.7867 1.58666 17.2133 0.679996 22.76 0.679996ZM22.68 12.04C21.1867 12.04 19.9333 12.28 18.92 12.76C17.96 13.1867 17.1867 14.0133 16.6 15.24C16.0667 16.4133 15.6933 18.1467 15.48 20.44C15.2667 22.7333 15.16 25.72 15.16 29.4C15.16 33.08 15.2667 36.0667 15.48 38.36C15.6933 40.6533 16.0667 42.4133 16.6 43.64C17.1867 44.8133 17.96 45.64 18.92 46.12C19.9333 46.5467 21.1867 46.76 22.68 46.76C24.2267 46.76 25.5067 46.5467 26.52 46.12C27.5333 45.64 28.3333 44.8133 28.92 43.64C29.5067 42.4133 29.9067 40.6533 30.12 38.36C30.3867 36.0667 30.52 33.08 30.52 29.4C30.52 25.72 30.3867 22.7333 30.12 20.44C29.9067 18.1467 29.5067 16.4133 28.92 15.24C28.3333 14.0133 27.5333 13.1867 26.52 12.76C25.5067 12.28 24.2267 12.04 22.68 12.04ZM71.0388 0.679996C75.6254 0.679996 79.2788 1.08 81.9988 1.88C84.7188 2.62667 86.6921 3.93333 87.9188 5.8C89.1454 7.66666 89.7588 10.2533 89.7588 13.56C89.7588 16.1733 89.5188 18.4667 89.0388 20.44C88.5588 22.36 87.6788 23.9333 86.3988 25.16C85.1188 26.3333 83.2788 27.1067 80.8788 27.48V27.8C84.7721 28.3867 87.4388 29.8 88.8788 32.04C90.3721 34.2267 91.1454 37.4267 91.1988 41.64C91.2521 45.5333 90.6388 48.7067 89.3588 51.16C88.0788 53.56 85.9721 55.32 83.0388 56.44C80.1588 57.56 76.2654 58.12 71.3588 58.12C68.0521 58.12 64.6921 57.96 61.2788 57.64C57.8654 57.3733 54.5588 57.0267 51.3587 56.6L51.8388 45.88C54.1854 46.04 56.1854 46.1467 57.8388 46.2C59.5454 46.2533 61.1454 46.3067 62.6388 46.36C64.1321 46.36 65.6521 46.36 67.1988 46.36C69.5988 46.36 71.4654 46.2 72.7988 45.88C74.1321 45.56 75.0654 44.92 75.5988 43.96C76.1321 42.9467 76.3988 41.5067 76.3988 39.64C76.3988 38.04 76.2121 36.76 75.8388 35.8C75.4654 34.84 74.7454 34.1467 73.6788 33.72C72.6654 33.24 71.1454 33.0267 69.1188 33.08L58.5588 33.16V23.72H69.1188C70.6654 23.72 71.8654 23.5867 72.7188 23.32C73.6254 23 74.2921 22.6 74.7188 22.12C75.1454 21.5867 75.4121 20.9467 75.5188 20.2C75.6254 19.4 75.6788 18.5467 75.6788 17.64C75.6788 16.1467 75.4654 15.0267 75.0388 14.28C74.6121 13.5333 73.8654 13.0267 72.7988 12.76C71.7854 12.4933 70.3188 12.36 68.3988 12.36C65.5188 12.36 62.7454 12.3867 60.0788 12.44C57.4121 12.44 55.0654 12.44 53.0388 12.44L52.5588 2.2C55.6521 1.66666 58.7454 1.29333 61.8388 1.08C64.9321 0.813329 67.9988 0.679996 71.0388 0.679996Z" fill="#970010"/>
</svg>
