<svg width="91" height="59" viewBox="0 0 91 59" fill="none" xmlns="http://www.w3.org/2000/svg">
<path d="M22.76 0.679996C28.36 0.679996 32.8133 1.58666 36.12 3.4C39.4267 5.16 41.8 8.14666 43.24 12.36C44.68 16.52 45.4 22.2 45.4 29.4C45.4 36.6 44.68 42.3067 43.24 46.52C41.8 50.68 39.4267 53.6667 36.12 55.48C32.8133 57.24 28.36 58.12 22.76 58.12C17.2133 58.12 12.7867 57.24 9.48 55.48C6.17333 53.6667 3.8 50.68 2.36 46.52C0.973333 42.3067 0.28 36.6 0.28 29.4C0.28 22.2 0.973333 16.52 2.36 12.36C3.8 8.14666 6.17333 5.16 9.48 3.4C12.7867 1.58666 17.2133 0.679996 22.76 0.679996ZM22.68 12.04C21.1867 12.04 19.9333 12.28 18.92 12.76C17.96 13.1867 17.1867 14.0133 16.6 15.24C16.0667 16.4133 15.6933 18.1467 15.48 20.44C15.2667 22.7333 15.16 25.72 15.16 29.4C15.16 33.08 15.2667 36.0667 15.48 38.36C15.6933 40.6533 16.0667 42.4133 16.6 43.64C17.1867 44.8133 17.96 45.64 18.92 46.12C19.9333 46.5467 21.1867 46.76 22.68 46.76C24.2267 46.76 25.5067 46.5467 26.52 46.12C27.5333 45.64 28.3333 44.8133 28.92 43.64C29.5067 42.4133 29.9067 40.6533 30.12 38.36C30.3867 36.0667 30.52 33.08 30.52 29.4C30.52 25.72 30.3867 22.7333 30.12 20.44C29.9067 18.1467 29.5067 16.4133 28.92 15.24C28.3333 14.0133 27.5333 13.1867 26.52 12.76C25.5067 12.28 24.2267 12.04 22.68 12.04ZM89.1988 1.8L88.7188 12.76H65.9188L65.3588 20.6L74.6388 21.8C77.8921 22.12 80.5588 22.84 82.6388 23.96C84.7188 25.0267 86.3721 26.3867 87.5988 28.04C88.8254 29.6933 89.6788 31.5333 90.1588 33.56C90.6388 35.5867 90.8788 37.72 90.8788 39.96C90.8788 42.4133 90.5588 44.7333 89.9188 46.92C89.2788 49.1067 88.1854 51.0267 86.6388 52.68C85.1454 54.3333 83.0921 55.64 80.4788 56.6C77.9188 57.5067 74.6654 57.96 70.7188 57.96C67.9454 57.96 64.8521 57.8267 61.4388 57.56C58.0788 57.2933 54.6388 56.8933 51.1188 56.36L52.4788 45.16C55.1454 45.32 57.7054 45.48 60.1588 45.64C62.6654 45.8 64.8788 45.88 66.7988 45.88C69.2521 45.88 71.1188 45.6667 72.3988 45.24C73.6788 44.76 74.5854 44.0667 75.1188 43.16C75.6521 42.2 75.9454 40.9733 75.9988 39.48C76.1054 38.1467 75.9721 37.08 75.5988 36.28C75.2788 35.4267 74.7188 34.76 73.9188 34.28C73.1188 33.7467 72.0788 33.3733 70.7988 33.16C69.5188 32.9467 67.9454 32.76 66.0788 32.6L57.4388 31.56C56.1588 31.4 55.1188 30.8667 54.3188 29.96C53.5188 29 53.1454 27.9067 53.1988 26.68L54.6388 1.8H89.1988Z" fill="#970010"/>
</svg>
