<svg width="280" height="160" viewBox="0 0 280 160" fill="none" xmlns="http://www.w3.org/2000/svg">
<rect x="0.5" y="0.5" width="279" height="159" rx="14.5" stroke="black" stroke-opacity="0.2"/>
<path d="M224.909 79.1096C227.169 79.1096 229 77.2942 229 75.0548C229 72.8154 227.169 71 224.909 71C222.65 71 220.819 72.8154 220.819 75.0548C220.819 77.2942 222.65 79.1096 224.909 79.1096Z" fill="#00F500"/>
<path d="M180.641 84.6113C178.562 84.6113 176.926 82.9894 176.926 80.8853C176.926 78.7812 178.562 77.1592 180.641 77.1592C182.719 77.1592 184.4 78.7812 184.4 80.8853C184.4 82.9894 182.719 84.6113 180.641 84.6113ZM184.4 77.0497H183.958C183.14 75.5812 181.614 74.7483 179.867 74.7483C176.992 74.7483 174.317 77.4223 174.317 80.8853C174.317 84.3483 176.926 86.9784 179.867 86.9784C181.614 86.9784 183.14 86.1456 183.958 84.6771H184.4V86.6716H186.965V75.0332H184.4V77.0497ZM61.3241 84.6113C59.2455 84.6113 57.6092 82.9894 57.6092 80.8853C57.6092 78.7812 59.2455 77.1592 61.3241 77.1592C63.4026 77.1592 65.0831 78.7812 65.0831 80.8853C65.0831 82.9894 63.4026 84.6113 61.3241 84.6113ZM65.0831 77.0497H64.6409C63.8227 75.5812 62.297 74.7483 60.5501 74.7483C57.6756 74.7483 55 77.4223 55 80.8853C55 84.3483 57.6092 86.9784 60.5501 86.9784C62.297 86.9784 63.8227 86.1456 64.6409 84.6771H65.0831V86.6716H67.6481V75.0332H65.0831V77.0497ZM199.193 79.636H193.178V75.0332H190.613V86.6935H193.178V82.0688H199.193V86.6935H201.758V75.0332H199.193V79.636ZM210.824 80.7319L216.905 75.0332H213.389L207.927 80.3812V75.0332H205.362V86.6935H207.927V81.3236L213.433 86.6935H217.214L210.824 80.7319ZM168.214 84.414H164.079V81.4771H168.214C169.386 81.4771 169.939 82.0908 169.939 82.9456C169.939 83.8003 169.408 84.414 168.214 84.414ZM168.501 79.1976H164.057V77.2908H171.597V75.0332H161.492V86.6935H168.523C170.934 86.6935 172.57 85.1154 172.57 82.9675C172.57 80.8195 170.889 79.1976 168.501 79.1976ZM137.323 84.5894C135.201 84.5894 133.631 82.9675 133.631 80.8853C133.631 78.7812 135.201 77.1592 137.323 77.1592C139.38 77.1592 141.016 78.7812 141.016 80.8853C141.016 82.9675 139.424 84.5894 137.323 84.5894ZM137.323 74.7483C134.228 74.7483 131.729 76.8524 131.176 79.6579H129.009V75.0332H126.422V86.6935H128.987V82.0469H131.154C131.685 84.8743 134.228 87.0003 137.301 87.0003C140.773 87.0003 143.581 84.2825 143.581 80.9072C143.603 77.4661 140.773 74.7483 137.323 74.7483ZM144.532 77.4442H148.844V86.6716H151.409V77.4442H155.721V75.0332H144.532V77.4442ZM116.184 75.0332L111.143 86.6935H113.862L117.776 77.3784L121.69 86.6935H124.52L119.479 75.0332H116.184ZM90.3572 77.1373C92.878 77.1373 93.5856 79.0661 93.5856 79.0661H96.3054C96.3054 79.0661 95.2219 74.7483 90.3572 74.7483C86.8635 74.7483 84.1216 77.4661 84.1216 80.8853C84.1216 84.3264 86.8635 87.0223 90.3572 87.0223C95.2219 87.0223 96.3054 82.7045 96.3054 82.7045H93.5856C93.5856 82.7045 92.878 84.6332 90.3572 84.6332C88.3008 84.6332 86.753 83.0113 86.753 80.9072C86.753 78.8031 88.3008 77.1373 90.3572 77.1373ZM78.0408 84.3702H73.8616V81.4771H78.0187C79.1906 81.4771 79.7434 82.0908 79.7434 82.9456C79.7434 83.8003 79.2348 84.3702 78.0408 84.3702ZM78.3504 79.1976H73.8616V77.3127H81.4239V75.0332H71.2966V86.6935H78.3504C80.7385 86.6935 82.3969 85.1154 82.3969 82.9675C82.3969 80.8195 80.7164 79.1976 78.3504 79.1976ZM104.133 84.5894C101.966 84.5894 100.374 82.9675 100.374 80.8853C100.374 78.7812 101.966 77.1592 104.133 77.1592C106.234 77.1592 107.892 78.7812 107.892 80.8853C107.892 82.9675 106.278 84.5894 104.133 84.5894ZM104.133 74.7483C100.573 74.7483 97.7648 77.4661 97.7648 80.8853C97.7648 84.2825 100.573 86.9784 104.133 86.9784C107.671 86.9784 110.523 84.2606 110.523 80.8853C110.523 77.4661 107.605 74.7483 104.133 74.7483Z" fill="#FF5000"/>
</svg>
