<svg width="280" height="160" viewBox="0 0 280 160" fill="none" xmlns="http://www.w3.org/2000/svg">
<rect x="0.5" y="0.5" width="279" height="159" rx="14.5" stroke="black" stroke-opacity="0.2"/>
<path d="M83.8305 86.8491C83.4185 86.8491 83.1798 87.0963 83.1798 87.5435V91.076H77.7582V87.5435C77.7582 87.0986 77.5195 86.8491 77.1075 86.8491C76.7 86.8491 76.4568 87.0963 76.4568 87.5435V96.0603C76.4568 96.5052 76.7 96.7524 77.1075 96.7524C77.5195 96.7524 77.7582 96.5052 77.7582 96.0603V92.2895H83.1798V96.0603C83.1798 96.5052 83.4185 96.7524 83.8305 96.7524C84.238 96.7524 84.4767 96.5052 84.4767 96.0603V87.5435C84.4789 87.0963 84.238 86.8491 83.8305 86.8491ZM90.5242 91.685L94.2955 87.921C94.4734 87.7435 94.5499 87.5997 94.5499 87.3974C94.5499 87.1008 94.345 86.8491 93.9938 86.8491C93.8114 86.8491 93.6651 86.9121 93.5007 87.0739L89.815 90.7525C89.6079 90.9592 89.3985 91.0738 89.1058 91.0738H88.347V87.5413C88.347 87.0963 88.1084 86.8469 87.6963 86.8469C87.2888 86.8469 87.0457 87.0941 87.0457 87.5413V96.058C87.0457 96.5029 87.2888 96.7501 87.6963 96.7501C88.1084 96.7501 88.347 96.5029 88.347 96.058V92.2873H89.018C89.3084 92.2873 89.5178 92.4041 89.7249 92.6086L93.6381 96.5142C93.8114 96.685 93.9623 96.7501 94.1559 96.7501C94.5252 96.7501 94.739 96.4872 94.739 96.1771C94.739 95.9636 94.658 95.8131 94.4711 95.6266L90.5242 91.685ZM98.6679 75.1234C98.0825 75.4313 97.281 75.6515 96.5132 75.6515C95.2479 75.6515 94.4554 75.1055 94.4554 74.1527C94.4554 73.2943 95.1331 72.6291 96.5042 72.6291C97.227 72.6291 97.8664 72.7347 98.6679 72.9729V75.1234ZM96.6866 67.2157C95.5856 67.2157 94.5927 67.4966 93.9578 67.755C93.4219 67.973 93.1945 68.2831 93.1968 68.6966C93.2013 69.1842 93.5705 69.5415 94.0298 69.5415C94.2505 69.5415 94.4959 69.4561 94.7571 69.3527C95.1713 69.1864 95.8535 69.0067 96.5357 69.0067C98.051 69.0067 98.6679 69.5775 98.6679 70.7437V71.5302C97.7966 71.2965 97.0851 71.1932 96.2701 71.1932C93.7889 71.1932 92.5776 72.6044 92.5776 74.1527C92.5776 75.9437 93.9353 77.292 96.3399 77.292C98.2086 77.292 99.6316 76.6717 100.201 76.2807C100.474 76.092 100.57 75.9122 100.57 75.5459V70.7864C100.568 68.337 99.1565 67.2157 96.6866 67.2157ZM120.422 73.5617C119.976 73.5707 119.726 73.8358 119.557 74.1302C119.215 74.865 118.492 75.3841 117.504 75.3841C116.108 75.3841 115.286 74.5437 115.171 73.301C115.111 72.6358 115.111 71.8673 115.171 71.2022C115.286 69.9572 116.119 69.1168 117.504 69.1168C118.492 69.1168 119.208 69.6269 119.557 70.3797C119.733 70.6651 119.976 70.937 120.422 70.9415C120.994 70.946 121.379 70.5909 121.379 70.0314C121.379 69.7415 121.269 69.4516 121.093 69.1348C120.519 68.0674 119.271 67.2134 117.477 67.2134C115.054 67.2134 113.424 68.7393 113.222 70.9213C113.152 71.6471 113.152 72.8493 113.222 73.5774C113.433 75.7594 115.054 77.2897 117.477 77.2897C119.271 77.2897 120.519 76.4403 121.1 75.3661C121.275 75.047 121.381 74.7594 121.381 74.4695C121.379 73.919 120.992 73.5482 120.422 73.5617ZM76.2002 75.5167L72.8049 72.128L76.0268 68.9123C76.2767 68.6629 76.405 68.4157 76.405 68.1303C76.405 67.6561 76.0606 67.3033 75.5697 67.3033C75.2838 67.3033 75.0699 67.4067 74.793 67.6831L71.5193 70.9505C71.3414 71.1302 71.15 71.2314 70.8956 71.2314H70.2269V68.3415C70.2269 67.6853 69.8442 67.3033 69.2408 67.3033C68.6419 67.3033 68.2614 67.6853 68.2614 68.3415V76.1616C68.2614 76.8178 68.6441 77.2043 69.2408 77.2043C69.8442 77.2043 70.2269 76.8178 70.2269 76.1616V73.0403H70.7853C71.0397 73.0403 71.2311 73.1415 71.409 73.3212L74.9033 76.8066C75.1915 77.0942 75.4166 77.2066 75.7161 77.2066C76.2339 77.2066 76.5964 76.838 76.5964 76.3369C76.5964 76.038 76.4636 75.7774 76.2002 75.5167ZM109.349 73.3032C109.234 74.5504 108.458 75.3931 107.035 75.3931C106.298 75.3931 105.373 75.1684 104.916 74.847V69.6606C105.373 69.3348 106.296 69.11 107.035 69.11C108.458 69.11 109.236 69.9572 109.349 71.2044C109.405 71.8314 109.41 72.6246 109.349 73.3032ZM107.095 67.2157C105.375 67.2157 104 67.8224 103.446 68.1483C102.993 68.4157 102.946 68.6269 102.946 69.3797V79.402C102.946 80.0537 103.326 80.4402 103.925 80.4402C104.529 80.4402 104.914 80.0537 104.914 79.402V76.7863C105.503 77.0717 106.406 77.292 107.266 77.292C109.54 77.292 111.103 75.7796 111.308 73.5976C111.378 72.8628 111.378 71.6516 111.308 70.91C111.107 68.7235 109.543 67.2157 107.095 67.2157ZM72.7959 94.9502C72.0754 95.3367 71.096 95.6198 70.1886 95.6198C68.5653 95.6198 67.6489 94.9322 67.6489 93.7434C67.6489 92.676 68.455 91.8783 70.1886 91.8783C71.0487 91.8783 71.776 92.0041 72.7959 92.3052V94.9502ZM70.4678 86.7637C69.3331 86.7637 68.2276 87.0716 67.6287 87.3435C67.2257 87.5188 67.0433 87.7053 67.0523 88.0266C67.0636 88.3592 67.3202 88.6221 67.6377 88.6221C67.793 88.6221 67.9799 88.5615 68.1623 88.4761C68.6216 88.2806 69.4884 88.0222 70.3372 88.0222C72.0169 88.0222 72.7959 88.7053 72.7959 90.2266V91.1322C71.7422 90.8266 70.9834 90.721 70.0738 90.721C67.6129 90.721 66.3633 92.1345 66.3633 93.7322C66.3633 95.6086 67.7773 96.8423 70.0175 96.8423C71.8683 96.8423 73.2845 96.1928 73.8068 95.8131C74.0185 95.6625 74.0792 95.5412 74.0792 95.2535V90.1929C74.0792 87.8514 72.7216 86.7637 70.4678 86.7637ZM60.98 95.3883H57.301V90.1817H60.98C62.905 90.1817 63.6976 91.1232 63.6976 92.7502C63.6976 94.4131 62.905 95.3883 60.98 95.3883ZM61.1466 88.9323H57.301V84.9143H63.7088C64.1366 84.9143 64.4315 84.6761 64.4315 84.2671C64.4315 83.8761 64.1366 83.6334 63.7088 83.6334H57.1367C56.4004 83.6334 55.9794 84.0424 55.9794 84.7862V95.5097C55.9794 96.2535 56.3982 96.6647 57.1367 96.6647H61.1444C63.6075 96.6647 65.035 95.2355 65.035 92.7389C65.035 90.3098 63.6098 88.9323 61.1466 88.9323ZM83.754 70.9437H86.9781C88.5024 70.9437 89.1823 71.719 89.1823 73.0561C89.1823 74.4156 88.5024 75.2268 86.9781 75.2268H83.754V70.9437ZM83.2676 77.1167H87.1898C89.7407 77.1167 91.2515 75.638 91.2515 73.0134C91.2515 70.537 89.7407 69.1527 87.1898 69.1527H83.754V65.9887H89.5268C90.1572 65.9887 90.567 65.618 90.567 65.0247C90.567 64.4607 90.1572 64.0876 89.5268 64.0876H83.2676C82.277 64.0876 81.7344 64.6247 81.7344 65.618V75.5886C81.7321 76.5819 82.2747 77.1167 83.2676 77.1167ZM58.805 71.2359L60.6062 66.1078C60.676 65.9281 60.7346 65.8651 60.8697 65.8651C61.0025 65.8651 61.061 65.9281 61.1263 66.1078L62.9366 71.2359H58.805ZM66.7529 76.2583C66.7529 76.0762 66.7213 75.8987 66.6178 75.6246L62.9838 65.7236C62.5448 64.5146 61.9054 64 60.8877 64C59.8745 64 59.2306 64.5146 58.7938 65.7236L55.1351 75.6291C55.0225 75.9369 55 76.1212 55 76.265C55 76.7796 55.4098 77.2066 55.9794 77.2066C56.4455 77.2066 56.7944 76.9729 56.9881 76.4021L58.1724 73.0358H63.576L64.7693 76.4111C64.9584 76.9729 65.3074 77.2066 65.7667 77.2066C66.3453 77.2066 66.7529 76.7774 66.7529 76.2583Z" fill="#170030"/>
<path d="M225.447 79.4826C224.104 76.0821 220.788 74.2302 217.199 74.8783L209.823 76.2065C208.599 76.4269 207.786 77.5987 208.004 78.8232C208.224 80.0478 209.394 80.8616 210.617 80.6431L217.992 79.3149C219.747 78.9984 220.831 80.0497 221.26 81.1367C221.69 82.2256 221.615 83.7346 220.12 84.7048L209.295 91.7299C208.288 92.3818 207.064 92.427 206.016 91.8562C204.967 91.2853 204.338 90.2285 204.338 89.0322V66.2688C204.338 65.0236 203.332 64.0138 202.089 64.0138C200.845 64.0138 199.839 65.0236 199.839 66.2688V89.0359C199.839 91.9108 201.344 94.4465 203.866 95.8199C205.038 96.4567 206.3 96.7751 207.557 96.7751C209.007 96.7751 210.452 96.3549 211.742 95.5166L222.567 88.4915C225.633 86.5021 226.79 82.8831 225.447 79.4826ZM187.37 74.8802L179.994 76.2084C178.772 76.4288 177.959 77.6006 178.177 78.8251C178.397 80.0497 179.567 80.8635 180.79 80.645L188.165 79.3168C189.922 79.0003 191.004 80.0515 191.435 81.1386C191.864 82.2275 191.79 83.7365 190.293 84.7067L179.468 91.7318C178.463 92.3836 177.239 92.4289 176.189 91.858C175.14 91.2872 174.513 90.2303 174.513 89.0341V71.7397C174.513 68.863 173.008 66.3272 170.486 64.9538C167.964 63.5824 165.02 63.6954 162.61 65.2572L135.381 82.9264C132.317 84.9139 131.16 88.5329 132.503 91.9334C133.844 95.332 137.158 97.182 140.751 96.5358L164.525 92.2555C165.748 92.0351 166.562 90.8633 166.342 89.6388C166.122 88.4142 164.952 87.5985 163.729 87.8189L139.956 92.0992C138.199 92.4157 137.117 91.3645 136.688 90.2774C136.258 89.1885 136.331 87.6795 137.828 86.7074L165.052 69.0419C166.054 68.392 167.281 68.3449 168.33 68.9157C169.38 69.4884 170.006 70.5453 170.006 71.7416V89.0359C170.006 91.9108 171.511 94.4465 174.034 95.8199C175.205 96.4567 176.469 96.7751 177.726 96.7751C179.176 96.7751 180.619 96.3549 181.909 95.5166L192.736 88.4915C195.799 86.504 196.955 82.885 195.614 79.4845C194.277 76.0821 190.959 74.234 187.37 74.8802Z" fill="#009C32"/>
</svg>
