<svg width="280" height="160" viewBox="0 0 280 160" fill="none" xmlns="http://www.w3.org/2000/svg">
<rect x="0.5" y="0.5" width="279" height="159" rx="14.5" stroke="black" stroke-opacity="0.2"/>
<path d="M58 95.64H79.79V100.16H58V95.64ZM215.58 81.13L222.45 73.55H217.33L211.7 79.85V73.55H207.62V89.48H211.72V82.77L217.74 89.48H223L215.58 81.13ZM82.19 82.18C82.08 85.18 81.7 85.75 80.04 85.75V89.49H80.66C84.83 89.49 85.82 87.34 85.97 82.55L86.15 77.25H90V89.48H94.08V73.55H82.47L82.19 82.18ZM64.48 84.92H73.08L74.51 89.48H79.28L72.85 70.32C72.23 68.47 71.51 67 69.05 67C66.59 67 65.84 68.47 65.18 70.32L58.44 89.48H62.92L64.48 84.92ZM68.84 72H68.95L71.83 81.08H65.77L68.84 72ZM164.15 75.81H159.6V71.31H170.16V67.31H155.32V89.48H164.15C169.04 89.48 171.85 87.04 171.85 82.58C171.85 78.35 169 75.81 164.15 75.81ZM163.94 85.47H159.6V79.71H163.94C166.2 79.71 167.47 80.71 167.47 82.59C167.47 84.47 166.2 85.47 163.94 85.47ZM123.59 73.18V67.28H119.52V73.18C117.383 73.2505 115.361 74.1663 113.899 75.7262C112.436 77.2862 111.653 79.3628 111.72 81.5C111.647 83.6416 112.428 85.7244 113.891 87.2903C115.354 88.8563 117.378 89.777 119.52 89.85V95.85H123.6V89.85C124.661 89.8151 125.704 89.5714 126.671 89.1326C127.637 88.6939 128.508 88.0688 129.232 87.2932C129.957 86.5175 130.521 85.6066 130.893 84.6125C131.265 83.6184 131.437 82.5607 131.4 81.5C131.443 80.4386 131.274 79.3793 130.903 78.384C130.532 77.3886 129.966 76.4771 129.239 75.7026C128.512 74.9282 127.638 74.3062 126.668 73.8731C125.698 73.44 124.652 73.2044 123.59 73.18ZM119.53 86C118.45 85.8814 117.46 85.3431 116.774 84.5013C116.087 83.6595 115.759 82.5816 115.86 81.5C115.772 80.4211 116.105 79.35 116.789 78.5112C117.473 77.6723 118.455 77.1308 119.53 77V86ZM123.61 86V77C124.685 77.1308 125.667 77.6723 126.351 78.5112C127.035 79.35 127.368 80.4211 127.28 81.5C127.376 82.5805 127.046 83.6556 126.36 84.4963C125.674 85.3369 124.688 85.8765 123.61 86ZM146.69 84.59V79.22C146.69 75.3 144.2 72.85 140.02 72.85C135.84 72.85 133.4 75.45 133.2 78.16H137.33C137.47 77.58 138.09 76.55 140.01 76.55C140.369 76.5038 140.733 76.5416 141.074 76.6606C141.416 76.7796 141.725 76.9763 141.977 77.2354C142.229 77.4944 142.418 77.8086 142.528 78.153C142.638 78.4975 142.666 78.8628 142.61 79.22H138.61C134.99 79.22 132.84 81.13 132.84 84.29C132.812 85.0441 132.942 85.7957 133.223 86.4962C133.504 87.1967 133.928 87.8304 134.469 88.3564C135.01 88.8824 135.656 89.2889 136.364 89.5497C137.072 89.8104 137.827 89.9195 138.58 89.87C139.43 89.9147 140.278 89.7492 141.049 89.3882C141.82 89.0271 142.49 88.4817 143 87.8C143.332 88.3615 143.816 88.8173 144.397 89.1146C144.977 89.412 145.63 89.5387 146.28 89.48H147.69V85.8C147 85.8 146.69 85.47 146.69 84.59ZM142.61 83.59C142.627 83.9839 142.56 84.3769 142.413 84.743C142.267 85.1091 142.045 85.4401 141.762 85.7141C141.478 85.9881 141.14 86.1989 140.769 86.3327C140.398 86.4664 140.003 86.52 139.61 86.49C138.14 86.49 136.98 85.96 136.98 84.37C136.98 82.78 138.27 82.55 139.36 82.55H142.61V83.59ZM104.24 78.39H101.31V73.55H97.23V89.48H104.31C108.74 89.48 110.31 86.6 110.31 83.88C110.33 80.37 108.13 78.39 104.24 78.39ZM103.94 86H101.31V82H103.94C105.35 82 106.2 82.64 106.2 84C106.2 85.36 105.39 86 103.94 86ZM187.42 84.59V79.22C187.42 75.3 184.93 72.85 180.75 72.85C176.57 72.85 174.13 75.45 173.93 78.16H178.06C178.2 77.58 178.82 76.55 180.74 76.55C181.099 76.5038 181.463 76.5416 181.804 76.6606C182.146 76.7796 182.455 76.9763 182.707 77.2354C182.959 77.4944 183.148 77.8086 183.258 78.153C183.368 78.4975 183.396 78.8628 183.34 79.22H179.34C175.72 79.22 173.57 81.13 173.57 84.29C173.542 85.0441 173.672 85.7957 173.953 86.4962C174.233 87.1967 174.658 87.8304 175.199 88.3564C175.74 88.8824 176.386 89.2889 177.094 89.5497C177.802 89.8104 178.557 89.9195 179.31 89.87C180.168 89.9231 181.026 89.7617 181.807 89.4004C182.587 89.039 183.265 88.489 183.78 87.8C184.107 88.3517 184.582 88.8012 185.151 89.098C185.72 89.3948 186.36 89.5271 187 89.48H188.41V85.8C187.7 85.8 187.42 85.47 187.42 84.59ZM183.36 83.59C183.375 83.9835 183.307 84.3757 183.16 84.7411C183.013 85.1065 182.791 85.4368 182.508 85.7105C182.225 85.9841 181.887 86.195 181.517 86.3294C181.147 86.4637 180.753 86.5184 180.36 86.49C178.89 86.49 177.73 85.96 177.73 84.37C177.73 82.78 179.02 82.55 180.11 82.55H183.36V83.59ZM200.45 79.48H194.82V73.55H190.74V89.49H194.82V83.21H200.45V89.48H204.53V73.55H200.45V79.48Z" fill="#EF3124"/>
</svg>
