<svg width="50" height="80" viewBox="0 0 50 80" fill="none" xmlns="http://www.w3.org/2000/svg">
<path d="M6.80941 46.2928C5.99582 47.1065 5.99582 48.4255 6.80941 49.2392L20.6521 63.0818C23.0922 65.5219 27.0481 65.5226 29.4891 63.0835L43.1878 49.3953C44.0016 48.5817 44.0016 47.2626 43.1878 46.449C42.3743 45.6355 41.0551 45.6355 40.2416 46.449L26.5499 60.1408C25.7362 60.9543 24.4172 60.9543 23.6037 60.1408L9.7557 46.2928C8.94209 45.4792 7.62301 45.4792 6.80941 46.2928Z" fill="#DB3544"/>
<path d="M6.80941 31.2928C5.99582 32.1065 5.99582 33.4255 6.80941 34.2392L20.6521 48.0818C23.0922 50.5219 27.0481 50.5226 29.4891 48.0835L43.1878 34.3953C44.0016 33.5817 44.0016 32.2626 43.1878 31.449C42.3743 30.6355 41.0551 30.6355 40.2416 31.449L26.5499 45.1408C25.7362 45.9543 24.4172 45.9543 23.6037 45.1408L9.7557 31.2928C8.94209 30.4792 7.62301 30.4792 6.80941 31.2928Z" fill="#DB3544"/>
<path d="M6.80941 16.2928C5.99582 17.1065 5.99582 18.4255 6.80941 19.2392L20.6521 33.0818C23.0922 35.5219 27.0481 35.5226 29.4891 33.0835L43.1878 19.3953C44.0016 18.5817 44.0016 17.2626 43.1878 16.449C42.3743 15.6355 41.0551 15.6355 40.2416 16.449L26.5499 30.1408C25.7362 30.9543 24.4172 30.9543 23.6037 30.1408L9.7557 16.2928C8.94209 15.4792 7.62301 15.4792 6.80941 16.2928Z" fill="#DB3544"/>
</svg>
