<svg width="57" height="110" viewBox="0 0 57 110" fill="none" xmlns="http://www.w3.org/2000/svg">
<path d="M44.5394 47.0706L45.456 46.6708L44.5394 47.0706ZM47.9317 108.693C48.2656 109.133 48.8929 109.219 49.3328 108.885L56.5017 103.443C56.9416 103.11 57.0275 102.482 56.6936 102.042C56.3597 101.602 55.7324 101.516 55.2925 101.85L48.9202 106.687L44.0835 100.315C43.7496 99.8748 43.1223 99.7888 42.6824 100.123C42.2425 100.457 42.1565 101.084 42.4904 101.524L47.9317 108.693ZM0.999312 1.65275C0.437528 2.48003 0.437525 2.48003 0.437654 2.48012C0.437867 2.48026 0.43812 2.48043 0.438547 2.48072C0.439398 2.4813 0.44076 2.48223 0.442629 2.4835C0.446367 2.48605 0.452133 2.48998 0.459902 2.49528C0.475436 2.50589 0.498976 2.52199 0.5303 2.5435C0.592947 2.58651 0.68673 2.65115 0.809891 2.7367C1.05622 2.90779 1.42004 3.16252 1.88729 3.49519C2.82185 4.16056 4.16992 5.13755 5.81915 6.38074C9.11839 8.86769 13.6189 12.4169 18.4233 16.6652C28.0655 25.1912 38.8047 36.4238 43.6228 47.4704L45.456 46.6708C40.4511 35.1959 29.4203 23.7195 19.7482 15.167C14.8955 10.876 10.3527 7.29356 7.02303 4.78365C5.3578 3.52841 3.99498 2.54068 3.04727 1.86594C2.57339 1.52855 2.20322 1.26936 1.95085 1.09407C1.82466 1.00642 1.72791 0.939739 1.66237 0.894735C1.6296 0.872234 1.60463 0.855151 1.58767 0.843576C1.5792 0.837789 1.57273 0.833379 1.56829 0.830356C1.56607 0.828845 1.56436 0.827681 1.56316 0.826865C1.56256 0.826457 1.56204 0.826107 1.56174 0.825903C1.56136 0.82564 1.5611 0.825464 0.999312 1.65275ZM43.6228 47.4704C48.3067 58.2092 49.3609 73.2797 49.2147 85.7776C49.1419 92.0051 48.7721 97.5537 48.4204 101.545C48.2446 103.54 48.0735 105.145 47.9464 106.25C47.8829 106.802 47.8305 107.23 47.794 107.518C47.7758 107.662 47.7615 107.772 47.7519 107.844C47.7471 107.881 47.7434 107.908 47.741 107.926C47.7398 107.935 47.7389 107.942 47.7383 107.946C47.738 107.949 47.7378 107.95 47.7376 107.951C47.7376 107.952 47.7375 107.952 47.7375 107.952C47.7375 107.952 47.7375 107.952 48.7282 108.088C49.719 108.224 49.719 108.224 49.7191 108.223C49.7191 108.223 49.7192 108.222 49.7193 108.221C49.7195 108.22 49.7198 108.218 49.7201 108.216C49.7208 108.21 49.7218 108.203 49.7232 108.193C49.7258 108.173 49.7297 108.144 49.7347 108.106C49.7448 108.03 49.7595 107.917 49.7782 107.769C49.8156 107.473 49.8689 107.039 49.9334 106.478C50.0622 105.358 50.2352 103.735 50.4127 101.721C50.7676 97.6921 51.141 92.0912 51.2146 85.801C51.3613 73.2634 50.3211 57.8251 45.456 46.6708L43.6228 47.4704Z" fill="#DB3544"/>
</svg>
