<svg width="100" height="100" viewBox="0 0 100 100" fill="none" xmlns="http://www.w3.org/2000/svg">
<g clip-path="url(#clip0_2_2373)">
<path d="M83.3334 0H16.6667C14.8284 0 13.3333 1.49492 13.3333 3.3334V96.6668C13.3333 98.5051 14.8282 100 16.6667 100H83.3332C85.17 100 86.6666 98.5053 86.6666 96.6668V3.3334C86.6666 1.49492 85.17 0 83.3334 0ZM41.6666 90H25C24.0784 90 23.3334 89.2533 23.3334 88.3334C23.3334 87.4135 24.0784 86.6668 25 86.6668H41.6666C42.5866 86.6668 43.3333 87.4135 43.3333 88.3334C43.3334 89.2533 42.5868 90 41.6666 90ZM48.3334 83.3334H25C24.0784 83.3334 23.3334 82.5867 23.3334 81.6668C23.3334 80.7469 24.0784 80.0002 25 80.0002H48.3334C49.2534 80.0002 50 80.7469 50 81.6668C50 82.5867 49.2534 83.3334 48.3334 83.3334ZM23.3334 68.3334C23.3334 67.4135 24.0784 66.6668 25 66.6668H41.6666C42.5866 66.6668 43.3333 67.4135 43.3333 68.3334C43.3333 69.2533 42.5866 70 41.6666 70H25C24.0784 70 23.3334 69.2533 23.3334 68.3334ZM48.3334 63.3334H25C24.0784 63.3334 23.3334 62.5867 23.3334 61.6668C23.3334 60.7469 24.0784 60.0002 25 60.0002H48.3334C49.2534 60.0002 50 60.7469 50 61.6668C50 62.5867 49.2534 63.3334 48.3334 63.3334ZM23.3334 48.3334C23.3334 47.4135 24.0784 46.6668 25 46.6668H41.6666C42.5866 46.6668 43.3333 47.4135 43.3333 48.3334C43.3333 49.2533 42.5868 50 41.6666 50H25C24.0784 50 23.3334 49.2533 23.3334 48.3334ZM48.3334 43.3334H25C24.0784 43.3334 23.3334 42.5867 23.3334 41.6668C23.3334 40.7469 24.0784 40.0002 25 40.0002H48.3334C49.2534 40.0002 50 40.7469 50 41.6668C50 42.5867 49.2534 43.3334 48.3334 43.3334ZM55 28.3334C54.0784 28.3334 53.3334 27.5867 53.3334 26.6668V15.69L50 12.3566L46.6666 15.69V26.6668C46.6666 27.5867 45.92 28.3334 45 28.3334C44.0784 28.3334 43.3334 27.5867 43.3334 26.6668V19.0232L41.1784 21.1783C40.5266 21.8301 39.4717 21.8301 38.82 21.1783C38.17 20.5268 38.17 19.4732 38.82 18.8217L43.82 13.8234L43.8217 13.8201L48.82 8.82187C49.4717 8.17012 50.5266 8.17012 51.1784 8.82187L56.1766 13.8201L56.1784 13.8234L61.1784 18.8217C61.8284 19.4734 61.8284 20.5268 61.1784 21.1783C60.8516 21.5033 60.425 21.6666 60 21.6666C59.5733 21.6666 59.1467 21.5033 58.82 21.1783L56.6666 19.0232V26.6666C56.6666 27.5867 55.92 28.3334 55 28.3334ZM73.0217 77.635L64.6883 89.3016C64.4034 89.6998 63.9583 89.9533 63.47 89.9949C63.4233 89.9982 63.3784 90 63.3332 90C62.8932 90 62.4682 89.825 62.1532 89.5117L57.1532 84.5117C56.5032 83.86 56.5032 82.8066 57.1532 82.1551C57.8049 81.5033 58.8598 81.5033 59.5116 82.1551L63.12 85.7635L70.31 75.6984C70.845 74.9484 71.8868 74.7768 72.635 75.3102C73.3834 75.8449 73.5567 76.8867 73.0217 77.635ZM73.0217 57.635L64.6883 69.3016C64.4034 69.6998 63.9583 69.9531 63.47 69.9949C63.4233 69.9982 63.3784 70 63.3332 70C62.8932 70 62.4682 69.825 62.1532 69.5117L57.1532 64.5117C56.5032 63.86 56.5032 62.8066 57.1532 62.1551C57.8049 61.5035 58.8598 61.5035 59.5116 62.1551L63.12 65.7635L70.31 55.6984C70.845 54.9502 71.8868 54.7768 72.635 55.3102C73.3834 55.8449 73.5567 56.8867 73.0217 57.635ZM73.0217 37.635L64.6883 49.3016C64.4034 49.6998 63.9583 49.9531 63.47 49.9949C63.4233 49.9982 63.3784 50 63.3332 50C62.8932 50 62.4682 49.825 62.1532 49.5117L57.1532 44.5117C56.5032 43.8602 56.5032 42.8066 57.1532 42.1551C57.8049 41.5033 58.8598 41.5033 59.5116 42.1551L63.12 45.7635L70.31 35.6984C70.845 34.9502 71.8868 34.7785 72.635 35.3102C73.3834 35.8449 73.5567 36.8867 73.0217 37.635Z" fill="white"/>
</g>
<defs>
<clipPath id="clip0_2_2373">
<rect width="100" height="100" fill="white"/>
</clipPath>
</defs>
</svg>
