<svg width="60" height="60" viewBox="0 0 60 60" fill="none" xmlns="http://www.w3.org/2000/svg">
<g clip-path="url(#clip0_199_285)">
<path d="M59.0323 54.1798H58.0645V15.4702C58.0645 15.2254 57.9714 14.9891 57.8041 14.8096L44.2558 0.293441C43.8891 -0.0978138 43.2067 -0.0978138 42.8401 0.293441L30 14.0516L17.159 0.293441C16.7923 -0.0978138 16.11 -0.0978138 15.7433 0.293441L2.1949 14.8096C2.02857 14.9891 1.93548 15.2254 1.93548 15.4702V54.1798H0.967742C0.432365 54.1798 0 54.6127 0 55.1476V59.0186C0 59.5539 0.432365 59.9863 0.967742 59.9863H59.0323C59.5676 59.9863 60 59.5539 60 59.0186V55.1476C60 54.6127 59.5676 54.1798 59.0323 54.1798ZM52.2581 54.1798V42.5669C52.2581 42.032 51.8257 41.5992 51.2903 41.5992H35.8064C35.2711 41.5992 34.8387 42.032 34.8387 42.5669V54.1798H30.9677V16.4379H56.129V54.1798H52.2581ZM36.7742 54.1798V43.5347H42.5806V54.1798H36.7742ZM44.5161 43.5347H50.3226V54.1798H44.5161V43.5347ZM43.5484 2.37305L54.8693 14.5024H32.2275L43.5484 2.37305ZM16.4516 2.37305L27.7725 14.5024H5.13073L16.4516 2.37305ZM3.87097 16.4379H29.0323V54.1798H25.1613V42.5669C25.1613 42.032 24.7289 41.5992 24.1935 41.5992H8.70968C8.1743 41.5992 7.74194 42.032 7.74194 42.5669V54.1798H3.87097V16.4379ZM9.67742 54.1798V43.5347H15.4839V54.1798H9.67742ZM17.4194 43.5347H23.2258V54.1798H17.4194V43.5347ZM58.0645 58.0508H1.93548V56.1153H58.0645V58.0508Z" fill="black"/>
<path d="M40.6455 13.5347H46.4519C46.9873 13.5347 47.4197 13.1023 47.4197 12.567V9.89812C47.4197 8.87887 47.0067 7.88136 46.2856 7.16123C44.8241 5.70016 42.2733 5.70016 40.8118 7.16123C40.0907 7.88136 39.6777 8.87887 39.6777 9.89812V12.567C39.6777 13.1023 40.1101 13.5347 40.6455 13.5347ZM41.6132 9.89812C41.6132 9.38921 41.8202 8.88974 42.1803 8.52967C42.9344 7.77599 44.163 7.77599 44.9171 8.52967C45.2772 8.88974 45.4842 9.38921 45.4842 9.89812V11.5992H41.6132V9.89812Z" fill="black"/>
<path d="M13.5488 13.5347H19.3552C19.8906 13.5347 20.323 13.1023 20.323 12.567V9.89812C20.323 8.87887 19.91 7.88136 19.1889 7.16123C17.7274 5.70016 15.1767 5.70016 13.7151 7.16123C12.994 7.88136 12.5811 8.87887 12.5811 9.89812V12.567C12.5811 13.1023 13.0134 13.5347 13.5488 13.5347ZM14.5165 9.89812C14.5165 9.38921 14.7235 8.88974 15.0836 8.52967C15.8377 7.77599 17.0663 7.77599 17.8205 8.52967C18.1805 8.88974 18.3875 9.38921 18.3875 9.89812V11.5992H14.5165V9.89812Z" fill="black"/>
<path d="M37.742 18.3733H33.8711C33.3357 18.3733 32.9033 18.8061 32.9033 19.341V23.212C32.9033 23.7474 33.3357 24.1797 33.8711 24.1797H37.742C38.2774 24.1797 38.7098 23.7474 38.7098 23.212V19.341C38.7098 18.8061 38.2774 18.3733 37.742 18.3733ZM36.7743 22.2443H34.8388V20.3088H36.7743V22.2443Z" fill="black"/>
<path d="M45.4842 18.3733H41.6132C41.0779 18.3733 40.6455 18.8061 40.6455 19.341V23.212C40.6455 23.7474 41.0779 24.1797 41.6132 24.1797H45.4842C46.0196 24.1797 46.452 23.7474 46.452 23.212V19.341C46.452 18.8061 46.0196 18.3733 45.4842 18.3733ZM44.5165 22.2443H42.581V20.3088H44.5165V22.2443Z" fill="black"/>
<path d="M53.2254 18.3733H49.3545C48.8191 18.3733 48.3867 18.8061 48.3867 19.341V23.212C48.3867 23.7474 48.8191 24.1797 49.3545 24.1797H53.2254C53.7608 24.1797 54.1932 23.7474 54.1932 23.212V19.341C54.1932 18.8061 53.7608 18.3733 53.2254 18.3733ZM52.2577 22.2443H50.3222V20.3088H52.2577V22.2443Z" fill="black"/>
<path d="M37.742 26.1152H33.8711C33.3357 26.1152 32.9033 26.5481 32.9033 27.083V30.9539C32.9033 31.4893 33.3357 31.9217 33.8711 31.9217H37.742C38.2774 31.9217 38.7098 31.4893 38.7098 30.9539V27.083C38.7098 26.5481 38.2774 26.1152 37.742 26.1152ZM36.7743 29.9862H34.8388V28.0507H36.7743V29.9862Z" fill="black"/>
<path d="M45.4842 26.1152H41.6132C41.0779 26.1152 40.6455 26.5481 40.6455 27.083V30.9539C40.6455 31.4893 41.0779 31.9217 41.6132 31.9217H45.4842C46.0196 31.9217 46.452 31.4893 46.452 30.9539V27.083C46.452 26.5481 46.0196 26.1152 45.4842 26.1152ZM44.5165 29.9862H42.581V28.0507H44.5165V29.9862Z" fill="black"/>
<path d="M53.2254 26.1152H49.3545C48.8191 26.1152 48.3867 26.5481 48.3867 27.083V30.9539C48.3867 31.4893 48.8191 31.9217 49.3545 31.9217H53.2254C53.7608 31.9217 54.1932 31.4893 54.1932 30.9539V27.083C54.1932 26.5481 53.7608 26.1152 53.2254 26.1152ZM52.2577 29.9862H50.3222V28.0507H52.2577V29.9862Z" fill="black"/>
<path d="M37.742 33.8572H33.8711C33.3357 33.8572 32.9033 34.29 32.9033 34.8249V38.6959C32.9033 39.2313 33.3357 39.6636 33.8711 39.6636H37.742C38.2774 39.6636 38.7098 39.2313 38.7098 38.6959V34.8249C38.7098 34.29 38.2774 33.8572 37.742 33.8572ZM36.7743 37.7281H34.8388V35.7927H36.7743V37.7281Z" fill="black"/>
<path d="M45.4842 33.8572H41.6132C41.0779 33.8572 40.6455 34.29 40.6455 34.8249V38.6959C40.6455 39.2313 41.0779 39.6636 41.6132 39.6636H45.4842C46.0196 39.6636 46.452 39.2313 46.452 38.6959V34.8249C46.452 34.29 46.0196 33.8572 45.4842 33.8572ZM44.5165 37.7281H42.581V35.7927H44.5165V37.7281Z" fill="black"/>
<path d="M53.2254 33.8572H49.3545C48.8191 33.8572 48.3867 34.29 48.3867 34.8249V38.6959C48.3867 39.2313 48.8191 39.6636 49.3545 39.6636H53.2254C53.7608 39.6636 54.1932 39.2313 54.1932 38.6959V34.8249C54.1932 34.29 53.7608 33.8572 53.2254 33.8572ZM52.2577 37.7281H50.3222V35.7927H52.2577V37.7281Z" fill="black"/>
<path d="M6.77438 24.1797H10.6453C11.1807 24.1797 11.6131 23.7474 11.6131 23.212V19.341C11.6131 18.8061 11.1807 18.3733 10.6453 18.3733H6.77438C6.23901 18.3733 5.80664 18.8061 5.80664 19.341V23.212C5.80664 23.7474 6.23901 24.1797 6.77438 24.1797ZM7.74212 20.3088H9.67761V22.2443H7.74212V20.3088Z" fill="black"/>
<path d="M14.5166 24.1797H18.3875C18.9229 24.1797 19.3553 23.7474 19.3553 23.212V19.341C19.3553 18.8061 18.9229 18.3733 18.3875 18.3733H14.5166C13.9812 18.3733 13.5488 18.8061 13.5488 19.341V23.212C13.5488 23.7474 13.9812 24.1797 14.5166 24.1797ZM15.4843 20.3088H17.4198V22.2443H15.4843V20.3088Z" fill="black"/>
<path d="M22.2578 24.1797H26.1287C26.6641 24.1797 27.0965 23.7474 27.0965 23.212V19.341C27.0965 18.8061 26.6641 18.3733 26.1287 18.3733H22.2578C21.7224 18.3733 21.29 18.8061 21.29 19.341V23.212C21.29 23.7474 21.7224 24.1797 22.2578 24.1797ZM23.2255 20.3088H25.161V22.2443H23.2255V20.3088Z" fill="black"/>
<path d="M6.77438 31.9217H10.6453C11.1807 31.9217 11.6131 31.4893 11.6131 30.9539V27.083C11.6131 26.5481 11.1807 26.1152 10.6453 26.1152H6.77438C6.23901 26.1152 5.80664 26.5481 5.80664 27.083V30.9539C5.80664 31.4893 6.23901 31.9217 6.77438 31.9217ZM7.74212 28.0507H9.67761V29.9862H7.74212V28.0507Z" fill="black"/>
<path d="M14.5166 31.9217H18.3875C18.9229 31.9217 19.3553 31.4893 19.3553 30.9539V27.083C19.3553 26.5481 18.9229 26.1152 18.3875 26.1152H14.5166C13.9812 26.1152 13.5488 26.5481 13.5488 27.083V30.9539C13.5488 31.4893 13.9812 31.9217 14.5166 31.9217ZM15.4843 28.0507H17.4198V29.9862H15.4843V28.0507Z" fill="black"/>
<path d="M22.2578 31.9217H26.1287C26.6641 31.9217 27.0965 31.4893 27.0965 30.9539V27.083C27.0965 26.5481 26.6641 26.1152 26.1287 26.1152H22.2578C21.7224 26.1152 21.29 26.5481 21.29 27.083V30.9539C21.29 31.4893 21.7224 31.9217 22.2578 31.9217ZM23.2255 28.0507H25.161V29.9862H23.2255V28.0507Z" fill="black"/>
<path d="M10.6453 39.6636C11.1807 39.6636 11.6131 39.2313 11.6131 38.6959V34.8249C11.6131 34.29 11.1807 33.8572 10.6453 33.8572H6.77438C6.23901 33.8572 5.80664 34.29 5.80664 34.8249V38.6959C5.80664 39.2313 6.23901 39.6636 6.77438 39.6636H10.6453ZM7.74212 35.7927H9.67761V37.7281H7.74212V35.7927Z" fill="black"/>
<path d="M14.5166 39.6636H18.3875C18.9229 39.6636 19.3553 39.2313 19.3553 38.6959V34.8249C19.3553 34.29 18.9229 33.8572 18.3875 33.8572H14.5166C13.9812 33.8572 13.5488 34.29 13.5488 34.8249V38.6959C13.5488 39.2313 13.9812 39.6636 14.5166 39.6636ZM15.4843 35.7927H17.4198V37.7281H15.4843V35.7927Z" fill="black"/>
<path d="M22.2578 39.6636H26.1287C26.6641 39.6636 27.0965 39.2313 27.0965 38.6959V34.8249C27.0965 34.29 26.6641 33.8572 26.1287 33.8572H22.2578C21.7224 33.8572 21.29 34.29 21.29 34.8249V38.6959C21.29 39.2313 21.7224 39.6636 22.2578 39.6636ZM23.2255 35.7927H25.161V37.7281H23.2255V35.7927Z" fill="black"/>
</g>
<defs>
<clipPath id="clip0_199_285">
<rect width="60" height="60" fill="white"/>
</clipPath>
</defs>
</svg>
