<svg width="60" height="60" viewBox="0 0 60 60" fill="none" xmlns="http://www.w3.org/2000/svg">
<path d="M59.1211 50.8288H46.1677V48.7675L57.3489 48.768C58.268 48.768 59.0157 48.0202 59.0157 47.101V40.9029C59.0157 39.9838 58.268 39.2361 57.3489 39.2361H52.3195V33.3538C52.3195 32.8683 51.9261 32.4749 51.4406 32.4749C50.9551 32.4749 50.5617 32.8683 50.5617 33.3538V47.0097H48.2235C49.3622 46.1295 50.0977 44.7514 50.0977 43.204C50.0977 41.8633 49.2316 39.6606 48.4213 38.0464C47.4264 36.0645 46.6903 35.1688 46.1682 34.763V19.9305L50.562 18.15V29.6923C50.562 30.1778 50.9554 30.5712 51.4409 30.5712C51.9264 30.5712 52.3198 30.1778 52.3198 29.6923V18.015C52.3198 17.4597 52.0448 16.943 51.5843 16.6326C51.1237 16.3223 50.5416 16.2617 50.0269 16.4702L37.8375 21.4096V9.08008C37.8375 8.16086 37.0897 7.41309 36.1705 7.41309H18.5889C18.1034 7.41309 17.71 7.80648 17.71 8.29199C17.71 8.7775 18.1034 9.1709 18.5889 9.1709H36.0798V22.1219L21.7745 27.9188C21.3246 28.1011 21.1077 28.6136 21.2899 29.0635C21.4721 29.5134 21.9844 29.7304 22.4346 29.548L26.1231 28.0534V47.0097H23.6625V39.2812C23.6625 38.7957 23.2691 38.4023 22.7836 38.4023H13.1955C12.71 38.4023 12.3166 38.7957 12.3166 39.2812V47.0097H9.53438V46.3334C9.53438 46.3288 9.53379 46.3245 9.53367 46.3199C10.2502 45.4799 10.6841 44.392 10.6841 43.204C10.6841 42.1478 10.1463 40.5576 9.52219 39.1407C9.52945 39.0951 9.53438 39.0486 9.53438 39.001V34.7758L18.773 31.0325C19.2229 30.8501 19.4398 30.3377 19.2575 29.8878C19.0753 29.4379 18.5631 29.2207 18.1129 29.4032L11.557 32.0597V29.0537H11.8378C12.7478 29.0537 13.488 28.3135 13.488 27.4034V26.9417H14.3292C14.8147 26.9417 15.2081 26.5483 15.2081 26.0628C15.2081 25.5773 14.8147 25.1839 14.3292 25.1839H13.488V23.4756H14.3292C14.8147 23.4756 15.2081 23.0822 15.2081 22.5967C15.2081 22.1112 14.8147 21.7178 14.3292 21.7178H13.4364C13.256 21.0021 12.6087 20.4701 11.8378 20.4701H11.557V19.202H11.8378C12.7478 19.202 13.488 18.4618 13.488 17.5518V17.0901H14.3292C14.8147 17.0901 15.2081 16.6967 15.2081 16.2112C15.2081 15.7257 14.8147 15.3323 14.3292 15.3323H13.488V13.624H14.3292C14.8147 13.624 15.2081 13.2306 15.2081 12.7451C15.2081 12.2596 14.8147 11.8662 14.3292 11.8662H13.4364C13.256 11.1504 12.6087 10.6184 11.8378 10.6184H11.557V9.17102H14.9273C15.4129 9.17102 15.8063 8.77762 15.8063 8.29211C15.8063 7.8066 15.4129 7.4132 14.9273 7.4132H11.4656C10.5468 7.4132 9.79922 8.16074 9.79922 9.07973V10.6182H6.55465C5.64457 10.6182 4.9043 11.3584 4.9043 12.2685V17.5517C4.9043 18.4616 5.64457 19.2019 6.55465 19.2019H9.79922V20.47H6.55465C5.64457 20.47 4.9043 21.2103 4.9043 22.1202V27.4034C4.9043 28.3135 5.64457 29.0537 6.55465 29.0537H9.79922V32.772L8.81719 33.17C8.18496 33.4264 7.77656 34.0327 7.77656 34.7146V35.9172C6.74039 34.4279 6.14285 34.4266 5.8752 34.4266C5.51414 34.4266 4.55484 34.4266 2.73937 38.0471C1.93066 39.6599 1.06641 41.8619 1.06641 43.2041C1.06641 45.5555 2.76328 47.5168 4.99641 47.9311V50.8289H0.878906C0.393398 50.8289 0 51.2223 0 51.7079C0 52.1934 0.393398 52.5868 0.878906 52.5868H59.1211C59.6066 52.5868 60 52.1934 60 51.7079C60 51.2223 59.6066 50.8288 59.1211 50.8288ZM52.3199 40.994H57.2579V47.0102H52.3199V40.994ZM6.66211 17.444V12.3759H11.7302V17.444H6.66211ZM6.66211 27.2959V22.2278H11.7302V27.2959H6.66211ZM40.0723 22.4008L44.4107 20.6427V34.76H44.4105C43.8873 35.1644 43.1494 36.0597 42.1529 38.0468C41.3441 39.6599 40.4798 41.8619 40.4798 43.2041C40.4798 44.7515 41.2152 46.1295 42.354 47.0098H40.0723V22.4008ZM33.9762 24.871L38.3143 23.1132V47.0097H36.0321C37.1708 46.1295 37.9063 44.7514 37.9063 43.204C37.9063 41.8633 37.0404 39.6606 36.23 38.0464C35.2345 36.0634 34.4981 35.1678 33.9762 34.7623V24.871ZM32.2184 25.5835V34.7608C31.6952 35.1655 30.9574 36.061 29.9616 38.047C29.1527 39.66 28.2885 41.862 28.2885 43.2043C28.2885 44.7516 29.0238 46.1296 30.1627 47.0099H27.8809V27.3412H27.8808L32.2184 25.5835ZM18.8684 40.1601H21.9046V47.0097H18.8684V40.1601ZM14.0743 40.1601H17.1105V47.0097H14.0743V40.1601ZM2.82422 43.2041C2.82422 42.4361 3.35531 40.8154 4.14563 39.1712C4.84852 37.7091 5.51004 36.7275 5.87859 36.3257C6.82793 37.3386 8.92641 41.5401 8.92641 43.2041C8.92641 44.8865 7.55766 46.2552 5.87531 46.2552C4.19297 46.2552 2.82422 44.8865 2.82422 43.2041ZM32.2185 50.8288H6.75422V47.9311C7.11023 47.8652 7.45266 47.7604 7.77668 47.6203V47.8886C7.77668 48.3741 8.17008 48.7675 8.65559 48.7675H32.2185V50.8288ZM33.0973 46.255C33.0962 46.255 33.0953 46.2551 33.0943 46.2551C31.4134 46.2535 30.0463 44.8854 30.0463 43.2041C30.0463 42.4361 30.5774 40.8154 31.3677 39.1712C32.0706 37.7091 32.732 36.7275 33.1007 36.3256C34.05 37.3384 36.1485 41.54 36.1485 43.204C36.1485 44.8854 34.7814 46.2535 33.1003 46.2551C33.0993 46.2551 33.0983 46.255 33.0973 46.255ZM44.4098 50.8288H33.9763V48.7675H44.4098V50.8288ZM45.2895 46.255C45.2884 46.255 45.2873 46.2551 45.2862 46.2551C43.605 46.2537 42.2377 44.8855 42.2377 43.204C42.2377 42.4359 42.7686 40.8152 43.5591 39.1711C44.262 37.709 44.9234 36.7274 45.2919 36.3256C46.2412 37.3384 48.3398 41.5401 48.3398 43.2041C48.3398 44.8853 46.973 46.2532 45.2923 46.2551C45.2913 46.2551 45.2904 46.255 45.2895 46.255Z" fill="black"/>
<path d="M34.5464 10.9731H20.4766C19.9911 10.9731 19.5977 11.3665 19.5977 11.8521V15.1828C19.5977 15.6683 19.9911 16.0617 20.4766 16.0617H34.5464C35.032 16.0617 35.4254 15.6683 35.4254 15.1828V11.8521C35.4254 11.3665 35.032 10.9731 34.5464 10.9731ZM33.6675 14.3038H21.3555V12.731H33.6675V14.3038Z" fill="black"/>
</svg>
