<svg width="60" height="60" viewBox="0 0 60 60" fill="none" xmlns="http://www.w3.org/2000/svg">
<path d="M57.6188 16.0406L30.4313 1.97812C30.298 1.90908 30.1501 1.87305 30 1.87305C29.8499 1.87305 29.702 1.90908 29.5688 1.97812L2.38125 16.0406C2.22839 16.1198 2.10029 16.2396 2.01099 16.3867C1.92169 16.5339 1.87464 16.7028 1.875 16.875V21.5625C1.87467 21.7236 1.91585 21.8821 1.99459 22.0226C2.07333 22.1632 2.18696 22.2811 2.32453 22.3649C2.46209 22.4488 2.61894 22.4958 2.77996 22.5014C2.94097 22.507 3.1007 22.471 3.24375 22.3969L5.625 21.1594V57.1875C5.625 57.4361 5.72377 57.6746 5.89959 57.8504C6.07541 58.0262 6.31386 58.125 6.5625 58.125H53.4375C53.6861 58.125 53.9246 58.0262 54.1004 57.8504C54.2762 57.6746 54.375 57.4361 54.375 57.1875V21.1594L56.7563 22.3969C56.8897 22.4652 57.0376 22.5006 57.1875 22.5C57.4361 22.5 57.6746 22.4012 57.8504 22.2254C58.0262 22.0496 58.125 21.8111 58.125 21.5625V16.875C58.1254 16.7028 58.0783 16.5339 57.989 16.3867C57.8997 16.2396 57.7716 16.1198 57.6188 16.0406ZM52.5 56.25H7.5V20.1937L19.6875 13.8937V16.875H16.875C16.6264 16.875 16.3879 16.9738 16.2121 17.1496C16.0363 17.3254 15.9375 17.5639 15.9375 17.8125V25.3125C15.9375 25.5611 16.0363 25.7996 16.2121 25.9754C16.3879 26.1512 16.6264 26.25 16.875 26.25H22.9969C23.7687 27.3985 24.8112 28.3396 26.0324 28.9903C27.2537 29.641 28.6162 29.9814 30 29.9814C31.3838 29.9814 32.7463 29.641 33.9676 28.9903C35.1888 28.3396 36.2313 27.3985 37.0031 26.25H43.125C43.3736 26.25 43.6121 26.1512 43.7879 25.9754C43.9637 25.7996 44.0625 25.5611 44.0625 25.3125V17.8125C44.0625 17.5639 43.9637 17.3254 43.7879 17.1496C43.6121 16.9738 43.3736 16.875 43.125 16.875H40.3125V13.8937L52.5 20.1937V56.25ZM23.5125 18.75C23.6761 18.749 23.8366 18.7052 23.978 18.623C24.1195 18.5408 24.2369 18.4229 24.3188 18.2812C24.895 17.2846 25.7233 16.457 26.7205 15.8817C27.7177 15.3064 28.8487 15.0035 30 15.0035C31.1513 15.0035 32.2823 15.3064 33.2795 15.8817C34.2767 16.457 35.105 17.2846 35.6813 18.2812C35.7631 18.4229 35.8805 18.5408 36.022 18.623C36.1634 18.7052 36.3239 18.749 36.4875 18.75H42.1875V24.375H36.4875C36.3239 24.376 36.1634 24.4198 36.022 24.502C35.8805 24.5842 35.7631 24.7021 35.6813 24.8437C35.105 25.8404 34.2767 26.668 33.2795 27.2433C32.2823 27.8186 31.1513 28.1215 30 28.1215C28.8487 28.1215 27.7177 27.8186 26.7205 27.2433C25.7233 26.668 24.895 25.8404 24.3188 24.8437C24.2369 24.7021 24.1195 24.5842 23.978 24.502C23.8366 24.4198 23.6761 24.376 23.5125 24.375H17.8125V18.75H23.5125ZM37.0031 16.875C36.2313 15.7265 35.1888 14.7854 33.9676 14.1347C32.7463 13.484 31.3838 13.1436 30 13.1436C28.6162 13.1436 27.2537 13.484 26.0324 14.1347C24.8112 14.7854 23.7687 15.7265 22.9969 16.875H21.5625V12.9187L30 8.55937L38.4375 12.9187V16.875H37.0031ZM56.25 20.025L30.4313 6.66562C30.298 6.59658 30.1501 6.56055 30 6.56055C29.8499 6.56055 29.702 6.59658 29.5688 6.66562L3.75 20.025V17.4469L30 3.87187L56.25 17.4469V20.025Z" fill="black"/>
<path d="M29.0625 25.3125H30.9375V22.5H33.75V20.625H30.9375V17.8125H29.0625V20.625H26.25V22.5H29.0625V25.3125Z" fill="black"/>
<path d="M25.7625 36.5061C26.0784 35.9352 26.2398 35.2918 26.2309 34.6394C26.222 33.987 26.043 33.3482 25.7116 32.7861C25.3802 32.2241 24.908 31.7582 24.3414 31.4346C23.7749 31.1109 23.1337 30.9407 22.4813 30.9407C21.8288 30.9407 21.1876 31.1109 20.6211 31.4346C20.0545 31.7582 19.5823 32.2241 19.2509 32.7861C18.9195 33.3482 18.7405 33.987 18.7316 34.6394C18.7227 35.2918 18.8841 35.9352 19.2 36.5061C18.2062 37.0843 17.3817 37.9134 16.8091 38.9105C16.2365 39.9076 15.936 41.0376 15.9375 42.1874V45.9374C15.9375 46.186 16.0363 46.4245 16.2121 46.6003C16.3879 46.7761 16.6264 46.8749 16.875 46.8749H19.7813L20.625 54.478C20.6505 54.7084 20.7604 54.9211 20.9335 55.0752C21.1067 55.2293 21.3307 55.3138 21.5625 55.3124H23.4375C23.6693 55.3138 23.8933 55.2293 24.0665 55.0752C24.2396 54.9211 24.3495 54.7084 24.375 54.478L25.2188 46.8749H28.125C28.3736 46.8749 28.6121 46.7761 28.7879 46.6003C28.9637 46.4245 29.0625 46.186 29.0625 45.9374V42.1874C29.0724 41.3172 28.9074 40.4538 28.5773 39.6486C28.2472 38.8434 27.7586 38.1127 27.1406 37.4999C26.7256 37.1111 26.2624 36.7772 25.7625 36.5061ZM22.5 32.8124C22.8708 32.8124 23.2334 32.9223 23.5417 33.1284C23.85 33.3344 24.0904 33.6272 24.2323 33.9699C24.3742 34.3125 24.4113 34.6895 24.339 35.0532C24.2666 35.4169 24.0881 35.751 23.8258 36.0132C23.5636 36.2754 23.2295 36.454 22.8658 36.5264C22.5021 36.5987 22.1251 36.5616 21.7825 36.4197C21.4399 36.2777 21.147 36.0374 20.941 35.7291C20.735 35.4207 20.625 35.0582 20.625 34.6874C20.625 34.1901 20.8226 33.7132 21.1742 33.3616C21.5258 33.0099 22.0027 32.8124 22.5 32.8124ZM27.1875 44.9999H24.375C24.1432 44.9985 23.9192 45.083 23.746 45.2371C23.5729 45.3911 23.463 45.6039 23.4375 45.8343L22.5938 53.4374H22.4063L21.5625 45.8343C21.537 45.6039 21.4271 45.3911 21.254 45.2371C21.0808 45.083 20.8568 44.9985 20.625 44.9999H17.8125V42.1874C17.8166 41.2789 18.0846 40.3912 18.5839 39.6322C19.0833 38.8733 19.7924 38.2758 20.625 37.9124C21.1912 38.2532 21.8391 38.4346 22.5 38.4374C23.1612 38.4277 23.8081 38.2433 24.375 37.903C24.9033 38.1257 25.3863 38.4435 25.8 38.8405C26.2418 39.2784 26.592 39.7999 26.8302 40.3745C27.0684 40.9491 27.1899 41.5654 27.1875 42.1874V44.9999Z" fill="black"/>
<path d="M14.0625 49.6875V55.3125H15.9375V49.6875C15.9375 49.4389 16.0363 49.2004 16.2121 49.0246C16.3879 48.8488 16.6264 48.75 16.875 48.75C17.1236 48.75 17.3621 48.8488 17.5379 49.0246C17.7137 49.2004 17.8125 49.4389 17.8125 49.6875H19.6875C19.6875 48.9416 19.3912 48.2262 18.8637 47.6988C18.3363 47.1713 17.6209 46.875 16.875 46.875C16.1291 46.875 15.4137 47.1713 14.8863 47.6988C14.3588 48.2262 14.0625 48.9416 14.0625 49.6875Z" fill="black"/>
<path d="M44.0629 45.9374V42.1874C44.0606 41.0339 43.7544 39.9015 43.1751 38.904C42.5957 37.9066 41.7637 37.0796 40.7629 36.5061C41.0788 35.9352 41.2402 35.2918 41.2313 34.6394C41.2224 33.987 41.0434 33.3482 40.712 32.7861C40.3806 32.2241 39.9083 31.7582 39.3418 31.4346C38.7753 31.1109 38.1341 30.9407 37.4816 30.9407C36.8292 30.9407 36.188 31.1109 35.6215 31.4346C35.0549 31.7582 34.5826 32.2241 34.2513 32.7861C33.9199 33.3482 33.7409 33.987 33.732 34.6394C33.7231 35.2918 33.8845 35.9352 34.2004 36.5061C33.6992 36.7895 33.2387 37.1396 32.8316 37.5468C32.2227 38.1551 31.7415 38.879 31.4163 39.6759C31.0911 40.4728 30.9284 41.3267 30.9379 42.1874V45.9374C30.9379 46.186 31.0367 46.4245 31.2125 46.6003C31.3883 46.7761 31.6267 46.8749 31.8754 46.8749H34.7816L35.6254 54.478C35.6509 54.7084 35.7608 54.9211 35.9339 55.0752C36.1071 55.2293 36.3311 55.3138 36.5629 55.3124H38.4379C38.6697 55.3138 38.8937 55.2293 39.0669 55.0752C39.24 54.9211 39.3499 54.7084 39.3754 54.478L40.2191 46.8749H43.1254C43.374 46.8749 43.6125 46.7761 43.7883 46.6003C43.9641 46.4245 44.0629 46.186 44.0629 45.9374ZM37.5004 32.8124C37.8712 32.8124 38.2337 32.9223 38.5421 33.1284C38.8504 33.3344 39.0907 33.6272 39.2327 33.9699C39.3746 34.3125 39.4117 34.6895 39.3394 35.0532C39.267 35.4169 39.0884 35.751 38.8262 36.0132C38.564 36.2754 38.2299 36.454 37.8662 36.5264C37.5025 36.5987 37.1255 36.5616 36.7829 36.4197C36.4402 36.2777 36.1474 36.0374 35.9414 35.7291C35.7354 35.4207 35.6254 35.0582 35.6254 34.6874C35.6254 34.1901 35.8229 33.7132 36.1746 33.3616C36.5262 33.0099 37.0031 32.8124 37.5004 32.8124ZM42.1879 44.9999H39.3754C39.1436 44.9985 38.9196 45.083 38.7464 45.2371C38.5733 45.3911 38.4634 45.6039 38.4379 45.8343L37.5941 53.4374H37.4066L36.5629 45.8343C36.5374 45.6039 36.4275 45.3911 36.2544 45.2371C36.0812 45.083 35.8572 44.9985 35.6254 44.9999H32.8129V42.1874C32.8101 41.5717 32.9306 40.9617 33.1673 40.3933C33.404 39.825 33.7521 39.3097 34.191 38.878C34.6 38.4796 35.0802 38.1615 35.6066 37.9405C36.1828 38.2709 36.8363 38.4424 37.5004 38.4374C38.1613 38.4346 38.8091 38.2532 39.3754 37.9124C40.208 38.2758 40.9171 38.8733 41.4165 39.6322C41.9158 40.3912 42.1838 41.2789 42.1879 42.1874V44.9999Z" fill="black"/>
<path d="M40.3125 49.6875H42.1875C42.1875 49.4389 42.2863 49.2004 42.4621 49.0246C42.6379 48.8488 42.8764 48.75 43.125 48.75C43.3736 48.75 43.6121 48.8488 43.7879 49.0246C43.9637 49.2004 44.0625 49.4389 44.0625 49.6875V55.3125H45.9375V49.6875C45.9375 48.9416 45.6412 48.2262 45.1137 47.6988C44.5863 47.1713 43.8709 46.875 43.125 46.875C42.3791 46.875 41.6637 47.1713 41.1363 47.6988C40.6088 48.2262 40.3125 48.9416 40.3125 49.6875Z" fill="black"/>
</svg>
