<svg width="60" height="69" viewBox="0 0 60 69" fill="none" xmlns="http://www.w3.org/2000/svg">
<path d="M58.0645 63.4354V26.7096H59.9998V21.1453H50.3224V17.8064H52.2579V12.2421H45.4836V8.90325H47.4191V3.33887H12.5807V8.90325H14.5162V12.2421H7.74191V17.8064H9.67739V21.1453H0V26.7096H1.93548V63.4354H0V65.6612H14.5162H45.4838H60V63.4354H58.0645ZM9.67739 63.4354H3.87095V26.7096H9.67739V63.4354ZM9.67739 24.4841H1.93548V23.3711H9.67739V24.4841ZM14.5162 63.4354H11.6129V26.7096V21.1453V17.8064H14.5162V63.4354ZM14.5162 15.5809H9.67739V14.4679H14.5162V15.5809ZM14.5162 5.56467H45.4838V6.67768H14.5162V5.56467ZM29.0324 63.4354H29.0322H20.3226V50.0806H29.0324V63.4354ZM39.6774 63.4354H30.9676V50.0806H39.6774V63.4354ZM43.5483 63.4354H41.6129V47.8548H18.3871V63.4354H16.4517V45.629H43.5483V63.4354ZM43.5483 12.2421V17.8064V43.4032H16.4517V17.8064V12.2421V8.90325H43.5483V12.2421ZM45.4836 15.5809V14.4679H50.3224V15.5809H45.4836ZM48.3871 21.1453V26.7096V63.4354H45.4838V17.8064H48.3871V21.1453ZM56.1288 63.4354H50.3224V26.7096H56.1288V63.4354ZM58.0643 24.4841H50.3224V23.3711H58.0643V24.4841Z" fill="black"/>
<path d="M41.6124 15.5806H18.3867V31.1612H41.6124V15.5806ZM39.677 28.9354H20.3222V17.8064H39.677V28.9354Z" fill="black"/>
<path d="M37.7416 20.0322H22.2578V22.258H37.7416V20.0322Z" fill="black"/>
<path d="M37.7421 24.4839H35.8066V26.7097H37.7421V24.4839Z" fill="black"/>
<path d="M33.8707 24.4839H22.2578V26.7097H33.8707V24.4839Z" fill="black"/>
<path d="M28.0644 53.4192H26.1289V58.9838H28.0644V53.4192Z" fill="black"/>
<path d="M33.871 53.4192H31.9355V58.9838H33.871V53.4192Z" fill="black"/>
</svg>
