<svg width="60" height="60" viewBox="0 0 60 60" fill="none" xmlns="http://www.w3.org/2000/svg">
<path d="M60 22.7712V18.4338C60 18.1345 59.8787 17.8636 59.6827 17.6674C59.6825 17.6673 59.6825 17.6672 59.6824 17.667L51.0077 8.99227C50.8044 8.78895 50.5286 8.6748 50.2411 8.6748H21.3253C20.7265 8.6748 20.241 9.1602 20.241 9.75914C20.241 10.3581 20.7265 10.8435 21.3253 10.8435H49.7919L56.2979 17.3495H3.70207L10.2081 10.8435H16.988C17.5868 10.8435 18.0723 10.3581 18.0723 9.75914C18.0723 9.1602 17.5868 8.6748 16.988 8.6748H9.75902C9.47145 8.6748 9.19559 8.78906 8.99238 8.99227L0.317695 17.667C0.317578 17.667 0.317578 17.6671 0.317578 17.6673C0.121289 17.8635 0 18.1344 0 18.4338V22.7712C0 24.5051 0.534258 26.1162 1.44574 27.4499V50.2411C1.44574 50.84 1.93125 51.3254 2.53008 51.3254H57.4699C58.0688 51.3254 58.5543 50.84 58.5543 50.2411V32.8917C58.5543 32.2928 58.0688 31.8074 57.4699 31.8074C56.8711 31.8074 56.3856 32.2928 56.3856 32.8917V49.1568H22.4096V34.3375C22.4096 33.7385 21.9241 33.2531 21.3253 33.2531H8.31328C7.71445 33.2531 7.22895 33.7385 7.22895 34.3375V49.1568H3.61441V29.6244C4.95199 30.5446 6.57047 31.0845 8.31316 31.0845C11.4064 31.0845 14.1104 29.3864 15.5421 26.8733C16.9737 29.3864 19.6778 31.0845 22.7711 31.0845C25.8643 31.0845 28.5683 29.3864 30 26.8733C31.4316 29.3864 34.1357 31.0845 37.2289 31.0845C40.3222 31.0845 43.0262 29.3864 44.4579 26.8733C45.8895 29.3864 48.5936 31.0845 51.6868 31.0845C56.2707 31.0845 60 27.3552 60 22.7712ZM9.39762 35.4218H20.241V49.1568H9.39762V35.4218ZM51.6867 28.9158C48.2985 28.9158 45.5421 26.1594 45.5421 22.7712C45.5421 22.1722 45.0566 21.6868 44.4578 21.6868C43.8589 21.6868 43.3734 22.1722 43.3734 22.7712C43.3734 26.1594 40.6171 28.9158 37.2288 28.9158C33.8406 28.9158 31.0842 26.1594 31.0842 22.7712C31.0842 22.1722 30.5987 21.6868 29.9999 21.6868C29.4011 21.6868 28.9155 22.1722 28.9155 22.7712C28.9155 26.1594 26.1592 28.9158 22.7709 28.9158C19.3827 28.9158 16.6263 26.1594 16.6263 22.7712C16.6263 22.1722 16.1408 21.6868 15.542 21.6868C14.9432 21.6868 14.4577 22.1722 14.4577 22.7712C14.4577 26.1594 11.7013 28.9158 8.31305 28.9158C4.92481 28.9158 2.16844 26.1594 2.16844 22.7712V19.5182H57.8311V22.7712C57.8313 26.1594 55.075 28.9158 51.6867 28.9158Z" fill="black"/>
<path d="M16.9886 40.4822C16.3898 40.4822 15.9043 40.9676 15.9043 41.5665V43.0123C15.9043 43.6112 16.3898 44.0966 16.9886 44.0966C17.5875 44.0966 18.073 43.6112 18.073 43.0123V41.5665C18.073 40.9675 17.5875 40.4822 16.9886 40.4822Z" fill="black"/>
<path d="M31.4451 43.3736C30.8463 43.3736 30.3608 43.859 30.3608 44.4579C30.3608 45.0569 30.8463 45.5423 31.4451 45.5423H51.6861C52.2849 45.5423 52.7704 45.0569 52.7704 44.4579V34.3375C52.7704 33.7386 52.2849 33.2532 51.6861 33.2532H27.1078C26.5089 33.2532 26.0234 33.7386 26.0234 34.3375V44.4579C26.0234 45.0569 26.5089 45.5423 27.1078 45.5423C27.7066 45.5423 28.1921 45.0569 28.1921 44.4579V35.4218H50.6018V43.3736H31.4451Z" fill="black"/>
</svg>
