<svg width="60" height="60" viewBox="0 0 60 60" fill="none" xmlns="http://www.w3.org/2000/svg">
<path d="M41.4286 12.3809H18.5714C18.0458 12.3809 17.6191 12.8075 17.6191 13.3331V55.238C17.6191 55.7637 18.0458 56.1903 18.5714 56.1903H41.4286C41.9542 56.1903 42.3809 55.7637 42.3809 55.238V13.3334C42.3809 12.8078 41.9542 12.3809 41.4286 12.3809ZM40.4763 54.2857H19.5237V14.2857H40.476V54.2857H40.4763Z" fill="black"/>
<path d="M23.3326 20H21.4277V55.238H23.3326V20Z" fill="black"/>
<path d="M27.1431 20H25.2383V55.238H27.1431V20Z" fill="black"/>
<path d="M30.9517 20H29.0469V55.238H30.9517V20Z" fill="black"/>
<path d="M34.7623 20H32.8574V55.238H34.7623V20Z" fill="black"/>
<path d="M38.5709 20H36.666V55.238H38.5709V20Z" fill="black"/>
<path d="M23.3326 16.1907H21.4277V18.0955H23.3326V16.1907Z" fill="black"/>
<path d="M27.1431 16.1907H25.2383V18.0955H27.1431V16.1907Z" fill="black"/>
<path d="M30.9517 16.1907H29.0469V18.0955H30.9517V16.1907Z" fill="black"/>
<path d="M34.7623 16.1907H32.8574V18.0955H34.7623V16.1907Z" fill="black"/>
<path d="M38.5709 16.1907H36.666V18.0955H38.5709V16.1907Z" fill="black"/>
<path d="M44.2854 54.2856H15.714C15.1883 54.2856 14.7617 54.7123 14.7617 55.2379V59.0474C14.7617 59.573 15.1883 59.9997 15.714 59.9997H44.2854C44.8111 59.9997 45.2377 59.573 45.2377 59.0474V55.2379C45.2377 54.7123 44.8111 54.2856 44.2854 54.2856ZM43.3332 58.0951H16.6663V56.1902H43.3329V58.0951H43.3332Z" fill="black"/>
<path d="M37.6183 5.71436H22.38C21.8544 5.71436 21.4277 6.14097 21.4277 6.66664V13.3332C21.4277 13.8589 21.8544 14.2855 22.38 14.2855H37.618C38.1437 14.2855 38.5703 13.8589 38.5703 13.3332V6.66664C38.5706 6.14097 38.144 5.71436 37.6183 5.71436ZM36.6657 12.3809H23.3326V7.61921H36.666V12.3809H36.6657Z" fill="black"/>
<path d="M30.9517 0H29.0469V6.66657H30.9517V0Z" fill="black"/>
<path d="M26.19 3.80933H24.2852V6.66647H26.19V3.80933Z" fill="black"/>
<path d="M35.7134 3.80933H33.8086V6.66647H35.7134V3.80933Z" fill="black"/>
</svg>
