<svg width="60" height="60" viewBox="0 0 60 60" fill="none" xmlns="http://www.w3.org/2000/svg">
<g clip-path="url(#clip0_199_325)">
<path d="M54.2099 17.5664L30.7093 0.233437C30.2876 -0.0778125 29.7121 -0.0778125 29.2905 0.233437L5.78958 17.5664C5.37415 17.8727 5.20235 18.4113 5.3636 18.9018C5.52497 19.3923 5.98282 19.7236 6.49903 19.7236H8.6609V58.8049C8.6609 59.4649 9.19598 60.0001 9.8561 60.0001H50.1434C50.8035 60.0001 51.3386 59.4649 51.3386 58.8049V19.7235H53.5005C54.0167 19.7235 54.4745 19.3922 54.6359 18.9016C54.7972 18.4114 54.6255 17.8729 54.2099 17.5664ZM48.9481 57.6096H11.0513V19.7235H48.9481V57.6096ZM10.1478 17.3223L29.9997 2.68043L49.8518 17.3223H10.1478Z" fill="black"/>
<path d="M29.9999 22.5715C21.128 22.5715 13.9102 29.7893 13.9102 38.6613C13.9102 47.5332 21.128 54.7511 29.9999 54.7511C38.8718 54.7511 46.0896 47.5333 46.0896 38.6614C46.0896 29.7895 38.8718 22.5715 29.9999 22.5715ZM29.9999 52.3606C22.4461 52.3606 16.3007 46.2152 16.3007 38.6614C16.3007 31.1076 22.4461 24.962 29.9999 24.962C37.5537 24.962 43.6991 31.1075 43.6991 38.6613C43.6991 46.215 37.5537 52.3606 29.9999 52.3606Z" fill="black"/>
<path d="M30.8887 37.3285V32.8787C32.4232 32.9883 32.993 33.6898 33.519 33.6898C34.1766 33.6898 34.4834 32.8567 34.4834 32.4403C34.4834 31.3663 32.3791 30.9059 30.8886 30.8622V30.2703C30.8886 30.0073 30.5598 29.7661 30.2309 29.7661C29.8583 29.7661 29.5953 30.0073 29.5953 30.2703V30.9059C27.5129 31.1251 25.4306 32.2211 25.4306 34.9831C25.4306 37.7889 27.6225 38.5778 29.5953 39.2793V44.4305C27.3597 44.2551 26.7679 42.7206 26.0445 42.7206C25.4966 42.7206 25.0361 43.444 25.0361 43.9699C25.0361 45.044 26.8774 46.5127 29.5954 46.5565V47.2361C29.5954 47.4992 29.8585 47.7402 30.2311 47.7402C30.5599 47.7402 30.8887 47.4992 30.8887 47.2361V46.4909C33.2561 46.162 34.8781 44.6715 34.8781 41.9754C34.8781 38.9944 32.7958 38.0298 30.8887 37.3285ZM29.7273 36.912C28.5655 36.4736 27.6229 36.0131 27.6229 34.7638C27.6229 33.6239 28.4997 33.076 29.7273 32.9226V36.912ZM30.7575 44.3865V39.7614C31.8315 40.2218 32.6865 40.8354 32.6865 42.2165C32.6864 43.4658 31.9411 44.1673 30.7575 44.3865Z" fill="black"/>
<path d="M42.4669 13.7793H33.0184C32.3583 13.7793 31.8232 14.3145 31.8232 14.9745C31.8232 15.6345 32.3583 16.1697 33.0184 16.1697H42.4669C43.127 16.1697 43.6621 15.6345 43.6621 14.9745C43.6621 14.3145 43.127 13.7793 42.4669 13.7793Z" fill="black"/>
<path d="M29.0814 13.7793H28.5565C27.8964 13.7793 27.3613 14.3145 27.3613 14.9745C27.3613 15.6345 27.8964 16.1697 28.5565 16.1697H29.0814C29.7415 16.1697 30.2766 15.6345 30.2766 14.9745C30.2766 14.3145 29.7415 13.7793 29.0814 13.7793Z" fill="black"/>
</g>
<defs>
<clipPath id="clip0_199_325">
<rect width="60" height="60" fill="white"/>
</clipPath>
</defs>
</svg>
