<svg width="60" height="60" viewBox="0 0 60 60" fill="none" xmlns="http://www.w3.org/2000/svg">
<g clip-path="url(#clip0_199_429)">
<path d="M59.91 8.30165C59.8925 8.2542 59.8625 8.2167 59.84 8.1717C59.7925 8.08416 59.74 7.9992 59.675 7.92421C59.6375 7.88167 59.595 7.84675 59.5526 7.80925C59.4826 7.74925 59.405 7.69675 59.3225 7.65421C59.27 7.62668 59.22 7.60172 59.1626 7.58168C59.1301 7.56914 59.1026 7.54664 59.0675 7.53914L30.3185 0.0393738C30.1135 -0.0131246 29.8934 -0.0131246 29.6885 0.0393738L0.939424 7.53914C0.901925 7.55168 0.874387 7.5716 0.841927 7.58414C0.78439 7.60418 0.734469 7.62914 0.681971 7.65667C0.597013 7.69921 0.522015 7.75171 0.451939 7.81171C0.409401 7.84921 0.366981 7.88425 0.329482 7.92421C0.261984 7.9992 0.211947 8.0817 0.164487 8.1717C0.139527 8.2167 0.111989 8.2542 0.0919503 8.30165C0.0369911 8.44169 0.00195312 8.59168 0.00195312 8.75164V58.7501C0.00195312 59.4401 0.561975 60.0001 1.25195 60.0001H58.7502C59.4402 60.0001 60.0002 59.4401 60.0002 58.7501V8.75164C60 8.59157 59.9649 8.44157 59.91 8.30165ZM30.0009 2.54183L49.0103 7.50164H10.9915L30.0009 2.54183ZM15.0014 57.5001H7.5016V50.0004H15.0014V57.5001ZM7.5016 47.5004V42.5005H12.5015V47.5004H7.5016ZM25.001 57.5001H17.5012V52.5002H25.001V57.5001ZM57.5001 57.5001H40.0005V50.0004H57.5L57.5001 57.5001ZM57.5001 47.5004H45.0004V42.5005H57.5001V47.5004ZM57.5001 40.0006H43.7504C43.0605 40.0006 42.5004 40.5606 42.5004 41.2506V47.5004H38.7505C38.0606 47.5004 37.5005 48.0604 37.5005 48.7503V57.5001H27.5009V51.2504C27.5009 50.5604 26.9409 50.0004 26.2509 50.0004H17.5011V48.7503C17.5011 48.0604 16.9411 47.5004 16.2511 47.5004H15.0011V41.2506C15.0011 40.5606 14.4411 40.0006 13.7511 40.0006H6.25137C5.56139 40.0006 5.00137 40.5606 5.00137 41.2506V57.5001H2.50172V32.5008H57.5L57.5001 40.0006ZM57.5001 30.0009H2.50172V25.0011H57.5L57.5001 30.0009ZM57.5001 22.5012H2.50172V17.5013H57.5L57.5001 22.5012ZM57.5001 15.0014H2.50172V10.0015H57.5L57.5001 15.0014Z" fill="black"/>
</g>
<defs>
<clipPath id="clip0_199_429">
<rect width="60" height="60" fill="white"/>
</clipPath>
</defs>
</svg>
