<svg width="60" height="60" viewBox="0 0 60 60" fill="none" xmlns="http://www.w3.org/2000/svg">
<g clip-path="url(#clip0_199_247)">
<path d="M16.9979 27.0005H9.99887C9.44668 27.0005 8.99902 27.4481 8.99902 28.0003V37.9989C8.99902 38.5511 9.44668 38.9987 9.99887 38.9987H16.9979C17.5501 38.9987 17.9977 38.5511 17.9977 37.9989V28.0003C17.9977 27.4481 17.5501 27.0005 16.9979 27.0005ZM15.998 36.999H10.9987V29.0002H15.998V36.999Z" fill="black"/>
<path d="M33.995 27.0005H26.9959C26.4437 27.0005 25.9961 27.4481 25.9961 28.0003V37.9989C25.9961 38.5511 26.4437 38.9987 26.9959 38.9987H33.995C34.5471 38.9987 34.9948 38.5511 34.9948 37.9989V28.0003C34.9948 27.4481 34.5471 27.0005 33.995 27.0005ZM32.9951 36.999H27.9959V29.0002H32.9951V36.999Z" fill="black"/>
<path d="M33.995 42.998H26.9959C26.4437 42.998 25.9961 43.4457 25.9961 43.9979V53.9964C25.9961 54.5486 26.4437 54.9963 26.9959 54.9963H33.995C34.5471 54.9963 34.9948 54.5486 34.9948 53.9964V43.9979C34.9948 43.4458 34.5471 42.998 33.995 42.998ZM32.9951 52.9966H27.9959V44.9977H32.9951V52.9966Z" fill="black"/>
<path d="M49.993 27.0005H42.994C42.4418 27.0005 41.9941 27.4481 41.9941 28.0003V37.9989C41.9941 38.5511 42.4418 38.9987 42.994 38.9987H49.993C50.5452 38.9987 50.9929 38.5511 50.9929 37.9989V28.0003C50.9929 27.4481 50.5452 27.0005 49.993 27.0005ZM48.9932 36.999H43.9939V29.0002H48.9932V36.999Z" fill="black"/>
<path d="M16.9979 42.998H9.99887C9.44668 42.998 8.99902 43.4457 8.99902 43.9979V53.9964C8.99902 54.5486 9.44668 54.9963 9.99887 54.9963H16.9979C17.5501 54.9963 17.9977 54.5486 17.9977 53.9964V43.9979C17.9977 43.4458 17.5501 42.998 16.9979 42.998ZM15.998 52.9966H10.9987V44.9977H15.998V52.9966Z" fill="black"/>
<path d="M49.993 42.998H42.994C42.4418 42.998 41.9941 43.4457 41.9941 43.9979V53.9964C41.9941 54.5486 42.4418 54.9963 42.994 54.9963H49.993C50.5452 54.9963 50.9929 54.5486 50.9929 53.9964V43.9979C50.9929 43.4458 50.5452 42.998 49.993 42.998ZM48.9932 52.9966H43.9939V44.9977H48.9932V52.9966Z" fill="black"/>
<path d="M55.992 57.996V24.0009H56.9918C57.544 24.0009 57.9916 23.5532 57.9916 23.001V18.0018C57.9916 17.4496 57.544 17.002 56.9918 17.002H55.992V13.0026C55.992 12.4504 55.5443 12.0028 54.9921 12.0028H52.9924V1.00424C52.9924 0.452051 52.5448 0.00439453 51.9926 0.00439453H7.99887C7.44668 0.00439453 6.99902 0.452051 6.99902 1.00424V12.0026H4.99934C4.44715 12.0026 3.99949 12.4503 3.99949 13.0025V17.0019H2.99965C2.44746 17.0019 1.9998 17.4495 1.9998 18.0017V23.0009C1.9998 23.5531 2.44746 24.0008 2.99965 24.0008H3.99949V57.9958H0V59.9955H4.99934H54.9921H60V57.9958H55.992V57.996ZM8.99871 2.00408H50.9926V12.0026H8.99871V2.00408ZM5.99918 14.0023H7.99887H51.9925H53.9921V17.0019H5.99918V14.0023ZM53.9921 57.996H5.99918V24.0009H53.9923V57.996H53.9921ZM4.99934 22.0012H3.99949V19.0017H4.99934H54.9921H55.992V22.0012H54.9921H4.99934Z" fill="black"/>
<path d="M28.4601 5.42473C28.3011 5.01832 28.0777 4.66734 27.7896 4.37191C27.5017 4.07648 27.1552 3.84469 26.7503 3.67676C26.3453 3.50883 25.897 3.4248 25.405 3.4248C24.913 3.4248 24.4639 3.50801 24.0575 3.67453C23.6511 3.84105 23.3031 4.07273 23.0137 4.36969C22.7242 4.66664 22.5 5.01832 22.341 5.42484C22.182 5.83125 22.1025 6.27293 22.1025 6.74988C22.1025 7.22684 22.182 7.66852 22.341 8.07492C22.5 8.48133 22.7242 8.83301 23.0137 9.13008C23.3031 9.42703 23.6511 9.65871 24.0575 9.82523C24.4639 9.99176 24.913 10.075 25.405 10.075C25.897 10.075 26.3453 9.99176 26.7503 9.82523C27.1553 9.65883 27.5017 9.42703 27.7896 9.13008C28.0776 8.83313 28.3011 8.48144 28.4601 8.07492C28.6191 7.66852 28.6986 7.22684 28.6986 6.74988C28.6986 6.27281 28.619 5.83113 28.4601 5.42473ZM27.3149 7.71035C27.2205 7.99383 27.0846 8.23383 26.9077 8.43023C26.7307 8.62676 26.5155 8.77746 26.262 8.88246C26.0085 8.98746 25.7228 9.03996 25.4049 9.03996C25.087 9.03996 24.8004 8.98746 24.5455 8.88246C24.2905 8.77746 24.0739 8.62676 23.8954 8.43023C23.7169 8.23371 23.5797 7.99383 23.4837 7.71035C23.3877 7.42687 23.3397 7.10672 23.3397 6.74977C23.3397 6.39281 23.3877 6.07266 23.4837 5.78918C23.5797 5.5057 23.7169 5.265 23.8954 5.06707C24.0739 4.86914 24.2905 4.71762 24.5455 4.61262C24.8005 4.50762 25.087 4.45512 25.4049 4.45512C25.7228 4.45512 26.0085 4.50762 26.262 4.61262C26.5155 4.71762 26.7306 4.86914 26.9077 5.06707C27.0846 5.265 27.2204 5.5057 27.3149 5.78918C27.4094 6.07266 27.4566 6.39281 27.4566 6.74977C27.4566 7.10672 27.4095 7.42687 27.3149 7.71035Z" fill="black"/>
<path d="M19.9241 3.49683V6.29538H16.8736V3.49683H15.6543V10.0028H16.8736V7.15929H19.9241V10.0028H21.1435V3.49683H19.9241Z" fill="black"/>
<path d="M41.018 9.00394V3.49683H39.8076V10.0028H43.6231V9.00394H41.018Z" fill="black"/>
<path d="M28.752 3.49683V4.49116H30.7182V10.0028H31.9286V4.49116H33.8857V3.49683H28.752Z" fill="black"/>
<path d="M38.7587 4.45964V3.49683H34.6553V10.0028H38.7587V9.03546H35.8746V7.19526H38.1468V6.26386H35.8746V4.45964H38.7587Z" fill="black"/>
</g>
<defs>
<clipPath id="clip0_199_247">
<rect width="60" height="60" fill="white"/>
</clipPath>
</defs>
</svg>
