<svg width="60" height="60" viewBox="0 0 60 60" fill="none" xmlns="http://www.w3.org/2000/svg">
<g clip-path="url(#clip0_199_237)">
<path d="M43.8261 16.4516H43.5484V13.5484H45.4839V10.1081L29.31 0H26.819L10.6452 10.1081V13.5484H12.5806V27.4065L0 35.2694V38.7097H1.93548V60H32.9032V51.2903H58.0645V30H60V26.5597L43.8261 16.4516ZM12.5806 11.1823L27.3745 1.93548H28.7545L43.5484 11.1823V11.6129H12.5806V11.1823ZM20.3226 17.4194V26.1977L18.6648 25.1613H16.1739L14.5161 26.1977V13.5484H41.6129V16.4516H41.3352L35.8064 19.9065V17.4194H20.3226ZM25.1613 26.5597V29.221L22.2581 27.4065V19.3548H33.871V21.1161L25.1613 26.5597ZM27.0968 30V30.4306L26.4068 30H27.0968ZM23.2258 58.0645H11.6129V44.5161H23.2258V58.0645ZM30.9677 58.0645H25.1613V42.5806H9.67742V58.0645H3.87097V38.7097H30.9677V58.0645ZM1.93548 36.7742V36.3435L16.7294 27.0968H18.1094L32.9032 36.3435V36.7742H1.93548ZM34.8387 49.3548H32.9032V38.7097H34.8387V49.3548ZM48.3871 49.3548H36.7742V35.8064H48.3871V49.3548ZM56.129 49.3548H50.3226V33.871H34.8387V35.2694L29.0323 31.6403V30H56.129V49.3548ZM58.0645 28.0645H27.0968V27.6339L41.8906 18.3871H43.2706L58.0645 27.6339V28.0645Z" fill="black"/>
</g>
<defs>
<clipPath id="clip0_199_237">
<rect width="60" height="60" fill="white"/>
</clipPath>
</defs>
</svg>
