<svg width="46" height="46" viewBox="0 0 46 46" fill="none" xmlns="http://www.w3.org/2000/svg">
<g clip-path="url(#clip0_199_485)">
<path d="M45.9675 17.4515C45.86 16.7805 45.4975 16.1915 44.947 15.7929L24.4912 0.987346C23.599 0.341458 22.3998 0.341458 21.5074 0.987346L9.97367 9.33528C9.66326 9.55998 9.59363 9.99384 9.81842 10.3043C10.0431 10.6148 10.477 10.6845 10.7875 10.4596L22.3211 2.11165C22.7268 1.81813 23.2718 1.81813 23.6773 2.11165L44.1331 16.9172C44.3834 17.0983 44.5481 17.3661 44.5971 17.6711C44.6461 17.9761 44.573 18.2819 44.3919 18.5323C44.175 18.832 43.8243 19.0108 43.4535 19.0108C43.2095 19.0108 42.9756 18.9349 42.7769 18.7911L23.4061 4.77076C23.1635 4.59503 22.8353 4.59503 22.5925 4.77076L3.22172 18.791C2.97151 18.9721 2.66568 19.045 2.36066 18.996C2.05564 18.9471 1.78781 18.7824 1.60669 18.5322C1.23276 18.0155 1.34893 17.291 1.86544 16.917L9.07631 11.6979C9.38672 11.4732 9.45635 11.0394 9.23156 10.7289C9.00695 10.4185 8.5731 10.3488 8.26251 10.5736L1.05163 15.7927C-0.0848925 16.6153 -0.340229 18.2093 0.482292 19.3459C0.88084 19.8964 1.46986 20.2588 2.1409 20.3663C2.27728 20.3882 2.41349 20.399 2.54897 20.399C3.08022 20.399 3.59673 20.2327 4.03535 19.9152L22.9993 6.18949L41.9631 19.9153C42.4001 20.2316 42.9155 20.3987 43.4535 20.3987C44.2681 20.3987 45.0392 20.0051 45.5161 19.346C45.9148 18.7954 46.075 18.1227 45.9675 17.4515Z" fill="white"/>
<path d="M40.9018 36.8363C40.5184 36.8363 40.2078 37.147 40.2078 37.5303V42.6791C40.2078 43.4676 39.5663 44.1092 38.7778 44.1092H7.2203C6.43183 44.1092 5.79025 43.4676 5.79025 42.6791V22.2759C5.79025 21.8926 5.47957 21.5819 5.0963 21.5819C4.71302 21.5819 4.40234 21.8926 4.40234 22.2759V42.6791C4.40234 44.2329 5.66654 45.4971 7.2203 45.4971H38.7778C40.3316 45.4971 41.5958 44.2329 41.5958 42.6791V37.5303C41.5958 37.1471 41.2852 36.8363 40.9018 36.8363Z" fill="white"/>
<path d="M40.9029 21.582C40.5196 21.582 40.209 21.8927 40.209 22.276V35.2171C40.209 35.6004 40.5196 35.9111 40.9029 35.9111C41.2863 35.9111 41.5969 35.6004 41.5969 35.2171V22.2759C41.5969 21.8927 41.2863 21.582 40.9029 21.582Z" fill="white"/>
<path d="M18.6282 21.7367C16.4089 21.7367 14.6035 23.5421 14.6035 25.7613C14.6035 27.9806 16.4089 29.786 18.6282 29.786C20.8474 29.786 22.6528 27.9806 22.6528 25.7613C22.6528 23.5421 20.8474 21.7367 18.6282 21.7367ZM18.6282 28.3981C17.1742 28.3981 15.9913 27.2152 15.9913 25.7613C15.9913 24.3073 17.1742 23.1244 18.6282 23.1244C20.0821 23.1244 21.265 24.3073 21.265 25.7613C21.2649 27.2153 20.0821 28.3981 18.6282 28.3981Z" fill="white"/>
<path d="M27.3704 30.4799C25.1511 30.4799 23.3457 32.2853 23.3457 34.5045C23.3457 36.7237 25.1511 38.5292 27.3704 38.5292C29.5896 38.5292 31.395 36.7237 31.395 34.5045C31.395 32.2853 29.5896 30.4799 27.3704 30.4799ZM27.3704 37.1413C25.9164 37.1413 24.7335 35.9584 24.7335 34.5045C24.7335 33.0506 25.9164 31.8677 27.3704 31.8677C28.8243 31.8677 30.0072 33.0506 30.0072 34.5045C30.0072 35.9584 28.8243 37.1413 27.3704 37.1413Z" fill="white"/>
<path d="M28.9726 24.1604C28.7016 23.8894 28.2622 23.8894 27.9911 24.1604L17.0274 35.1241C16.7565 35.3951 16.7565 35.8345 17.0274 36.1055C17.1629 36.241 17.3406 36.3088 17.5181 36.3088C17.6956 36.3088 17.8733 36.2411 18.0087 36.1055L28.9726 25.1417C29.2436 24.8708 29.2436 24.4313 28.9726 24.1604Z" fill="white"/>
<path d="M39.5684 1.90955H32.9068C32.5235 1.90955 32.2129 2.22023 32.2129 2.6035V5.10161C32.2129 5.48479 32.5235 5.79548 32.9068 5.79548C33.2902 5.79548 33.6008 5.4847 33.6008 5.10143V3.29736H38.8745V10.0977C38.8745 10.4809 39.185 10.7916 39.5684 10.7916C39.9518 10.7916 40.2624 10.4809 40.2624 10.0977V2.60341C40.2624 2.22023 39.9518 1.90955 39.5684 1.90955Z" fill="white"/>
</g>
<defs>
<clipPath id="clip0_199_485">
<rect width="46" height="46" fill="white"/>
</clipPath>
</defs>
</svg>
