<svg width="100" height="100" viewBox="0 0 100 100" fill="none" xmlns="http://www.w3.org/2000/svg">
<g clip-path="url(#clip0_2_2387)">
<path d="M99.0946 61.643C96.2913 57.7399 93.4397 57.5315 86.6667 60.9647V65.888C86.6667 67.6163 85.7501 69.2512 84.2752 70.1545L74.7339 75.9859L74.6472 76.0308C72.059 77.4124 68.4275 78.1274 62.8726 78.3473L52.8796 78.3524C50.7146 78.3524 48.8731 76.9425 48.1848 75.0008H35.0019C30.0021 75.0008 30.0021 77.5091 30.0021 78.3341C30.0021 79.2557 29.2572 80.0006 28.3355 80.0006C27.4139 80.0006 26.669 79.2557 26.669 78.3341C26.669 74.1592 29.7839 71.6677 35.0021 71.6677H48.1899C48.87 69.7961 50.6332 68.4178 52.7298 68.3545H52.7382C51.3798 67.2479 49.6049 66.6212 47.6983 66.6212H41.1986C36.2288 66.6212 31.4139 65.0529 27.6373 62.2081C27.4723 62.0831 26.984 61.7147 25.7624 61.7147C25.3007 61.7147 24.7774 61.768 24.204 61.868C23.9423 61.9163 23.6374 61.9463 23.3308 61.9463C22.1643 61.9463 21.0258 61.5313 20.1259 60.7798C18.9876 59.8214 18.3359 58.4265 18.3359 56.945V56.695C15.7227 57.7399 13.371 59.0865 11.6695 60.1698V56.6682H0.00292969V100H11.6691V95.0003H33.335C36.7415 95.0003 40.1714 94.7419 43.528 94.2286L65.1323 90.9453C65.919 90.9369 66.7156 90.842 67.4256 90.6821C69.4138 90.402 71.3155 89.452 72.9287 87.9322L98.1895 68.2596L98.2296 68.2295C100.196 66.5997 100.576 63.7064 99.0946 61.643ZM8.33603 62.5147V95.0003V96.6668H3.33621V60.0015H8.33603V62.5147Z" fill="white"/>
<path d="M43.3352 31.6705C45.1735 31.6705 46.6685 30.1756 46.6685 28.3372C46.6685 26.499 45.1736 25.0039 43.3352 25.0039C41.497 25.0039 40.002 26.4988 40.002 28.3372C40.002 30.1756 41.497 31.6705 43.3352 31.6705Z" fill="white"/>
<path d="M63.3343 45.0039C61.496 45.0039 60.001 46.4988 60.001 48.3372C60.001 50.1756 61.4958 51.6705 63.3343 51.6705C65.1725 51.6705 66.6675 50.1756 66.6675 48.3372C66.6675 46.4988 65.1725 45.0039 63.3343 45.0039Z" fill="white"/>
<path d="M14.7975 33.3358H21.669V56.9449C21.669 57.4383 21.8873 57.9049 22.2639 58.2232C22.6422 58.5382 23.1455 58.6765 23.6256 58.5849C26.2137 58.1283 28.1805 58.4416 29.6419 59.5466C32.8436 61.9582 36.9483 63.2881 41.1982 63.2881H47.698C51.4744 63.2881 54.9161 65.0613 56.9076 68.0313C57.5943 69.058 57.8775 69.9146 57.666 70.3261C57.3476 70.9411 55.7311 71.6011 52.8294 71.686C51.9177 71.7128 51.1994 72.4676 51.2129 73.376C51.2246 74.2877 51.9679 75.0193 52.8794 75.0193L62.7408 75.0175C67.6939 74.8209 70.9522 74.2242 73.0787 73.0909L82.5368 67.311C83.0301 67.0077 83.3334 66.4694 83.3334 65.8878V33.3358H89.9998C90.6898 33.3358 91.3064 32.9108 91.5564 32.2675C91.803 31.6259 91.6296 30.8959 91.1181 30.4342L61.1908 3.36343C56.1744 -1.12137 48.6163 -1.12313 43.5999 3.37007L13.6792 30.4342C13.1675 30.8959 12.9943 31.6257 13.241 32.2675C13.491 32.9108 14.1075 33.3358 14.7975 33.3358ZM63.3341 55.0017C59.6575 55.0017 56.6678 52.0117 56.6678 48.3353C56.6678 44.6589 59.6577 41.6689 63.3341 41.6689C67.0108 41.6689 70.0005 44.6589 70.0005 48.3353C70.0005 52.0117 67.0108 55.0017 63.3341 55.0017ZM43.3348 21.6694C47.0115 21.6694 50.0012 24.6594 50.0012 28.3358C50.0012 32.0122 47.0113 35.0022 43.3348 35.0022C39.6584 35.0022 36.6685 32.0122 36.6685 28.3358C36.6685 24.6594 39.6582 21.6694 43.3348 21.6694ZM37.1567 52.1568L67.1557 22.1579C67.8072 21.5062 68.8607 21.5062 69.5122 22.1579C70.1638 22.8096 70.1638 23.8629 69.5122 24.5144L39.5133 54.5134C39.1883 54.8384 38.7615 55.0017 38.335 55.0017C37.9083 55.0017 37.4817 54.8384 37.1567 54.5134C36.505 53.8617 36.505 52.8084 37.1567 52.1568Z" fill="white"/>
</g>
<defs>
<clipPath id="clip0_2_2387">
<rect width="100" height="100" fill="white"/>
</clipPath>
</defs>
</svg>
