<svg width="50" height="50" viewBox="0 0 50 50" fill="none" xmlns="http://www.w3.org/2000/svg">
<g clip-path="url(#clip0_2_2087)">
<path d="M44.5312 45.218C46.3117 44.7821 47.6562 42.8891 47.6562 40.6251C47.6562 38.0399 45.9039 35.9376 43.75 35.9376C41.5961 35.9376 39.8438 38.0399 39.8438 40.6251C39.8438 42.8907 41.1883 44.7821 42.9688 45.218V47.6563H36.0023L38.4625 39.8618C39.7594 35.781 40.1523 31.4668 39.6141 27.2188C38.8977 21.499 36.5351 16.1105 32.8135 11.7084C29.0919 7.30621 24.1716 4.08 18.6508 2.42193L13.2859 0.814117C13.1693 0.779168 13.0461 0.771971 12.9262 0.7931C12.8062 0.814229 12.6929 0.863099 12.5952 0.93581C12.4976 1.00852 12.4182 1.10306 12.3636 1.21188C12.3089 1.3207 12.2805 1.44078 12.2805 1.56255V8.5938H8.37422C8.16702 8.5938 7.9683 8.67611 7.82179 8.82263C7.67528 8.96914 7.59297 9.16785 7.59297 9.37505V12.5001C7.59297 12.7073 7.67528 12.906 7.82179 13.0525C7.9683 13.199 8.16702 13.2813 8.37422 13.2813H12.2805V47.6563H7.03125V45.218C8.81172 44.7821 10.1562 42.8891 10.1562 40.6251C10.1562 38.0399 8.40391 35.9376 6.25 35.9376C4.09609 35.9376 2.34375 38.0399 2.34375 40.6251C2.34375 42.8907 3.68828 44.7821 5.46875 45.218V47.6563H0.78125V49.2188H49.2188V47.6563H44.5312V45.218ZM41.4062 40.6251C41.4062 38.9016 42.4578 37.5001 43.75 37.5001C45.0422 37.5001 46.0938 38.9016 46.0938 40.6251C46.0938 42.3485 45.0422 43.7501 43.75 43.7501C42.4578 43.7501 41.4062 42.3485 41.4062 40.6251ZM3.90625 40.6251C3.90625 38.9016 4.95781 37.5001 6.25 37.5001C7.54219 37.5001 8.59375 38.9016 8.59375 40.6251C8.59375 42.3485 7.54219 43.7501 6.25 43.7501C4.95781 43.7501 3.90625 42.3485 3.90625 40.6251ZM9.15547 11.7188V10.1563H12.2805V11.7188H9.15547ZM13.843 2.61255L18.2031 3.92115C23.4333 5.49215 28.0946 8.54854 31.6204 12.7189C35.1463 16.8892 37.3848 21.9939 38.0641 27.4126C38.5718 31.4379 38.1986 35.5254 36.9703 39.3922L34.3641 47.6563H32.8797L35.4953 39.3751C36.6777 35.613 37.0138 31.6361 36.4797 27.729C35.7725 22.5625 33.5603 17.7184 30.1188 13.8007C26.6773 9.88296 22.1588 7.06486 17.1266 5.69771L16.3945 5.49771C16.2786 5.46676 16.1571 5.46264 16.0394 5.48565C15.9216 5.50866 15.8106 5.55821 15.7148 5.63052C15.6188 5.70386 15.5411 5.79848 15.4878 5.90692C15.4346 6.01537 15.4072 6.1347 15.4078 6.25552V47.6563H13.8453L13.843 2.61255ZM16.968 30.4688H31.6609L16.968 36.3461V30.4688ZM34.9305 27.9415C34.975 28.2618 35.0047 28.5844 35.0359 28.9063H16.968V27.3438H34.8258C34.8578 27.5438 34.9023 27.7399 34.9305 27.9415ZM16.968 19.5313H29.1344L16.968 25.3251V19.5313ZM16.968 41.4063H30.3992L16.968 47.2461V41.4063ZM16.968 39.8438V38.2813L34.1555 38.3516C34.1031 38.5336 34.057 38.7188 33.9992 38.8985L33.7023 39.836L16.968 39.8438ZM34.5578 36.7969L20.2023 36.7383L35.1562 30.7547C35.1999 32.7855 34.999 34.8142 34.5578 36.7969ZM19.6445 25.7813L32.3008 19.7532C33.2986 21.6585 34.0464 23.6846 34.5258 25.7813H19.6445ZM16.968 17.9688V16.4063H30.2117C30.5891 16.9126 30.9438 17.4344 31.282 17.9688H16.968ZM18.8695 14.8438L24.7938 11.0743C26.3157 12.1709 27.7094 13.4354 28.9484 14.8438H18.8695ZM16.968 14.2016V7.27505C19.2281 7.91814 21.3863 8.87652 23.3789 10.1219L16.968 14.2016ZM33.0375 41.9626L31.2391 47.6563H19.9422L33.0375 41.9626Z" fill="black"/>
<path d="M42.1875 16.4062H46.875C47.4346 16.4065 47.9759 16.2064 48.4009 15.8423C48.8259 15.4782 49.1065 14.974 49.1921 14.421C49.2777 13.8679 49.1626 13.3025 48.8676 12.8269C48.5726 12.3514 48.1171 11.9971 47.5836 11.8281C47.4309 11.1323 47.045 10.5095 46.4898 10.063C45.9347 9.61647 45.2437 9.37305 44.5312 9.37305C43.8188 9.37305 43.1278 9.61647 42.5727 10.063C42.0175 10.5095 41.6316 11.1323 41.4789 11.8281C40.9454 11.9971 40.4899 12.3514 40.1949 12.8269C39.8999 13.3025 39.7848 13.8679 39.8704 14.421C39.956 14.974 40.2366 15.4782 40.6616 15.8423C41.0866 16.2064 41.6279 16.4065 42.1875 16.4062ZM42.1875 13.2812C42.3947 13.2812 42.5934 13.1989 42.7399 13.0524C42.8864 12.9059 42.9687 12.7072 42.9687 12.5C42.9687 12.0856 43.1334 11.6882 43.4264 11.3951C43.7194 11.1021 44.1168 10.9375 44.5312 10.9375C44.9456 10.9375 45.3431 11.1021 45.6361 11.3951C45.9291 11.6882 46.0937 12.0856 46.0937 12.5C46.0937 12.7072 46.1761 12.9059 46.3226 13.0524C46.4691 13.1989 46.6678 13.2812 46.875 13.2812C47.0822 13.2812 47.2809 13.3635 47.4274 13.5101C47.5739 13.6566 47.6562 13.8553 47.6562 14.0625C47.6562 14.2697 47.5739 14.4684 47.4274 14.6149C47.2809 14.7614 47.0822 14.8437 46.875 14.8437H42.1875C41.9803 14.8437 41.7816 14.7614 41.6351 14.6149C41.4886 14.4684 41.4062 14.2697 41.4062 14.0625C41.4062 13.8553 41.4886 13.6566 41.6351 13.5101C41.7816 13.3635 41.9803 13.2812 42.1875 13.2812Z" fill="black"/>
<path d="M3.125 24.2187H7.8125C8.37214 24.219 8.91339 24.0189 9.33838 23.6548C9.76337 23.2907 10.044 22.7865 10.1296 22.2335C10.2152 21.6804 10.1001 21.115 9.80509 20.6394C9.51007 20.1639 9.05462 19.8096 8.52109 19.6406C8.36836 18.9448 7.98246 18.322 7.42733 17.8755C6.8722 17.429 6.18116 17.1855 5.46875 17.1855C4.75633 17.1855 4.0653 17.429 3.51017 17.8755C2.95504 18.322 2.56913 18.9448 2.4164 19.6406C1.88288 19.8096 1.42743 20.1639 1.1324 20.6394C0.837378 21.115 0.722257 21.6804 0.807858 22.2335C0.893459 22.7865 1.17413 23.2907 1.59912 23.6548C2.02411 24.0189 2.56536 24.219 3.125 24.2187ZM3.125 21.0937C3.3322 21.0937 3.53091 21.0114 3.67743 20.8649C3.82394 20.7184 3.90625 20.5197 3.90625 20.3125C3.90625 19.8981 4.07087 19.5007 4.36389 19.2076C4.65692 18.9146 5.05435 18.75 5.46875 18.75C5.88315 18.75 6.28058 18.9146 6.5736 19.2076C6.86663 19.5007 7.03125 19.8981 7.03125 20.3125C7.03125 20.5197 7.11356 20.7184 7.26007 20.8649C7.40658 21.0114 7.6053 21.0937 7.8125 21.0937C8.0197 21.0937 8.21841 21.176 8.36493 21.3226C8.51144 21.4691 8.59375 21.6678 8.59375 21.875C8.59375 22.0822 8.51144 22.2809 8.36493 22.4274C8.21841 22.5739 8.0197 22.6562 7.8125 22.6562H3.125C2.9178 22.6562 2.71908 22.5739 2.57257 22.4274C2.42606 22.2809 2.34375 22.0822 2.34375 21.875C2.34375 21.6678 2.42606 21.4691 2.57257 21.3226C2.71908 21.176 2.9178 21.0937 3.125 21.0937Z" fill="black"/>
</g>
<defs>
<clipPath id="clip0_2_2087">
<rect width="50" height="50" fill="white"/>
</clipPath>
</defs>
</svg>
