<svg width="50" height="50" viewBox="0 0 50 50" fill="none" xmlns="http://www.w3.org/2000/svg">
<path d="M23.75 20.625C23.75 18.5416 22.0834 16.875 20 16.875C17.9167 16.875 16.25 18.5416 16.25 20.625C16.25 22.7083 17.9167 24.375 20 24.375C22.0834 24.375 23.75 22.7083 23.75 20.625ZM18.5417 20.625C18.5417 19.5833 19.375 18.9583 20.2083 18.9583C21.0416 18.9583 21.875 19.7917 21.875 20.625C21.875 21.4583 21.0416 22.2916 20.2083 22.2916C19.375 22.2916 18.5417 21.6667 18.5417 20.625ZM29.5834 32.9167C31.6667 32.9167 33.3333 31.25 33.3333 29.1667C33.3333 27.0833 31.6667 25.4167 29.5834 25.4167C27.5 25.4167 25.8334 27.0833 25.8334 29.1667C25.8334 31.25 27.5 32.9167 29.5834 32.9167ZM29.5834 27.5C30.4167 27.5 31.25 28.3334 31.25 29.1667C31.25 30.2083 30.4167 30.8333 29.5834 30.8333C28.75 30.8333 27.9167 30 27.9167 29.1667C27.9167 28.125 28.75 27.5 29.5834 27.5ZM19.375 31.875C19.5833 31.875 20 31.6667 20.2084 31.4584L30.8333 20.4167C31.25 20 31.25 19.375 30.8333 18.9583C30.4167 18.5417 29.7917 18.5417 29.375 18.9583L18.75 30C18.3334 30.4167 18.3334 31.0417 18.75 31.4584C18.75 31.6667 18.9583 31.875 19.375 31.875Z" fill="black"/>
<path d="M46.6666 25C46.6666 12.9167 36.875 3.125 24.7917 3.125C12.9167 3.125 3.125 12.9167 3.125 25C3.125 36.6666 12.2916 46.25 23.9583 46.875C24.5833 46.875 25 46.4584 25 45.8334C25 45.2083 24.5833 44.7917 23.9583 44.7917C13.3333 44.375 5 35.625 5 25C5 14.1667 13.75 5.2084 24.7917 5.2084C35.8333 5.2084 44.5833 13.9584 44.5833 25C44.5833 34.1667 38.3333 42.0834 29.375 44.1667L30.2083 42.7084C30.4167 42.2917 30.4167 41.6667 29.7917 41.25C29.375 41.0416 28.75 41.0416 28.3333 41.6666L26.6667 44.5833C26.4583 44.5833 26.4583 44.7916 26.25 45C26.0417 45.2083 26.0417 45.4166 26.0417 45.625C26.0417 45.8333 26.25 46.4583 26.4583 46.6666C26.6667 46.6666 26.875 46.875 27.0833 46.875L30 48.5416C30.2083 48.5416 30.4166 48.75 30.625 48.75C31.0416 48.75 31.25 48.5416 31.4583 48.3333C31.6667 47.9167 31.6666 47.2917 31.0416 46.875L30.2083 46.25C40 43.5416 46.6666 35 46.6666 25V25Z" fill="black"/>
</svg>
