<svg width="50" height="50" viewBox="0 0 50 50" fill="none" xmlns="http://www.w3.org/2000/svg">
<g clip-path="url(#clip0_2_2083)">
<path d="M49.9756 9.64036C49.8067 7.19211 48.762 4.89221 47.0343 3.16438C43.0724 -0.797534 36.6257 -0.797729 32.6636 3.16438C31.3743 4.45364 30.4848 6.0467 30.0345 7.75295C28.3248 6.6426 26.3082 6.08489 24.2419 6.17258C21.7638 6.27766 19.4322 7.30227 17.677 9.05764C17.676 9.05862 17.675 9.05969 17.674 9.06067L13.2533 13.4814C9.40098 17.3337 9.40098 23.6018 13.2533 27.4541L15.8456 30.0464H11.3457C10.9412 30.0464 10.6133 30.3743 10.6133 30.7788C10.6133 31.1833 10.9412 31.5113 11.3457 31.5113H17.3104L22.7442 36.945C24.6704 38.8712 27.2005 39.8343 29.7307 39.8343C30.3952 39.8343 31.0597 39.7672 31.7133 39.6343C31.7167 39.7318 31.7186 39.8291 31.7186 39.9262C31.7186 44.5667 27.9432 48.3421 23.3026 48.3421H9.88086C7.63213 48.3421 5.51885 47.4667 3.92988 45.8768C2.34023 44.2882 1.46484 42.1749 1.46484 39.9262C1.46484 37.9135 2.18672 35.9659 3.49746 34.4421C4.79482 32.9338 6.58447 31.931 8.53672 31.6183C8.93613 31.5543 9.20801 31.1786 9.14404 30.7792C9.07998 30.3798 8.7042 30.1085 8.30498 30.1719C6.01143 30.5394 3.90977 31.7166 2.38701 33.4869C0.847754 35.2763 0 37.5632 0 39.9262C0 42.5663 1.02793 45.0477 2.89404 46.9126C4.75938 48.779 7.24072 49.807 9.88086 49.807H23.3026C28.751 49.807 33.1834 45.3744 33.1834 39.9262C33.1834 39.6927 33.1743 39.4582 33.1577 39.2243C34.457 38.746 35.6754 37.9866 36.717 36.945L41.1221 32.54C41.1283 32.5338 41.1347 32.5279 41.1408 32.5216C43.007 30.6554 44.0349 28.1741 44.0349 25.5349C44.0349 23.6246 43.4782 21.76 42.4522 20.1728C43.6309 19.8608 44.7586 19.3356 45.7753 18.6035C46.1036 18.3672 46.1781 17.9095 45.9418 17.5812C45.7054 17.2529 45.2476 17.1785 44.9194 17.4148C42.595 19.0882 39.5924 19.5038 36.8872 18.5264C36.6201 18.43 36.3214 18.4965 36.1204 18.6973L33.0548 21.763C32.4385 22.3802 31.6181 22.72 30.7449 22.72C29.8725 22.72 29.052 22.3801 28.4348 21.7627C27.8179 21.1458 27.478 20.3255 27.478 19.453C27.478 18.5804 27.8178 17.7601 28.4348 17.1432L31.5011 14.0768C31.702 13.8759 31.7685 13.5771 31.672 13.3099C30.5297 10.1496 31.3254 6.57366 33.6994 4.19983C35.3421 2.55715 37.526 1.65237 39.8489 1.65237C42.1718 1.65237 44.3557 2.55706 45.9983 4.19983C49.0187 7.22004 49.3799 12.0878 46.8386 15.5226C46.5979 15.8478 46.6665 16.3065 46.9917 16.547C47.3169 16.7876 47.7756 16.7191 48.0161 16.3939C49.4469 14.4605 50.1428 12.0619 49.9756 9.64036ZM35.6812 35.9093C32.4002 39.1906 27.061 39.1905 23.78 35.9093L14.2891 26.4184C12.6996 24.8289 11.8242 22.7156 11.8242 20.4678C11.8242 18.2199 12.6996 16.1067 14.2891 14.5172L15.0479 13.7584C14.8732 14.4989 14.7828 15.2647 14.7828 16.0445C14.7828 18.683 15.8105 21.164 17.6769 23.0302L27.1676 32.5219C29.0938 34.4476 31.624 35.4104 34.1542 35.4104C34.9247 35.4104 35.6952 35.3205 36.4486 35.1419L35.6812 35.9093ZM27.3989 16.1076C26.5055 17.0012 26.0133 18.1893 26.0133 19.4531C26.0133 20.7169 26.5055 21.9051 27.3989 22.7987C28.293 23.6927 29.4813 24.1851 30.7449 24.1851C32.0097 24.1851 33.1981 23.6926 34.0909 22.7987L36.8355 20.0539C38.1562 20.4636 39.5271 20.5951 40.868 20.4608C41.9679 21.9127 42.57 23.6992 42.57 25.535C42.57 27.7828 41.6945 29.8963 40.1051 31.4858L40.1049 31.4856L40.0956 31.4949C38.4559 33.129 36.3055 33.9463 34.1542 33.9461C31.9994 33.9459 29.8438 33.1258 28.2034 31.4859L18.7127 21.9943C17.1231 20.4047 16.2477 18.2916 16.2477 16.0444C16.2477 13.7969 17.1228 11.6839 18.7117 10.0945L18.7128 10.0934C20.2079 8.59827 22.1936 7.72561 24.3039 7.63616C26.2737 7.55295 28.1911 8.15481 29.7465 9.33733C29.611 10.6744 29.7369 12.0437 30.1448 13.3618L27.3989 16.1076Z" fill="black"/>
<path d="M7.84483 36.8798L6.24718 37.8346C5.39151 38.347 5.11153 39.4599 5.62306 40.3157L8.78966 45.6124C9.11759 46.1606 9.70723 46.4935 10.3412 46.4935C10.3651 46.4935 10.3891 46.493 10.4131 46.4921L12.6579 46.4037C13.3202 46.3775 13.914 45.9925 14.207 45.3995L18.8577 36.0179C19.0725 35.5849 19.1058 35.0944 18.9515 34.6365C18.7972 34.1787 18.4737 33.8082 18.0403 33.5931L16.3732 32.7674C15.4796 32.3241 14.3918 32.6904 13.9482 33.5846L11.2442 39.0399L10.3261 37.5044C9.81427 36.6481 8.70138 36.368 7.84483 36.8798ZM9.06886 38.256L10.6758 40.9436C10.8133 41.1735 11.0638 41.3097 11.3332 41.2996C11.601 41.289 11.8416 41.1331 11.9606 40.893L15.2604 34.2352C15.3448 34.0649 15.5521 33.9952 15.7224 34.0798L17.3896 34.9056C17.5871 35.0429 17.6195 35.1387 17.5451 35.3675L12.8941 44.7499C12.8385 44.8623 12.7258 44.9351 12.6001 44.9401L10.3552 45.0285C10.23 45.0342 10.1117 44.9691 10.0469 44.8606L6.88038 39.564C6.78292 39.4012 6.83643 39.189 6.99913 39.0917L8.5963 38.1372C8.65157 38.1042 8.71241 38.0884 8.77257 38.0884C8.88995 38.0885 9.0044 38.1482 9.06886 38.256Z" fill="black"/>
</g>
<defs>
<clipPath id="clip0_2_2083">
<rect width="50" height="50" fill="white"/>
</clipPath>
</defs>
</svg>
