<svg width="50" height="50" viewBox="0 0 50 50" fill="none" xmlns="http://www.w3.org/2000/svg">
<path d="M24 30.2097V39.4746C24 40.3017 23.3284 40.972 22.5 40.972H3.5C2.67158 40.972 2 40.3017 2 39.4746V10.5254C2 9.69839 2.67158 9.02803 3.5 9.02803H22.5C23.3284 9.02803 24 9.69834 24 10.5254V22.3049C24 22.8562 24.4477 23.3032 25 23.3032C25.5523 23.3032 26 22.8562 26 22.3049V10.5254C26 8.59565 24.4329 7.03149 22.5 7.03149H3.5C1.56709 7.03149 0 8.59565 0 10.5254V39.4746C0 41.4044 1.56709 42.9686 3.5 42.9686H22.5C24.4329 42.9686 26 41.4044 26 39.4746V30.2097C26 29.6584 25.5523 29.2115 25 29.2115C24.4477 29.2115 24 29.6584 24 30.2097Z" fill="black"/>
<path d="M19.5 16.0147C19.7762 16.0147 20 15.7914 20 15.5156V13.5191C20 13.2434 19.7762 13.02 19.5 13.02H6.5C6.22378 13.02 6 13.2434 6 13.5191V15.5156C6 15.7914 6.22378 16.0147 6.5 16.0147H19.5ZM19.5 18.0113H6.5C5.11924 18.0113 4 16.894 4 15.5156V13.5191C4 12.1407 5.11924 11.0234 6.5 11.0234H19.5C20.8808 11.0234 22 12.1407 22 13.5191V15.5156C22 16.894 20.8808 18.0113 19.5 18.0113ZM8.91841 22.817C9.1854 24.2235 7.9729 25.4339 6.56392 25.1674C5.7814 25.0191 5.14092 24.3797 4.99292 23.5986C4.72544 22.1921 5.93794 20.9817 7.34692 21.2482C8.12993 21.3965 8.76992 22.0359 8.91841 22.817ZM14.9184 22.817C15.1854 24.2235 13.9729 25.4339 12.5639 25.1674C11.7814 25.0191 11.1409 24.3797 10.9929 23.5986C10.7254 22.1921 11.9379 20.9817 13.3469 21.2482C14.1299 21.3965 14.7699 22.0359 14.9184 22.817ZM8.91841 28.8565C9.1854 30.263 7.9729 31.4734 6.56392 31.2069C5.7814 31.0586 5.14092 30.4192 4.99292 29.6381C4.72544 28.2316 5.93794 27.0212 7.34692 27.2877C8.12993 27.436 8.76992 28.0754 8.91841 28.8565ZM14.9184 28.8565C15.1854 30.263 13.9729 31.4734 12.5639 31.2069C11.7814 31.0586 11.1409 30.4192 10.9929 29.6381C10.7254 28.2316 11.9379 27.0212 13.3469 27.2877C14.1299 27.436 14.7699 28.0754 14.9184 28.8565ZM20.9184 28.8565C21.1854 30.263 19.9729 31.4734 18.5639 31.2069C17.7814 31.0586 17.1409 30.4192 16.9929 29.6381C16.7254 28.2316 17.9379 27.0212 19.3469 27.2877C20.1299 27.436 20.7699 28.0754 20.9184 28.8565ZM8.91841 34.8461C9.1854 36.2526 7.9729 37.463 6.56392 37.1965C5.7814 37.0482 5.14092 36.4088 4.99292 35.6277C4.72544 34.2212 5.93794 33.0108 7.34692 33.2773C8.12993 33.4256 8.76992 34.065 8.91841 34.8461ZM14.9184 34.8461C15.1854 36.2526 13.9729 37.463 12.5639 37.1965C11.7814 37.0482 11.1409 36.4088 10.9929 35.6277C10.7254 34.2212 11.9379 33.0108 13.3469 33.2773C14.1299 33.4256 14.7699 34.065 14.9184 34.8461ZM20.9184 34.8461C21.1854 36.2526 19.9729 37.463 18.5639 37.1965C17.7814 37.0482 17.1409 36.4088 16.9929 35.6277C16.7254 34.2212 17.9379 33.0108 19.3469 33.2773C20.1299 33.4256 20.7699 34.065 20.9184 34.8461ZM29.6815 33.0409L19.932 23.3083C19.4565 22.8337 19.4565 22.0637 19.932 21.5891L20.1668 21.3552C20.6432 20.8794 21.4142 20.8794 21.8896 21.3542L31.6394 31.0865C32.0299 31.4764 32.663 31.4764 33.0536 31.0865C33.4441 30.6966 33.444 30.0646 33.0535 29.6747L23.304 19.9426C22.0477 18.6877 20.0097 18.6877 18.7531 19.9429L18.5186 20.1765C17.2613 21.4316 17.2613 23.4657 18.5179 24.7201L28.2674 34.4526C28.6579 34.8425 29.2911 34.8425 29.6816 34.4526C30.0721 34.0628 30.0721 33.4307 29.6816 33.0409L29.6815 33.0409Z" fill="black"/>
<path d="M33.1217 29.7463L28.0172 24.6507C27.5413 24.1756 27.5413 23.4062 28.017 22.9316L28.253 22.6956C28.7277 22.2217 29.499 22.2217 29.9745 22.6963L35.0795 27.7919C35.4701 28.1818 36.1033 28.1817 36.4937 27.7919C36.8842 27.402 36.8842 26.77 36.4937 26.3801L31.3887 21.2845C30.1322 20.0302 28.0946 20.0302 26.838 21.2845L26.6023 21.5204C25.346 22.7738 25.346 24.8076 26.603 26.0624L31.7075 31.1581C32.098 31.5479 32.7312 31.5479 33.1217 31.1581C33.5122 30.7682 33.5122 30.1362 33.1217 29.7463Z" fill="black"/>
<path d="M37.4352 27.3166L32.3307 22.221C31.8548 21.7459 31.8548 20.9766 32.3305 20.5019L32.5665 20.2659C33.0412 19.792 33.8125 19.792 34.288 20.2666L39.393 25.3622C39.7835 25.7521 40.4167 25.752 40.8072 25.3622C41.1977 24.9724 41.1977 24.3403 40.8072 23.9504L35.7022 18.8548C34.4457 17.6005 32.4081 17.6005 31.1515 18.8548L30.9158 19.0907C29.6595 20.3441 29.6595 22.3779 30.9165 23.6327L36.021 28.7284C36.4115 29.1182 37.0447 29.1182 37.4352 28.7284C37.8257 28.3385 37.8257 27.7065 37.4352 27.3166Z" fill="black"/>
<path d="M41.7366 24.9104L36.6321 19.8147C36.1562 19.3396 36.1562 18.5703 36.6319 18.0956L36.8678 17.8596C37.3425 17.3857 38.1139 17.3857 38.5894 17.8603L43.6944 22.956C44.0849 23.3458 44.7181 23.3458 45.1086 22.956C45.4991 22.5661 45.4991 21.934 45.1085 21.5442L40.0036 16.4485C38.7471 15.1942 36.7094 15.1942 35.4529 16.4486L35.2171 16.6844C33.9608 17.9378 33.9608 19.9716 35.2179 21.2265L40.3224 26.3221C40.7129 26.712 41.346 26.712 41.7366 26.3221C42.1271 25.9323 42.1271 25.3002 41.7366 24.9103V24.9104ZM33.4787 36.831L28.9376 32.2979L27.5234 33.7097L32.0645 38.2428L33.4787 36.831Z" fill="black"/>
<path d="M39.9668 19.236L45.8048 25.0639L47.219 23.6521L41.381 17.8242L39.9668 19.236Z" fill="black"/>
<path d="M45.4672 24.7203C47.0667 26.3083 47.9813 28.4585 47.9813 30.7557C47.9813 35.4567 44.1641 39.2674 39.4548 39.2674C37.1618 39.2674 35.0152 38.3612 33.4259 36.7747L32.0117 38.1864C33.9724 40.1437 36.6259 41.264 39.4548 41.264C45.2686 41.264 49.9813 36.5594 49.9813 30.7558C49.9813 27.9217 48.8507 25.2637 46.8775 23.3047L45.4672 24.7203V24.7203Z" fill="black"/>
</svg>
