<svg width="50" height="50" viewBox="0 0 50 50" fill="none" xmlns="http://www.w3.org/2000/svg">
<g clip-path="url(#clip0_2_1841)">
<path d="M10.3404 10.4122L7.14516 9.70012C6.76504 9.61542 6.4556 9.70052 6.30835 9.92657C6.18155 10.1211 6.18627 10.3973 6.32185 10.704L6.708 11.5775C6.79546 11.7552 6.66985 11.9783 6.6052 12.0372C2.87614 15.4307 0.737305 20.2586 0.737305 25.2829C0.737305 31.2349 3.68528 36.7799 8.62341 40.1159C8.83018 40.2555 9.07105 40.3294 9.31979 40.3294C9.73479 40.3294 10.1209 40.1244 10.353 39.781C10.4928 39.5742 10.5666 39.3335 10.5666 39.0846C10.5666 38.6696 10.3615 38.2834 10.018 38.0515C5.76669 35.1793 3.22859 30.4059 3.22859 25.2827C3.22859 21.2366 4.87677 17.2655 7.75054 14.3879C7.82502 14.3133 7.86488 14.3076 7.87524 14.3076C7.89438 14.3076 7.92218 14.3361 7.94237 14.3713L8.3019 15.185C8.45217 15.525 8.66864 15.7123 8.91135 15.7123C9.1492 15.7123 9.36634 15.5307 9.5225 15.2011L11.0768 11.9196C11.2286 11.5991 11.2349 11.2644 11.0945 10.9771C10.9545 10.6899 10.6866 10.4895 10.3404 10.4122Z" fill="black"/>
<path d="M49.2623 24.7146C49.2623 18.7625 46.3143 13.2175 41.376 9.88156C41.1692 9.74192 40.9284 9.66797 40.6796 9.66797C40.2646 9.66797 39.8785 9.87291 39.6465 10.2164C39.5068 10.4234 39.4328 10.6641 39.4328 10.9128C39.4328 11.3278 39.6379 11.714 39.9814 11.9459C44.2327 14.818 46.7708 19.5914 46.7708 24.7147C46.7708 28.7608 45.1227 32.7319 42.2489 35.6095C42.1744 35.684 42.1346 35.6899 42.1242 35.6899C42.1051 35.6899 42.0773 35.6613 42.0571 35.6261L41.6975 34.8124C41.5473 34.4724 41.3308 34.2852 41.0881 34.2852C40.8502 34.2852 40.6331 34.4668 40.4771 34.7963L38.9224 38.0778C38.7705 38.3983 38.7642 38.7329 38.9045 39.0201C39.0448 39.3072 39.3127 39.5079 39.6589 39.5852L42.8541 40.2973C42.953 40.3193 43.0475 40.3305 43.135 40.3305C43.3845 40.3305 43.5821 40.2383 43.6911 40.0709C43.8179 39.8763 43.8132 39.6003 43.6776 39.2936L43.2914 38.42C43.204 38.2424 43.3295 38.0192 43.3942 37.9603C47.1234 34.5668 49.2623 29.7388 49.2623 24.7146Z" fill="black"/>
<path d="M25.5382 10.4325C24.2607 9.92039 23.8915 9.61068 23.8915 9.05132C23.8915 8.60368 24.2305 8.0809 25.1862 8.0809C26.0315 8.0809 26.6799 8.41421 26.6855 8.41722C26.7538 8.45354 26.8303 8.47295 26.9061 8.47295C27.0911 8.47295 27.2547 8.36097 27.3226 8.18776L27.5548 7.59405C27.6356 7.37783 27.5131 7.18928 27.3566 7.12162C26.836 6.89492 25.8189 6.71974 25.8085 6.7179C25.7921 6.71515 25.735 6.70296 25.735 6.63622L25.7319 5.77515C25.7319 5.51579 25.5153 5.30469 25.2494 5.30469H24.8328C24.5673 5.30469 24.3507 5.51579 24.3507 5.77541L24.3517 6.68066C24.3517 6.75003 24.2766 6.78019 24.2492 6.78674C22.9652 7.09251 22.1627 8.03304 22.1627 9.21955C22.1627 10.6986 23.3852 11.367 24.7052 11.8687C25.7605 12.2829 26.1909 12.703 26.1909 13.3193C26.1909 13.9897 25.5814 14.4581 24.7078 14.4581C23.962 14.4581 22.9525 13.9854 22.9426 13.9805C22.878 13.95 22.8096 13.9344 22.7392 13.9344C22.5471 13.9344 22.3798 14.0505 22.3128 14.2304L22.0912 14.8307C22.0123 15.0549 22.1337 15.2369 22.289 15.3178C22.9089 15.6406 24.1085 15.8299 24.1617 15.8381C24.1761 15.8402 24.2492 15.866 24.2492 15.9326V16.8341C24.2492 17.0936 24.4656 17.3046 24.7317 17.3046H25.1622C25.4282 17.3046 25.6448 17.0936 25.6448 16.8341V15.8856C25.6448 15.7968 25.7102 15.7891 25.7237 15.7858C27.0917 15.4784 27.9343 14.4776 27.9343 13.2209C27.9344 11.9299 27.2176 11.0959 25.5382 10.4325Z" fill="black"/>
<path d="M25.0002 0C18.756 0 13.6943 5.06177 13.6943 11.3059C13.6943 17.5498 18.756 22.612 25.0002 22.612C31.2441 22.612 36.306 17.5499 36.306 11.3059C36.306 5.06177 31.2441 0 25.0002 0ZM25.0002 19.9915C20.203 19.9915 16.3146 16.1028 16.3146 11.3059C16.3146 6.50895 20.203 2.62031 25.0002 2.62031C29.7971 2.62031 33.6856 6.50895 33.6856 11.3059C33.6856 16.1028 29.7971 19.9915 25.0002 19.9915Z" fill="black"/>
<path d="M25.0003 27.3867C18.756 27.3867 13.6943 32.4485 13.6943 38.6926C13.6943 44.9367 18.756 49.9987 25.0003 49.9987C31.2443 49.9987 36.306 44.9368 36.306 38.6926C36.3059 32.4485 31.2443 27.3867 25.0003 27.3867ZM25.0003 47.3784C20.2032 47.3784 16.3146 43.4895 16.3146 38.6926C16.3146 33.8958 20.2032 30.007 25.0003 30.007C29.7971 30.007 33.6856 33.8958 33.6856 38.6926C33.6855 43.4895 29.7971 47.3784 25.0003 47.3784Z" fill="black"/>
<path d="M28.3498 41.2948C28.1069 41.0172 27.6848 40.989 27.407 41.2322C26.7923 41.7705 26.134 42.0669 25.3158 42.0669C24.1645 42.0669 23.2777 41.487 22.6684 40.6043C22.6427 40.567 22.6032 40.4909 22.7343 40.4909H24.2624C24.6314 40.4909 24.9306 40.1918 24.9306 39.8227C24.9306 39.4536 24.6315 39.1545 24.2624 39.1545H22.2152C22.1046 39.1545 22.093 39.0671 22.0887 39.0231C22.0777 38.9141 22.0718 38.8037 22.0718 38.6919C22.0718 38.5591 22.0731 38.494 22.0883 38.3653C22.0909 38.3418 22.1115 38.2294 22.248 38.2294H24.5708C24.9398 38.2294 25.239 37.9302 25.239 37.5612C25.239 37.1923 24.9399 36.8929 24.5708 36.8929H22.8163C22.5868 36.8929 22.6944 36.74 22.7494 36.667C23.3657 35.8478 24.214 35.3167 25.3157 35.3167C25.9098 35.3167 26.3626 35.473 26.873 35.7686C27.1923 35.9534 27.6011 35.8447 27.7862 35.5253C27.971 35.206 27.8622 34.7972 27.5429 34.6123C26.8292 34.1989 26.1449 33.9805 25.3158 33.9805C23.4492 33.9805 21.9641 35.0719 21.2022 36.6501C21.1637 36.7298 21.1227 36.8929 20.9588 36.8929H20.1017C19.7327 36.8929 19.4335 37.1921 19.4335 37.5612C19.4335 37.9302 19.7326 38.2294 20.1017 38.2294H20.6693C20.7786 38.2294 20.7505 38.3237 20.7485 38.3473C20.7376 38.4765 20.7356 38.56 20.7356 38.6919C20.7356 38.8119 20.7403 38.9308 20.7492 39.0487C20.7519 39.0841 20.7687 39.1546 20.6499 39.1546H19.7932C19.4242 39.1546 19.125 39.4537 19.125 39.8228C19.125 40.1919 19.4241 40.491 19.7932 40.491H20.986C21.1281 40.491 21.1255 40.5674 21.1424 40.6053C21.8772 42.2523 23.3987 43.4034 25.3157 43.4034C26.458 43.4034 27.4287 42.9895 28.2873 42.2376C28.565 41.9945 28.5928 41.5723 28.3498 41.2948Z" fill="black"/>
</g>
<defs>
<clipPath id="clip0_2_1841">
<rect width="50" height="50" fill="white"/>
</clipPath>
</defs>
</svg>
