<svg width="50" height="50" viewBox="0 0 50 50" fill="none" xmlns="http://www.w3.org/2000/svg">
<g clip-path="url(#clip0_2_2093)">
<path d="M45.3625 5.80292H44.7289V3.63041C44.7289 1.87145 43.3006 0.44043 41.5447 0.44043H37.0258C36.6158 0.44043 36.2831 0.773722 36.2831 1.1846C36.2831 1.59549 36.6158 1.9284 37.0258 1.9284H41.5447C42.4816 1.9284 43.2438 2.69207 43.2438 3.63041V13.37L38.3625 6.00894C37.9539 5.39433 37.2704 5.02702 36.5334 5.02702C35.796 5.02702 35.112 5.39433 34.7034 6.0097L30.1815 12.8296L28.3798 10.1128C27.972 9.49781 27.2881 9.1305 26.5507 9.1305C25.8133 9.1305 25.1293 9.49781 24.7215 10.1132L21.3097 15.2578V3.63041C21.3097 2.69207 22.0718 1.9284 23.0083 1.9284H34.0553C34.4654 1.9284 34.798 1.59549 34.798 1.1846C34.798 0.773722 34.4654 0.44043 34.0553 0.44043H23.0083C21.2528 0.44043 19.8246 1.87145 19.8246 3.63041V5.80292H4.63676C2.08015 5.80292 0 7.88715 0 10.4488V37.0858C0 39.6478 2.08015 41.7316 4.63676 41.7316H17.6453L15.7215 45.3898H14.7331C13.5612 45.3898 12.6076 46.3454 12.6076 47.5195C12.6076 48.6937 13.5612 49.6492 14.7331 49.6492H15.6834C16.0934 49.6492 16.4261 49.3159 16.4261 48.9051C16.4261 48.4942 16.0934 48.1613 15.6834 48.1613H14.7331C14.3803 48.1613 14.093 47.8735 14.093 47.5195C14.093 47.166 14.3803 46.8782 14.7331 46.8782H35.2665C35.6194 46.8782 35.9066 47.166 35.9066 47.5195C35.9066 47.8735 35.6194 48.1613 35.2665 48.1613H18.6535C18.2434 48.1613 17.9111 48.4942 17.9111 48.9051C17.9111 49.3159 18.2434 49.6492 18.6535 49.6492H35.2665C36.4384 49.6492 37.392 48.6937 37.392 47.5195C37.392 46.3454 36.4384 45.3898 35.2665 45.3898H34.2781L32.3544 41.7316H45.3625C47.9195 41.7316 50 39.6478 50 37.0858V10.4488C50 7.88715 47.9195 5.80292 45.3625 5.80292ZM17.4004 45.3898L19.3241 41.7316H30.6759L32.5993 45.3898H17.4004ZM24.7299 35.792C24.7299 36.5083 24.1486 37.0911 23.4333 37.0911H9.2247C8.50945 37.0911 7.92809 36.5083 7.92809 35.792V24.3404C7.92809 23.6238 8.50945 23.0413 9.2247 23.0413H23.4333C24.1486 23.0413 24.7299 23.6238 24.7299 24.3404V35.792ZM23.4333 21.5529H9.2247C7.69081 21.5529 6.44264 22.8035 6.44264 24.3404V34.0743H6.3961C5.05524 34.0743 3.96423 32.9816 3.96423 31.6388V12.5211C3.96423 11.1776 5.05524 10.0849 6.3961 10.0849H19.8246V16.1289C19.8246 17.8878 21.2528 19.3189 23.0083 19.3189H41.5447C43.3006 19.3189 44.7289 17.8878 44.7289 16.1289V10.3612C45.5101 10.7702 46.0346 11.5901 46.0346 12.5211V31.6384C46.0346 32.9816 44.9444 34.0739 43.6039 34.0739H26.2154V24.34C26.2154 22.8035 24.9672 21.5529 23.4333 21.5529ZM35.9402 6.83338C36.0744 6.63119 36.2907 6.51499 36.533 6.51499C36.7756 6.51499 36.9915 6.63119 37.1258 6.833L43.2438 16.0593V16.1289C43.2438 17.0676 42.4816 17.8309 41.5447 17.8309H33.4976L31.0726 14.1742L35.9402 6.83338ZM25.9583 10.9365C26.0925 10.7343 26.3081 10.6185 26.5507 10.6185C26.7929 10.6185 27.0088 10.7343 27.1427 10.9365L31.7146 17.8309H23.0083C22.5121 17.8309 22.0665 17.6153 21.7556 17.2744L25.9583 10.9365ZM48.5149 37.0858C48.5149 38.8272 47.1008 40.2437 45.3625 40.2437H4.63676C2.89879 40.2437 1.48506 38.8272 1.48506 37.0858V10.4488C1.48506 8.70777 2.89879 7.29127 4.63676 7.29127H19.8246V8.59654H6.3961C4.23622 8.59654 2.47917 10.3574 2.47917 12.5211V31.6388C2.47917 33.8022 4.23622 35.5623 6.3961 35.5623H6.44302V35.792C6.44302 37.3289 7.69081 38.5791 9.2247 38.5791H23.4337C24.9676 38.5791 26.2154 37.3289 26.2154 35.792V35.5623H43.6039C45.763 35.5623 47.5197 33.8022 47.5197 31.6388V12.5211C47.5197 10.7633 46.3581 9.25013 44.7289 8.76281V7.29127H45.3625C47.1008 7.29127 48.5149 8.70777 48.5149 10.4488V37.0858Z" fill="black"/>
<path d="M27.2533 4.75742C27.2533 6.11849 28.3584 7.22577 29.7168 7.22577C31.0752 7.22577 32.1804 6.11849 32.1804 4.75742C32.1804 3.39634 31.0752 2.28906 29.7168 2.28906C28.3584 2.28906 27.2533 3.39634 27.2533 4.75742ZM30.6953 4.75742C30.6953 5.29787 30.2562 5.73742 29.7168 5.73742C29.1774 5.73742 28.7387 5.29787 28.7387 4.75742C28.7387 4.21696 29.1774 3.77703 29.7168 3.77703C30.2562 3.77703 30.6953 4.21696 30.6953 4.75742Z" fill="black"/>
<path d="M22.2202 26.0156H10.4378C10.0277 26.0156 9.69543 26.3489 9.69543 26.7598C9.69543 27.1707 10.0277 27.5036 10.4378 27.5036H22.2202C22.6303 27.5036 22.963 27.1707 22.963 26.7598C22.963 26.3489 22.6303 26.0156 22.2202 26.0156Z" fill="black"/>
<path d="M22.2202 29.2639H10.4378C10.0277 29.2639 9.69543 29.5972 9.69543 30.0081C9.69543 30.419 10.0277 30.7523 10.4378 30.7523H22.2202C22.6303 30.7523 22.963 30.419 22.963 30.0081C22.963 29.5972 22.6303 29.2639 22.2202 29.2639Z" fill="black"/>
<path d="M16.3925 32.6282H10.4378C10.0277 32.6282 9.69543 32.9611 9.69543 33.3723C9.69543 33.7832 10.0277 34.1161 10.4378 34.1161H16.3925C16.8026 34.1161 17.1352 33.7832 17.1352 33.3723C17.1352 32.9611 16.8026 32.6282 16.3925 32.6282Z" fill="black"/>
</g>
<defs>
<clipPath id="clip0_2_2093">
<rect width="50" height="50" fill="white"/>
</clipPath>
</defs>
</svg>
