<svg width="50" height="50" viewBox="0 0 50 50" fill="none" xmlns="http://www.w3.org/2000/svg">
<g clip-path="url(#clip0_2_1916)">
<path d="M4.68702 17.1875C4.68702 16.325 5.38702 15.625 6.24952 15.625C7.11202 15.625 7.81202 16.325 7.81202 17.1875C7.81202 18.05 7.11202 18.75 6.24952 18.75C5.38702 18.75 4.68702 18.05 4.68702 17.1875ZM6.24952 34.375C7.11202 34.375 7.81202 33.675 7.81202 32.8125C7.81202 31.95 7.11202 31.25 6.24952 31.25C5.38702 31.25 4.68702 31.95 4.68702 32.8125C4.68702 33.675 5.38702 34.375 6.24952 34.375ZM43.7495 15.625C42.887 15.625 42.187 16.325 42.187 17.1875C42.187 18.05 42.887 18.75 43.7495 18.75C44.612 18.75 45.312 18.05 45.312 17.1875C45.312 16.325 44.612 15.625 43.7495 15.625ZM32.812 25C32.812 30.1781 30.1776 34.375 24.9995 34.375C19.8214 34.375 17.187 30.1781 17.187 25C17.187 19.8219 19.8214 15.625 24.9995 15.625C30.1776 15.625 32.812 19.8219 32.812 25ZM31.2495 25C31.2495 21.2234 29.6073 17.1875 24.9995 17.1875C20.3917 17.1875 18.7495 21.2234 18.7495 25C18.7495 28.7766 20.3917 32.8125 24.9995 32.8125C29.6073 32.8125 31.2495 28.7766 31.2495 25ZM43.7495 31.25C42.887 31.25 42.187 31.95 42.187 32.8125C42.187 33.675 42.887 34.375 43.7495 34.375C44.612 34.375 45.312 33.675 45.312 32.8125C45.312 31.95 44.612 31.25 43.7495 31.25ZM48.437 19.1875V34.375C48.437 36.1016 47.0386 37.5 45.312 37.5H30.1776L19.4761 48.2016C18.8651 48.8125 18.0667 49.1172 17.2667 49.1172C16.4667 49.1172 15.6667 48.8125 15.0573 48.2016L4.31827 37.4625C2.87608 37.2906 1.74483 36.1437 1.59639 34.6953C0.67452 33.5641 0.663582 31.9547 1.56202 30.8125V15.625C1.56202 13.8984 2.96046 12.5 4.68702 12.5H19.8214L30.523 1.79844C31.1339 1.1875 31.9323 0.882812 32.7323 0.882812C33.5323 0.882812 34.3323 1.1875 34.9417 1.79844L45.6808 12.5375C47.123 12.7094 48.2542 13.8547 48.4026 15.3047C49.3245 16.4359 49.3355 18.0453 48.437 19.1875ZM22.0323 12.5H43.4355L33.8386 2.90313C33.5433 2.60781 33.1511 2.44531 32.7339 2.44531C32.3167 2.44531 31.9245 2.60781 31.6292 2.90313L22.0323 12.5ZM27.9667 37.5H6.56358L16.1605 47.0969C16.4558 47.3922 16.848 47.5547 17.2651 47.5547C17.6823 47.5547 18.0745 47.3922 18.3698 47.0969L27.9667 37.5ZM46.8745 15.625C46.8745 14.7641 46.173 14.0625 45.312 14.0625H4.68702C3.82608 14.0625 3.12452 14.7641 3.12452 15.625V34.375C3.12452 35.2359 3.82608 35.9375 4.68702 35.9375H45.312C46.173 35.9375 46.8745 35.2359 46.8745 34.375V15.625Z" fill="black"/>
</g>
<defs>
<clipPath id="clip0_2_1916">
<rect width="50" height="50" fill="white"/>
</clipPath>
</defs>
</svg>
