<svg width="50" height="50" viewBox="0 0 50 50" fill="none" xmlns="http://www.w3.org/2000/svg">
<path d="M49.9929 26.8646L47.9733 13.2211C47.9259 12.9014 47.6515 12.6644 47.3281 12.6644H18.6956V11.6865H19.0216C19.3818 11.6865 19.6738 11.3944 19.6738 11.0343V8.42561C19.6738 8.0655 19.3818 7.77344 19.0216 7.77344H14.239C13.8789 7.77344 13.5869 8.0655 13.5869 8.42561V11.0343C13.5869 11.3944 13.8789 11.6865 14.239 11.6865H14.5651V12.6644H2.67168C2.34842 12.6644 2.07386 12.9013 2.02647 13.2211L0.00701541 26.8646C-0.0207019 27.0522 0.0345153 27.2425 0.158428 27.3861C0.282341 27.5297 0.462558 27.6122 0.652123 27.6122H2.69234V41.5774C2.69234 41.9375 2.9844 42.2296 3.34451 42.2296H46.6553C47.0154 42.2296 47.3075 41.9375 47.3075 41.5774V27.6122H49.3478C49.5375 27.6122 49.7177 27.5297 49.8416 27.3861C49.9654 27.2425 50.0206 27.0522 49.9929 26.8646ZM14.8912 9.07789H18.3695V10.3822H14.8912V9.07789ZM17.3912 11.795V15.8167H15.8695V11.795H17.3912ZM3.99668 27.6123H14.7759L14.0588 28.4809C13.8295 28.7587 13.8688 29.1697 14.1466 29.399C14.4245 29.6284 14.8355 29.5891 15.0647 29.3113L15.6521 28.5997V40.9253H3.99668V27.6123ZM24.9999 17.2758L33.0434 27.0196V40.9252H16.9564V27.0196L24.9999 17.2758ZM46.0031 40.9253H34.3478V28.5997L34.9352 29.3113C35.0642 29.4675 35.2505 29.5484 35.4385 29.5483C35.5848 29.5483 35.7317 29.4994 35.8532 29.399C36.1311 29.1698 36.1703 28.7587 35.9411 28.4809L35.224 27.6123H46.0031V40.9253ZM46.6553 26.308H34.1473L25.5028 15.8362C25.3788 15.6862 25.1945 15.5993 24.9999 15.5993C24.8053 15.5993 24.6209 15.6862 24.497 15.8362L15.8525 26.308H3.34451H1.40799L3.23451 13.9689H14.5651V16.4689C14.5651 16.829 14.8572 17.121 15.2173 17.121H18.0434C18.4035 17.121 18.6956 16.829 18.6956 16.4689V13.9689H46.7655L48.592 26.308H46.6553Z" fill="black"/>
<path d="M13.0161 31.1445H6.71174C6.35163 31.1445 6.05957 31.4366 6.05957 31.7967V35.9271C6.05957 36.2872 6.35163 36.5793 6.71174 36.5793H13.0161C13.3762 36.5793 13.6682 36.2872 13.6682 35.9271V31.7967C13.6682 31.4365 13.3763 31.1445 13.0161 31.1445ZM12.3639 33.2097H10.5161V32.4489H12.3639V33.2097ZM9.21174 32.4489V33.2097H7.36392V32.4489H9.21174ZM7.36392 34.5141H9.21174V35.275H7.36392V34.5141ZM10.5161 35.275V34.5141H12.3639V35.275H10.5161Z" fill="black"/>
<path d="M36.9832 36.5793H43.2876C43.6477 36.5793 43.9397 36.2872 43.9397 35.9271V31.7967C43.9397 31.4366 43.6477 31.1445 43.2876 31.1445H36.9832C36.6231 31.1445 36.3311 31.4366 36.3311 31.7967V35.9271C36.3311 36.2872 36.623 36.5793 36.9832 36.5793ZM37.6354 34.5141H39.4832V35.275H37.6354V34.5141ZM40.7876 35.275V34.5141H42.6354V35.275H40.7876ZM42.6354 33.2097H40.7876V32.4489H42.6354V33.2097ZM39.4832 32.4489V33.2097H37.6354V32.4489H39.4832Z" fill="black"/>
<path d="M18.7371 36.3606H23.5455C23.9056 36.3606 24.1977 36.0685 24.1977 35.7084V31.578C24.1977 31.2178 23.9056 30.9258 23.5455 30.9258H18.7371C18.377 30.9258 18.085 31.2178 18.085 31.578V35.7084C18.085 36.0685 18.3769 36.3606 18.7371 36.3606ZM19.3893 34.2953H20.4891V35.0562H19.3892V34.2953H19.3893ZM21.7934 35.0562V34.2953H22.8933V35.0562H21.7934ZM22.8933 32.991H21.7934V32.2301H22.8933V32.991ZM20.4891 32.2301V32.991H19.3892V32.2301H20.4891Z" fill="black"/>
<path d="M25.6934 31.578V35.7084C25.6934 36.0685 25.9854 36.3606 26.3455 36.3606H31.1539C31.514 36.3606 31.8061 36.0685 31.8061 35.7084V31.578C31.8061 31.2178 31.514 30.9258 31.1539 30.9258H26.3455C25.9853 30.9258 25.6934 31.2177 25.6934 31.578ZM26.9977 34.2953H28.0976V35.0562H26.9977V34.2953ZM29.4019 35.0562V34.2953H30.5017V35.0562H29.4019ZM30.5017 32.991H29.4019V32.2301H30.5017V32.991ZM28.0976 32.2301V32.991H26.9977V32.2301H28.0976Z" fill="black"/>
<path d="M10.8391 16.0352H8.42865C8.10072 16.0352 7.82376 16.2786 7.78181 16.604L7.1792 21.2779C7.15518 21.4638 7.21246 21.6511 7.33626 21.7919C7.46007 21.9326 7.63855 22.0134 7.82605 22.0134H10.8391C11.1992 22.0134 11.4913 21.7213 11.4913 21.3612V16.6873C11.4913 16.3271 11.1992 16.0352 10.8391 16.0352ZM10.1869 20.7091H8.56767L9.00213 17.3395H10.1869V20.7091Z" fill="black"/>
<path d="M42.2182 16.604C42.1763 16.2786 41.8993 16.0352 41.5714 16.0352H39.161C38.8009 16.0352 38.5088 16.3272 38.5088 16.6873V21.3612C38.5088 21.7213 38.8009 22.0134 39.161 22.0134H42.174C42.3615 22.0134 42.5399 21.9326 42.6638 21.7919C42.7876 21.6511 42.8448 21.4638 42.8208 21.2779L42.2182 16.604ZM39.8131 20.7091V17.3395H40.9978L41.4323 20.7091H39.8131Z" fill="black"/>
<path d="M24.9997 26.5795C26.3183 26.5795 27.391 25.5068 27.391 24.1882C27.391 22.8696 26.3183 21.7969 24.9997 21.7969C23.6811 21.7969 22.6084 22.8696 22.6084 24.1882C22.6084 25.5068 23.6811 26.5795 24.9997 26.5795ZM24.9997 23.1012C25.599 23.1012 26.0867 23.5888 26.0867 24.1882C26.0867 24.7875 25.599 25.2751 24.9997 25.2751C24.4004 25.2751 23.9127 24.7875 23.9127 24.1882C23.9127 23.5888 24.4004 23.1012 24.9997 23.1012Z" fill="black"/>
</svg>
