<svg width="50" height="50" viewBox="0 0 50 50" fill="none" xmlns="http://www.w3.org/2000/svg">
<g clip-path="url(#clip0_2_2099)">
<path d="M48.2375 26.8164C48.6421 26.8164 48.9701 26.4884 48.9701 26.0838V18.8509C48.9701 18.4463 48.6421 18.1183 48.2375 18.1183H43.6864C43.2818 18.1183 42.9539 18.4463 42.9539 18.8509V20.0749L40.088 20.7933C40.0505 20.8026 38.7818 21.3306 36.8355 21.7004V17.2159C36.8355 16.8113 36.5075 16.4833 36.103 16.4833C35.6984 16.4833 35.3704 16.8113 35.3704 17.2159V21.9297C34.8784 21.9906 34.3544 22.0396 33.8021 22.0705V10.5663H35.3704V14.0244C35.3704 14.429 35.6984 14.757 36.103 14.757C36.5076 14.757 36.8355 14.429 36.8355 14.0244V9.83369C36.8355 9.4291 36.5075 9.10107 36.103 9.10107H33.0696C32.665 9.10107 32.337 9.4291 32.337 9.83369V22.1072C31.8312 22.104 31.3073 22.0844 30.7678 22.0445V15.9006C30.7678 15.496 30.4397 15.168 30.0353 15.168H27.0019C26.5973 15.168 26.2693 15.496 26.2693 15.9006V21.5598C25.6988 21.6053 25.1629 21.722 24.7011 21.8637V12.8672C24.7011 12.4626 24.373 12.1346 23.9685 12.1346H20.9351C20.5305 12.1346 20.2024 12.4626 20.2024 12.8672V21.9065C19.6859 21.8226 19.1587 21.8012 18.6332 21.813V15.9007C18.6332 15.4961 18.3052 15.1681 17.9006 15.1681H14.8672C14.4626 15.1681 14.1346 15.4961 14.1346 15.9007V22.0041C12.0908 21.6851 9.99023 20.7146 8.01621 20.1073V18.8511C8.01621 18.4465 7.68818 18.1185 7.28359 18.1185H2.73262C2.32803 18.1185 2 18.4465 2 18.8511V25.5977C2 26.0022 2.32803 26.3303 2.73262 26.3303C3.13721 26.3303 3.46523 26.0022 3.46523 25.5977V19.5837H6.55117V20.619C6.55049 20.6377 6.55049 20.6562 6.55117 20.6747V34.8033H3.46523V28.7903C3.46523 28.3857 3.13721 28.0577 2.73262 28.0577C2.32803 28.0577 2 28.3857 2 28.7903V35.5359C2 35.9405 2.32803 36.2686 2.73262 36.2686H7.28369C7.68828 36.2686 8.01631 35.9405 8.01631 35.5359V34.6979C8.56035 35.0737 9.08291 35.5174 9.23262 35.8491C9.37168 36.1603 9.51631 36.6486 9.66953 37.1657C9.94736 38.1036 10.2136 39.0022 10.6188 39.6129L10.216 40.3106C8.99756 42.4213 11.0854 44.8875 13.3198 44.223C13.6671 45.6755 15.2736 46.6044 16.7061 46.1792C17.1521 48.0414 19.4808 48.9297 21.0457 47.626C21.8132 49.0296 23.844 49.4392 25.1027 48.4144L27.1458 49.6201C29.051 50.7201 31.523 49.2978 31.5117 47.0901C33.6187 48.0002 36.0713 46.0942 35.4897 43.7256C37.0992 43.5436 38.3544 41.8993 38.0185 40.2559C40.0633 40.1287 41.3932 37.8578 40.4187 35.9969C41.5214 35.8007 42.0982 35.5418 42.9541 34.9286V35.5358C42.9541 35.9404 43.2821 36.2685 43.6866 36.2685H48.2377C48.6423 36.2685 48.9703 35.9404 48.9703 35.5358V29.2765C48.9703 28.8719 48.6423 28.5438 48.2377 28.5438C47.8331 28.5438 47.5052 28.8719 47.5052 29.2765V34.8031H44.4192V19.5835H47.5052V26.0839C47.505 26.4885 47.8329 26.8164 48.2375 26.8164ZM29.3025 16.6331V21.8894C28.861 21.8283 27.8075 21.6316 27.7343 21.6189V16.6331H29.3025ZM21.6676 13.5997H23.2358V22.5113L22.5453 22.91C22.2638 22.685 21.9701 22.5029 21.6676 22.3566V13.5997ZM17.168 16.6331V21.9089C16.6457 21.9601 16.1229 22.0053 15.5997 22.0443V16.6331H17.168ZM11.9542 42.7082C11.4549 42.3233 11.1211 41.6729 11.4848 41.0429L13.4563 37.628C14.2174 36.3099 16.371 37.4724 15.575 38.8513L13.6034 42.2661C13.2707 42.8426 12.5308 43.041 11.9542 42.7082ZM15.3415 44.6639C14.7609 44.3155 14.5193 43.6101 14.8723 42.9987L16.8438 39.5839C17.6026 38.2698 19.7613 39.4235 18.9625 40.807L16.9909 44.2219C16.689 44.7504 15.8531 44.9593 15.3415 44.6639ZM18.7292 46.6198C18.1689 46.2392 17.8857 45.5975 18.2598 44.9546L20.2313 41.5397C20.9925 40.2221 23.1461 41.3842 22.35 42.763L20.3784 46.1778C20.0456 46.7542 19.3059 46.9525 18.7292 46.6198ZM22.7913 47.3906C22.1807 46.9573 22.0314 46.4003 22.3436 45.7197L23.2827 44.0931C24.1239 42.6359 26.1581 44.0056 25.4014 45.3163L24.4623 46.9429C24.1251 47.527 23.3755 47.7279 22.7913 47.3906ZM39.0936 38.0744C38.5817 38.7957 37.9239 38.972 37.1201 38.6032L33.3417 36.4217C32.9913 36.2192 32.5433 36.3394 32.341 36.6898C32.1387 37.0402 32.2588 37.4882 32.6092 37.6905L35.9224 39.6034C36.6158 40.1169 36.7809 40.7681 36.4178 41.5569C36.0195 42.2468 35.1342 42.4839 34.4443 42.0857L30.6732 39.9085C30.3229 39.7061 29.8748 39.8263 29.6726 40.1767C29.4702 40.5271 29.5903 40.9751 29.9407 41.1773L33.3884 43.1678C34.1075 43.6797 34.2829 44.337 33.9146 45.1397C33.5164 45.8296 32.6311 46.0668 31.9409 45.6685L28.7886 43.8501C28.4381 43.6479 27.9901 43.7681 27.788 44.1187C27.5858 44.4691 27.7061 44.9171 28.0565 45.1192L29.3664 45.8748C30.0516 46.3886 30.2134 47.0378 29.852 47.8223C29.4536 48.5121 28.5684 48.7493 27.8846 48.3546L25.9861 47.2341L26.6704 46.0487C27.756 44.1685 26.1816 41.7313 23.9737 42.0411C23.8966 40.3542 22.2212 39.0767 20.5165 39.5826C20.1745 38.1542 18.6269 37.1813 17.1277 37.6271C16.5971 35.4069 13.3383 34.9022 12.1876 36.8954L11.5021 38.0827C11.3393 37.6433 11.1872 37.1298 11.0744 36.7492C10.907 36.1843 10.7489 35.6507 10.5693 35.2485C10.1052 34.2199 8.57734 33.2854 8.01641 32.9688V21.6414L13.1205 23.2614C14.3223 23.6684 15.7412 23.5182 16.9558 23.401C18.2877 23.2725 19.8763 23.0709 21.1278 23.7284L16.6675 26.3036C15.1148 27.2001 14.581 29.1926 15.4773 30.7452C16.3643 32.2813 18.3826 32.8226 19.9188 31.9354L23.9989 29.5797C26.1801 31.8299 28.5699 33.3103 32.4649 33.3101C32.847 33.3101 33.2436 33.2958 33.6558 33.2667L38.5649 36.101C39.286 36.6128 39.4623 37.2706 39.0936 38.0744ZM39.0857 34.71L34.1918 31.8845C34.187 31.8817 34.1823 31.8791 34.1774 31.8765C34.1754 31.8753 34.1732 31.8742 34.1712 31.873C34.1688 31.8718 34.1663 31.8704 34.1639 31.8691C34.161 31.8677 34.1581 31.8661 34.1553 31.8647C34.1547 31.8645 34.1541 31.8642 34.1535 31.8639C34.0263 31.7999 33.8882 31.7766 33.7548 31.7896C29.3168 32.1557 26.9889 30.6717 24.6724 28.1593C24.4401 27.9073 24.0642 27.85 23.7675 28.0215L19.1862 30.6665C18.1923 31.1224 17.3789 30.9044 16.7461 30.0126C16.2536 29.1596 16.547 28.0649 17.3999 27.5725C17.3999 27.5725 24.2521 23.6172 24.2844 23.6002C25.3317 23.0987 26.5176 22.8734 27.6603 23.0973C34.612 24.4858 39.8596 22.4636 40.4979 22.2011L42.9539 21.5854V33.0915C41.3612 34.3327 41.173 34.4546 39.0857 34.71Z" fill="black"/>
<path d="M16.9017 13.3739L22.4509 7.83525L24.967 10.3514C25.253 10.6374 25.7169 10.6374 26.003 10.3514L33.8533 2.50107V3.76611C33.8533 4.1707 34.1814 4.49873 34.5858 4.49873C34.9903 4.49873 35.3185 4.1707 35.3185 3.76611V0.733594C35.3189 0.335156 34.9877 0 34.5859 0H31.5524C31.1478 0 30.8198 0.328027 30.8198 0.732617C30.8198 1.13721 31.1479 1.46523 31.5524 1.46523H32.8174L25.4851 8.79746L22.9694 6.28184C22.6836 5.9959 22.2201 5.9957 21.9339 6.28135L15.8666 12.337C15.5803 12.6229 15.5603 13.1077 15.8656 13.373C16.1265 13.5996 16.5478 13.6868 16.9017 13.3739Z" fill="black"/>
<path d="M9.18286 8.00054C10.4273 8.02742 11.6332 7.62151 12.5362 6.87177C13.4392 6.12203 13.9656 5.08964 14 4.0009C13.9656 2.91215 13.4392 1.87976 12.5362 1.13003C11.6332 0.380287 10.4273 -0.025629 9.18286 0.00125515H4.28571C4.13416 0.00125515 3.98882 0.0539289 3.88165 0.147689C3.77449 0.241449 3.71429 0.368614 3.71429 0.50121V7.00063H2.57143C2.41988 7.00063 2.27453 7.0533 2.16737 7.14706C2.0602 7.24082 2 7.36799 2 7.50058C2 7.63318 2.0602 7.76034 2.16737 7.8541C2.27453 7.94786 2.41988 8.00054 2.57143 8.00054H3.71429V9.00045H2.57143C2.41988 9.00045 2.27453 9.05312 2.16737 9.14688C2.0602 9.24064 2 9.36781 2 9.5004C2 9.633 2.0602 9.76017 2.16737 9.85393C2.27453 9.94769 2.41988 10.0004 2.57143 10.0004H3.71429V13.5C3.71429 13.6326 3.77449 13.7598 3.88165 13.8536C3.98882 13.9473 4.13416 14 4.28571 14C4.43727 14 4.58261 13.9473 4.68978 13.8536C4.79694 13.7598 4.85714 13.6326 4.85714 13.5V10.0004H10C10.1516 10.0004 10.2969 9.94769 10.4041 9.85393C10.5112 9.76017 10.5714 9.633 10.5714 9.5004C10.5714 9.36781 10.5112 9.24064 10.4041 9.14688C10.2969 9.05312 10.1516 9.00045 10 9.00045H4.85714V8.00054H9.18286ZM4.85714 1.00117H9.18286C10.1239 0.97549 11.0383 1.27647 11.7267 1.83845C12.415 2.40042 12.8214 3.17777 12.8571 4.0009C12.8229 4.82447 12.4169 5.6026 11.7283 6.16485C11.0396 6.7271 10.1243 7.02763 9.18286 7.00063H4.85714V1.00117Z" fill="black"/>
</g>
<defs>
<clipPath id="clip0_2_2099">
<rect width="50" height="50" fill="white"/>
</clipPath>
</defs>
</svg>
