<svg width="50" height="50" viewBox="0 0 50 50" fill="none" xmlns="http://www.w3.org/2000/svg">
<path d="M41.415 1.72786H19.7628V1.67387C19.7628 0.750864 19.0119 0 18.0889 0H12.9053C11.9823 0 11.2314 0.750864 11.2314 1.67387V1.72786H8.58565C7.1863 1.72786 6.04785 2.86631 6.04785 4.26566V47.4622C6.04785 48.8616 7.1863 50 8.58565 50H41.415C42.8144 50 43.9528 48.8616 43.9528 47.4622V4.26566C43.9528 2.86631 42.8144 1.72786 41.415 1.72786ZM12.8513 1.67387C12.8513 1.64406 12.8756 1.61987 12.9053 1.61987H18.0889C18.1186 1.61987 18.1429 1.64406 18.1429 1.67387V11.5945L15.8593 10.4527C15.7454 10.3957 15.6212 10.3672 15.4971 10.3672C15.373 10.3672 15.2488 10.3957 15.1349 10.4527L12.8513 11.5945V1.67387ZM42.3329 47.4622C42.3329 47.9684 41.9212 48.3801 41.415 48.3801H8.58565C8.07949 48.3801 7.66772 47.9684 7.66772 47.4622V4.26566C7.66772 3.7595 8.07949 3.34773 8.58565 3.34773H11.2314V12.905C11.2314 13.1856 11.3768 13.4463 11.6156 13.594C11.8545 13.7417 12.1527 13.755 12.4037 13.6294L15.4972 12.0826L18.5907 13.6294C18.7051 13.6865 18.8292 13.7149 18.9529 13.7149C19.101 13.7149 19.2486 13.6743 19.3787 13.594C19.6175 13.4463 19.7629 13.1856 19.7629 12.905V3.34773H41.4151C41.9213 3.34773 42.3331 3.7595 42.3331 4.26566V47.4622H42.3329Z" fill="black"/>
<path d="M37.0378 30.9843C37.0373 30.9767 37.0371 30.969 37.0363 30.9616C37.0346 30.9454 37.0317 30.9293 37.029 30.9132C37.0271 30.9021 37.0256 30.891 37.0233 30.88C37.0211 30.8694 37.0178 30.8587 37.0151 30.848C37.011 30.832 37.0071 30.8159 37.0021 30.8002C36.9998 30.7933 36.997 30.7864 36.9945 30.7795C36.9878 30.7605 36.9809 30.7417 36.9729 30.7235C36.9723 30.7221 36.9719 30.7207 36.9713 30.7192L33.5853 23.101V22.3549H34.5033C34.9507 22.3549 35.3132 21.9923 35.3132 21.545C35.3132 21.0977 34.9507 20.735 34.5033 20.735H25.81V19.6298C26.8132 19.291 27.5378 18.3415 27.5378 17.2253C27.5378 15.8259 26.3994 14.6875 25 14.6875C23.6007 14.6875 22.4622 15.8259 22.4622 17.2253C22.4622 18.3415 23.1868 19.291 24.1901 19.6298V20.735H15.4968C15.0494 20.735 14.6868 21.0977 14.6868 21.545C14.6868 21.9923 15.0494 22.3549 15.4968 22.3549H16.4147V23.101L13.0287 30.7192C13.0281 30.7207 13.0277 30.7222 13.0271 30.7236C13.0191 30.7418 13.0122 30.7605 13.0056 30.7794C13.0032 30.7863 13.0002 30.7932 12.998 30.8002C12.9929 30.8159 12.989 30.8319 12.9849 30.848C12.9821 30.8587 12.979 30.8694 12.9767 30.88C12.9744 30.891 12.973 30.9022 12.9711 30.9132C12.9684 30.9293 12.9655 30.9454 12.9637 30.9616C12.963 30.969 12.9628 30.9767 12.9622 30.9843C12.9606 31.004 12.9593 31.0238 12.9592 31.0435C12.9592 31.0452 12.959 31.0467 12.959 31.0482C12.959 32.9239 14.8726 34.4499 17.2246 34.4499C19.5767 34.4499 21.4903 32.9239 21.4903 31.0482C21.4903 31.0466 21.4901 31.0451 21.4901 31.0435C21.49 31.0238 21.4887 31.0041 21.4871 30.9843C21.4865 30.9767 21.4863 30.969 21.4855 30.9616C21.4838 30.9454 21.4809 30.9293 21.4782 30.9132C21.4764 30.9021 21.4749 30.891 21.4726 30.88C21.4703 30.8694 21.4671 30.8587 21.4644 30.848C21.4603 30.832 21.4564 30.8159 21.4513 30.8002C21.449 30.7933 21.4462 30.7864 21.4438 30.7795C21.4371 30.7605 21.4302 30.7417 21.4222 30.7235C21.4215 30.7221 21.4212 30.7207 21.4205 30.7192L18.0346 23.101V22.3549H24.1901V29.5076C23.1868 29.8465 22.4622 30.7959 22.4622 31.9121V38.0136H20.6804C20.233 38.0136 19.8704 38.3763 19.8704 38.8236C19.8704 39.2709 20.233 39.6335 20.6804 39.6335H29.3197C29.7671 39.6335 30.1296 39.2709 30.1296 38.8236C30.1296 38.3763 29.7671 38.0136 29.3197 38.0136H27.5378V31.9121C27.5378 30.7959 26.8132 29.8465 25.81 29.5076V22.3549H31.9655V23.101L28.5795 30.7192C28.5789 30.7207 28.5784 30.7222 28.5779 30.7236C28.5699 30.7418 28.563 30.7605 28.5564 30.7794C28.5539 30.7863 28.551 30.7932 28.5487 30.8002C28.5436 30.8159 28.5398 30.8319 28.5357 30.848C28.5328 30.8587 28.5297 30.8694 28.5275 30.88C28.5252 30.891 28.5238 30.9022 28.5218 30.9132C28.5191 30.9293 28.5162 30.9454 28.5145 30.9616C28.5137 30.969 28.5135 30.9767 28.513 30.9843C28.5114 31.004 28.5101 31.0238 28.51 31.0435C28.51 31.0452 28.5097 31.0467 28.5097 31.0482C28.5097 32.9239 30.4233 34.4499 32.7754 34.4499C35.1275 34.4499 37.0411 32.9239 37.0411 31.0482C37.0411 31.0466 37.0408 31.0451 37.0408 31.0435C37.0407 31.0238 37.0394 31.004 37.0378 30.9843ZM25 16.3074C25.5062 16.3074 25.9179 16.7191 25.9179 17.2253C25.9179 17.7315 25.5062 18.1432 25 18.1432C24.4939 18.1432 24.0821 17.7315 24.0821 17.2253C24.0821 16.7191 24.4939 16.3074 25 16.3074ZM17.2246 25.2671L19.434 30.2383H15.0151L17.2246 25.2671ZM17.2246 32.83C16.2201 32.83 15.3249 32.4298 14.8785 31.8581H19.5706C19.1244 32.4298 18.2292 32.83 17.2246 32.83ZM25.9179 38.0136H24.0821V31.9121C24.0821 31.406 24.4939 30.9942 25 30.9942C25.5062 30.9942 25.9179 31.406 25.9179 31.9121V38.0136ZM32.7754 25.2671L34.9848 30.2383H30.5659L32.7754 25.2671ZM32.7754 32.83C31.7709 32.83 30.8756 32.4298 30.4293 31.8581H35.1214C34.6752 32.4298 33.7799 32.83 32.7754 32.83Z" fill="black"/>
</svg>
