<svg width="50" height="50" viewBox="0 0 50 50" fill="none" xmlns="http://www.w3.org/2000/svg">
<path fill-rule="evenodd" clip-rule="evenodd" d="M35.054 7.03125C29.933 7.03125 25.7816 11.1827 25.7816 16.3037C25.7816 21.4247 29.933 25.5761 35.054 25.5761C40.1749 25.5761 44.3265 21.4247 44.3265 16.3037C44.3265 11.1827 40.1749 7.03125 35.054 7.03125ZM24.2191 16.3037C24.2191 10.3197 29.0701 5.46875 35.054 5.46875C41.0378 5.46875 45.889 10.3197 45.889 16.3037C45.889 22.2877 41.0378 27.1386 35.054 27.1386C29.0701 27.1386 24.2191 22.2877 24.2191 16.3037ZM31.6917 11.8153C31.0936 11.8153 30.6087 12.3001 30.6087 12.8982C30.6087 13.4964 31.0936 13.9812 31.6917 13.9812C32.2898 13.9812 32.7747 13.4964 32.7747 12.8982C32.7747 12.3001 32.2898 11.8153 31.6917 11.8153ZM29.0462 12.8982C29.0462 11.4372 30.2306 10.2528 31.6917 10.2528C33.1528 10.2528 34.3372 11.4372 34.3372 12.8982C34.3372 14.3593 33.1528 15.5437 31.6917 15.5437C30.2306 15.5437 29.0462 14.3593 29.0462 12.8982ZM39.087 10.4502C39.439 10.6995 39.5226 11.1871 39.2734 11.5392L31.8879 21.9709C31.6386 22.323 31.1511 22.4064 30.7989 22.1571C30.4468 21.9078 30.3634 21.4202 30.6127 21.068L37.9979 10.6364C38.2473 10.2842 38.7349 10.2009 39.087 10.4502ZM11.4006 19.2528C11.9733 17.73 13.4299 16.7217 15.0568 16.7217H22.8744C23.3059 16.7217 23.6556 17.0715 23.6556 17.503C23.6556 17.9345 23.3059 18.2842 22.8744 18.2842H15.0568C14.0806 18.2842 13.2067 18.8892 12.8631 19.8029L11.1723 24.2979C10.8825 25.0683 10.4597 25.7818 9.92314 26.4061L8.0031 28.6396C7.63763 29.0647 7.4367 29.6068 7.4367 30.1674V37.3391C7.4367 37.7743 7.7922 38.1255 8.22732 38.1203L39.7585 37.742C40.1863 37.7368 40.5304 37.3886 40.5304 36.9608V29.5868C40.5304 29.4004 40.4636 29.22 40.3421 29.0784L39.4706 28.0617C39.1898 27.7341 39.2281 27.2409 39.5554 26.9601C39.8831 26.6793 40.3761 26.7173 40.657 27.0448L41.5285 28.0616C41.8925 28.4863 42.0929 29.0274 42.0929 29.5868V36.9608C42.0929 38.223 41.0945 39.2543 39.8406 39.3027V40.8992C39.8406 42.4094 38.6164 43.6336 37.1062 43.6336H34.1254C32.6152 43.6336 31.391 42.4094 31.391 40.8992V39.4051L16.4031 39.5848V40.8992C16.4031 42.4094 15.1789 43.6336 13.6687 43.6336H10.6879C9.17775 43.6336 7.95353 42.4094 7.95353 40.8992V39.6684C6.78509 39.5371 5.8742 38.5455 5.8742 37.3391V30.1674C5.8742 29.233 6.20912 28.3296 6.81826 27.621L8.40205 25.7786H5.37201C4.53877 25.7786 3.86328 25.1031 3.86328 24.2699C3.86328 22.6331 5.19017 21.3062 6.82693 21.3062H8.42205C8.85349 21.3062 9.2033 21.656 9.2033 22.0875C9.2033 22.5189 8.85349 22.8687 8.42205 22.8687H6.82693C6.07111 22.8687 5.45505 23.4672 5.42681 24.2161H9.5083C9.58263 24.0634 9.6499 23.9072 9.70986 23.7478L11.4006 19.2528ZM9.51603 39.6676V40.8992C9.51603 41.5465 10.0407 42.0711 10.6879 42.0711H13.6687C14.316 42.0711 14.8406 41.5465 14.8406 40.8992V39.6035L9.51603 39.6676ZM32.9535 39.3863V40.8992C32.9535 41.5465 33.4782 42.0711 34.1254 42.0711H37.1062C37.7535 42.0711 38.2781 41.5465 38.2781 40.8992V39.3223L32.9535 39.3863ZM38.3163 18.8454C37.7182 18.8454 37.2333 19.3302 37.2333 19.9284C37.2333 20.5265 37.7182 21.0114 38.3163 21.0114C38.9144 21.0114 39.3992 20.5265 39.3992 19.9284C39.3992 19.3302 38.9144 18.8454 38.3163 18.8454ZM35.6708 19.9284C35.6708 18.4673 36.8552 17.2829 38.3163 17.2829C39.7773 17.2829 40.9617 18.4673 40.9617 19.9284C40.9617 21.3894 39.7773 22.5739 38.3163 22.5739C36.8552 22.5739 35.6708 21.3894 35.6708 19.9284ZM12.4496 24.619C12.6156 24.2207 13.073 24.0324 13.4713 24.1984L14.9904 24.8314H26.756C27.1874 24.8314 27.5372 25.1812 27.5372 25.6127C27.5372 26.0441 27.1874 26.3939 26.756 26.3939H14.8342C14.731 26.3939 14.6289 26.3735 14.5336 26.3338L12.8702 25.6407C12.472 25.4747 12.2836 25.0173 12.4496 24.619ZM9.60529 29.8296C9.84099 29.4683 10.3251 29.3664 10.6864 29.6021L10.7242 29.6268C11.6129 30.2063 12.6509 30.5149 13.7118 30.5149H16.0125C16.444 30.5149 16.7938 30.8647 16.7938 31.2962C16.7938 31.7276 16.444 32.0774 16.0125 32.0774H13.7118C12.3477 32.0774 11.0359 31.6955 9.83283 30.9108C9.47146 30.6751 9.36955 30.1911 9.60529 29.8296ZM37.4607 29.6021C37.8221 29.3664 38.3061 29.4683 38.5419 29.8296C38.7776 30.1911 38.6757 30.6751 38.3143 30.9108C37.1207 31.6893 35.7994 32.0774 34.4354 32.0774H32.1346C31.7032 32.0774 31.3534 31.7276 31.3534 31.2962C31.3534 30.8647 31.7032 30.5149 32.1346 30.5149H34.4354C35.4963 30.5149 36.5343 30.2063 37.4229 29.6268L37.4607 29.6021ZM17.1027 35.3855C17.1027 34.954 17.4526 34.6043 17.884 34.6043H30.1523C30.5837 34.6043 30.9335 34.954 30.9335 35.3855C30.9335 35.817 30.5837 36.1668 30.1523 36.1668H17.884C17.4526 36.1668 17.1027 35.817 17.1027 35.3855Z" fill="black"/>
</svg>
