<svg width="50" height="50" viewBox="0 0 50 50" fill="none" xmlns="http://www.w3.org/2000/svg">
<g clip-path="url(#clip0_2_1919)">
<path d="M49.5068 30.6747C48.0074 28.6756 46.508 28.6756 42.8428 30.5915L41.9265 31.1562V16.5973H45.2584C45.5916 16.5973 45.9249 16.4307 46.0081 16.0975C46.0914 15.7643 46.0081 15.4311 45.7582 15.1812L30.7646 1.6868C28.1823 -0.562266 24.4339 -0.562266 21.9349 1.6868L7.02443 15.2645C6.77454 15.5143 6.69127 15.8475 6.77454 16.1808C6.8578 16.4307 7.19106 16.6806 7.52422 16.6806H10.9395V27.7709C8.97557 28.252 7.07627 29.3093 5.85832 30.0874V28.3424H0.0273438V50.0001H5.85822V47.5011H16.687C18.353 47.5011 20.1023 47.3345 21.7682 47.168L32.597 45.502C33.0135 45.502 33.43 45.4187 33.7632 45.3353C34.7628 45.1687 35.6791 44.6689 36.5121 43.9192L49.0901 34.0066C50.0899 33.1737 50.2564 31.6743 49.5068 30.6747ZM9.69002 15.0146L23.0178 2.93628C24.9337 1.27027 27.7658 1.27027 29.5983 2.93628L42.9261 15.0146H40.9269C40.4271 15.0146 40.094 15.3477 40.094 15.8475V32.2854L35.6791 35.0061C34.6995 35.5776 32.52 35.7489 30.4731 35.7555C30.8331 35.0215 30.6537 34.1304 29.9315 33.007C28.5988 31.0911 26.3497 29.925 23.934 29.925H23.8507H20.6854C18.9361 29.925 17.2701 29.4252 15.9373 28.4256C15.021 27.7592 13.9382 27.426 12.6054 27.5093V15.8476C12.6054 15.3478 12.2722 15.0147 11.7725 15.0147L9.69002 15.0146ZM4.19231 48.3341H1.69335V30.0083H4.19231V31.2578V47.501V48.3341ZM48.0907 32.9238L35.4293 42.753L35.346 42.8363C34.763 43.3361 34.1798 43.6692 33.5135 43.7526H33.4302C33.0971 43.8359 32.8472 43.8359 32.5139 43.8359L21.5185 45.5019C19.9359 45.7518 18.2699 45.835 16.6872 45.835H5.85832V32.0908C7.12488 31.1936 9.46141 29.7953 11.5969 29.3567C11.7054 29.3822 11.8221 29.3809 11.9392 29.3419C12.6979 29.2408 13.3638 29.2327 13.9382 29.3717C14.2706 29.4721 14.5791 29.6251 14.8547 29.8417C16.4373 31.0079 18.4365 31.6742 20.6023 31.6742H20.6855H23.8509C25.7668 31.6742 27.4327 32.5072 28.599 34.1732C28.8228 34.5089 28.9334 34.8442 28.9569 35.0789C28.9523 35.1163 28.9442 35.1485 28.9321 35.1728C28.7655 35.5059 27.9325 35.8392 26.5164 35.8392C26.3211 35.8392 26.1516 35.9034 26.0171 36.0058C25.8963 36.0058 25.783 36.0058 25.6834 36.0058H18.5196C15.9374 36.0058 14.3547 37.2553 14.3547 39.3377C14.3547 39.8375 14.6878 40.1707 15.1876 40.1707C15.6874 40.1707 16.0206 39.8375 16.0206 39.3377C16.0206 38.9212 16.0206 37.6717 18.5196 37.6717H25.5999C25.8354 37.6717 26.1466 37.6717 26.5995 37.6717C26.6273 37.6717 26.6539 37.6717 26.6828 37.6717C26.766 37.6717 26.9327 37.6717 27.0993 37.6717C31.0144 37.755 34.6794 37.6717 36.5953 36.6721L43.7591 32.2573C47.2576 30.508 47.5908 30.9245 48.2572 31.9241C48.4239 32.1741 48.4239 32.6739 48.0907 32.9238Z" fill="black"/>
<path d="M21.6854 17.5154C23.518 17.5154 25.0173 16.016 25.0173 14.1835C25.0173 12.3509 23.518 10.8516 21.6854 10.8516C19.8529 10.8516 18.3535 12.3509 18.3535 14.1835C18.3535 16.016 19.8529 17.5154 21.6854 17.5154ZM21.6854 12.5175C22.6017 12.5175 23.3514 13.2672 23.3514 14.1835C23.3514 15.0998 22.6017 15.8495 21.6854 15.8495C20.7691 15.8495 20.0194 15.0998 20.0194 14.1835C20.0194 13.2672 20.7691 12.5175 21.6854 12.5175Z" fill="black"/>
<path d="M31.6805 20.8438C29.848 20.8438 28.3486 22.3431 28.3486 24.1757C28.3486 26.0082 29.848 27.5076 31.6805 27.5076C33.5131 27.5076 35.0125 26.0082 35.0125 24.1757C35.0125 22.3431 33.5131 20.8438 31.6805 20.8438ZM31.6805 25.8417C30.7642 25.8417 30.0145 25.092 30.0145 24.1757C30.0145 23.2593 30.7642 22.5097 31.6805 22.5097C32.5969 22.5097 33.3466 23.2593 33.3466 24.1757C33.3466 25.092 32.5969 25.8417 31.6805 25.8417Z" fill="black"/>
<path d="M19.1865 27.5074C19.4364 27.5074 19.6031 27.4242 19.7696 27.2575L34.7634 12.2638C35.0965 11.9306 35.0965 11.4308 34.7634 11.0976C34.4302 10.7643 33.9304 10.7644 33.5971 11.0976L18.6034 26.0913C18.2702 26.4245 18.2702 26.9243 18.6034 27.2575C18.77 27.4242 18.9366 27.5074 19.1865 27.5074Z" fill="black"/>
</g>
<defs>
<clipPath id="clip0_2_1919">
<rect width="50" height="50" fill="white"/>
</clipPath>
</defs>
</svg>
