<svg width="50" height="43" viewBox="0 0 50 43" fill="none" xmlns="http://www.w3.org/2000/svg">
<g clip-path="url(#clip0_2_1875)">
<path d="M40.8664 6.67969H2.45303C1.10039 6.67969 0 7.78008 0 9.13272V34.1849C0 35.5375 1.10039 36.6379 2.45303 36.6379H26.6701C27.1024 36.6379 27.453 36.2874 27.453 35.855C27.453 35.4227 27.1025 35.0721 26.6701 35.0721H2.45303C1.96377 35.0721 1.56572 34.674 1.56572 34.1848V9.13272C1.56572 8.64346 1.96377 8.24541 2.45303 8.24541H40.8664C41.3557 8.24541 41.7537 8.64346 41.7537 9.13272V19.9889C41.7537 20.4212 42.1042 20.7718 42.5366 20.7718C42.9689 20.7718 43.3195 20.4213 43.3195 19.9889V9.13272C43.3194 7.78008 42.219 6.67969 40.8664 6.67969Z" fill="black"/>
<path d="M39.1965 21.7109C36.9968 21.7109 34.8875 22.3691 33.1045 23.5901L33.3012 22.9739C33.4326 22.562 33.2053 22.1215 32.7933 21.9901C32.3816 21.8585 31.9409 22.086 31.8096 22.4979L30.7832 25.7145C30.7029 25.9658 30.7548 26.2406 30.921 26.4456C31.0705 26.63 31.2943 26.7353 31.5289 26.7353C31.5551 26.7353 31.5815 26.7339 31.6079 26.7313L34.967 26.3906C35.3972 26.347 35.7105 25.9629 35.667 25.5328C35.6233 25.1026 35.2392 24.79 34.8092 24.8328L33.9361 24.9213C35.4717 23.8543 37.2939 23.2767 39.1966 23.2767C44.2904 23.2767 48.4346 27.4208 48.4346 32.5147C48.4346 37.5572 44.3733 41.6684 39.3499 41.7507C39.35 41.7501 39.3501 41.7494 39.3503 41.7488C39.1763 41.7521 39.0023 41.7522 38.8295 41.7456C38.399 41.7283 38.0336 42.0653 38.0167 42.4974C37.9998 42.9294 38.3364 43.2933 38.7684 43.3102C38.9102 43.3157 39.0543 43.3186 39.1966 43.3186C45.1538 43.3186 50.0003 38.472 50.0003 32.5148C50.0003 26.5577 45.1536 21.7109 39.1965 21.7109Z" fill="black"/>
<path d="M13.3093 12.5273H6.62871C5.73652 12.5273 5.01074 13.2531 5.01074 14.1453V19.1558C5.01074 20.0479 5.73652 20.7737 6.62871 20.7737H13.3093C14.2015 20.7737 14.9272 20.0479 14.9272 19.1558V14.1453C14.9272 13.2531 14.2015 12.5273 13.3093 12.5273ZM8.35098 19.2079H6.62871C6.5999 19.2079 6.57656 19.1846 6.57656 19.1558V14.1453C6.57656 14.1165 6.5999 14.0932 6.62871 14.0932H8.35107L8.35098 19.2079ZM13.3614 19.1557C13.3614 19.1845 13.3381 19.2078 13.3093 19.2078H9.9168V17.4333H10.8041C11.2364 17.4333 11.587 17.0828 11.587 16.6504C11.587 16.218 11.2365 15.8675 10.8041 15.8675H9.9168V14.0931H13.3093C13.3381 14.0931 13.3614 14.1164 13.3614 14.1452V19.1557Z" fill="black"/>
<path d="M33.768 11.6914C32.8435 11.6914 31.983 11.9698 31.2648 12.4462C30.5255 11.9562 29.6547 11.6914 28.7575 11.6914C26.2538 11.6914 24.2168 13.7283 24.2168 16.2321C24.2168 18.7359 26.2537 20.7729 28.7575 20.7729C29.6823 20.7729 30.5431 20.4942 31.2615 20.0175C32.001 20.507 32.8728 20.7729 33.768 20.7729C36.2717 20.7729 38.3087 18.7359 38.3087 16.2321C38.3087 13.7283 36.2718 11.6914 33.768 11.6914ZM30.089 18.8912C29.688 19.0928 29.236 19.2069 28.7575 19.2069C27.1171 19.2069 25.7826 17.8724 25.7826 16.232C25.7826 14.5917 27.1172 13.257 28.7575 13.257C29.2244 13.257 29.6802 13.3671 30.0907 13.5729C29.5482 14.3209 29.2272 15.2394 29.2272 16.2319C29.2272 17.1975 29.5344 18.1244 30.089 18.8912ZM33.768 19.207C33.3019 19.207 32.8457 19.0968 32.4349 18.8909C32.9772 18.1429 33.2982 17.2245 33.2982 16.232C33.2982 15.7997 32.9478 15.4491 32.5153 15.4491C32.0829 15.4491 31.7324 15.7996 31.7324 16.232C31.7324 16.8216 31.5594 17.3713 31.2623 17.834C30.9594 17.3604 30.793 16.8066 30.793 16.232C30.793 14.5916 32.1275 13.257 33.7679 13.257C35.4082 13.257 36.7429 14.5916 36.7429 16.232C36.7429 17.8725 35.4084 19.207 33.768 19.207Z" fill="black"/>
<path d="M12.4742 25.0508H5.79365C5.36133 25.0508 5.01074 25.4013 5.01074 25.8337C5.01074 26.2661 5.36123 26.6166 5.79365 26.6166H12.4742C12.9065 26.6166 13.2571 26.2661 13.2571 25.8337C13.2571 25.4013 12.9065 25.0508 12.4742 25.0508Z" fill="black"/>
<path d="M25.8354 30.0625H5.79365C5.36133 30.0625 5.01074 30.413 5.01074 30.8454C5.01074 31.2778 5.36123 31.6283 5.79365 31.6283H25.8354C26.2678 31.6283 26.6184 31.2778 26.6184 30.8454C26.6184 30.413 26.2678 30.0625 25.8354 30.0625Z" fill="black"/>
<path d="M22.4947 25.0508H15.8142C15.3818 25.0508 15.0312 25.4013 15.0312 25.8337C15.0312 26.2661 15.3817 26.6166 15.8142 26.6166H22.4947C22.927 26.6166 23.2776 26.2661 23.2776 25.8337C23.2776 25.4013 22.927 25.0508 22.4947 25.0508Z" fill="black"/>
<path d="M27.5048 25.0508H25.8347C25.4023 25.0508 25.0518 25.4013 25.0518 25.8337C25.0518 26.2661 25.4022 26.6166 25.8347 26.6166H27.5048C27.9371 26.6166 28.2877 26.2661 28.2877 25.8337C28.2877 25.4013 27.9372 25.0508 27.5048 25.0508Z" fill="black"/>
<path d="M30.2771 27.8751C29.8791 27.7059 29.4194 27.8914 29.2502 28.2892C29.0235 28.8222 28.8388 29.3779 28.7013 29.9406C28.5986 30.3605 28.8559 30.7843 29.2759 30.8869C29.3383 30.9022 29.4008 30.9095 29.4624 30.9095C29.8148 30.9095 30.1349 30.67 30.2224 30.3123C30.3398 29.8318 30.4976 29.3573 30.6911 28.902C30.8604 28.504 30.6749 28.0444 30.2771 27.8751Z" fill="black"/>
<path d="M30.2271 34.7374C30.1089 34.2582 30.0288 33.7648 29.989 33.2707C29.9542 32.8399 29.5774 32.5188 29.1457 32.5533C28.7148 32.5881 28.3936 32.9655 28.4284 33.3966C28.4749 33.9743 28.5687 34.5516 28.707 35.1124C28.795 35.4693 29.1147 35.708 29.4664 35.708C29.5285 35.708 29.5916 35.7006 29.6545 35.6851C30.0742 35.5815 30.3305 35.1573 30.2271 34.7374Z" fill="black"/>
<path d="M35.9257 41.1563C35.4636 40.9813 35.0117 40.767 34.5828 40.5191C34.2084 40.3029 33.7296 40.4311 33.5133 40.8055C33.297 41.1799 33.4253 41.6587 33.7996 41.875C34.3016 42.1648 34.8304 42.4158 35.3713 42.6206C35.4626 42.6552 35.5562 42.6716 35.6484 42.6716C35.9645 42.6716 36.2621 42.4788 36.3807 42.1657C36.5337 41.7613 36.3301 41.3095 35.9257 41.1563Z" fill="black"/>
<path d="M32.2861 38.6482C31.9574 38.2779 31.6563 37.8785 31.3912 37.461C31.1595 37.0959 30.6758 36.988 30.3106 37.2197C29.9456 37.4515 29.8376 37.9353 30.0693 38.3003C30.3791 38.7883 30.731 39.2551 31.1152 39.6878C31.2699 39.862 31.4849 39.951 31.7009 39.951C31.8857 39.951 32.0712 39.8858 32.2204 39.7535C32.5438 39.4663 32.5731 38.9715 32.2861 38.6482Z" fill="black"/>
<path d="M39.9794 31.9144V29.1825C41.0957 29.3542 41.7539 29.8646 41.7539 30.1673C41.7539 30.5996 42.1044 30.9502 42.5368 30.9502C42.9691 30.9502 43.3197 30.5997 43.3197 30.1673C43.3197 28.85 41.9295 27.8202 39.9794 27.6015V27.5056C39.9794 27.0732 39.6289 26.7227 39.1965 26.7227C38.7642 26.7227 38.4136 27.0731 38.4136 27.5056V27.6015C36.4635 27.8202 35.0732 28.8501 35.0732 30.1673C35.0732 32.0037 36.9079 32.6994 38.4136 33.1175V35.8493C37.2973 35.6776 36.6391 35.1673 36.6391 34.8646C36.6391 34.4322 36.2886 34.0816 35.8562 34.0816C35.4238 34.0816 35.0732 34.4321 35.0732 34.8646C35.0732 36.1818 36.4634 37.2116 38.4136 37.4304V37.5263C38.4136 37.9586 38.7641 38.3092 39.1965 38.3092C39.6288 38.3092 39.9794 37.9587 39.9794 37.5263V37.4304C41.9295 37.2116 43.3197 36.1817 43.3197 34.8646C43.3197 33.0281 41.4851 32.3324 39.9794 31.9144ZM38.4137 31.4804C37.1078 31.0697 36.6392 30.7032 36.6392 30.1672C36.6392 29.8645 37.2974 29.3541 38.4137 29.1824V31.4804ZM39.9794 35.8493V33.5514C41.2853 33.962 41.7539 34.3285 41.7539 34.8646C41.7539 35.1673 41.0957 35.6776 39.9794 35.8493Z" fill="black"/>
</g>
<defs>
<clipPath id="clip0_2_1875">
<rect width="50" height="43" fill="white"/>
</clipPath>
</defs>
</svg>
