<svg width="50" height="50" viewBox="0 0 50 50" fill="none" xmlns="http://www.w3.org/2000/svg">
<path d="M17.0121 13.7482C17.1293 13.7482 17.2465 13.7287 17.3637 13.6896C18.8871 13.1232 20.5082 12.7326 22.1879 12.5373C22.7348 12.4787 23.1059 11.9904 23.0473 11.4435C22.9887 10.8967 22.5004 10.506 21.9535 10.5842C20.1176 10.799 18.3207 11.2287 16.6606 11.8537C16.1528 12.049 15.8989 12.6154 16.0942 13.1232C16.2309 13.4943 16.602 13.7482 17.0121 13.7482Z" fill="black"/>
<path d="M44.5508 26.2109C44.0039 26.25 43.6133 26.7383 43.6523 27.2656C44.0039 31.4453 42.5195 35.6445 39.707 38.457C39.3359 38.8281 39.082 39.2969 38.9453 39.7852L36.8945 46.875H32.1875L31.6406 44.7266C31.5234 44.2969 31.1328 43.9844 30.6836 43.9844L19.1016 43.9453C18.6523 43.9453 18.2617 44.2383 18.1445 44.6875L17.5781 46.875H12.8906L11.5625 42.2266C11.3281 41.3672 10.625 40.5664 9.82422 40.2344C7.08984 38.9844 4.62891 37.5391 2.5 35.9375C2.28516 35.7812 2.16797 35.5273 2.16797 35.2539L2.1875 26.582L3.45703 26.5625C3.76953 26.5625 4.04297 26.4063 4.23828 26.1719L8.92578 19.9414C9.25781 19.4531 9.04297 18.9844 8.84766 18.5547C8.78906 18.3984 8.73047 18.2422 8.67188 18.1055L8.59375 17.9297C8.39844 17.5 8.20312 17.0898 8.00781 16.6797C7.65625 15.957 7.28516 15.2344 6.85547 14.4336C6.79688 14.3359 6.75781 14.2578 6.69922 14.1797C6.67969 14.1406 6.66016 14.1016 6.64062 14.0625C6.77734 14.0625 6.93359 14.043 7.10938 14.043C8.22266 14.043 9.25781 14.1992 10.1953 14.5313C10.4688 14.6289 11.0352 14.9023 11.1719 14.9609C11.4453 15.1172 12.5781 15.7812 12.832 15.957C14.043 16.8555 15.0195 18.0469 15.6836 19.375C15.918 19.8633 16.5039 20.0586 16.9922 19.8242C17.4805 19.5898 17.6758 19.0039 17.4414 18.5156C16.6406 16.9141 15.4688 15.4883 14.0234 14.3945C13.5938 14.0625 12.168 13.2617 12.1484 13.2422C11.6797 12.9688 10.8594 12.6563 10.8594 12.6563C9.74609 12.2656 8.51562 12.0508 7.16797 12.0508C6.95313 12.0508 6.71875 12.0508 6.48438 12.0703C6.34766 12.0703 6.21094 12.0898 6.05469 12.1094C5.99609 12.1094 5.89844 12.1094 5.80078 12.1484C5.78125 12.1484 5.76172 12.168 5.72266 12.168C5.21484 12.3047 4.78516 12.6758 4.58984 13.1641C4.375 13.6914 4.57031 14.1797 4.6875 14.4922C4.76562 14.6875 4.86328 14.8828 5 15.1367C5.01953 15.1562 5.03906 15.1953 5.03906 15.2148C5.07812 15.2539 5.07813 15.293 5.11719 15.332C5.52734 16.0938 5.87891 16.7969 6.21094 17.4805C6.38672 17.8711 6.58203 18.2617 6.73828 18.6328L6.81641 18.8086C6.85547 18.9258 6.91406 19.043 6.95312 19.1602L2.91016 24.5312L1.15234 24.5508C0.605469 24.5508 0.175781 25 0.175781 25.5273L0.15625 35.1758C0.15625 36.0547 0.566406 36.875 1.26953 37.4219C3.51562 39.1211 6.11328 40.6445 8.98438 41.9727C9.25781 42.0898 9.53125 42.4023 9.62891 42.7148L11.1719 48.0859C11.2891 48.5156 11.6797 48.7891 12.1094 48.7891H18.3008C18.75 48.7891 19.1406 48.4961 19.2578 48.0469L19.8242 45.8594L29.9023 45.8984L30.4492 48.0469C30.5664 48.4766 30.957 48.7891 31.4062 48.7891H37.6172C38.0469 48.7891 38.4375 48.4961 38.5547 48.0859L40.8008 40.2734C40.8398 40.0977 40.9375 39.9414 41.0547 39.8242C44.2773 36.6016 45.957 31.8359 45.5664 27.0703C45.5664 26.5625 45.0781 26.1719 44.5508 26.2109Z" fill="black"/>
<path d="M9.29688 25.0977C9.29688 25.9961 10.0391 26.7578 10.957 26.7578C11.8555 26.7578 12.6172 26.0156 12.6172 25.0977C12.6172 24.1992 11.875 23.4375 10.957 23.4375C10.0391 23.457 9.29688 24.1992 9.29688 25.0977Z" fill="black"/>
<path d="M49.043 12.9102C49.0235 12.9102 48.9649 12.8906 48.9453 12.8906L48.4961 12.8125C48.2422 12.7734 47.9883 12.7148 47.7344 12.6758C47.6563 11.8555 47.4805 11.0547 47.2266 10.2734C47.5586 10.0391 47.9102 9.80469 48.2617 9.57031C48.6719 9.29688 48.8086 8.76953 48.6133 8.33984C48.0274 7.10938 47.2656 5.97656 46.3086 5C45.9766 4.64844 45.4297 4.58984 45.0391 4.88281C44.8242 5.03906 44.6094 5.17578 44.3945 5.3125C44.2578 5.41016 44.1406 5.48828 44.0039 5.58594C43.3789 5.05859 42.6758 4.60937 41.9336 4.25781C41.9336 4.23828 41.9336 4.23828 41.9336 4.21875L41.9727 4.00391C41.9727 3.98438 41.9922 3.94531 41.9922 3.92578L42.0508 3.65234C42.0899 3.45703 42.1289 3.26172 42.168 3.00781C42.2461 2.53906 41.9922 2.07031 41.5235 1.91406C40.8985 1.69922 40.2539 1.52344 39.5899 1.38672C38.9453 1.26953 38.2617 1.19141 37.5977 1.17188C37.1094 1.17188 36.6797 1.52344 36.6016 2.01172C36.582 2.20703 36.543 2.40234 36.5039 2.59766L36.4453 2.89062C36.4453 2.91016 36.4453 2.94922 36.4258 2.96875L36.3867 3.16406C36.3867 3.18359 36.3867 3.20312 36.3867 3.20312C35.5664 3.28125 34.7656 3.4375 33.9844 3.71094C33.9063 3.57422 33.8086 3.45703 33.7305 3.32031C33.5742 3.10547 33.4375 2.89062 33.2813 2.67578C33.0078 2.26562 32.4805 2.12891 32.0508 2.32422C30.8203 2.91016 29.6875 3.67188 28.6914 4.60938C28.3399 4.94141 28.2813 5.48828 28.5742 5.87891C28.8086 6.21094 29.043 6.5625 29.2774 6.89453C28.75 7.51953 28.3008 8.22266 27.9297 8.94531C27.6758 8.90625 27.4219 8.84766 27.1875 8.80859L26.7383 8.73047C26.7188 8.73047 26.6602 8.71094 26.6406 8.71094C26.1914 8.65234 25.7617 8.92578 25.6055 9.35547C25.3711 10 25.1953 10.6445 25.0781 11.3281C24.9609 11.9922 24.8828 12.6758 24.8633 13.3398C24.8438 13.7891 25.1563 14.1992 25.5859 14.3164C25.6055 14.3164 25.7227 14.3555 25.7422 14.3555C26.0547 14.4141 26.3867 14.4727 26.6992 14.5312C26.7578 14.5508 26.8164 14.5508 26.8945 14.5703C26.9727 15.4102 27.1484 16.2109 27.4219 17.0117C27.2656 17.1094 27.1094 17.2266 26.9727 17.3242L26.5625 17.6172C26.4844 17.6758 26.4258 17.7148 26.3672 17.7539C25.9961 18.0273 25.8789 18.5352 26.0742 18.9648C26.6602 20.1953 27.4219 21.3086 28.3594 22.2852C28.6914 22.6172 29.1992 22.6758 29.6094 22.4219C29.6289 22.4219 29.668 22.3828 29.6875 22.3633C29.9414 22.1875 30.1953 22.0117 30.4688 21.8359C30.5469 21.7969 30.6055 21.7383 30.6836 21.6992C31.3281 22.2266 32.0117 22.6758 32.7539 23.0469C32.7344 23.1836 32.6953 23.3398 32.6758 23.4766C32.6367 23.7305 32.5781 23.9844 32.5391 24.2188C32.5391 24.2383 32.5195 24.3164 32.5195 24.3359C32.4609 24.7852 32.7344 25.2344 33.1641 25.3906C33.7891 25.6055 34.4336 25.7812 35.0781 25.918C35.7422 26.0352 36.4063 26.1133 37.0508 26.1328H37.0703C37.5195 26.1328 37.9297 25.8203 38.0274 25.3711C38.0274 25.3516 38.0469 25.293 38.0469 25.2734C38.0859 25.0195 38.1445 24.7656 38.1836 24.5117C38.2031 24.375 38.2422 24.2383 38.2617 24.082C39.082 24.0039 39.9024 23.8477 40.6836 23.5742C40.7227 23.6523 40.7813 23.7109 40.8203 23.7891C40.9961 24.043 41.1719 24.2969 41.3477 24.5703C41.3672 24.5898 41.3867 24.6484 41.4063 24.6484C41.6797 25.0195 42.1875 25.1562 42.6172 24.9609C43.8477 24.3945 44.9609 23.6328 45.9375 22.6953C46.2695 22.3828 46.3477 21.8555 46.0938 21.4648C46.0547 21.4062 46.0156 21.3477 45.9766 21.2695L45.6836 20.8398C45.5859 20.6836 45.4688 20.5273 45.3711 20.3906C45.918 19.7461 46.3672 19.0625 46.7383 18.3008C46.7969 18.3203 46.8555 18.3203 46.9141 18.3398C47.2461 18.3984 47.5586 18.457 47.8711 18.5156C47.9102 18.5156 48.0078 18.5352 48.0469 18.5352C48.4961 18.5742 48.9063 18.3203 49.0625 17.8906C49.2969 17.2656 49.4727 16.6016 49.5899 15.9375C49.707 15.2734 49.7852 14.5898 49.8047 13.9062C49.8047 13.4375 49.4922 13.0273 49.043 12.9102ZM47.6563 15.5469C47.5977 15.8398 47.5391 16.1133 47.4609 16.4062C47.4024 16.3867 47.3242 16.3867 47.2656 16.3672C46.9727 16.3086 46.6797 16.2695 46.4063 16.2109C46.3672 16.2109 46.2891 16.1914 46.25 16.1914C45.8008 16.1523 45.3906 16.3867 45.2344 16.7969C44.8242 17.832 44.1992 18.7695 43.418 19.5703C43.1445 19.8633 43.0664 20.293 43.2227 20.6445C43.2617 20.7422 43.3203 20.8398 43.3984 20.9375C43.5938 21.2109 43.7891 21.4844 43.9649 21.7773C43.5156 22.1484 43.0274 22.4805 42.5195 22.7539C42.5 22.7148 42.461 22.6758 42.4414 22.6367C42.2852 22.4023 42.1094 22.1484 41.9531 21.9141C41.8945 21.8164 41.8164 21.7383 41.7383 21.6602C41.4649 21.3867 41.0352 21.3086 40.6836 21.4648C39.6484 21.8945 38.5742 22.1289 37.4609 22.1289C37.0703 22.1289 36.7383 22.3633 36.582 22.6953C36.5234 22.8125 36.4844 22.9492 36.4649 23.1055C36.4063 23.418 36.3477 23.75 36.2891 24.0625C36.0156 24.043 35.7227 23.9844 35.4492 23.9453C35.1758 23.8867 34.9024 23.8281 34.6289 23.75C34.6875 23.4375 34.7461 23.1055 34.8242 22.793C34.8633 22.6367 34.8633 22.5 34.8633 22.3633C34.8438 21.9922 34.5899 21.6602 34.2383 21.5039C33.2031 21.0938 32.2656 20.4883 31.4649 19.707C31.1914 19.4336 30.7813 19.3555 30.4102 19.5117C30.3125 19.5508 30.1953 19.6094 30.0977 19.6875C29.8633 19.8633 29.6094 20.0195 29.375 20.1758C29.3359 20.1953 29.2969 20.2344 29.2578 20.2539C28.8867 19.8047 28.5547 19.3164 28.2617 18.8281C28.5352 18.6328 28.8086 18.4375 29.1016 18.2617C29.1992 18.2031 29.2774 18.125 29.3555 18.0664C29.6485 17.7734 29.7266 17.3438 29.5703 16.9727C29.1211 15.9375 28.8867 14.8438 28.8867 13.7305C28.8867 13.3008 28.5938 12.9102 28.1641 12.793C28.1445 12.793 28.0469 12.7734 28.0078 12.7539C27.7149 12.6953 27.4219 12.6562 27.1289 12.5977C27.0703 12.5781 26.9922 12.5781 26.9336 12.5586C26.9727 12.2656 27.0117 11.9727 27.0508 11.6797C27.1094 11.3867 27.168 11.0938 27.2461 10.8008C27.5586 10.8594 27.8711 10.918 28.1836 10.9961C28.3594 11.0352 28.4961 11.0352 28.6524 11.0352C29.0234 11.0156 29.3555 10.7617 29.4922 10.4297C29.9024 9.41406 30.5078 8.47656 31.2891 7.69531C31.5625 7.42188 31.6406 7.01172 31.5039 6.64062C31.4453 6.48438 31.3477 6.34766 31.25 6.19141L31.1133 5.99609C30.9961 5.82031 30.8789 5.66406 30.7617 5.48828C31.2305 5.11719 31.7188 4.78516 32.2266 4.49219C32.4024 4.74609 32.5781 5.01953 32.7539 5.27344C32.832 5.39062 32.9492 5.56641 33.1641 5.70312C33.4375 5.87891 33.7891 5.91797 34.1016 5.80078C35.1172 5.37109 36.2109 5.15625 37.3047 5.13672C37.6758 5.13672 38.0078 4.92188 38.1836 4.58984C38.2422 4.47266 38.2813 4.33594 38.3008 4.17969C38.3399 3.96484 38.3789 3.75 38.418 3.55469L38.4766 3.26172C38.4766 3.24219 38.4766 3.22266 38.4766 3.20312C38.75 3.24219 39.043 3.28125 39.3164 3.32031C39.5899 3.37891 39.8633 3.4375 40.1367 3.51562C40.1367 3.53516 40.1367 3.55469 40.1172 3.57422L40.0586 3.88672C40.0195 4.10156 39.9805 4.29688 39.9414 4.51172C39.9024 4.66797 39.9024 4.80469 39.9024 4.94141C39.9219 5.3125 40.1758 5.64453 40.5274 5.78125C41.5625 6.19141 42.4805 6.79688 43.2813 7.55859C43.5156 7.79297 43.8672 7.89062 44.1992 7.8125C44.4336 7.75391 44.6094 7.65625 44.7266 7.55859C44.9805 7.38281 45.2539 7.1875 45.5078 7.01172C45.8789 7.46094 46.211 7.94922 46.5039 8.47656C46.3281 8.59375 46.1719 8.71094 45.9961 8.82812L45.7813 8.98438C45.625 9.08203 45.4883 9.17969 45.3906 9.31641C45.1172 9.60938 45.0586 10.0195 45.1953 10.3711C45.625 11.3867 45.8594 12.4609 45.8789 13.5742C45.8789 13.9453 46.0938 14.2773 46.4258 14.4336C46.5625 14.4922 46.7188 14.5508 46.8945 14.5703C47.207 14.6094 47.5195 14.668 47.832 14.7266C47.7539 14.9609 47.7149 15.2539 47.6563 15.5469Z" fill="black"/>
</svg>
