<svg width="50" height="50" viewBox="0 0 50 50" fill="none" xmlns="http://www.w3.org/2000/svg">
<g clip-path="url(#clip0_2_1826)">
<path d="M17.5093 36.6875H12.5108C12.0507 36.6875 11.6777 37.0606 11.6777 37.5208V42.5208C11.6777 42.9814 12.0507 43.3542 12.5108 43.3542H17.5093C17.9694 43.3542 18.3424 42.9814 18.3424 42.5208V37.5208C18.3424 37.0606 17.9694 36.6875 17.5093 36.6875ZM16.6762 41.6875H13.3439V38.3542H16.6762V41.6875Z" fill="black"/>
<path d="M29.1728 27.5195H20.8419C19.9218 27.5195 19.1758 28.2658 19.1758 29.1862V32.5195C19.1758 33.4403 19.9218 34.1862 20.8419 34.1862H29.1728C30.0929 34.1862 30.8389 33.4403 30.8389 32.5195V29.1862C30.8389 28.2658 30.0929 27.5195 29.1728 27.5195ZM29.1728 30.0195H25.8404V29.1862H29.1728V30.0195ZM24.1743 29.1862V30.0195H20.8419V29.1862H24.1743ZM20.8419 31.6862H24.1743V32.5195H20.8419V31.6862ZM25.8404 32.5195V31.6862H29.1728V32.5195H25.8404Z" fill="black"/>
<path d="M45.7618 44.2455C45.5543 43.1493 44.9165 42.1826 43.9906 41.5608C43.0648 40.9391 41.9283 40.7149 40.8357 40.9378V26.1995L42.3294 27.6936C43.3451 28.7097 44.9913 28.7097 46.0066 27.6936C47.0219 26.678 47.0219 25.0313 46.0066 24.0152L40.8357 18.8431V8.35443C41.7558 8.35443 42.5018 7.60858 42.5018 6.68776V5.02109C42.5018 4.10068 41.7558 3.35443 40.8357 3.35443H32.5049C31.5847 3.35443 30.8387 4.10068 30.8387 5.02109V6.68776C30.8387 7.60858 31.5847 8.35443 32.5049 8.35443V10.5098L26.7709 4.77125C25.7955 3.79957 24.2188 3.79957 23.2437 4.77125L21.9107 6.10467C19.5343 1.73008 14.6445 -0.653957 9.73587 0.168797C4.82687 0.991144 0.980783 4.83921 0.159498 9.74969C-0.661787 14.6602 1.72234 19.5507 6.09642 21.927L4.00762 24.0152C2.9923 25.0313 2.9923 26.678 4.00762 27.6936C5.02334 28.7097 6.66957 28.7097 7.68489 27.6936L9.17858 26.1995V43.673C8.27147 42.62 6.80422 42.244 5.50293 42.7311C4.20124 43.2181 3.34091 44.4645 3.34701 45.8544C1.50675 45.8544 0.014685 47.3469 0.014685 49.1878C0.014685 49.6484 0.3877 50.0211 0.847766 50.0211H49.1665C49.6266 50.0211 49.9996 49.6484 49.9996 49.1878C49.9963 46.7211 48.1984 44.6244 45.7618 44.2455ZM38.3299 42.5553C38.3299 42.5439 38.3364 42.5337 38.3364 42.5211V37.5211C38.3364 37.0609 37.9634 36.6878 37.5033 36.6878H32.5049C32.0448 36.6878 31.6718 37.0609 31.6718 37.5211V42.5211C31.6718 42.9817 32.0448 43.3544 32.5049 43.3544H37.5033C37.6551 43.3508 37.8027 43.3044 37.9292 43.2206C37.6522 43.7805 37.5066 44.3965 37.5033 45.0211V45.1045C35.8709 45.4426 34.5965 46.7207 34.2625 48.3544H30.8387V35.8544C30.8387 35.3942 30.4657 35.0211 30.0056 35.0211H20.0086C19.5486 35.0211 19.1756 35.3942 19.1756 35.8544V48.3544H14.103C13.798 46.5681 12.552 45.0858 10.8447 44.4779V25.0211H39.1695V41.7097C38.8506 41.9498 38.5679 42.2346 38.3299 42.5553ZM36.6703 38.3544V41.6878H33.3379V38.3544H36.6703ZM32.5049 5.02109H40.8357V6.68776H32.5049V5.02109ZM34.171 8.35443H39.1695V17.1764L34.171 12.1764V8.35443ZM24.4242 5.95208C24.7484 5.63104 25.2707 5.63104 25.5953 5.95208L44.831 25.1936C45.1955 25.559 45.1955 26.1502 44.831 26.5152C44.4658 26.8786 43.8755 26.8786 43.5098 26.5152L26.7709 9.77125C25.7955 8.79957 24.2188 8.79957 23.2437 9.77125L23.1803 9.83473C23.0652 9.11899 22.8837 8.41546 22.6381 7.7339L24.4242 5.95208ZM1.68085 11.6878C1.68085 6.16489 6.15663 1.68776 11.6778 1.68776C17.199 1.68776 21.6748 6.16489 21.6748 11.6878C21.6748 17.2106 17.199 21.6878 11.6778 21.6878C6.15907 21.6821 1.68695 17.2082 1.68085 11.6878ZM6.50686 26.5152C6.14198 26.8798 5.55093 26.8798 5.18565 26.5152C4.82239 26.1498 4.82239 25.5594 5.18565 25.1936L7.7276 22.6513C8.40896 22.8971 9.11228 23.079 9.8278 23.1937L9.42346 23.5978L6.50686 26.5152ZM12.0411 23.3361C18.1879 23.1384 23.1246 18.1998 23.3227 12.0511L24.4242 10.9521C24.7484 10.631 25.2707 10.631 25.5953 10.9521L37.9915 23.3544H12.0228L12.0411 23.3361ZM1.90498 48.3544C2.34308 47.6013 3.28884 47.3152 4.07108 47.6989C4.3908 47.8568 4.77602 47.7933 5.02822 47.541C5.28083 47.2892 5.3447 46.9042 5.18727 46.5836C5.07378 46.3574 5.01439 46.1079 5.01317 45.8544C5.01073 45.0418 5.5969 44.3469 6.39785 44.2118C7.1992 44.0771 7.98021 44.5418 8.2438 45.3104C8.3577 45.662 8.69492 45.8919 9.06387 45.8687C9.10251 45.8695 9.14116 45.8646 9.17858 45.8544C10.6975 45.8565 12.0236 46.8839 12.4051 48.3544H1.90498ZM20.8417 48.3544V36.6878H29.1725V48.3544H20.8417ZM35.9796 48.3544C36.3217 47.3697 37.2426 46.7036 38.2848 46.6878C38.3132 46.6878 38.3974 46.7004 38.4255 46.7012C38.6899 46.7118 38.9429 46.5962 39.1085 46.3899C39.2736 46.1836 39.3314 45.911 39.2639 45.6555C39.2049 45.4492 39.1732 45.2359 39.1695 45.0211C39.1695 43.6405 40.2886 42.5211 41.6688 42.5211C43.049 42.5211 44.168 43.6405 44.168 45.0211C44.168 45.4817 44.541 45.8544 45.0011 45.8544C46.52 45.8565 47.8461 46.8839 48.2276 48.3544H35.9796Z" fill="black"/>
<path d="M23.341 39.1875H21.6748V40.8542H22.5079V42.5208H21.6748V44.1875H23.341C23.801 44.1875 24.174 43.8148 24.174 43.3542V40.0208C24.174 39.5606 23.801 39.1875 23.341 39.1875Z" fill="black"/>
<g clip-path="url(#clip1_2_1826)">
<path d="M12.5709 13.3332C13.4783 13.3556 14.3576 13.0174 15.016 12.3925C15.6745 11.7677 16.0583 10.9073 16.0834 9.99991C16.0583 9.09254 15.6745 8.23214 15.016 7.6073C14.3576 6.98246 13.4783 6.64417 12.5709 6.66657H9.00004C8.88953 6.66657 8.78355 6.71047 8.70541 6.78861C8.62727 6.86675 8.58337 6.97273 8.58337 7.08324V12.4999H7.75004C7.63953 12.4999 7.53355 12.5438 7.45541 12.6219C7.37727 12.7001 7.33337 12.8061 7.33337 12.9166C7.33337 13.0271 7.37727 13.1331 7.45541 13.2112C7.53355 13.2893 7.63953 13.3332 7.75004 13.3332H8.58337V14.1666H7.75004C7.63953 14.1666 7.53355 14.2105 7.45541 14.2886C7.37727 14.3668 7.33337 14.4727 7.33337 14.5832C7.33337 14.6937 7.37727 14.7997 7.45541 14.8779C7.53355 14.956 7.63953 14.9999 7.75004 14.9999H8.58337V17.9166C8.58337 18.0271 8.62727 18.1331 8.70541 18.2112C8.78355 18.2893 8.88953 18.3332 9.00004 18.3332C9.11055 18.3332 9.21653 18.2893 9.29467 18.2112C9.37281 18.1331 9.41671 18.0271 9.41671 17.9166V14.9999H13.1667C13.2772 14.9999 13.3832 14.956 13.4613 14.8779C13.5395 14.7997 13.5834 14.6937 13.5834 14.5832C13.5834 14.4727 13.5395 14.3668 13.4613 14.2886C13.3832 14.2105 13.2772 14.1666 13.1667 14.1666H9.41671V13.3332H12.5709ZM9.41671 7.49991H12.5709C13.257 7.47851 13.9238 7.72935 14.4257 8.1977C14.9277 8.66606 15.224 9.31391 15.25 9.99991C15.2251 10.6863 14.9291 11.3348 14.4269 11.8034C13.9247 12.2719 13.2573 12.5224 12.5709 12.4999H9.41671V7.49991Z" fill="black"/>
</g>
</g>
<defs>
<clipPath id="clip0_2_1826">
<rect width="50" height="50" fill="white"/>
</clipPath>
<clipPath id="clip1_2_1826">
<rect width="15" height="15" fill="white" transform="translate(4 5)"/>
</clipPath>
</defs>
</svg>
