<svg width="50" height="50" viewBox="0 0 50 50" fill="none" xmlns="http://www.w3.org/2000/svg">
<g clip-path="url(#clip0_2_1931)">
<path d="M25 13.2812C18.5383 13.2812 13.2812 18.5383 13.2812 25C13.2812 31.4617 18.5383 36.7188 25 36.7188C31.4617 36.7188 36.7188 31.4617 36.7188 25C36.7188 18.5383 31.4617 13.2812 25 13.2812ZM25 35.1562C19.4 35.1562 14.8438 30.6 14.8438 25C14.8438 19.4 19.4 14.8438 25 14.8438C30.6 14.8438 35.1562 19.4 35.1562 25C35.1562 30.6 30.6 35.1562 25 35.1562Z" fill="black"/>
<path d="M25 16.4062C20.2617 16.4062 16.4062 20.2617 16.4062 25C16.4062 29.7383 20.2617 33.5938 25 33.5938C29.7383 33.5938 33.5938 29.7383 33.5938 25C33.5938 20.2617 29.7383 16.4062 25 16.4062ZM25 32.0312C21.1227 32.0312 17.9688 28.8773 17.9688 25C17.9688 21.1227 21.1227 17.9688 25 17.9688C28.8773 17.9688 32.0312 21.1227 32.0312 25C32.0312 28.8773 28.8773 32.0312 25 32.0312Z" fill="black"/>
<path d="M46.875 33.5938H40.625C39.3328 33.5938 38.2812 34.6453 38.2812 35.9375V46.875C38.2812 48.1672 39.3328 49.2188 40.625 49.2188H46.875C48.1672 49.2188 49.2188 48.1672 49.2188 46.875V35.9375C49.2188 34.6453 48.1672 33.5938 46.875 33.5938ZM40.625 35.1562H46.875C47.3062 35.1562 47.6562 35.5063 47.6562 35.9375V36.7188H39.8438V35.9375C39.8438 35.5063 40.1938 35.1562 40.625 35.1562ZM47.6562 38.2812V44.5312H39.8438V38.2812H47.6562ZM46.875 47.6562H40.625C40.1938 47.6562 39.8438 47.3062 39.8438 46.875V46.0938H47.6562V46.875C47.6562 47.3062 47.3062 47.6562 46.875 47.6562Z" fill="black"/>
<path d="M19.3023 40.25L16.9945 39.9203L16.8633 39.5266C15.9922 36.9125 13.5563 35.1562 10.8 35.1562H9.43984C6.46406 35.1562 3.925 37.1773 3.23203 40.0258L2.91875 40.1305C1.64062 40.557 0.78125 41.7484 0.78125 43.0953V45.3125C0.78125 46.6047 1.83281 47.6562 3.125 47.6562H4.34063C4.88281 48.5859 5.87969 49.2188 7.03125 49.2188C8.18281 49.2188 9.17969 48.5859 9.72188 47.6562H13.7156C14.2578 48.5859 15.2547 49.2188 16.4062 49.2188C17.5578 49.2188 18.5547 48.5859 19.0969 47.6562H20.3125C21.6047 47.6562 22.6562 46.6047 22.6562 45.3125V44.1164C22.6562 42.1852 21.2141 40.5227 19.3023 40.25ZM7.03125 47.6562C6.16953 47.6562 5.46875 46.9555 5.46875 46.0938C5.46875 45.232 6.16953 44.5312 7.03125 44.5312C7.89297 44.5312 8.59375 45.232 8.59375 46.0938C8.59375 46.9555 7.89297 47.6562 7.03125 47.6562ZM16.4062 47.6562C15.5445 47.6562 14.8438 46.9555 14.8438 46.0938C14.8438 45.232 15.5445 44.5312 16.4062 44.5312C17.268 44.5312 17.9688 45.232 17.9688 46.0938C17.9688 46.9555 17.268 47.6562 16.4062 47.6562ZM21.0938 45.3125C21.0938 45.7437 20.7437 46.0938 20.3125 46.0938H19.5312C19.5312 44.3703 18.1297 42.9688 16.4062 42.9688C14.6828 42.9688 13.2812 44.3703 13.2812 46.0938H10.1562C10.1562 44.3703 8.75469 42.9688 7.03125 42.9688C5.30781 42.9688 3.90625 44.3703 3.90625 46.0938H3.125C2.69375 46.0938 2.34375 45.7437 2.34375 45.3125V43.0953C2.34375 42.4219 2.77344 41.8266 3.4125 41.6133L4.6 41.2172L4.67734 40.7531C5.06641 38.4156 7.06953 36.7188 9.43984 36.7188H10.8C12.882 36.7188 14.7227 38.0453 15.3812 40.0211L15.818 41.3305L19.0812 41.7977C20.2289 41.9602 21.0938 42.957 21.0938 44.1164V45.3125Z" fill="black"/>
<path d="M44.5312 0.78125H38.2812C35.6961 0.78125 33.5938 2.88359 33.5938 5.46875V8.59375H36.7188V16.4062H46.0938V8.59375H49.2188V5.46875C49.2188 2.88359 47.1164 0.78125 44.5312 0.78125ZM42.9688 2.34375C42.9688 3.20547 42.268 3.90625 41.4062 3.90625C40.5445 3.90625 39.8438 3.20547 39.8438 2.34375H42.9688ZM47.6562 7.03125H46.0938V5.46875H44.5312V14.8438H38.2812V5.46875H36.7188V7.03125H35.1562V5.46875C35.1562 3.74531 36.5578 2.34375 38.2812 2.34375C38.2812 4.06719 39.6828 5.46875 41.4062 5.46875C43.1297 5.46875 44.5312 4.06719 44.5312 2.34375C46.2547 2.34375 47.6562 3.74531 47.6562 5.46875V7.03125Z" fill="black"/>
<path d="M3.125 13.2812H5.46875V14.8438H3.90625V16.4062H14.8438V14.8438H13.2812V13.2812H15.625C16.9172 13.2812 17.9688 12.2297 17.9688 10.9375V3.125C17.9688 1.83281 16.9172 0.78125 15.625 0.78125H3.125C1.83281 0.78125 0.78125 1.83281 0.78125 3.125V10.9375C0.78125 12.2297 1.83281 13.2812 3.125 13.2812ZM11.7188 14.8438H7.03125V13.2812H11.7188V14.8438ZM15.625 11.7188H3.125C2.69375 11.7188 2.34375 11.3687 2.34375 10.9375V10.1562H16.4062V10.9375C16.4062 11.3687 16.0562 11.7188 15.625 11.7188ZM3.125 2.34375H15.625C16.0562 2.34375 16.4062 2.69375 16.4062 3.125V8.59375H2.34375V3.125C2.34375 2.69375 2.69375 2.34375 3.125 2.34375Z" fill="black"/>
<path d="M38.2812 27.3438H42.9688V32.0312H44.5312V25.7812H38.2812V27.3438Z" fill="black"/>
<path d="M40.625 17.9688V22.6562H38.2812V24.2188H42.1875V17.9688H40.625Z" fill="black"/>
<path d="M11.7188 22.6562H10.1562V17.9688H8.59375V24.2188H11.7188V22.6562Z" fill="black"/>
<path d="M8.59375 33.5938H10.1562V27.3438H11.7188V25.7812H8.59375V33.5938Z" fill="black"/>
</g>
<defs>
<clipPath id="clip0_2_1931">
<rect width="50" height="50" fill="white"/>
</clipPath>
</defs>
</svg>
