<svg width="50" height="50" viewBox="0 0 50 50" fill="none" xmlns="http://www.w3.org/2000/svg">
<g clip-path="url(#clip0_2_2561)">
<path d="M49.1667 48.3333H48.3334V17.05C49.3533 16.1342 50 14.81 50 13.3333C50 13.1691 49.9509 13.0074 49.86 12.8708L41.5267 0.370801C41.3717 0.13916 41.1116 0 40.8333 0H9.1667C8.88838 0 8.62832 0.13916 8.47334 0.370801L0.140039 12.8708C0.0491211 13.0075 0 13.1691 0 13.3333C0 14.8092 0.64668 16.1333 1.6667 17.05V48.3333H0.833301C0.37334 48.3333 0 48.7058 0 49.1666C0 49.6275 0.37334 50 0.833301 50H49.1666C49.6274 50 49.9999 49.6275 49.9999 49.1667C50 48.7059 49.6275 48.3333 49.1667 48.3333ZM9.6125 1.6667H40.3875L47.61 12.5H2.39004L9.6125 1.6667ZM39.0825 14.1667C38.695 16.0659 37.0125 17.5 35 17.5C32.9875 17.5 31.305 16.0658 30.9175 14.1667H39.0825ZM28.215 14.1667C27.8426 15.6009 26.5483 16.6667 25 16.6667C23.4517 16.6667 22.1575 15.6009 21.785 14.1667H28.215ZM19.0825 14.1667C18.695 16.0659 17.0125 17.5 15 17.5C12.9875 17.5 11.305 16.0658 10.9175 14.1667H19.0825ZM1.77588 14.1667H8.21504C7.84258 15.6009 6.54834 16.6667 5 16.6667C3.45 16.6667 2.14668 15.6025 1.77588 14.1667ZM3.3333 29.1667V22.5H10V29.1667H3.3333ZM10 30.8333V37.5H3.3333V30.8333H10ZM18.3333 48.3333H3.3333V39.1666H18.3333V48.3333ZM18.3333 37.5H11.6666V30.8333H18.3333V37.5ZM18.3333 29.1667H11.6666V22.5H18.3333V29.1667ZM30 48.3333H20V22.5H30V48.3333ZM46.6667 48.3333H31.6667V39.1666H46.6667V48.3333ZM38.3333 30.8333V37.5H31.6666V30.8333H38.3333ZM31.6667 29.1667V22.5H38.3334V29.1667H31.6667ZM46.6667 37.5H40V30.8333H46.6667V37.5ZM46.6667 29.1667H40V22.5H46.6667V29.1667ZM46.6667 20.8333H3.3333V18.0416C3.85576 18.2266 4.41494 18.3333 5 18.3333C7.02168 18.3333 8.7625 17.125 9.55 15.3949C10.385 17.5949 12.51 19.1666 15 19.1666C17.49 19.1666 19.615 17.5949 20.45 15.3949C21.2375 17.1249 22.9783 18.3333 25 18.3333C27.0217 18.3333 28.7625 17.125 29.55 15.3949C30.385 17.5949 32.51 19.1666 35 19.1666C37.49 19.1666 39.615 17.5949 40.45 15.3949C41.2375 17.1249 42.9783 18.3333 45 18.3333C45.585 18.3333 46.1441 18.2267 46.6667 18.0416V20.8333ZM45 16.6667C43.4508 16.6667 42.1575 15.6009 41.785 14.1667H48.225C47.8533 15.6025 46.55 16.6667 45 16.6667Z" fill="black"/>
<path d="M27.5001 32.5C27.0401 32.5 26.6667 32.8725 26.6667 33.3333V36.6666C26.6667 37.1274 27.0401 37.4999 27.5001 37.4999C27.96 37.4999 28.3334 37.1274 28.3334 36.6666V33.3333C28.3334 32.8725 27.96 32.5 27.5001 32.5Z" fill="black"/>
</g>
<defs>
<clipPath id="clip0_2_2561">
<rect width="50" height="50" fill="white"/>
</clipPath>
</defs>
</svg>
