<svg width="50" height="50" viewBox="0 0 50 50" fill="none" xmlns="http://www.w3.org/2000/svg">
<g clip-path="url(#clip0_2_2034)">
<path d="M38.194 17.5666L35.8321 15.2047C35.5265 14.899 35.1202 14.7307 34.6881 14.7307C34.2559 14.7307 33.8496 14.899 33.544 15.2047L33.5071 15.2416L26.3476 8.0819L26.3845 8.04498C26.6901 7.73942 26.8584 7.33307 26.8584 6.90094C26.8584 6.46881 26.6901 6.06246 26.3845 5.7569L24.0226 3.39498C23.3918 2.76412 22.3651 2.76422 21.7345 3.39498L15.8297 9.29977C15.1989 9.93053 15.1989 10.957 15.8297 11.5879L18.1916 13.9498C18.8224 14.5806 19.8489 14.5806 20.4797 13.9498L20.5166 13.9129L21.7714 15.1676L20.5535 16.3855C20.2479 16.6912 20.0795 17.0974 20.0795 17.5296C20.0795 17.6832 20.1018 17.8332 20.1429 17.9769L0.718457 37.4012C0.255176 37.8644 0 38.4805 0 39.1357C0 39.7909 0.255176 40.407 0.718457 40.8703C1.19668 41.3486 1.8248 41.5876 2.45303 41.5876C3.08125 41.5876 3.70938 41.3484 4.1876 40.8703L23.6119 21.446C23.7557 21.4871 23.9057 21.5093 24.0593 21.5093C24.4915 21.5093 24.8978 21.3411 25.2033 21.0354L26.4212 19.8175L27.676 21.0723L27.6392 21.1091C27.3335 21.4148 27.1651 21.8211 27.1651 22.2532C27.1651 22.6853 27.3334 23.0917 27.6391 23.3972L30.001 25.7591C30.3066 26.0649 30.7129 26.2333 31.1451 26.2333C31.5773 26.2333 31.9836 26.065 32.2892 25.7593L38.1939 19.8546C38.4996 19.5489 38.668 19.1426 38.668 18.7105C38.668 18.2784 38.4997 17.872 38.194 17.5666ZM3.08037 39.7632C2.73447 40.109 2.17158 40.109 1.82559 39.7632C1.65801 39.5957 1.56562 39.3728 1.56562 39.1358C1.56562 38.8988 1.65791 38.676 1.82559 38.5085L21.1069 19.2271L22.3617 20.4819L3.08037 39.7632ZM24.0961 19.9285C24.0924 19.9323 24.0809 19.9437 24.0593 19.9437C24.0377 19.9437 24.0262 19.9322 24.0224 19.9285L21.6604 17.5664C21.6566 17.5627 21.6451 17.5511 21.6451 17.5296C21.6451 17.508 21.6566 17.4964 21.6604 17.4926L22.8782 16.2748L25.3141 18.7106L24.0961 19.9285ZM37.0868 18.7473L31.1819 24.6522C31.1781 24.6559 31.1667 24.6674 31.1451 24.6674C31.1235 24.6674 31.112 24.6559 31.1082 24.6522L28.7462 22.2902C28.7426 22.2865 28.7311 22.275 28.7311 22.2534C28.7311 22.2318 28.7426 22.2203 28.7463 22.2165L29.3368 21.6259C29.6426 21.3202 29.6426 20.8245 29.3368 20.5188L21.6235 12.8055L23.4319 10.9972C23.7377 10.6915 23.7377 10.1958 23.4319 9.8901C23.1262 9.58434 22.6305 9.58434 22.3248 9.8901L19.3723 12.8426C19.352 12.8629 19.3188 12.8629 19.2984 12.8426L16.9365 10.4807C16.9162 10.4604 16.9162 10.4272 16.9365 10.4068L22.8413 4.50201C22.8617 4.4816 22.8948 4.4817 22.9152 4.50201L25.2771 6.86393C25.2975 6.88424 25.2975 6.91735 25.2771 6.93776C25.2771 6.93776 24.7276 7.48727 24.6895 7.52535C24.6851 7.52975 24.6807 7.53424 24.6763 7.53873C24.3804 7.84606 24.385 8.33375 24.6866 8.63541L32.3999 16.3487L30.5915 18.1571C30.4387 18.3099 30.3622 18.5103 30.3622 18.7106C30.3622 18.9109 30.4386 19.1114 30.5915 19.2641C30.8973 19.5699 31.393 19.5699 31.6986 19.2641L34.6512 16.3116C34.6549 16.3079 34.6664 16.2964 34.688 16.2964C34.7096 16.2964 34.7212 16.3079 34.7249 16.3116L37.0868 18.6735C37.0905 18.6772 37.1021 18.6888 37.1021 18.7104C37.1021 18.732 37.0906 18.7434 37.0868 18.7473Z" fill="black"/>
<path d="M49.9769 46.1057L49.4581 44.0305C49.1847 42.9364 48.2061 42.1724 47.0783 42.1724H46.66V40.45C46.66 39.5578 45.9342 38.832 45.042 38.832H33.3509C32.4587 38.832 31.7329 39.5578 31.7329 40.45V42.1724H31.3146C30.1869 42.1724 29.2083 42.9364 28.9348 44.0305L28.416 46.1057C28.3574 46.3395 28.4101 46.5873 28.5584 46.7773C28.7067 46.9674 28.9344 47.0784 29.1755 47.0784H49.2173C49.4584 47.0784 49.6859 46.9674 49.8344 46.7773C49.9828 46.5873 50.0353 46.3395 49.9769 46.1057ZM30.1782 45.5126L30.4538 44.4101C30.5527 44.0144 30.9067 43.738 31.3146 43.738H34.1858C34.6182 43.738 34.9688 43.3875 34.9688 42.9551C34.9688 42.5227 34.6183 42.1722 34.1858 42.1722H33.2986V40.4498C33.2986 40.421 33.322 40.3977 33.3508 40.3977H45.0418C45.0706 40.3977 45.094 40.421 45.094 40.4498V42.1722H37.5257C37.0934 42.1722 36.7428 42.5227 36.7428 42.9551C36.7428 43.3875 37.0933 43.738 37.5257 43.738H47.0781C47.4859 43.738 47.8399 44.0143 47.9389 44.4101L48.2145 45.5126H30.1782Z" fill="black"/>
<path d="M39.196 31.3164C38.7637 31.3164 38.4131 31.6668 38.4131 32.0993V36.2747C38.4131 36.707 38.7636 37.0576 39.196 37.0576C39.6283 37.0576 39.9789 36.7071 39.9789 36.2747V32.0992C39.9788 31.6669 39.6283 31.3164 39.196 31.3164Z" fill="black"/>
<path d="M43.7221 33.9032C43.3355 33.7097 42.8652 33.8666 42.6718 34.2533L41.8368 35.9234C41.6433 36.31 41.8002 36.7803 42.1869 36.9737C42.2993 37.0299 42.4187 37.0565 42.5364 37.0565C42.8236 37.0565 43.1001 36.8978 43.2373 36.6236L44.0723 34.9535C44.2657 34.5668 44.1089 34.0964 43.7221 33.9032Z" fill="black"/>
<path d="M36.5566 35.9235L35.7215 34.2533C35.5282 33.8665 35.058 33.7097 34.6712 33.9032C34.2845 34.0966 34.1277 34.5668 34.3211 34.9535L35.1562 36.6236C35.2933 36.898 35.5698 37.0566 35.8571 37.0566C35.9748 37.0566 36.0941 37.0299 36.2066 36.9737C36.5932 36.7805 36.7501 36.3102 36.5566 35.9235Z" fill="black"/>
</g>
<defs>
<clipPath id="clip0_2_2034">
<rect width="50" height="50" fill="white"/>
</clipPath>
</defs>
</svg>
