<svg width="50" height="50" viewBox="0 0 50 50" fill="none" xmlns="http://www.w3.org/2000/svg">
<g clip-path="url(#clip0_2_1944)">
<path d="M30.6306 25.7773H28.5124V24.9344C28.5124 24.1757 27.9841 23.5366 27.2754 23.3681V13.83C27.9851 13.6506 28.5124 13.0066 28.5124 12.2411V11.2129H31.1177C32.6862 11.2129 33.2203 9.20028 31.9048 8.42919L25.3631 4.5869H25.5032C25.909 4.5869 26.2384 4.2576 26.2384 3.85175C26.2384 3.44589 25.9091 3.11659 25.5032 3.11659H22.8599L18.8381 0.754382C17.2946 -0.152063 15.3557 -0.152942 13.8107 0.754382L6.7456 4.90438C6.3957 5.11024 6.27803 5.56014 6.48389 5.91005C6.68975 6.25995 7.14063 6.37762 7.49053 6.17176L14.5557 2.02167C15.6352 1.38749 17.0059 1.3829 18.0932 2.02167C18.1034 2.02762 31.1683 9.70409 31.1785 9.70917C31.1755 9.76102 31.7388 9.74247 22.4559 9.74247C22.0423 9.74247 21.7207 10.0809 21.7207 10.4776C21.7207 10.8834 22.05 11.2128 22.4559 11.2128H22.6646V12.241C22.6646 13.0065 23.191 13.6515 23.9017 13.8308V23.368C23.193 23.5365 22.6646 24.1757 22.6646 24.9343V25.7772H19.2487V24.9343C19.2487 24.1756 18.7204 23.5365 18.0117 23.368V13.8299C18.7214 13.6505 19.2487 13.0065 19.2487 12.241V11.2128H19.5153C19.9211 11.2128 20.2505 10.8835 20.2505 10.4776C20.2505 10.0718 19.9212 9.74247 19.5153 9.74247C18.8256 9.74247 17.5129 9.74247 16.8242 9.74247C18.6228 9.49774 20.0136 7.95272 20.0136 6.08817C20.0136 4.05399 18.3586 2.39911 16.3245 2.39911C14.2903 2.39911 12.6354 4.05399 12.6354 6.08817C12.6354 7.95282 14.0264 9.49774 15.8248 9.74247C14.567 9.74247 3.2959 9.74247 1.53096 9.74247C1.51035 9.74247 1.47021 9.74247 1.46631 9.71307C1.46631 9.71307 1.47217 9.70721 1.48887 9.69637L4.95479 7.66053C5.30469 7.45565 5.42236 7.00477 5.2165 6.65487C5.01064 6.30497 4.55977 6.18729 4.20986 6.39315L0.743945 8.42919C0.278418 8.70263 0 9.17997 0 9.70536C0 10.5503 0.672363 11.2129 1.53105 11.2129H4.13633V12.2411C4.13633 13.0066 4.66367 13.6515 5.37432 13.8309V23.3681C4.66465 23.5366 4.13633 24.1758 4.13633 24.9344V25.7773H2.04658C0.934082 25.7773 0.028418 26.683 0.028418 27.7955V28.9276C0.028418 30.0401 0.934082 30.9458 2.04658 30.9458H4.9499V32.7617C4.9499 33.1677 5.279 33.4969 5.68506 33.4969C6.09111 33.4969 6.42021 33.1678 6.42021 32.7617V30.9458H21.8395C22.2462 30.9458 22.5746 30.6165 22.5746 30.2106C22.5746 29.8048 22.2463 29.4755 21.8395 29.4755H2.04658C1.74473 29.4755 1.49863 29.2295 1.49863 28.9275V27.7954C1.49863 27.4935 1.74463 27.2474 2.04658 27.2474H4.24902C7.62998 27.2474 24.7738 27.2474 30.6306 27.2474C30.9334 27.2474 31.1785 27.4934 31.1785 27.7954V28.9275C31.1785 29.2294 30.9335 29.4755 30.6306 29.4755H24.7799C24.3741 29.4755 24.0447 29.8048 24.0447 30.2106C24.0447 30.6165 24.374 30.9458 24.7799 30.9458H30.6306C31.744 30.9458 32.6487 30.0401 32.6487 28.9276V27.7955C32.6487 26.683 31.744 25.7773 30.6306 25.7773ZM17.0814 5.1828C17.316 5.1828 17.4409 4.9538 17.4409 4.78856C17.4409 4.54462 17.2024 4.37762 16.7659 4.31317C16.7612 4.29569 16.8115 3.99169 16.5198 3.8785C17.6522 3.97772 18.5436 4.93055 18.5436 6.08837C18.5436 7.20028 17.7214 8.12362 16.653 8.2828C16.7972 8.13876 16.7602 7.96161 16.7659 7.92313C17.2463 7.78886 17.5192 7.40145 17.5192 6.8454C17.5192 6.15292 17.1237 5.89384 16.7176 5.7285L16.7183 5.72626C16.317 5.56639 16.0757 5.54051 16.0757 5.28866C16.0755 4.73866 17.0421 5.1828 17.0814 5.1828ZM14.1058 6.08827C14.1058 4.88397 15.0704 3.90126 16.2677 3.87089C15.9379 3.97401 16.0036 4.33661 15.9971 4.36171C15.5665 4.50243 15.3219 4.84501 15.3219 5.31483C15.3219 6.01942 15.8414 6.21464 16.2206 6.35712C16.5984 6.49911 16.7656 6.5744 16.7656 6.87147C16.7656 7.33612 16.1706 7.33651 15.8917 7.03583C15.8297 6.96893 15.7446 6.87733 15.6075 6.87733C15.3993 6.87733 15.2437 7.08544 15.2437 7.27157C15.2437 7.55282 15.567 7.83036 15.997 7.93221C16.0047 7.97665 15.9631 8.15204 16.1283 8.29803C14.9966 8.19823 14.1058 7.24559 14.1058 6.08827ZM8.51484 25.7773H5.60664V24.9344C5.60664 24.8579 5.67129 24.7932 5.74873 24.7932H8.37363C8.4501 24.7932 8.51475 24.8579 8.51475 24.9344L8.51484 25.7773ZM6.84463 23.3229V13.8809H7.27783V23.323H6.84463V23.3229ZM8.51484 12.2411C8.51484 12.3332 8.43643 12.4106 8.34434 12.4106C7.47676 12.4106 6.72197 12.4106 5.77725 12.4106C5.68516 12.4106 5.60674 12.3332 5.60674 12.2411V11.2129H8.51494L8.51484 12.2411ZM14.638 23.3671C13.9293 23.5356 13.401 24.1748 13.401 24.9344V25.7773H9.98506V24.9344C9.98506 24.1757 9.45674 23.5366 8.74805 23.3681V13.83C9.45772 13.6506 9.98506 13.0066 9.98506 12.2411V11.2129H13.401V12.2411C13.401 13.0066 13.9273 13.6515 14.638 13.8309V23.3671ZM17.7785 25.7773H14.8713V24.9344C14.8713 24.8579 14.9359 24.7932 15.0124 24.7932H17.6373C17.7138 24.7932 17.7784 24.8579 17.7784 24.9344V25.7773H17.7785ZM16.1083 23.3229V13.8809H16.5415V23.323H16.1083V23.3229ZM17.7785 12.2411C17.7785 12.3332 17.7001 12.4106 17.608 12.4106C16.6654 12.4106 15.9112 12.4106 15.0409 12.4106C14.9488 12.4106 14.8714 12.3332 14.8714 12.2411V11.2129H17.7786L17.7785 12.2411ZM24.135 11.2129H27.0422V12.2411C27.0422 12.3332 26.9638 12.4106 26.8717 12.4106C25.9291 12.4106 25.1749 12.4106 24.3046 12.4106C24.2125 12.4106 24.1351 12.3332 24.1351 12.2411V11.2129H24.135ZM25.8052 13.8809V23.323H25.372V13.8809H25.8052ZM27.0422 25.7773H24.135V24.9344C24.135 24.8579 24.1996 24.7932 24.2761 24.7932H26.901C26.9774 24.7932 27.0421 24.8579 27.0421 24.9344L27.0422 25.7773Z" fill="black"/>
<path d="M49.3263 37.5489L44.2548 33.0858V31.4198C44.2548 31.014 43.9255 30.6846 43.5196 30.6846C43.1138 30.6846 42.7845 31.0139 42.7845 31.4198V31.7919L38.4423 27.9706C37.6935 27.3119 36.5652 27.3119 35.8174 27.9706L24.9335 37.5489C23.7917 38.5532 24.1675 40.4074 25.5765 40.9099V44.3758H23.077C22.671 44.3758 22.3418 44.7049 22.3418 45.1109C22.3418 45.517 22.6709 45.8461 23.077 45.8461H25.5765V48.8445C25.5765 49.462 26.1665 49.9276 26.9497 49.9276C29.5531 49.9276 44.8358 49.9276 47.31 49.9276C48.0932 49.9276 48.6832 49.462 48.6832 48.8445V40.909C50.0853 40.4138 50.4744 38.5586 49.3263 37.5489ZM47.213 48.4573H41.9213V43.7378C41.9213 42.4625 41.4217 41.2604 40.5143 40.3529C39.6063 39.446 38.4045 38.9465 37.13 38.9465C36.6618 38.9465 36.1983 39.0147 35.7524 39.1493C35.3638 39.2666 35.1437 39.6768 35.261 40.0656C35.3783 40.4544 35.7887 40.674 36.1773 40.557C36.4854 40.4639 36.8059 40.4169 37.13 40.4169C38.012 40.4169 38.8449 40.7636 39.4749 41.3929C40.1044 42.0224 40.4511 42.8552 40.4511 43.7379V48.4574H33.8082V43.7379C33.8082 43.1213 33.9807 42.5182 34.3071 41.994C34.5217 41.6493 34.4163 41.196 34.0717 40.9814C33.7271 40.7669 33.2737 40.8723 33.0591 41.2169C32.5873 41.9745 32.338 42.8463 32.338 43.7378V48.4573H27.0469V40.858C27.5582 40.6353 27.1439 40.8533 37.0368 32.1913C37.0897 32.1442 37.1701 32.1442 37.223 32.1913C47.1187 40.8561 46.6985 40.6321 47.213 40.858V48.4573ZM48.5283 39.0074C48.558 39.4686 48.0157 39.7275 47.6717 39.4279L38.1943 31.0876C37.5816 30.548 36.6646 30.5581 36.0654 31.0876L26.5871 39.4279C26.3734 39.6161 26.0461 39.5955 25.8578 39.3808C25.6696 39.1672 25.6912 38.8408 25.9049 38.6526C25.9039 38.6535 25.9046 38.6528 25.9077 38.6502C25.9078 38.6501 25.9079 38.65 25.908 38.65C25.9081 38.6499 25.9082 38.6499 25.9083 38.6498C25.9085 38.6496 25.9087 38.6494 25.9089 38.6493C25.9093 38.6489 25.9098 38.6485 25.9103 38.6481C25.9104 38.6479 25.9108 38.6476 25.9109 38.6475C25.9928 38.5755 27.0044 37.6852 36.7889 29.0745C36.9829 28.904 37.277 28.904 37.4711 29.0745C49.5546 39.7079 48.5124 38.7257 48.5283 39.0074Z" fill="black"/>
<path d="M39.0609 45.1121C39.4673 45.1121 39.7967 44.7827 39.7967 44.3764C39.7967 43.97 39.4673 43.6406 39.0609 43.6406C38.6546 43.6406 38.3252 43.97 38.3252 44.3764C38.3252 44.7827 38.6546 45.1121 39.0609 45.1121Z" fill="black"/>
<path d="M43.5203 13.3359C43.1146 13.3359 42.7852 13.6652 42.7852 14.0711V16.9136C42.7852 17.3203 43.1145 17.6487 43.5203 17.6487C43.9262 17.6487 44.2555 17.3204 44.2555 16.9136V14.0711C44.2555 13.6652 43.9261 13.3359 43.5203 13.3359Z" fill="black"/>
<path d="M43.5203 24.9023C43.1146 24.9023 42.7852 25.2316 42.7852 25.6375V28.48C42.7852 28.8867 43.1145 29.2151 43.5203 29.2151C43.9262 29.2151 44.2555 28.8868 44.2555 28.48V25.6375C44.2555 25.2316 43.9261 24.9023 43.5203 24.9023Z" fill="black"/>
<path d="M42.8747 5.16003C42.164 4.29743 41.2407 3.67311 40.2047 3.35358C39.8174 3.23298 39.4058 3.45065 39.2862 3.83874C39.1656 4.22692 39.3833 4.63854 39.7714 4.75817C40.532 4.99245 41.2122 5.45505 41.7405 6.09509C41.9993 6.40973 42.4641 6.45192 42.7746 6.19509C43.0883 5.9363 43.1335 5.4737 42.8747 5.16003Z" fill="black"/>
<path d="M44.1951 8.1891C44.1392 7.78724 43.7687 7.5059 43.3659 7.56176C42.964 7.61762 42.6827 7.9891 42.7385 8.39095C42.7689 8.60951 42.7846 8.83304 42.7846 9.05551V11.1295C42.7846 11.5363 43.1139 11.8647 43.5198 11.8647C43.9256 11.8647 44.2549 11.5364 44.2549 11.1295V9.0556C44.2548 8.76547 44.2342 8.47435 44.1951 8.1891Z" fill="black"/>
<path d="M43.5203 19.1172C43.1146 19.1172 42.7852 19.4465 42.7852 19.8523V22.6948C42.7852 23.1016 43.1145 23.43 43.5203 23.43C43.9262 23.43 44.2555 23.1017 44.2555 22.6948V19.8523C44.2555 19.4466 43.9261 19.1172 43.5203 19.1172Z" fill="black"/>
<path d="M37.0698 3.11719H34.2273C33.8206 3.11719 33.4922 3.44648 33.4922 3.85234C33.4922 4.2582 33.8205 4.5875 34.2273 4.5875H37.0698C37.4756 4.5875 37.805 4.2582 37.805 3.85234C37.805 3.44648 37.4757 3.11719 37.0698 3.11719Z" fill="black"/>
<path d="M31.2866 3.11719H28.4441C28.0374 3.11719 27.709 3.44648 27.709 3.85234C27.709 4.2582 28.0373 4.5875 28.4441 4.5875H31.2866C31.6924 4.5875 32.0218 4.2582 32.0218 3.85234C32.0218 3.44648 31.6924 3.11719 31.2866 3.11719Z" fill="black"/>
<path d="M20.1367 44.375H16.9021C16.4962 44.375 16.167 44.7041 16.167 45.1102C16.167 45.5162 16.4961 45.8453 16.9021 45.8453H20.1367C20.5427 45.8453 20.8719 45.5162 20.8719 45.1102C20.8719 44.7041 20.5427 44.375 20.1367 44.375Z" fill="black"/>
<path d="M13.9619 44.375H10.7273C10.3214 44.375 9.99219 44.7041 9.99219 45.1102C9.99219 45.5162 10.3213 45.8453 10.7273 45.8453H13.9619C14.3679 45.8453 14.6971 45.5162 14.6971 45.1102C14.6971 44.7041 14.368 44.375 13.9619 44.375Z" fill="black"/>
<path d="M8.33509 43.7156C7.5596 43.2164 6.9639 42.4649 6.65774 41.5996C6.52239 41.2169 6.10228 41.0162 5.71956 41.1517C5.33685 41.2871 5.13636 41.7072 5.27181 42.0899C5.68616 43.2607 6.49134 44.2772 7.53929 44.9518C7.88196 45.1723 8.33636 45.0718 8.5553 44.7317C8.77503 44.3903 8.67649 43.9354 8.33509 43.7156Z" fill="black"/>
<path d="M5.68535 34.9648C5.27939 34.9648 4.9502 35.2939 4.9502 35.7V38.9346C4.9502 39.3405 5.2793 39.6697 5.68535 39.6697C6.09141 39.6697 6.42051 39.3406 6.42051 38.9346V35.7C6.42051 35.294 6.09131 34.9648 5.68535 34.9648Z" fill="black"/>
</g>
<defs>
<clipPath id="clip0_2_1944">
<rect width="50" height="50" fill="white"/>
</clipPath>
</defs>
</svg>
