<svg width="50" height="50" viewBox="0 0 50 50" fill="none" xmlns="http://www.w3.org/2000/svg">
<g clip-path="url(#clip0_2_2001)">
<path d="M28.1572 19.7464C32.1399 19.7464 35.38 16.5062 35.38 12.5235C35.38 8.54092 32.1399 5.30078 28.1572 5.30078C24.1746 5.30078 20.9344 8.54092 20.9344 12.5235C20.9344 16.5062 24.1746 19.7464 28.1572 19.7464ZM28.1572 6.75928C31.3357 6.75928 33.9215 9.34512 33.9215 12.5235C33.9215 15.7021 31.3357 18.2879 28.1572 18.2879C24.9787 18.2879 22.3929 15.7021 22.3929 12.5235C22.3929 9.34512 24.9787 6.75928 28.1572 6.75928Z" fill="black"/>
<path d="M15.3019 3.39775C14.7526 6.10605 12.6479 8.21074 9.93956 8.76006C9.4714 8.85508 9.13165 9.27168 9.13165 9.75059V15.3905C9.13165 15.8694 9.4714 16.286 9.93956 16.3811C12.6479 16.9303 14.7526 19.0351 15.3019 21.7434C15.3969 22.2115 15.8135 22.5513 16.2924 22.5513H40.0227C40.5016 22.5513 40.9182 22.2115 41.0132 21.7434C41.5625 19.0351 43.6673 16.9303 46.3754 16.3811C46.8437 16.2861 47.1834 15.8695 47.1834 15.3905V9.75059C47.1834 9.27158 46.8436 8.85498 46.3755 8.76006C43.6673 8.21084 41.5625 6.10605 41.0132 3.39775C40.9182 2.92959 40.5016 2.58984 40.0227 2.58984H16.2924C15.8135 2.58994 15.3969 2.92969 15.3019 3.39775ZM39.6652 4.04844C40.4097 7.03818 42.7354 9.36377 45.725 10.1081V15.0332C42.7354 15.7775 40.4097 18.1032 39.6652 21.0929H16.6498C15.9055 18.1031 13.5798 15.7775 10.5901 15.0332V10.1081C13.5799 9.36377 15.9055 7.03809 16.6498 4.04844H39.6652Z" fill="black"/>
<path d="M48.5648 29.0387L47.4545 29.0306C46.4249 29.0231 45.558 28.9112 44.8346 28.7456V28.6504V25.1928C44.8346 25.1764 44.8326 25.1604 44.8321 25.1441H48.1042C49.0253 25.1441 49.7745 24.3948 49.7745 23.4738V1.67031C49.7745 0.749316 49.0252 0 48.1042 0H41.1122C40.7094 0 40.383 0.326465 40.383 0.729199C40.383 1.13193 40.7095 1.4584 41.1122 1.4584H48.1042C48.221 1.4584 48.316 1.55342 48.316 1.67021V23.4737C48.316 23.5905 48.221 23.6855 48.1042 23.6855H8.21036C8.09357 23.6855 7.99855 23.5905 7.99855 23.4737V1.67031C7.99855 1.55352 8.09357 1.4585 8.21036 1.4585H37.4812C37.884 1.4585 38.2104 1.13203 38.2104 0.729297C38.2104 0.326562 37.884 0 37.4812 0H8.21036C7.28927 0 6.54005 0.749316 6.54005 1.67031V23.4738C6.54005 23.5457 6.54611 23.6161 6.55499 23.6856H1.71984C0.888782 23.6856 0.212708 24.3617 0.212708 25.1928V36.3436C0.212708 37.1746 0.888782 37.8507 1.71984 37.8507H19.8984H25.1489H30.0867C30.1044 39.4969 30.4939 41.1444 31.2178 42.6226C31.9588 44.1356 33.054 45.4815 34.3851 46.5146L38.0379 49.3497C38.5783 49.7691 39.2526 50.0001 39.9362 50.0001C40.6199 50.0001 41.2942 49.769 41.8348 49.3496L45.4875 46.5146C46.8187 45.4814 47.9139 44.1355 48.6548 42.6226C49.3958 41.1095 49.7875 39.419 49.7875 37.7341V30.2702C49.7873 29.5959 49.2389 29.0435 48.5648 29.0387ZM43.3761 25.1928V27.9212H42.6729C42.2185 27.655 41.938 27.4076 41.7988 27.2684C41.6071 27.0768 41.4268 26.8678 41.2629 26.6473C40.9495 26.2258 40.4687 25.9834 39.9434 25.9821C39.9419 25.9821 39.9407 25.9821 39.9393 25.9821C39.4143 25.9821 38.9324 26.2229 38.6169 26.6433C38.453 26.8614 38.2702 27.0718 38.0734 27.2685C37.8816 27.4603 37.6057 27.6909 37.2249 27.9212H25.8781V25.1441H43.3275C43.3542 25.1441 43.3761 25.166 43.3761 25.1928ZM30.085 30.2701V32.1566H29.0536C28.6508 32.1566 28.3244 32.4831 28.3244 32.8858C28.3244 33.2887 28.6509 33.615 29.0536 33.615H30.085V36.3921H25.8781V29.3796H30.4694C30.2333 29.6044 30.085 29.9204 30.085 30.2701ZM1.71984 25.1441H8.21036H19.1692V27.9212H9.66622C9.26339 27.9212 8.93702 28.2477 8.93702 28.6504C8.93702 29.0532 9.26349 29.3796 9.66622 29.3796H19.1692V32.1566H1.6712V29.3796H6.12072C6.52355 29.3796 6.84991 29.0531 6.84991 28.6504C6.84991 28.2476 6.52345 27.9212 6.12072 27.9212H1.6712V25.1928C1.6712 25.166 1.69308 25.1441 1.71984 25.1441ZM1.6712 36.3436V33.6151H19.1692V36.3922H1.71984C1.69308 36.3921 1.6712 36.3703 1.6712 36.3436ZM20.6276 36.3921V25.1441H24.4196V36.3921H20.6276ZM48.3288 37.734C48.3288 39.1978 47.9885 40.6664 47.3448 41.981C46.7012 43.2955 45.7496 44.4647 44.5931 45.3623L40.9404 48.1973C40.6502 48.4224 40.3029 48.5415 39.9361 48.5415C39.5694 48.5415 39.2221 48.4226 38.932 48.1974L35.2793 45.3623C34.1229 44.4647 33.1713 43.2954 32.5276 41.981C31.8839 40.6664 31.5436 39.1978 31.5436 37.734V30.4955L32.4285 30.4891C36.3612 30.4604 38.2995 29.1051 39.1048 28.2999C39.35 28.0547 39.5782 27.792 39.7833 27.5189C39.8344 27.4509 39.9028 27.4406 39.9395 27.4406H39.94C39.9835 27.4407 40.0453 27.4541 40.0925 27.5176C40.2987 27.7948 40.5259 28.058 40.7675 28.2998C41.4159 28.9481 43.3645 30.4596 47.444 30.4892L48.3289 30.4956V37.734H48.3288Z" fill="black"/>
<path d="M46.2089 31.6154C44.9339 31.4716 43.7478 31.2016 42.6837 30.8133C41.9759 30.555 41.3373 30.2478 40.7857 29.9001C40.2698 29.575 39.6033 29.575 39.0875 29.9001C38.536 30.2477 37.8974 30.555 37.1896 30.8133C36.1255 31.2016 34.9395 31.4715 33.6645 31.6154C33.1342 31.6752 32.7342 32.123 32.7342 32.6573V37.6715C32.7342 40.3459 33.9459 42.8203 36.0586 44.46L39.2933 46.9703C39.4827 47.1175 39.7097 47.191 39.9365 47.191C40.1634 47.191 40.3903 47.1175 40.5796 46.9705L43.8144 44.4599C45.9271 42.8203 47.1389 40.346 47.1389 37.6715V32.6573C47.139 32.123 46.7391 31.675 46.2089 31.6154ZM45.6805 37.6715C45.6805 39.8921 44.6744 41.9465 42.9202 43.3078L39.9366 45.6234L36.953 43.3079C35.1988 41.9465 34.1929 39.8921 34.1929 37.6715V33.02C35.4456 32.8546 36.6202 32.5736 37.6898 32.1834C38.4944 31.8897 39.2265 31.5366 39.8652 31.134C39.9093 31.106 39.9641 31.1061 40.0081 31.1339C40.6472 31.5367 41.3791 31.8897 42.1838 32.1834C43.2531 32.5736 44.4279 32.8546 45.6807 33.02V37.6715H45.6805Z" fill="black"/>
<path d="M37.7084 36.6258C37.4636 36.3062 37.0061 36.2455 36.686 36.4904C36.3663 36.7353 36.3057 37.1929 36.5506 37.5128L38.8881 40.5649C39.025 40.7436 39.2367 40.8491 39.462 40.8507H39.4671C39.6904 40.8507 39.9015 40.7484 40.0398 40.5728L44.2552 35.2235C44.5044 34.9072 44.4501 34.4487 44.1337 34.1994C43.8176 33.9502 43.3589 34.0047 43.1096 34.3209L39.4752 38.9329L37.7084 36.6258Z" fill="black"/>
</g>
<defs>
<clipPath id="clip0_2_2001">
<rect width="50" height="50" fill="white"/>
</clipPath>
</defs>
</svg>
