<svg width="50" height="50" viewBox="0 0 50 50" fill="none" xmlns="http://www.w3.org/2000/svg">
<path d="M37.5 31.668C35.2083 31.668 33.3333 33.543 33.3333 35.8346C33.3333 38.1263 35.2083 40.0013 37.5 40.0013C38.4567 40.0013 39.2667 39.5913 40 39.0013C40.7333 39.5913 41.5433 40.0013 42.5 40.0013C44.7917 40.0013 46.6667 38.1263 46.6667 35.8346C46.6667 33.543 44.7917 31.668 42.5 31.668C41.5433 31.668 40.7333 32.068 40 32.6596C39.2667 32.068 38.4567 31.6696 37.5 31.668ZM37.5 33.3346C38.2167 33.3346 38.9 33.6446 39.375 34.1846C39.7083 34.5596 40.2917 34.5596 40.625 34.1846C41.1 33.6446 41.7817 33.3346 42.5 33.3346C43.89 33.3346 45 34.4446 45 35.8346C45 37.2246 43.89 38.3346 42.5 38.3346C41.7833 38.3346 41.1 38.0246 40.625 37.4846C40.2917 37.1096 39.7083 37.1096 39.375 37.4846C38.9 38.0246 38.2183 38.3346 37.5 38.3346C36.11 38.3346 35 37.2246 35 35.8346C35 34.4446 36.11 33.3346 37.5 33.3346ZM25.8333 35.0013H29.1667C29.6283 35.0013 30 35.373 30 35.8346C30 36.2963 29.6283 36.668 29.1667 36.668H25.8333C25.3717 36.668 25 36.2963 25 35.8346C25 35.373 25.3717 35.0013 25.8333 35.0013ZM19.1667 35.0013H22.5C22.9617 35.0013 23.3333 35.373 23.3333 35.8346C23.3333 36.2963 22.9617 36.668 22.5 36.668H19.1667C18.705 36.668 18.3333 36.2963 18.3333 35.8346C18.3333 35.373 18.705 35.0013 19.1667 35.0013ZM12.5 35.0013H15.8333C16.295 35.0013 16.6667 35.373 16.6667 35.8346C16.6667 36.2963 16.295 36.668 15.8333 36.668H12.5C12.0383 36.668 11.6667 36.2963 11.6667 35.8346C11.6667 35.373 12.0383 35.0013 12.5 35.0013ZM24.1667 26.668H44.1667C44.6283 26.668 45 27.0396 45 27.5013C45 27.963 44.6283 28.3346 44.1667 28.3346H24.1667C23.705 28.3346 23.3333 27.963 23.3333 27.5013C23.3333 27.0396 23.705 26.668 24.1667 26.668ZM32.5 21.668H44.1667C44.6283 21.668 45 22.0396 45 22.5013C45 22.963 44.6283 23.3346 44.1667 23.3346H32.5C32.0383 23.3346 31.6667 22.963 31.6667 22.5013C31.6667 22.0396 32.0383 21.668 32.5 21.668ZM24.1667 21.668H29.1667C29.6283 21.668 30 22.0396 30 22.5013C30 22.963 29.6283 23.3346 29.1667 23.3346H24.1667C23.705 23.3346 23.3333 22.963 23.3333 22.5013C23.3333 22.0396 23.705 21.668 24.1667 21.668ZM12.5 20.0013C12.04 20.0013 11.6667 20.3746 11.6667 20.8346V29.168C11.6667 29.628 12.04 30.0013 12.5 30.0013H19.1667C19.6267 30.0013 20 29.628 20 29.168V20.8346C20 20.3746 19.6267 20.0013 19.1667 20.0013H12.5ZM13.3333 21.668H18.3333V28.3346H13.3333V21.668ZM10.8333 16.668C9.46333 16.668 8.33333 17.798 8.33333 19.168V40.8346C8.33333 42.2046 9.46333 43.3346 10.8333 43.3346H47.5C48.87 43.3346 50 42.2046 50 40.8346V19.168C50 17.798 48.87 16.668 47.5 16.668H10.8333ZM10.8333 18.3346H47.5C47.9767 18.3346 48.3333 18.6913 48.3333 19.168V40.8346C48.3333 41.3113 47.9767 41.668 47.5 41.668H10.8333C10.3567 41.668 10 41.3113 10 40.8346V19.168C10 18.6913 10.3567 18.3346 10.8333 18.3346ZM2.5 6.66797C1.13 6.66797 0 7.79797 0 9.16797V30.8346C0 32.2046 1.13 33.3346 2.5 33.3346H5.83333C6.95333 33.3346 6.92167 31.668 5.83333 31.668H2.5C2.02333 31.668 1.66667 31.3113 1.66667 30.8346V20.0013H4.16667C4.62833 20.0013 5 19.6296 5 19.168C5 18.7063 4.62833 18.3346 4.16667 18.3346H1.66667V13.3346H41.6667V14.168C41.6667 15.288 43.3333 15.263 43.3333 14.168V9.16797C43.3333 7.79797 42.2033 6.66797 40.8333 6.66797H2.5ZM2.5 8.33464H40.8333C41.31 8.33464 41.6667 8.6913 41.6667 9.16797V11.668H1.66667V9.16797C1.66667 8.6913 2.02333 8.33464 2.5 8.33464Z" fill="black"/>
</svg>
