<svg width="50" height="50" viewBox="0 0 50 50" fill="none" xmlns="http://www.w3.org/2000/svg">
<g clip-path="url(#clip0_2_2074)">
<path d="M47.8595 17.7351H41.5278L41.485 16.8107C41.4679 16.4412 41.2693 16.1052 40.9539 15.9119L39.4211 14.9724L40.3685 14.5375C40.927 14.2811 41.1728 13.618 40.9164 13.0594L39.843 10.7209C39.6886 10.3849 39.3787 10.1477 39.014 10.0867L37.0643 9.76019L37.86 8.77006C38.2279 8.31224 38.1761 7.64359 37.7419 7.24779L35.8232 5.49926C35.5498 5.25004 35.1719 5.15297 34.8122 5.2392L33.0641 5.65873L33.4264 4.68139C33.64 4.10512 33.345 3.46244 32.7687 3.24867L30.3562 2.35424C30.0095 2.22572 29.6227 2.27709 29.3214 2.49183L27.7119 3.63969L27.5744 2.3768C27.5107 1.79291 26.9983 1.35678 26.4145 1.38402L23.8215 1.50424C23.452 1.52133 23.116 1.71986 22.9227 2.03529L21.9832 3.5681L21.5483 2.62074C21.2919 2.06215 20.6287 1.81625 20.0702 2.07279L18.3849 2.84642C18.1074 2.97377 17.8921 3.21264 17.7941 3.5016L16.9295 6.05219L15.781 5.12914C15.3231 4.76117 14.6544 4.81303 14.2587 5.24721L12.9941 6.63471C12.7886 6.86029 12.6836 7.1642 12.7063 7.46879L12.8961 10.009L11.6923 9.56273C11.1162 9.34906 10.4734 9.64408 10.2596 10.2204L9.61484 11.9594C9.50879 12.2455 9.52539 12.5666 9.66055 12.8403L10.8527 15.2552L9.38789 15.4147C8.80391 15.4782 8.36768 15.9876 8.39492 16.5745L8.44873 17.735H2.14053C0.960254 17.7351 0 18.6953 0 19.8756V25.972V34.6673C0 35.8476 0.960254 36.8078 2.14053 36.8078H3.40967L1.73428 46.4992C1.54346 47.6032 2.39316 48.6152 3.51592 48.6152H5.05801C5.84541 48.6152 6.53682 48.1118 6.77871 47.3624L8.46504 42.1377H41.535L43.2214 47.3625C43.4633 48.1119 44.1547 48.6153 44.9421 48.6153H46.4842C47.6045 48.6153 48.457 47.6056 48.2658 46.4993L47.5938 42.6113C47.5249 42.2127 47.1458 41.9453 46.7474 42.0144C46.3487 42.0833 46.0814 42.4622 46.1504 42.8609L46.8225 46.7488C46.8587 46.9586 46.6975 47.1504 46.4843 47.1504H44.9422C44.7927 47.1504 44.6614 47.0548 44.6155 46.9126L40.6835 34.7301H44.7449L45.566 39.4796C45.6348 39.8775 46.0131 40.1455 46.4125 40.0766C46.8111 40.0077 47.0783 39.6287 47.0094 39.2301L46.2314 34.7302H47.8598C49.04 34.7302 50.0003 33.77 50.0003 32.5897V19.8756C50 18.6953 49.0397 17.7351 47.8595 17.7351ZM11.5088 16.6575C12.2776 16.5737 12.7301 15.7494 12.3877 15.0558L11.0408 12.3273L11.5113 11.0581L12.8983 11.5724C13.6603 11.855 14.458 11.2533 14.3976 10.4441L14.1783 7.51029L15.1198 6.47719C16.1137 7.15922 16.5437 7.96205 17.4122 7.70902C17.7613 7.60726 18.0394 7.34105 18.1562 6.99672L19.1331 4.11488L20.3633 3.55023L20.9258 4.77553C21.2965 5.58344 22.4228 5.65434 22.8894 4.8931L24.0748 2.95892L26.154 2.86244L26.3206 4.39242C26.4128 5.239 27.3818 5.67455 28.0761 5.17943L30.0212 3.79223L31.9314 4.50053L31.4627 5.76478C31.3192 6.1515 31.4002 6.58353 31.674 6.89213C31.9479 7.20072 32.3672 7.33265 32.7681 7.23627L34.9739 6.70697L36.5123 8.10892L35.5482 9.30853C35.0147 9.9724 35.3922 10.9656 36.2331 11.1063L38.5894 11.5008L39.4393 13.3524L38.2138 13.9149C37.4043 14.2866 37.3371 15.4131 38.0963 15.8784L40.0305 17.0638L40.0616 17.7351H33.0205C33.0193 17.6957 33.0186 17.6562 33.0168 17.6172C32.8113 13.187 29.0613 9.7684 24.6281 9.9723C20.4182 10.1677 17.1096 13.5909 16.981 17.735H9.91504L9.87334 16.8354L11.5088 16.6575ZM24.8259 14.2362C22.901 14.3255 21.3783 15.8562 21.2521 17.7352H18.4455C18.5707 14.3642 21.2579 11.5954 24.696 11.4358C28.318 11.268 31.3854 14.0625 31.5535 17.6853C31.5543 17.7016 31.5537 17.7188 31.5544 17.7352H28.7475C28.6102 15.7046 26.8687 14.1403 24.8259 14.2362ZM27.2776 17.7351H22.7219C22.844 16.6344 23.7533 15.7523 24.8938 15.6994C26.1066 15.6431 27.1456 16.545 27.2776 17.7351ZM5.38467 46.9126C5.33877 47.0549 5.20752 47.1504 5.05801 47.1504H3.51592C3.30293 47.1504 3.14141 46.9588 3.17773 46.7488L4.89629 36.8079H8.64619L5.38467 46.9126ZM41.0621 40.6729H8.93789L10.1854 36.8078H17.6679C18.7738 36.8078 19.6736 35.908 19.6736 34.8021V34.7301H24.2676V35.0228C24.2676 37.033 25.9031 38.6686 27.9134 38.6686C29.9236 38.6686 31.5592 37.033 31.5592 35.0228V34.7301H39.1439L41.0621 40.6729ZM19.6736 33.2653V29.9307H22.9584C23.6804 29.9307 24.2677 30.518 24.2677 31.24V33.2653H19.6736ZM25.7324 35.0228V34.7301H30.0944V35.0228C30.0944 36.2253 29.116 37.2038 27.9135 37.2038C26.7108 37.2038 25.7324 36.2254 25.7324 35.0228ZM48.5352 32.5896C48.5352 32.9621 48.232 33.2653 47.8595 33.2653C47.1434 33.2653 26.2272 33.2653 25.7324 33.2653V31.24C25.7324 29.7103 24.488 28.4659 22.9583 28.4659H19.6735V27.2454C19.6735 26.1394 18.7737 25.2396 17.6678 25.2396H8.04424C7.63975 25.2396 7.31182 25.5675 7.31182 25.972C7.31182 26.3765 7.63975 26.7044 8.04424 26.7044H17.6678C17.966 26.7044 18.2087 26.9471 18.2087 27.2454V34.8021C18.2087 35.1003 17.966 35.343 17.6678 35.343C15.8341 35.343 3.74512 35.343 2.14043 35.343C1.76787 35.343 1.46475 35.0399 1.46475 34.6673V26.7044H4.62012C5.02461 26.7044 5.35254 26.3765 5.35254 25.972C5.35254 25.5675 5.02461 25.2396 4.62012 25.2396H1.46484V19.8756C1.46484 19.5031 1.76797 19.1999 2.14053 19.1999H47.8595C48.232 19.1999 48.5352 19.5031 48.5352 19.8756V32.5896Z" fill="black"/>
<path d="M3.51953 31.025C3.51953 32.5745 4.78018 33.8352 6.32969 33.8352C7.8792 33.8352 9.13984 32.5745 9.13984 31.025C9.13984 29.4755 7.8792 28.2148 6.32969 28.2148C4.78018 28.2148 3.51953 29.4755 3.51953 31.025ZM7.6751 31.025C7.6751 31.7668 7.07158 32.3703 6.32979 32.3703C5.58799 32.3703 4.98447 31.7668 4.98447 31.025C4.98447 30.2832 5.58799 29.6797 6.32979 29.6797C7.07158 29.6797 7.6751 30.2832 7.6751 31.025Z" fill="black"/>
<path d="M13.3434 33.8352C14.8929 33.8352 16.1535 32.5745 16.1535 31.025C16.1535 29.4755 14.8929 28.2148 13.3434 28.2148C11.7938 28.2148 10.5332 29.4755 10.5332 31.025C10.5332 32.5745 11.7938 33.8352 13.3434 33.8352ZM13.3434 29.6797C14.0852 29.6797 14.6887 30.2832 14.6887 31.025C14.6887 31.7668 14.0852 32.3703 13.3434 32.3703C12.6016 32.3703 11.998 31.7668 11.998 31.025C11.998 30.2832 12.6016 29.6797 13.3434 29.6797Z" fill="black"/>
</g>
<defs>
<clipPath id="clip0_2_2074">
<rect width="50" height="50" fill="white"/>
</clipPath>
</defs>
</svg>
