<svg width="50" height="50" viewBox="0 0 50 50" fill="none" xmlns="http://www.w3.org/2000/svg">
<path d="M41.6051 6.98047H36.7562V8.2357H41.6051C43.4515 8.23774 44.9479 9.73405 44.9499 11.5805V32.7462H5.12535V11.5805C5.12739 9.73405 6.6237 8.23774 8.47018 8.2357H13.0584V6.98047H8.47018C5.93071 6.98333 3.87298 9.04106 3.87012 11.5805V36.8813C3.87298 39.4203 5.93071 41.4785 8.47018 41.4813H24.4098V48.743H16.8318C16.4853 48.743 16.2042 49.0241 16.2042 49.3706C16.2042 49.7171 16.4853 49.9983 16.8318 49.9983H33.7182C34.0651 49.9983 34.3458 49.7171 34.3458 49.3706C34.3458 49.0241 34.0651 48.743 33.7182 48.743H25.665V41.4817H41.6051C44.1445 41.4789 46.2023 39.4207 46.2051 36.8813V11.5805C46.2023 9.04106 44.1445 6.98333 41.6051 6.98047ZM41.6051 40.2265H8.47018C6.6237 40.2245 5.12739 38.7277 5.12535 36.8813V34.0014H44.9499V36.8813C44.9479 38.7277 43.4515 40.2245 41.6051 40.2265Z" fill="black"/>
<path d="M18.0306 8.33183C20.1504 8.32938 21.8682 6.61161 21.8706 4.49178V1.25523H33.7422C35.169 1.25686 36.3254 2.41321 36.327 3.84006V32.7994H37.5822V3.84006C37.5798 1.72022 35.862 0.00245162 33.7422 0H21.243C21.2079 0.000408604 21.1727 0.00326883 21.1384 0.00939789C21.1347 0.0102151 21.131 0.0106236 21.1274 0.0110323C21.0943 0.01757 21.0616 0.0265592 21.0301 0.0380001L21.0179 0.0424948C20.9868 0.0543442 20.957 0.0686454 20.928 0.0853981C20.9239 0.0878498 20.9198 0.0903014 20.9161 0.092753C20.8875 0.110323 20.8605 0.129527 20.8356 0.151183C20.834 0.152409 20.8324 0.153226 20.8311 0.154452L12.7081 7.23106C12.7032 7.23514 12.6991 7.24005 12.6942 7.24413C12.6852 7.25271 12.6762 7.26088 12.6676 7.26987C12.6615 7.27682 12.655 7.28377 12.6493 7.29071C12.6411 7.30011 12.6333 7.30951 12.6256 7.31932C12.6202 7.32626 12.6153 7.33321 12.6096 7.34056C12.6019 7.35119 12.5949 7.36181 12.5888 7.37284C12.5843 7.37979 12.5802 7.38673 12.5761 7.39409C12.5688 7.40635 12.5626 7.41901 12.5561 7.43168C12.5532 7.43781 12.55 7.44394 12.5471 7.45048C12.541 7.46478 12.5353 7.47949 12.5299 7.4942C12.5283 7.49951 12.5259 7.50441 12.5242 7.51054C12.5189 7.52648 12.5148 7.54282 12.5107 7.55917C12.5095 7.56407 12.5083 7.56856 12.5071 7.57306C12.5034 7.59022 12.5009 7.60779 12.4985 7.62536C12.4985 7.62985 12.4973 7.63394 12.4968 7.63843C12.4944 7.6605 12.4932 7.68256 12.4932 7.70463V32.7994H13.7484V8.33183H18.0306ZM18.0306 7.0766H14.7961L20.6154 2.00665V4.49178C20.6138 5.91862 19.4574 7.07497 18.0306 7.0766Z" fill="black"/>
<path d="M15.8327 23.293C15.4862 23.293 15.2051 23.5737 15.2051 23.9206C15.2051 24.2671 15.4862 24.5482 15.8327 24.5482H25.0377C25.3846 24.5482 25.6653 24.2671 25.6653 23.9206C25.6653 23.5737 25.3846 23.293 25.0377 23.293H15.8327Z" fill="black"/>
<path d="M30.2412 23.293H27.443C27.0965 23.293 26.8154 23.5737 26.8154 23.9206C26.8154 24.2671 27.0965 24.5482 27.443 24.5482H30.2412C30.5881 24.5482 30.8688 24.2671 30.8688 23.9206C30.8688 23.5737 30.5881 23.293 30.2412 23.293Z" fill="black"/>
<path d="M34.4518 23.293H32.6735C32.327 23.293 32.0459 23.5737 32.0459 23.9206C32.0459 24.2671 32.327 24.5482 32.6735 24.5482H34.4518C34.7987 24.5482 35.0794 24.2671 35.0794 23.9206C35.0794 23.5737 34.7987 23.293 34.4518 23.293Z" fill="black"/>
<path d="M18.7616 27.8242H15.8327C15.4862 27.8242 15.2051 28.1053 15.2051 28.4518C15.2051 28.7983 15.4862 29.0794 15.8327 29.0794H18.7616C19.1085 29.0794 19.3892 28.7983 19.3892 28.4518C19.3892 28.1053 19.1085 27.8242 18.7616 27.8242Z" fill="black"/>
<path d="M30.8693 28.4518C30.8693 28.1053 30.5886 27.8242 30.2417 27.8242H21.1413C20.7948 27.8242 20.5137 28.1053 20.5137 28.4518C20.5137 28.7983 20.7948 29.0794 21.1413 29.0794H30.2417C30.5886 29.0794 30.8693 28.7983 30.8693 28.4518Z" fill="black"/>
<path d="M34.4515 27.8242H32.6733C32.3268 27.8242 32.0457 28.1053 32.0457 28.4518C32.0457 28.7983 32.3268 29.0794 32.6733 29.0794H34.4515C34.7984 29.0794 35.0791 28.7983 35.0791 28.4518C35.0791 28.1053 34.7984 27.8242 34.4515 27.8242Z" fill="black"/>
</svg>
