<svg width="50" height="50" viewBox="0 0 50 50" fill="none" xmlns="http://www.w3.org/2000/svg">
<g clip-path="url(#clip0_2_1791)">
<path d="M7.39746 23.3867H10.6852V25.0328H7.39746V23.3867Z" fill="black"/>
<path d="M12.3291 23.3867H13.973V25.0328H12.3291V23.3867Z" fill="black"/>
<path d="M15.6172 23.3867H30.4122V25.0328H15.6172V23.3867Z" fill="black"/>
<path d="M7.39746 28.3242H17.2608V29.9703H7.39746V28.3242Z" fill="black"/>
<path d="M18.9043 28.3242H22.1921V29.9703H18.9043V28.3242Z" fill="black"/>
<path d="M23.8359 28.3242H30.4115V29.9703H23.8359V28.3242Z" fill="black"/>
<path d="M7.39746 33.2656H13.973V34.9117H7.39746V33.2656Z" fill="black"/>
<path d="M15.6172 33.2656H22.1927V34.9117H15.6172V33.2656Z" fill="black"/>
<path d="M23.8359 33.2656H28.7676V34.9117H23.8359V33.2656Z" fill="black"/>
<path d="M28.1102 41.1489C27.5504 41.14 27.0013 41.3012 26.5354 41.6114C26.3247 41.7674 26.0678 41.8481 25.8061 41.8405C25.5449 41.8494 25.2884 41.769 25.0789 41.6122C24.1209 40.9946 22.8908 40.9946 21.9332 41.6122C21.4961 41.9161 20.9162 41.9161 20.4792 41.6122C20.0136 41.3008 19.4642 41.1388 18.9043 41.1489V42.795C19.1652 42.7861 19.4216 42.8665 19.6307 43.0232C20.5887 43.6409 21.8188 43.6409 22.7764 43.0232C23.2135 42.719 23.793 42.719 24.2297 43.0232C25.1885 43.6405 26.419 43.6405 27.3778 43.0232C27.8164 42.7178 28.3988 42.7178 28.8374 43.0232C29.303 43.3339 29.852 43.4954 30.4115 43.4866V41.8405C30.1494 41.8481 29.8926 41.7678 29.6815 41.6114C29.2167 41.3016 28.6685 41.14 28.1102 41.1489Z" fill="black"/>
<path d="M18.9043 21.7406C22.99 21.7406 26.3018 18.4243 26.3018 14.3332C26.3018 10.2425 22.99 6.92578 18.9043 6.92578C14.8187 6.92578 11.5068 10.2425 11.5068 14.3332C11.5113 18.4223 14.8207 21.7362 18.9043 21.7406ZM18.9043 8.57187C22.0821 8.57187 24.6579 11.1515 24.6579 14.3332C24.6579 17.5153 22.0821 20.0945 18.9043 20.0945C15.7265 20.0945 13.1507 17.5153 13.1507 14.3332C13.1543 11.1531 15.7281 8.57549 18.9043 8.57187Z" fill="black"/>
<path d="M49.5879 14.2198L48.1651 13.3967L48.5761 12.6838C49.2568 11.5019 48.8522 9.99122 47.6719 9.30924C46.4916 8.62765 44.9829 9.03275 44.3018 10.2147L37.8094 21.4789V11.0433C37.8094 11.0261 37.8001 11.0108 37.7993 10.9931C37.7949 10.9204 37.7805 10.8484 37.7568 10.7793C37.7476 10.7528 37.7411 10.7283 37.7295 10.7029C37.6898 10.6133 37.634 10.5317 37.5654 10.4614L27.702 0.584877C27.6326 0.515754 27.5511 0.460294 27.462 0.420509C27.4356 0.40805 27.4103 0.40162 27.3798 0.391573C27.3123 0.369068 27.2421 0.355003 27.1711 0.350582C27.1594 0.352993 27.143 0.34375 27.1241 0.34375H4.10971C1.84094 0.346563 0.00280938 2.18756 0 4.45898V45.6112C0.00280938 47.8831 1.84094 49.7241 4.10971 49.7265H33.6997C35.9684 49.7241 37.8066 47.8831 37.8094 45.6112V31.357L47.344 14.8222L48.0556 15.2337L45.1788 20.223L46.6027 21.0461L49.8905 15.3438C50.1168 14.95 49.9816 14.4464 49.5879 14.2198ZM33.2754 35.9268L32.3279 36.5577L31.7837 36.2435L31.8519 35.1078L42.851 16.027L44.275 16.8501L33.2754 35.9268ZM46.8507 10.7367C47.2437 10.9638 47.3785 11.4673 47.1518 11.8608L45.0969 15.4246L43.6729 14.6016L45.7278 11.0377C45.955 10.6443 46.4574 10.5092 46.8507 10.7367ZM35.0032 10.2203H28.768C28.3141 10.2203 27.9461 9.85217 27.9461 9.39725V3.15368L35.0032 10.2203ZM36.1655 45.6112C36.1655 46.9752 35.0614 48.0804 33.6997 48.0804H4.10971C2.74797 48.0804 1.64389 46.9752 1.64389 45.6112V4.45898C1.64389 3.09541 2.74797 1.98984 4.10971 1.98984H26.3022V9.39725C26.3022 10.7612 27.4063 11.8664 28.768 11.8664H36.1655V24.2121H36.2329L30.3296 34.4491C30.2658 34.56 30.2289 34.6838 30.2221 34.8116L30.1117 36.6486C30.0936 36.96 30.2526 37.255 30.5227 37.4105L28.8788 40.2614L30.3027 41.0845L31.9466 38.2336C32.0714 38.3059 32.2131 38.3441 32.3576 38.3441C32.5185 38.3433 32.6758 38.2943 32.8095 38.2038L34.3434 37.1899C34.4502 37.12 34.5389 37.0255 34.6031 36.915L36.1655 34.208V45.6112Z" fill="black"/>
</g>
<defs>
<clipPath id="clip0_2_1791">
<rect width="50" height="50" fill="white"/>
</clipPath>
</defs>
</svg>
