<svg width="50" height="50" viewBox="0 0 50 50" fill="none" xmlns="http://www.w3.org/2000/svg">
<path d="M38.8964 35.97C38.8948 35.97 38.8935 35.97 38.892 35.97H0.647668C0.289896 35.97 0 35.6801 0 35.3223V24.334C0 24.3169 0.000259067 24.2995 0.0015544 24.2824C0.0101036 24.1562 0.0551813 24.0397 0.125648 23.9435C0.152591 23.9065 0.184197 23.8723 0.219171 23.8412C0.219689 23.8407 0.219689 23.8407 0.220207 23.8402C0.229793 23.8319 0.239378 23.8238 0.249223 23.8161L12.4005 14.1681C12.515 14.0772 12.657 14.0277 12.8034 14.0277H49.3492C49.3803 14.0262 49.407 14.0295 49.4355 14.0332C49.4368 14.0332 49.4378 14.0337 49.4386 14.0337H49.4389C49.5179 14.0443 49.5933 14.0694 49.6617 14.1065C49.6619 14.1067 49.6622 14.1067 49.6624 14.107C49.7181 14.1376 49.7689 14.1757 49.8124 14.2197C49.8609 14.2687 49.9018 14.3257 49.9332 14.3891C49.9573 14.4381 49.9754 14.4904 49.9865 14.5446C49.9865 14.5448 49.9865 14.5451 49.9865 14.5451C49.9865 14.5453 49.9865 14.5456 49.9865 14.5459C49.9959 14.5907 50 14.6363 49.9997 14.6811V17.6479C49.9997 17.6492 49.9997 17.6505 49.9997 17.6516V20.3878C49.9997 20.3891 49.9997 20.3904 49.9997 20.3915V23.1549C49.9997 23.1562 49.9997 23.1575 49.9997 23.1586V25.6915C49.9997 25.8723 49.9241 26.0451 49.7909 26.1679L39.3352 35.799C39.3347 35.7995 39.3339 35.8 39.3334 35.8008C39.3326 35.8016 39.3319 35.8013 39.3313 35.8029C39.3313 35.8029 39.3311 35.8029 39.3311 35.8031C39.2223 35.9016 39.0801 35.9635 38.9233 35.97C38.9142 35.9697 38.9054 35.97 38.8964 35.97ZM26.6218 34.6746H38.2487V33.2865H26.6218V34.6746ZM13.9479 34.6746H25.3264V24.9749H13.9479V34.6746ZM1.29534 34.6746H12.6526V33.2865H1.29534V34.6746ZM39.5443 33.0917V33.8451L48.7047 25.4073V24.636L39.5443 33.0917ZM26.6218 31.9912H38.2487V30.401H26.6218V31.9912ZM1.29534 31.9912H12.6526V30.401H1.29534V31.9912ZM39.5443 30.3246V31.3288L48.7047 22.8731V21.8689L39.5443 30.3246ZM26.6218 29.1057H38.2487V27.6293H26.6218V29.1057ZM1.29534 29.1057H12.6526V27.6293H1.29534V29.1057ZM39.5443 27.585V28.5619L48.7047 20.1062V19.1293L39.5443 27.585ZM26.6218 26.334H38.2487V24.9749H26.6218V26.334ZM1.29534 26.334H12.6526V24.9749H1.29534V26.334ZM39.5443 24.6106V25.822L48.7047 17.3663V16.1547L39.5443 24.6106ZM27.6272 23.6795H38.6433L47.6959 15.3233H36.6531L35.3842 16.4982C35.8101 16.7399 36.2345 17.108 36.3899 17.6523C36.5977 18.3793 36.2728 19.1586 35.4249 19.9694C33.3529 21.9503 30.1756 22.1759 29.2275 22.1979L27.6272 23.6795ZM15.0951 23.6795H25.7205L28.528 21.0803C28.5306 21.0777 28.5332 21.0754 28.5358 21.0731L34.7461 15.3236H25.164L22.6306 17.4259C22.6238 17.4316 22.6171 17.4373 22.6101 17.4428L15.0951 23.6795ZM2.50492 23.6795H13.0666L15.3837 21.7565C15.0008 21.5262 14.6425 21.1863 14.5262 20.6943C14.2528 19.5373 15.5171 18.5713 15.9326 18.2536C18.4694 16.3153 21.1238 16.2399 21.9917 16.2726L23.1358 15.3233H13.0293L2.50492 23.6795ZM20.2591 17.7106C19.2505 17.9018 17.9619 18.3332 16.7192 19.2829C15.9184 19.8951 15.7591 20.2793 15.7868 20.3966C15.8212 20.5428 16.151 20.7298 16.486 20.8417L20.2591 17.7106ZM34.357 17.449L30.8137 20.7295C31.9777 20.5184 33.4622 20.0539 34.5298 19.0332C34.9756 18.6067 35.2054 18.2241 35.1448 18.0088C35.0824 17.7886 34.7104 17.5757 34.357 17.449Z" fill="black"/>
</svg>
