<svg width="50" height="50" viewBox="0 0 50 50" fill="none" xmlns="http://www.w3.org/2000/svg">
<path d="M48.0321 28.8071C47.8641 28.7474 47.7315 28.7862 47.6356 28.8697C47.4081 23.0301 45.9249 16.7629 42.6943 12.048C42.6908 11.6921 42.4748 11.3269 42.0782 11.1966C39.3773 7.65916 35.5876 5.14775 30.4598 4.6246C18.7827 3.433 4.80359 16.893 7.50664 28.7669C5.22699 28.9716 1.71887 30.6311 0.506131 32.6491C-1.18287 35.4595 1.73053 38.1379 3.744 39.7475C6.64601 42.0673 10.4781 44.8988 14.2637 45.3732C18.8913 45.9532 22.1298 43.1624 24.9662 39.8028C25.1017 39.6423 25.1486 39.4683 25.1543 39.2978C32.4432 39.5288 39.4855 39.2219 45.9924 35.6458C48.3495 34.3506 52.4657 30.3714 48.0321 28.8071ZM40.9625 12.6947C44.1765 17.4823 45.5055 24.1589 45.8853 29.4571C43.9765 33.9521 35.542 34.8545 31.2985 35.62C26.2041 36.5389 21.7072 36.2429 17.4769 34.803C17.4769 34.8017 17.4777 34.8011 17.4777 34.7998C18.9141 22.314 27.8538 11.8823 40.9625 12.6947ZM39.6627 10.9881C27.4234 10.8247 16.1514 22.1289 16.6735 34.5179C15.8847 34.2197 15.1059 33.8708 14.3323 33.493C14.8495 20.9825 25.8233 11.2472 37.9279 9.8415C38.0957 9.82226 38.225 9.75042 38.3359 9.66206C38.8013 10.0757 39.2491 10.5118 39.6627 10.9881ZM30.4593 6.50334C32.9135 6.59496 34.9961 7.30271 36.7632 8.44525C25.1906 10.137 12.3869 20.5979 13.5714 33.0934C11.8784 32.2035 10.2102 31.1439 8.55105 29.8686C8.66273 29.7848 8.7389 29.6579 8.7248 29.4777C7.78882 17.6864 18.3969 6.0531 30.4593 6.50334ZM40.8134 36.2228C35.8155 38.0249 30.2831 37.7752 25.0638 38.2897C24.893 38.3065 24.7699 38.3876 24.6889 38.4944C24.4249 38.3564 24.0988 38.3691 23.8312 38.6695C21.7072 41.05 19.5229 43.4966 16.1734 43.9298C13.0152 44.3382 9.72476 42.0025 7.24994 40.3306C5.65907 39.2558 -0.471327 35.7992 2.17318 33.0479C3.6006 31.563 5.85206 30.3538 7.63079 29.2958C7.6438 29.3443 7.65166 29.3931 7.66521 29.4416C7.31256 29.5178 7.06779 29.9323 7.39469 30.2906C14.0455 37.5741 23.2067 38.686 32.5156 37.0593C34.7928 36.6614 45.9929 34.7258 47.2376 30.8747C47.4835 30.7501 47.6711 30.515 47.6681 30.1437C47.667 29.9968 47.6616 29.848 47.6589 29.7005C49.9014 32.8649 42.7949 35.5083 40.8134 36.2228Z" fill="black"/>
</svg>
