<svg width="49" height="66" viewBox="0 0 49 66" fill="none" xmlns="http://www.w3.org/2000/svg">
<path d="M34.9996 39.9999L35.7804 40.6246L34.9996 39.9999ZM0.0934804 60.5769C-0.140161 61.0773 0.0761138 61.6724 0.576547 61.906L8.73154 65.7134C9.23197 65.947 9.82705 65.7308 10.0607 65.2303C10.2943 64.7299 10.0781 64.1348 9.57762 63.9012L2.32874 60.5168L5.71308 53.268C5.94671 52.7675 5.73044 52.1724 5.23001 51.9388C4.72958 51.7052 4.1345 51.9214 3.90085 52.4219L0.0934804 60.5769ZM47.9996 0.999906C47.0058 0.888349 47.0058 0.888294 47.0058 0.888339C47.0058 0.888489 47.0058 0.888634 47.0058 0.888932C47.0057 0.889528 47.0056 0.890525 47.0054 0.89192C47.0051 0.894709 47.0046 0.899093 47.0039 0.905051C47.0026 0.916967 47.0005 0.935179 46.9976 0.959534C46.9919 1.00824 46.9831 1.08152 46.9713 1.17814C46.9475 1.37137 46.9112 1.65793 46.8613 2.02795C46.7616 2.76806 46.6077 3.84174 46.3917 5.17028C45.9595 7.82833 45.2796 11.5016 44.289 15.5618C42.2975 23.7254 39.0874 33.2896 34.2187 39.3752L35.7804 40.6246C40.941 34.1741 44.231 24.2383 46.2321 16.0359C47.2379 11.9131 47.9275 8.18692 48.3657 5.49124C48.585 4.14292 48.7415 3.05117 48.8434 2.29507C48.8943 1.91699 48.9316 1.62274 48.9563 1.4222C48.9686 1.32192 48.9778 1.24507 48.9839 1.19287C48.987 1.16677 48.9893 1.14684 48.9909 1.13322C48.9917 1.12641 48.9922 1.12118 48.9927 1.11754C48.9929 1.11573 48.993 1.11431 48.9931 1.1133C48.9932 1.11279 48.9932 1.11233 48.9933 1.11208C48.9933 1.11172 48.9933 1.11146 47.9996 0.999906ZM34.2187 39.3752C29.4856 45.2914 21.1516 50.4619 13.888 54.1796C10.2752 56.0287 6.96319 57.5006 4.55454 58.5101C3.35066 59.0146 2.37356 59.4032 1.69877 59.6652C1.36141 59.7961 1.09969 59.8954 0.923057 59.9617C0.834743 59.9948 0.767715 60.0197 0.723145 60.0361C0.700856 60.0444 0.684191 60.0505 0.673284 60.0545C0.66783 60.0565 0.663821 60.0579 0.661266 60.0589C0.65999 60.0593 0.659079 60.0597 0.658537 60.0599C0.658266 60.06 0.658132 60.06 0.657996 60.0601C0.657955 60.0601 0.658006 60.0601 0.999589 60.9999C1.34117 61.9398 1.34141 61.9397 1.34174 61.9396C1.34197 61.9395 1.34239 61.9393 1.34286 61.9391C1.34379 61.9388 1.34509 61.9383 1.34675 61.9377C1.35009 61.9365 1.35488 61.9348 1.36112 61.9325C1.3736 61.9279 1.39187 61.9212 1.41576 61.9124C1.46355 61.8947 1.53389 61.8686 1.62557 61.8342C1.80894 61.7654 2.07775 61.6635 2.42253 61.5296C3.11203 61.262 4.10568 60.8668 5.32762 60.3546C7.77063 59.3307 11.1306 57.8376 14.7992 55.96C22.0982 52.2242 30.7642 46.8947 35.7804 40.6246L34.2187 39.3752Z" fill="#DB3544"/>
</svg>
