<svg width="280" height="160" viewBox="0 0 280 160" fill="none" xmlns="http://www.w3.org/2000/svg">
<rect x="0.5" y="0.5" width="279" height="159" rx="14.5" stroke="black" stroke-opacity="0.2"/>
<path d="M65 82.53C65 87.25 67.65 92 73.57 92C79.49 92 82.14 87.25 82.14 82.53C82.14 79.31 81.05 75.6 79.24 72.61C77.48 69.72 75.36 68 73.57 68C71.78 68 69.66 69.72 67.91 72.61C66.09 75.61 65 79.31 65 82.53ZM125.86 75.07H119.86V69.29H138.29V75.08H132.29V90.72H125.86V75.07ZM152 75.07H161.43V69.29H152C143.34 69.29 138.71 73.6 138.71 80C138.71 86.41 143.34 90.71 152 90.71H161.43V84.92H152C147.99 84.92 145.35 83.49 145.35 79.99C145.35 76.5 147.99 75.07 152 75.07ZM103.35 82.08L106.78 69.29H118.14V90.72H111.71V73.27L107.04 90.71H99.67L95 73.28V90.71H88.57V69.29H99.93L103.35 82.08ZM177.44 75.5H175.17V77.6H177.44C178.01 77.6 178.36 77.3 178.36 76.76V76.37C178.35 75.81 178.06 75.5 177.44 75.5ZM178.01 80H172.14V69.29H180.77V71.85H175.16V73.25H178C180.38 73.25 181.53 74.43 181.53 76.51C181.54 78.7 180.39 80 178.01 80ZM188.52 75.62H186.13L187.33 71.66L188.52 75.62ZM193.12 80L189.81 69.29H185.31L182 80H184.83L185.44 77.95H189.23L189.85 80H193.12ZM200.77 80V75.85H197.31V80H194.21V69.29H197.31V73.22H200.77V69.29H203.88V80H200.77ZM209.39 73.21H208.85V69.29H205.75V80H208.85V75.85H209.3L212.17 80H215.76L211.88 74.39L215.45 69.28H212.17L209.39 73.21Z" fill="#E30600"/>
</svg>
