<svg width="80" height="80" viewBox="0 0 80 80" fill="none" xmlns="http://www.w3.org/2000/svg">
<g clip-path="url(#clip0_64_570)">
<path d="M60 37.3333C57.7947 37.3333 56 39.1279 56 41.3333C56 42.0692 56.5973 42.6665 57.3333 42.6665C58.0692 42.6665 58.6666 42.0692 58.6666 41.3333C58.6666 40.5986 59.2652 40 59.9998 40C60.7345 40 61.3331 40.5986 61.3331 41.3333C61.3331 42.0692 61.9305 42.6665 62.6664 42.6665C63.4023 42.6665 63.9997 42.0692 63.9997 41.3333C64 39.1279 62.2053 37.3333 60 37.3333Z" fill="black"/>
<path d="M18.667 44V49.3333C18.667 50.0693 19.2643 50.6666 20.0003 50.6666C20.7362 50.6666 21.3336 50.0693 21.3336 49.3333V44C21.3336 43.2641 20.7362 42.6667 20.0003 42.6667C19.2643 42.6667 18.667 43.2641 18.667 44Z" fill="black"/>
<path d="M25.1442 50.6533C25.2095 50.6627 25.2722 50.6666 25.3348 50.6666C25.9881 50.6666 26.5575 50.1866 26.6536 49.5225L27.9869 40.1892C28.0255 39.9198 27.9801 39.6466 27.8601 39.4039C27.6855 39.0559 25.9842 36 20.0001 36C14.0161 36 12.3148 39.0559 12.1401 39.4041C12.0201 39.6467 11.9748 39.92 12.0134 40.1894L13.3467 49.5227C13.4508 50.2506 14.1308 50.7573 14.8561 50.6533C15.5841 50.5492 16.0908 49.8733 15.9867 49.1439L14.7294 40.3412C15.2241 39.7959 16.6534 38.6666 20 38.6666C23.3653 38.6666 24.792 39.808 25.272 40.3359L24.0134 49.1439C23.9095 49.8733 24.4161 50.5494 25.1442 50.6533Z" fill="black"/>
<path d="M12.0003 74.6667H5.33355V35.3333C5.33355 34.5973 4.73621 34 4.00027 34C3.26434 34 2.66699 34.5973 2.66699 35.3333V76C2.66699 76.7359 3.26434 77.3333 4.00027 77.3333H10.667V78.6666C10.667 79.4025 11.2643 79.9998 12.0003 79.9998C12.7362 79.9998 13.3336 79.4025 13.3336 78.6666V76C13.3336 75.2641 12.7362 74.6667 12.0003 74.6667Z" fill="black"/>
<path d="M62.6667 74.6667H17.3333C16.5973 74.6667 16 75.2641 16 76C16 76.736 16.5973 77.3333 17.3333 77.3333H62.6666C63.4025 77.3333 63.9998 76.736 63.9998 76C63.9998 75.2641 63.4027 74.6667 62.6667 74.6667Z" fill="black"/>
<path d="M76 53.3333H9.33328C8.59734 53.3333 8 53.9306 8 54.6665C8 55.4025 8.59734 55.9998 9.33328 55.9998H74.6666V74.6665H68C67.2641 74.6665 66.6667 75.2639 66.6667 75.9998V78.6665C66.6667 79.4025 67.2641 79.9998 68 79.9998C68.7359 79.9998 69.3333 79.4025 69.3333 78.6665V77.3333H76C76.7359 77.3333 77.3333 76.7359 77.3333 76V54.6667C77.3333 53.9306 76.7359 53.3333 76 53.3333Z" fill="black"/>
<path d="M50.667 49.3333C50.667 50.0692 51.2643 50.6665 52.0003 50.6665C52.7362 50.6665 53.3336 50.0692 53.3336 49.3333C53.3336 48.5986 53.9321 48 54.6668 48C55.4015 48 56.0001 48.5986 56.0001 49.3333C56.0001 50.0692 56.5975 50.6665 57.3334 50.6665C58.0693 50.6665 58.6667 50.0692 58.6667 49.3333C58.6667 47.1279 56.872 45.3333 54.6667 45.3333C52.4614 45.3333 50.667 47.1279 50.667 49.3333Z" fill="black"/>
<path d="M76.0003 34C75.2643 34 74.667 34.5973 74.667 35.3333V49.3333C74.667 50.0692 75.2643 50.6666 76.0003 50.6666C76.7362 50.6666 77.3336 50.0692 77.3336 49.3333V35.3333C77.3336 34.5973 76.7362 34 76.0003 34Z" fill="black"/>
<path d="M73.3333 0H6.66672C2.99063 0 0 2.99062 0 6.66672V30.532C0 30.9334 0.18 31.312 0.489375 31.5653C0.8 31.8173 1.20672 31.92 1.59875 31.8386C3.72813 31.4066 5.52281 30.1359 6.66547 28.4145C8.09875 30.5745 10.5534 31.9998 13.3334 31.9998C16.1122 31.9998 18.5655 30.5758 20.0002 28.4172C21.4348 30.5758 23.8881 31.9998 26.6669 31.9998C29.4456 31.9998 31.8989 30.5758 33.3336 28.4172C34.768 30.5759 37.2214 32 40 32C42.7788 32 45.232 30.5759 46.6667 28.4173C48.1014 30.5759 50.5547 32 53.3334 32C56.112 32 58.5655 30.5759 60.0002 28.4173C61.4349 30.5759 63.8881 32 66.6669 32C69.4469 32 71.9016 30.5747 73.3348 28.4147C74.4775 30.1361 76.2722 31.4067 78.4016 31.8388C78.7949 31.9228 79.2003 31.8188 79.5109 31.5655C79.8203 31.3122 80.0003 30.9334 80.0003 30.5322V6.66672C80 2.99062 77.0094 0 73.3333 0ZM77.3333 28.6186C75.7239 27.6853 74.6666 25.94 74.6666 24V6.66672C74.6666 5.93078 74.0692 5.33344 73.3333 5.33344C72.5974 5.33344 72 5.93078 72 6.66672V24C72 26.9414 69.608 29.3333 66.6667 29.3333C63.7255 29.3333 61.3334 26.9413 61.3334 24V6.66672C61.3334 5.93078 60.7361 5.33344 60.0002 5.33344C59.2642 5.33344 58.6669 5.93078 58.6669 6.66672V24C58.6669 26.9414 56.2748 29.3333 53.3336 29.3333C50.3922 29.3333 48.0003 26.9413 48.0003 24V6.66672C48.0003 5.93078 47.403 5.33344 46.667 5.33344C45.9311 5.33344 45.3338 5.93078 45.3338 6.66672V24C45.3338 26.9414 42.9417 29.3333 40.0005 29.3333C37.0591 29.3333 34.6672 26.9413 34.6672 24V6.66672C34.6672 5.93078 34.0698 5.33344 33.3339 5.33344C32.598 5.33344 32.0006 5.93078 32.0006 6.66672V24C32.0006 26.9414 29.6086 29.3333 26.6673 29.3333C23.7261 29.3333 21.3341 26.9413 21.3341 24V6.66672C21.3341 5.93078 20.7367 5.33344 20.0008 5.33344C19.2648 5.33344 18.6675 5.93078 18.6675 6.66672V24C18.6675 26.9414 16.2755 29.3333 13.3342 29.3333C10.3928 29.3333 8.00094 26.9413 8.00094 24V6.66672C8.00094 5.93078 7.40359 5.33344 6.66766 5.33344C5.93172 5.33344 5.33438 5.93078 5.33438 6.66672V24C5.33438 25.94 4.27703 27.6853 2.66766 28.6186V6.66672C2.66766 4.46141 4.46234 2.66672 6.66766 2.66672H73.3344C75.5397 2.66672 77.3344 4.46141 77.3344 6.66672V28.6186H77.3333Z" fill="black"/>
<path d="M40 49.3333C40 50.0692 40.5973 50.6665 41.3333 50.6665C42.0692 50.6665 42.6666 50.0692 42.6666 49.3333C42.6666 48.5986 43.2652 48 43.9998 48C44.7345 48 45.3331 48.5986 45.3331 49.3333C45.3331 50.0692 45.9305 50.6665 46.6664 50.6665C47.4023 50.6665 47.9997 50.0692 47.9997 49.3333C47.9997 47.1279 46.205 45.3333 43.9997 45.3333C41.7944 45.3333 40 47.1279 40 49.3333Z" fill="black"/>
<path d="M49.333 37.3333C47.1277 37.3333 45.333 39.1279 45.333 41.3333C45.333 42.0692 45.9303 42.6665 46.6663 42.6665C47.4022 42.6665 47.9996 42.0692 47.9996 41.3333C47.9996 40.5986 48.5982 40 49.3329 40C50.0675 40 50.6661 40.5986 50.6661 41.3333C50.6661 42.0692 51.2635 42.6665 51.9994 42.6665C52.7354 42.6665 53.3327 42.0692 53.3327 41.3333C53.333 39.1279 51.5383 37.3333 49.333 37.3333Z" fill="black"/>
<path d="M61.333 49.3333C61.333 50.0692 61.9304 50.6665 62.6663 50.6665C63.4022 50.6665 63.9996 50.0692 63.9996 49.3333C63.9996 48.5986 64.5982 48 65.3329 48C66.0675 48 66.6661 48.5986 66.6661 49.3333C66.6661 50.0692 67.2635 50.6665 67.9994 50.6665C68.7354 50.6665 69.3327 50.0692 69.3327 49.3333C69.3327 47.1279 67.538 45.3333 65.3327 45.3333C63.1274 45.3333 61.333 47.1279 61.333 49.3333Z" fill="black"/>
</g>
<defs>
<clipPath id="clip0_64_570">
<rect width="80" height="80" fill="white"/>
</clipPath>
</defs>
</svg>
