<svg width="80" height="80" viewBox="0 0 80 80" fill="none" xmlns="http://www.w3.org/2000/svg">
<g clip-path="url(#clip0_64_655)">
<path d="M65.2532 26.0838C65.4365 27.1182 64.7463 28.1054 63.7118 28.2886C63.5997 28.3083 63.4879 28.3181 63.3778 28.3181C62.4727 28.3181 61.6703 27.6695 61.5071 26.7472C60.8198 22.8662 58.7436 19.354 55.6612 16.8581C54.8447 16.197 54.7187 14.9992 55.3798 14.1827C56.0405 13.3665 57.2387 13.2399 58.0552 13.9013C61.85 16.9739 64.4064 21.3004 65.2532 26.0838ZM8.85161 5.38687C11.8897 3.79119 14.1102 4.86694 17.4817 6.75483C19.7357 8.01717 22.3937 9.50597 25.5784 9.50579C26.74 9.50579 27.9721 9.30778 29.2799 8.82824C30.2661 8.46664 30.7727 7.37405 30.4111 6.38762C30.0496 5.40118 28.957 4.89502 27.9703 5.25625C24.7204 6.44794 22.2269 5.0519 19.3406 3.43539C15.9476 1.53553 12.1024 -0.618489 7.08219 2.01906C6.15229 2.50765 5.79449 3.65767 6.28308 4.58776C6.77168 5.51785 7.92188 5.87547 8.85161 5.38687ZM54.1774 6.45899C63.7198 10.104 70.1312 19.4165 70.1312 29.6324C70.1312 30.683 70.9828 31.5346 72.0334 31.5346C73.0839 31.5346 73.9356 30.683 73.9356 29.6324C73.9356 23.7245 72.149 18.0534 68.7686 13.2323C65.4657 8.52153 60.8897 4.95045 55.5352 2.90531C54.5533 2.5303 53.4542 3.02198 53.0794 4.00351C52.7044 4.98469 53.1961 6.08417 54.1774 6.45899ZM8.85161 13.0604C11.8897 11.4645 14.1102 12.5404 17.4817 14.4283C19.7357 15.6909 22.3935 17.1795 25.5784 17.1793C26.74 17.1793 27.9721 16.9813 29.2799 16.5017C30.2661 16.1401 30.7727 15.0474 30.4111 14.0611C30.0496 13.0747 28.957 12.5683 27.9703 12.9298C24.7195 14.1216 22.2267 12.7254 19.3404 11.1089C15.9474 9.20868 12.1022 7.05484 7.08201 9.6922C6.1521 10.1808 5.79431 11.3308 6.2829 12.2609C6.77168 13.1914 7.92188 13.549 8.85161 13.0604ZM8.85161 20.9665C11.8901 19.3701 14.1106 20.4466 17.4817 22.3345C19.7357 23.5968 22.3937 25.0856 25.5784 25.0854C26.74 25.0854 27.9721 24.8874 29.2799 24.4079C30.2661 24.0463 30.7727 22.9537 30.4111 21.9672C30.0496 20.9808 28.957 20.4745 27.9703 20.8359C24.7204 22.0278 22.2269 20.6315 19.3406 19.015C15.9476 17.1148 12.1017 14.9613 7.08201 17.5983C6.1521 18.0869 5.79431 19.2369 6.2829 20.167C6.77168 21.0975 7.92188 21.4551 8.85161 20.9665ZM80 78.0978C80 79.1484 79.1484 80 78.0978 80H1.90221C0.851646 80 0 79.1484 0 78.0978C0 77.0472 0.851646 76.1956 1.90221 76.1956H32.0451V70.0748C32.0451 69.0243 32.8968 68.1726 33.9474 68.1726H41.5694V34.787L40.7583 35.2553L36.9969 42.9558C36.7695 43.4214 36.3621 43.774 35.8688 43.9323L19.1224 49.3045C18.2701 49.5781 17.3416 49.2197 16.894 48.4442L15.5019 46.0327C15.0543 45.2572 15.2081 44.2744 15.8713 43.6729L28.8965 31.8566C29.2802 31.5085 29.7899 31.3315 30.3062 31.3678L38.8556 31.9605L41.5689 30.394V27.2612L36.7807 20.1534C36.4912 19.7237 36.3896 19.1947 36.499 18.6884L40.2196 1.49985C40.4098 0.624649 41.1839 0 42.0794 0H44.8635C45.759 0 46.5333 0.624468 46.7228 1.49985L50.4435 18.6882C50.5529 19.1945 50.4513 19.7237 50.1618 20.1534L45.3736 27.2612V30.3942L48.0867 31.9605L56.6365 31.3678C57.1528 31.3315 57.6625 31.5084 58.0462 31.8566L71.0716 43.6731C71.7348 44.2747 71.8886 45.2575 71.441 46.0329L70.0489 48.4442C69.6013 49.2197 68.6735 49.5781 67.8204 49.3045L51.0741 43.9325C50.5806 43.7742 50.1732 43.4216 49.9458 42.956L46.1845 35.2557L45.3731 34.7872V68.1726H52.9953C54.0459 68.1726 54.8975 69.0243 54.8975 70.0748V76.1956H78.0971C79.1484 76.1956 80 77.0472 80 78.0978ZM50.5877 35.6008L53.0087 40.5576L66.8804 45.0075L56.0907 35.2193L50.5877 35.6008ZM36.3557 35.6008L30.8526 35.2193L20.0627 45.0075L33.9345 40.5574L36.3557 35.6008ZM43.4716 23.2756L46.5537 18.7007L43.4716 4.46258L40.3895 18.7007L43.4716 23.2756ZM51.0939 71.977H35.8496V76.1956H51.0939V71.977Z" fill="black"/>
</g>
<defs>
<clipPath id="clip0_64_655">
<rect width="80" height="80" fill="white"/>
</clipPath>
</defs>
</svg>
