<svg width="80" height="80" viewBox="0 0 80 80" fill="none" xmlns="http://www.w3.org/2000/svg">
<g clip-path="url(#clip0_64_555)">
<path d="M78.0916 62.4203H73.4133V36.0242C75.7808 35.4625 77.548 33.3321 77.548 30.7952C77.548 27.8314 75.1367 25.4202 72.173 25.4202H61.9275V22.983L73.3616 18.6603C73.8441 18.478 74.1633 18.016 74.1633 17.5C74.1633 16.9842 73.8439 16.5221 73.3616 16.3397L61.7297 11.9422C61.5091 11.5996 61.125 11.3719 60.6869 11.3719C60.0019 11.3719 59.4464 11.9272 59.4464 12.6124V25.42H37.3691V22.9828L48.8031 18.6602C49.2856 18.4778 49.6048 18.0158 49.6048 17.4999C49.6048 16.9841 49.2855 16.5219 48.8031 16.3396L37.1714 11.9421C36.9508 11.5994 36.5667 11.3717 36.1286 11.3717C35.4434 11.3717 34.8881 11.9271 34.8881 12.6122V25.4199H12.8109V22.9827L24.245 18.66C24.7275 18.4777 25.0467 18.0156 25.0467 17.4997C25.0467 16.9839 24.7273 16.5217 24.245 16.3394L12.6134 11.9419C12.3928 11.5992 12.0087 11.3716 11.5706 11.3716C10.8855 11.3716 10.3302 11.9269 10.3302 12.6121V25.4197H7.82703C4.86312 25.4197 2.45203 27.8311 2.45203 30.7947C2.45203 33.3316 4.21922 35.4621 6.58672 36.0238V57.0139C4.91031 58.3128 3.73609 60.2294 3.41078 62.4202H1.90844C0.85625 62.4203 0 63.2766 0 64.3289V66.7199C0 67.7722 0.85625 68.6285 1.90844 68.6285H78.0917C79.1439 68.6285 80.0002 67.7722 80.0002 66.7199V64.3289C80 63.2766 79.1438 62.4203 78.0916 62.4203ZM37.3691 14.6692L44.8567 17.5L37.3692 20.3308L37.3691 14.6692ZM12.8109 14.6692L20.2986 17.5L12.8111 20.3308L12.8109 14.6692ZM61.9272 14.6692L69.4147 17.5L61.9272 20.3308V14.6692ZM4.93281 30.7955C4.93281 29.1997 6.23125 27.9013 7.82703 27.9013H72.1728C73.7686 27.9013 75.067 29.1997 75.067 30.7955C75.067 32.3913 73.7686 33.6897 72.1728 33.6897H7.82703C6.23125 33.6897 4.93281 32.3913 4.93281 30.7955ZM65.6548 48.885L59.6252 36.1705H68.7759L67.1789 48.885H65.6548ZM66.8675 51.366L66.8598 51.4263L66.8313 51.366H66.8675ZM57.3269 56.7746V51.366H64.0858L66.2852 56.0038L66.1883 56.7747H57.3269V56.7746ZM65.8764 59.2553L65.4788 62.4203H57.3267V59.2553H65.8764ZM57.3269 48.885V37.1136L62.9092 48.885H57.3269ZM68.2617 60.1717L69.328 62.4203H67.9792L68.2617 60.1717ZM68.8366 55.5946L70.9325 38.908V60.0141L68.8366 55.5946ZM41.2403 56.7746V51.366H45.3416L42.7766 56.7746H41.2403ZM41.6002 59.2553L41.2403 60.0139V59.2553H41.6002ZM41.2403 48.885V36.1705H52.5477L46.518 48.885H41.2403ZM44.3458 59.2553H54.8459V62.4203H42.8448L44.3458 59.2553ZM45.5223 56.7746L48.0872 51.366H54.8461V56.7746H45.5223ZM49.2636 48.885L54.8461 37.1136V48.885H49.2636ZM37.2234 56.7746L34.6584 51.366H38.7595V56.7746H37.2234ZM38.7595 59.2553V60.0138L38.3998 59.2553H38.7595ZM31.9128 51.366L34.4778 56.7746H25.1539V51.366H31.9128ZM25.1541 48.885V37.1135L30.7366 48.885H25.1541ZM35.6544 59.2553L37.1553 62.4203H25.1541V59.2553H35.6544ZM33.482 48.885L27.4522 36.1705H38.7595V48.885H33.482ZM16.5402 56.7746C15.7572 56.2255 14.877 55.8064 13.9308 55.5489L15.9144 51.366H22.6731V56.7746H16.5402ZM22.6731 59.2553V62.4203H20.0408C19.8706 61.2739 19.4677 60.2027 18.8823 59.2553H22.6731ZM12.8203 48.885L11.2233 36.1705H20.375L14.3455 48.885H12.8203ZM13.1687 51.366L13.1395 51.4275L13.1317 51.366H13.1687ZM17.0909 48.885L22.6733 37.1136V48.885H17.0909ZM11.123 55.2775C10.4097 55.3285 9.72094 55.4682 9.0675 55.6867V38.9139L11.123 55.2775ZM11.7258 57.7342C14.5683 57.7342 16.9488 59.7461 17.5206 62.4203H5.93094C6.50281 59.7461 8.88344 57.7342 11.7258 57.7342ZM77.5192 66.1477H2.48078V64.9011H77.5192V66.1477Z" fill="black"/>
</g>
<defs>
<clipPath id="clip0_64_555">
<rect width="80" height="80" fill="white"/>
</clipPath>
</defs>
</svg>
