<svg width="80" height="80" viewBox="0 0 80 80" fill="none" xmlns="http://www.w3.org/2000/svg">
<g clip-path="url(#clip0_64_527)">
<path d="M74.384 74.4184H78.2044V54.0427H74.384V20.5871L76.3082 21.206L80 13.8211L40 0.487793L0 13.8211L3.69182 21.206L5.61605 20.5871V76.9653H0.522127V79.5123H5.61605H74.384H79.4779V76.9653H74.384V74.4184ZM75.6574 56.5897V71.8714H74.384V56.5897H75.6574ZM34.3203 76.9653H17.0774V42.5814H29.8122V71.8714H19.6243V74.4184H32.3591V71.8714V42.5814V40.0344V37.4875H34.9061V66.1917C33.3473 67.5913 32.3591 69.6148 32.3591 71.8714C32.3591 73.83 33.1054 75.6116 34.3203 76.9653ZM40 76.9653C37.1907 76.9653 34.9061 74.6807 34.9061 71.8714C34.9061 69.0621 37.1907 66.7775 40 66.7775C42.8093 66.7775 45.0939 69.0621 45.0939 71.8714C45.0939 74.6807 42.8093 76.9653 40 76.9653ZM47.2677 49.3219L45.467 51.1226L47.1137 52.7692L42.1726 57.7103L47.3403 38.761H62.0261L66.738 51.9567L51.1812 59.1366H44.3477L48.9144 54.5699L50.561 56.2165L52.3617 54.4158L47.2677 49.3219ZM37.6517 64.6037C37.5842 64.6253 37.5193 64.6521 37.453 64.6763V42.5814H43.6587L37.6517 64.6037ZM45.6797 76.9653C46.3394 76.2293 46.8577 75.3684 47.1952 74.4184H59.5479C59.8854 75.3684 60.4037 76.2293 61.0634 76.9653H45.6797ZM66.7431 76.9653C63.9338 76.9653 61.6492 74.6807 61.6492 71.8714C61.6492 69.0621 63.9338 66.7775 66.7431 66.7775C69.5524 66.7775 71.837 69.0621 71.837 71.8714C71.837 74.6807 69.5524 76.9653 66.7431 76.9653ZM71.837 66.1917C70.4833 64.9768 68.7017 64.2305 66.7431 64.2305C62.5291 64.2305 59.1022 67.6575 59.1022 71.8714H47.6409C47.6409 67.7887 44.4202 64.4547 40.3884 64.2496L41.0888 61.6836H51.7415L67.5976 54.3649L68.3922 56.5897H71.837V66.1917ZM71.837 54.0427H70.1878L64.7297 38.761H66.7431V36.214H42.547V38.761H44.7004L44.3528 40.0344H37.453V37.4875H40V34.9405H27.2652V37.4875H29.8122V40.0344H14.5304V76.9653H8.16301V31.1201H71.837V54.0427ZM71.837 28.5731H8.16301V19.7683L40 9.53587L71.837 19.7695V28.5731ZM40 6.85901L4.99331 18.1115L3.59121 15.3085L40 3.17229L76.4088 15.3085L75.0067 18.1115L40 6.85901Z" fill="black"/>
<path d="M41.2735 14.5649H38.7266V17.1119H41.2735V14.5649Z" fill="black"/>
<path d="M46.3673 14.5649H43.8203V17.1119H46.3673V14.5649Z" fill="black"/>
<path d="M36.1798 14.5649H33.6328V17.1119H36.1798V14.5649Z" fill="black"/>
</g>
<defs>
<clipPath id="clip0_64_527">
<rect width="80" height="80" fill="white"/>
</clipPath>
</defs>
</svg>
