<svg width="80" height="80" viewBox="0 0 80 80" fill="none" xmlns="http://www.w3.org/2000/svg">
<g clip-path="url(#clip0_64_564)">
<path d="M47.9998 57.3331C48.7362 57.3331 49.3331 56.736 49.3331 55.9998V51.9998H50.6664C51.4028 51.9998 51.9996 51.4029 51.9996 50.6665V46.6669H78.6663C79.4027 46.6669 79.9995 46.07 79.9995 45.3336V5.33373C79.9995 4.59733 79.4027 4.00045 78.6663 4.00045H73.333V1.33328C73.333 0.596873 72.7361 0 71.9997 0H61.333C60.5966 0 59.9998 0.597029 59.9998 1.33328V4.00014H46.6665V1.33328C46.6665 0.596873 46.0697 0 45.3333 0H34.6666C33.9302 0 33.3333 0.597029 33.3333 1.33328V4.00014H20.0001V1.33328C20.0001 0.596873 19.4032 0 18.6668 0H7.99997C7.26357 0 6.66669 0.597029 6.66669 1.33328V4.00014H1.33328C0.596873 4.00014 0 4.59701 0 5.33342V45.3333C0 46.0697 0.596873 46.6665 1.33328 46.6665H27.9999V50.6662C27.9999 51.4026 28.5968 51.9995 29.3332 51.9995H30.6664V55.9995C30.6664 56.7359 31.2633 57.3327 31.9997 57.3327H35.9997V77.333H1.33328C0.596873 77.333 0 77.93 0 78.6663C0 79.4025 0.596873 79.9995 1.33328 79.9995H78.6663C79.4027 79.9995 79.9995 79.4025 79.9995 78.6663C79.9995 77.93 79.4027 77.333 78.6663 77.333H43.9998V57.3331H47.9998ZM62.6665 2.66671H70.6665V5.33357V7.99997H62.6665V5.33357V2.66671ZM35.9999 2.66671H43.9998V5.33357V7.99997H35.9999V5.33357V2.66671ZM9.33325 2.66671H17.3332V5.33357V7.99997H9.33325V5.33357V2.66671ZM2.66671 6.66685H6.66669V9.33325V9.33356C6.66669 10.07 7.26357 10.6668 7.99997 10.6668H18.6666C19.4031 10.6668 19.9999 10.0698 19.9999 9.33356V9.33325V6.66685H33.3332V9.33325V9.33356C33.3332 10.07 33.93 10.6668 34.6664 10.6668H45.3331C46.0695 10.6668 46.6664 10.0698 46.6664 9.33356V9.33325V6.66685H59.9996V9.33325V9.33356C59.9996 10.07 60.5966 10.6668 61.3329 10.6668H71.9996C72.736 10.6668 73.3328 10.0698 73.3328 9.33356V9.33325V6.66685H77.3328V44H50.6717C50.67 44 50.6682 43.9997 50.6664 43.9997H29.3332C29.3314 43.9997 29.3297 44 29.3279 44H2.66671V6.66685ZM49.3331 46.6667V49.3331H47.9998H31.9999H30.6666V46.6667H49.3331ZM33.3332 51.9998H46.6664V54.6665H42.6664H37.3331H33.3332V51.9998ZM41.3331 77.333H38.6664V57.3331H41.3331V77.333Z" fill="black"/>
</g>
<defs>
<clipPath id="clip0_64_564">
<rect width="80" height="80" fill="white"/>
</clipPath>
</defs>
</svg>
