<svg width="80" height="80" viewBox="0 0 80 80" fill="none" xmlns="http://www.w3.org/2000/svg">
<g clip-path="url(#clip0_64_600)">
<path d="M24.9997 43.3333H14.9997C14.0797 43.3333 13.333 44.08 13.333 45V51.6667C13.333 52.5867 14.0797 53.3334 14.9997 53.3334H24.9997C25.9197 53.3334 26.6664 52.5867 26.6664 51.6667V45C26.6664 44.08 25.9197 43.3333 24.9997 43.3333ZM23.333 50H16.6663V46.6667H23.333V50Z" fill="black"/>
<path d="M78.3334 13.3333C79.2533 13.3333 80.0001 12.5866 80.0001 11.6666V1.66656C80.0001 0.746719 79.2533 0 78.3334 0H8.33335C7.77663 0 7.25663 0.28 6.94663 0.743281L0.279911 10.7433C-0.0600892 11.2533 -0.0933704 11.9133 0.19663 12.4533C0.48663 12.9933 1.04991 13.3333 1.66663 13.3333H60.0001V76.6666H33.3333V60.59C34.9433 62.58 36.7633 64.4367 38.4301 66.0733C36.5001 68.02 35.0868 69.6133 35.8268 71.3666C36.5035 72.9698 38.4801 73.3366 41.2568 73.3366C41.3968 73.3366 41.5401 73.3333 41.6968 73.3333C42.6101 73.3233 45.0368 73.2933 45.7635 71.48C46.4202 69.8467 45.2902 68.2567 43.1302 66.0333C45.2402 63.7366 47.1169 61.0666 46.6569 58.08C45.7002 51.8733 39.2802 48.39 36.6669 47.2167V45C36.6669 44.08 35.9202 43.3333 35.0002 43.3333C34.0802 43.3333 33.3335 44.08 33.3335 45V41.6667C33.3335 38.91 31.0902 36.6667 28.3335 36.6667H11.6668C8.91007 36.6667 6.66679 38.91 6.66679 41.6667V76.6667H1.66679C0.746786 76.6667 6.70874e-05 77.4133 6.70874e-05 78.3333C6.70874e-05 79.2533 0.746786 80 1.66679 80H78.3335C79.2535 80 80.0002 79.2533 80.0002 78.3333C80.0002 77.4133 79.2535 76.6666 78.3335 76.6666H73.3335V13.3333H78.3334ZM41.6468 70C40.5635 70.0133 39.8668 69.9633 39.4068 69.9033C39.7735 69.4666 40.2968 68.9233 40.7935 68.4233C41.3502 69 41.8502 69.5466 42.1868 69.98C42.0333 69.99 41.8568 69.9967 41.6468 70ZM33.3333 51.6667C33.3333 52.5867 34.0801 53.3334 35.0001 53.3334C35.9201 53.3334 36.6668 52.5867 36.6668 51.6667V50.95C39.1168 52.2667 42.7801 54.81 43.3601 58.5867C43.6001 60.15 42.2733 62.0067 40.7568 63.68C38.0535 61.0233 34.8868 57.81 33.3335 54.5633V51.6667H33.3333ZM30.0001 76.6667H10.0001V41.6667C10.0001 40.7467 10.7468 40 11.6668 40H28.3335C29.2535 40 30.0002 40.7467 30.0002 41.6667V76.6667H30.0001ZM71.6668 10C70.7468 10 70.0001 10.7467 70.0001 11.6667V76.6667H63.3368V11.6667C63.3368 10.7467 62.5901 10 61.6701 10H4.78335L9.22663 3.33328H76.6666V10H71.6668Z" fill="black"/>
</g>
<defs>
<clipPath id="clip0_64_600">
<rect width="80" height="80" fill="white"/>
</clipPath>
</defs>
</svg>
