<svg width="80" height="80" viewBox="0 0 80 80" fill="none" xmlns="http://www.w3.org/2000/svg">
<path d="M64.8975 29.7959H15.1016V38.7755H64.8975V29.7959ZM27.3465 36.3265H17.5505V32.2449H27.3465V36.3265ZM38.775 36.3265H29.7954V32.2449H38.775V36.3265ZM51.8363 36.3265H41.224V32.2449H51.8363V36.3265ZM62.4485 36.3265H54.2852V32.2449H62.4485V36.3265Z" fill="black"/>
<path d="M34.2857 8.57129H29.3877V11.0203H34.2857V8.57129Z" fill="black"/>
<path d="M50.6118 8.57129H45.7139V11.0203H50.6118V8.57129Z" fill="black"/>
<path d="M73.0612 75.5102V27.3469H78.7755V4.89791C78.7755 3.32257 77.4937 2.04077 75.9184 2.04077H4.08163C2.50629 2.04077 1.22449 3.32257 1.22449 4.89791V27.3469H6.93878V75.5102H0V77.9591H80V75.5102H73.0612ZM3.67347 24.8979V11.0204H17.9592V8.57138H3.67347V4.89791C3.67347 4.67669 3.86041 4.48975 4.08163 4.48975H22.449V19.5918H24.898V4.48975H38.7755V19.5918H41.2245V4.48975H55.102V19.5918H57.551V4.48975H75.9184C76.1396 4.48975 76.3265 4.67669 76.3265 4.89791V8.57138H62.0408V11.0204H76.3265V24.8979H3.67347ZM62.449 75.5102H17.551V70.6122H62.449V75.5102ZM62.449 68.1632H17.551V60.8163H62.449V68.1632ZM62.449 58.3673H17.551V51.0204H62.449V58.3673ZM62.449 48.5714H17.551V43.6734H62.449V48.5714ZM70.6122 75.5102H64.898V41.2244H15.102V75.5102H9.38775V27.3469H70.6122V75.5102Z" fill="black"/>
</svg>
