<svg width="80" height="80" viewBox="0 0 80 80" fill="none" xmlns="http://www.w3.org/2000/svg">
<g clip-path="url(#clip0_64_609)">
<path d="M78.7473 54.7808H73.0056L67.9653 14.4583C67.8869 13.8314 67.3541 13.3611 66.7223 13.3611H50.6889C50.0572 13.3611 49.5244 13.8314 49.4459 14.4583L44.4056 54.7808H42.8972L31.6894 37.9691C31.377 37.5006 30.7714 37.2966 30.2392 37.4795C29.7394 37.6514 29.3945 38.1355 29.3945 38.6639V54.5686L18.3281 37.9692C18.0158 37.5006 17.4103 37.2967 16.878 37.4797C16.3784 37.6517 16.0336 38.1356 16.0336 38.6641V53.954L4.95469 37.9511C4.63672 37.4914 4.03375 37.2967 3.50703 37.4831C3.01234 37.658 2.67234 38.1392 2.67234 38.6639V45.3437C2.67234 46.0356 3.23297 46.5964 3.925 46.5964C4.61688 46.5964 5.17766 46.0358 5.17766 45.3437V42.6739L13.5592 54.7808H5.6225V50.6887C5.6225 49.9969 5.06187 49.4361 4.36984 49.4361C3.67781 49.4361 3.11719 49.9967 3.11719 50.6887V54.7808H1.25266C0.560781 54.7808 0 55.3414 0 56.0334V78.7475C0 79.4394 0.560625 80 1.25266 80H78.7475C79.4394 80 80.0002 79.4394 80.0002 78.7473V56.0333C80 55.3414 79.4394 54.7808 78.7473 54.7808ZM51.7947 15.8664H65.6164L65.8044 17.3695H51.6067L51.7947 15.8664ZM51.2938 19.8747H66.1177L67.1406 28.0584H50.2708L51.2938 19.8747ZM49.9577 30.5637H67.4538L67.6417 32.0669H49.7698L49.9577 30.5637ZM49.4566 34.572H67.9547L69.1447 44.0919H48.2666L49.4566 34.572ZM47.9534 46.597H69.4578L69.6458 48.1001H47.7655L47.9534 46.597ZM31.8998 42.8009L39.8862 54.7808H31.8998V42.8009ZM18.5386 42.8009L26.5253 54.7808H18.5386V42.8009ZM77.4948 77.4948H2.50516V57.2859H60.0417C60.7336 57.2859 61.2944 56.7253 61.2944 56.0333C61.2944 55.3414 60.7337 54.7806 60.0417 54.7806H46.9305L47.4523 50.6053H69.9589L70.4808 54.7806H65.3861C64.6942 54.7806 64.1334 55.3412 64.1334 56.0333C64.1334 56.7251 64.6941 57.2859 65.3861 57.2859H77.4947V77.4948H77.4948Z" fill="black"/>
<path d="M11.9419 58.7893H6.59738C5.90551 58.7893 5.34473 59.3499 5.34473 60.042V65.3865C5.34473 66.0784 5.90535 66.6391 6.59738 66.6391H11.9419C12.6338 66.6391 13.1946 66.0785 13.1946 65.3865V60.042C13.1946 59.3499 12.6338 58.7893 11.9419 58.7893ZM10.6893 64.1337H7.85004V61.2945H10.6893V64.1337Z" fill="black"/>
<path d="M73.4028 58.7893H68.0583C67.3664 58.7893 66.8057 59.3499 66.8057 60.042V65.3865C66.8057 66.0784 67.3663 66.6391 68.0583 66.6391H73.4028C74.0947 66.6391 74.6555 66.0785 74.6555 65.3865V60.042C74.6553 59.3499 74.0947 58.7893 73.4028 58.7893ZM72.1502 64.1337H69.311V61.2945H72.1502V64.1337Z" fill="black"/>
<path d="M42.6724 58.7893H37.3279C36.636 58.7893 36.0752 59.3499 36.0752 60.042V65.3865C36.0752 66.0784 36.6358 66.6391 37.3279 66.6391H42.6724C43.3643 66.6391 43.925 66.0785 43.925 65.3865V60.042C43.925 59.3499 43.3644 58.7893 42.6724 58.7893ZM41.4199 64.1337H38.5807V61.2945H41.4199V64.1337Z" fill="black"/>
<path d="M58.7056 58.7893H53.3611C52.6692 58.7893 52.1084 59.3499 52.1084 60.042V65.3865C52.1084 66.0784 52.669 66.6391 53.3611 66.6391H58.7056C59.3975 66.6391 59.9582 66.0785 59.9582 65.3865V60.042C59.9582 59.3499 59.3976 58.7893 58.7056 58.7893ZM57.4529 64.1337H54.6137V61.2945H57.4529V64.1337Z" fill="black"/>
<path d="M26.6392 58.7893H21.2946C20.6028 58.7893 20.042 59.3499 20.042 60.042V65.3865C20.042 66.0784 20.6026 66.6391 21.2946 66.6391H26.6392C27.3311 66.6391 27.8918 66.0785 27.8918 65.3865V60.042C27.8917 59.3499 27.3311 58.7893 26.6392 58.7893ZM25.3865 64.1337H22.5473V61.2945H25.3865V64.1337Z" fill="black"/>
<path d="M11.9419 68.1421H6.59738C5.90551 68.1421 5.34473 68.7027 5.34473 69.3947V74.7393C5.34473 75.4311 5.90535 75.9919 6.59738 75.9919H11.9419C12.6338 75.9919 13.1946 75.4313 13.1946 74.7393V69.3947C13.1946 68.7027 12.6338 68.1421 11.9419 68.1421ZM10.6893 73.4865H7.85004V70.6472H10.6893V73.4865Z" fill="black"/>
<path d="M73.4028 68.1421H68.0583C67.3664 68.1421 66.8057 68.7027 66.8057 69.3947V74.7393C66.8057 75.4311 67.3663 75.9919 68.0583 75.9919H73.4028C74.0947 75.9919 74.6555 75.4313 74.6555 74.7393V69.3947C74.6553 68.7027 74.0947 68.1421 73.4028 68.1421ZM72.1502 73.4865H69.311V70.6472H72.1502V73.4865Z" fill="black"/>
<path d="M42.6724 68.1421H37.3279C36.636 68.1421 36.0752 68.7027 36.0752 69.3947V74.7393C36.0752 75.4311 36.6358 75.9919 37.3279 75.9919H42.6724C43.3643 75.9919 43.925 75.4313 43.925 74.7393V69.3947C43.925 68.7027 43.3644 68.1421 42.6724 68.1421ZM41.4199 73.4865H38.5807V70.6472H41.4199V73.4865Z" fill="black"/>
<path d="M58.7056 68.1421H53.3611C52.6692 68.1421 52.1084 68.7027 52.1084 69.3947V74.7393C52.1084 75.4311 52.669 75.9919 53.3611 75.9919H58.7056C59.3975 75.9919 59.9582 75.4313 59.9582 74.7393V69.3947C59.9582 68.7027 59.3976 68.1421 58.7056 68.1421ZM57.4529 73.4865H54.6137V70.6472H57.4529V73.4865Z" fill="black"/>
<path d="M26.6392 68.1421H21.2946C20.6028 68.1421 20.042 68.7027 20.042 69.3947V74.7393C20.042 75.4311 20.6026 75.9919 21.2946 75.9919H26.6392C27.3311 75.9919 27.8918 75.4313 27.8918 74.7393V69.3947C27.8917 68.7027 27.3311 68.1421 26.6392 68.1421ZM25.3865 73.4865H22.5473V70.6472H25.3865V73.4865Z" fill="black"/>
<path d="M62.7142 2.67219C62.619 2.67219 62.524 2.67563 62.4293 2.68266C61.9084 1.12531 60.4361 0 58.7057 0C56.9754 0 55.5031 1.12531 54.9823 2.68281C54.8876 2.67578 54.7926 2.67234 54.6973 2.67234C52.5331 2.67234 50.7725 4.43297 50.7725 6.59719C50.7725 8.76141 52.5331 10.522 54.6973 10.522H62.714C64.8782 10.522 66.6389 8.76141 66.6389 6.59719C66.639 4.43297 64.8782 2.67219 62.7142 2.67219ZM62.7142 8.01672H54.6975C53.9146 8.01672 53.2778 7.37984 53.2778 6.59703C53.2778 5.81422 53.9146 5.17734 54.6975 5.17734C54.9539 5.17734 55.1973 5.24516 55.4215 5.37891C55.8357 5.62625 56.3556 5.61344 56.7571 5.34641C57.159 5.07906 57.3715 4.605 57.3036 4.12703C57.2917 4.04375 57.2862 3.97922 57.2862 3.92484C57.2862 3.14203 57.9231 2.50516 58.7059 2.50516C59.4887 2.50516 60.1256 3.14203 60.1256 3.92484C60.1256 3.97922 60.1201 4.04375 60.1082 4.12703C60.0404 4.60484 60.2529 5.07906 60.6546 5.34641C61.0565 5.61359 61.5761 5.62594 61.9903 5.37891C62.2143 5.24516 62.4579 5.17734 62.7143 5.17734C63.4971 5.17734 64.134 5.81422 64.134 6.59703C64.1337 7.37984 63.4968 8.01672 62.7142 8.01672Z" fill="black"/>
<path d="M37.3275 10.6889C37.2323 10.6889 37.1373 10.6924 37.0425 10.6994C36.5217 9.14207 35.0493 8.0166 33.319 8.0166C31.5887 8.0166 30.1164 9.14191 29.5956 10.6994C29.5009 10.6924 29.4059 10.6889 29.3106 10.6889C27.1464 10.6889 25.3857 12.4496 25.3857 14.6138C25.3857 16.778 27.1464 18.5386 29.3106 18.5386H37.3273C39.4915 18.5386 41.2521 16.778 41.2521 14.6138C41.2521 12.4496 39.4915 10.6889 37.3275 10.6889ZM37.3275 16.0335H29.3107C28.5279 16.0335 27.8911 15.3966 27.8911 14.6138C27.8911 13.831 28.5279 13.1941 29.3107 13.1941C29.5672 13.1941 29.8106 13.2619 30.0348 13.3957C30.4489 13.643 30.969 13.6302 31.3704 13.3632C31.7723 13.0958 31.9848 12.6218 31.9168 12.1438C31.905 12.0605 31.8995 11.996 31.8995 11.9416C31.8995 11.1588 32.5364 10.5219 33.3192 10.5219C34.102 10.5219 34.7389 11.1588 34.7389 11.9416C34.7389 11.996 34.7334 12.0605 34.7215 12.1438C34.6537 12.6216 34.8662 13.0958 35.2679 13.3632C35.6698 13.6304 36.1895 13.6429 36.6036 13.3957C36.8276 13.2619 37.0712 13.1941 37.3276 13.1941C38.1104 13.1941 38.7473 13.831 38.7473 14.6138C38.7473 15.3966 38.1103 16.0335 37.3275 16.0335Z" fill="black"/>
<path d="M13.2775 17.3696C13.1823 17.3696 13.0873 17.373 12.9925 17.3801C12.4717 15.8227 10.9994 14.6973 9.26906 14.6973C7.53875 14.6973 6.06641 15.8226 5.54563 17.3801C5.45094 17.373 5.35594 17.3696 5.26078 17.3696C3.09656 17.3696 1.33594 19.1302 1.33594 21.2945C1.33594 23.4587 3.09656 25.2193 5.26078 25.2193H13.2775C15.4417 25.2193 17.2023 23.4587 17.2023 21.2945C17.2023 19.1302 15.4417 17.3696 13.2775 17.3696ZM13.2775 22.7141H5.26078C4.47797 22.7141 3.84109 22.0773 3.84109 21.2945C3.84109 20.5116 4.47797 19.8748 5.26078 19.8748C5.51719 19.8748 5.76063 19.9426 5.98484 20.0763C6.39906 20.3237 6.91891 20.3109 7.32047 20.0438C7.72234 19.7765 7.93484 19.3024 7.86688 18.8245C7.855 18.7412 7.84953 18.6766 7.84953 18.6223C7.84953 17.8395 8.48641 17.2026 9.26922 17.2026C10.052 17.2026 10.6889 17.8395 10.6889 18.6223C10.6889 18.6766 10.6834 18.7412 10.6716 18.8245C10.6038 19.3023 10.8162 19.7765 11.218 20.0438C11.6198 20.311 12.1394 20.3235 12.5536 20.0763C12.7777 19.9426 13.0212 19.8748 13.2777 19.8748C14.0605 19.8748 14.6973 20.5116 14.6973 21.2945C14.6973 22.0773 14.0603 22.7141 13.2775 22.7141Z" fill="black"/>
</g>
<defs>
<clipPath id="clip0_64_609">
<rect width="80" height="80" fill="white"/>
</clipPath>
</defs>
</svg>
