<svg width="60" height="60" viewBox="0 0 60 60" fill="none" xmlns="http://www.w3.org/2000/svg">
<path d="M52.0312 14.2593H7.96875C6.72616 14.2613 5.53503 14.7558 4.65638 15.6344C3.77773 16.5131 3.28323 17.7042 3.28125 18.9468V41.053C3.28323 42.2956 3.77773 43.4868 4.65638 44.3654C5.53503 45.244 6.72616 45.7385 7.96875 45.7405H52.0312C53.2738 45.7385 54.465 45.244 55.3436 44.3654C56.2223 43.4868 56.7168 42.2956 56.7188 41.053V18.9468C56.7168 17.7042 56.2223 16.5131 55.3436 15.6344C54.465 14.7558 53.2738 14.2613 52.0312 14.2593ZM54.8438 41.053C54.8415 41.7983 54.5445 42.5123 54.0175 43.0393C53.4906 43.5663 52.7765 43.8633 52.0312 43.8655H7.96875C7.22351 43.8633 6.50944 43.5663 5.98247 43.0393C5.45551 42.5123 5.15848 41.7983 5.15625 41.053V25.6874H54.8438V41.053ZM54.8438 23.8124H5.15625V21.8624H54.8438V23.8124ZM54.8438 19.9874H5.15625V18.9468C5.15848 18.2015 5.45551 17.4875 5.98247 16.9605C6.50944 16.4335 7.22351 16.1365 7.96875 16.1343H52.0312C52.7765 16.1365 53.4906 16.4335 54.0175 16.9605C54.5445 17.4875 54.8415 18.2015 54.8438 18.9468V19.9874Z" fill="black"/>
<path d="M45.2805 28.5844C44.0749 28.5824 42.8997 28.9632 41.9243 29.6719C40.9593 28.9637 39.7931 28.5827 38.5962 28.5844C37.6917 28.5781 36.7987 28.7865 35.9904 29.1924C35.1821 29.5982 34.4816 30.1901 33.9464 30.9192C33.4112 31.6484 33.0566 32.494 32.9118 33.3868C32.7669 34.2796 32.8358 35.1941 33.1129 36.055C33.39 36.916 33.8674 37.699 34.5058 38.3397C35.1443 38.9804 35.9256 39.4605 36.7856 39.7406C37.6456 40.0207 38.5598 40.0928 39.4531 39.951C40.3464 39.8093 41.1933 39.4576 41.9243 38.925C42.6541 39.454 43.4987 39.8028 44.3891 39.943C45.2794 40.0831 46.1904 40.0107 47.0474 39.7315C47.9044 39.4524 48.6833 38.9745 49.3203 38.3368C49.9573 37.6991 50.4344 36.9198 50.7127 36.0624C50.9909 35.2051 51.0624 34.2941 50.9213 33.4039C50.7802 32.5137 50.4305 31.6694 49.9008 30.9402C49.3711 30.2109 48.6763 29.6174 47.8733 29.2079C47.0704 28.7985 46.1819 28.5848 45.2805 28.5844ZM38.5962 38.1375C37.8356 38.1393 37.0915 37.9155 36.4581 37.4943C35.8248 37.073 35.3307 36.4734 35.0383 35.7712C34.746 35.069 34.6685 34.2959 34.8158 33.5496C34.963 32.8034 35.3284 32.1176 35.8655 31.5791C36.4027 31.0406 37.0876 30.6736 37.8335 30.5245C38.5793 30.3755 39.3527 30.451 40.0556 30.7417C40.7585 31.0323 41.3593 31.525 41.7821 32.1573C42.2049 32.7896 42.4305 33.5331 42.4305 34.2937C42.4291 35.3111 42.0249 36.2865 41.3064 37.0067C40.5879 37.727 39.6135 38.1335 38.5962 38.1375ZM45.2805 38.1375C44.5717 38.137 43.8769 37.939 43.2743 37.5656C43.9454 36.6083 44.3055 35.4675 44.3055 34.2984C44.3055 33.1293 43.9454 31.9885 43.2743 31.0312C43.7795 30.7213 44.3497 30.5327 44.9401 30.4801C45.5305 30.4275 46.1251 30.5125 46.6771 30.7283C47.2292 30.9442 47.7237 31.285 48.1219 31.7241C48.5201 32.1631 48.8112 32.6885 48.9722 33.2589C49.1333 33.8294 49.1599 34.4294 49.0501 35.0118C48.9403 35.5943 48.6971 36.1434 48.3394 36.6161C47.9817 37.0888 47.5194 37.4721 46.9887 37.7361C46.4579 38.0001 45.8733 38.1374 45.2805 38.1375Z" fill="black"/>
<path d="M9.94727 34.2786H17.586C17.8347 34.2786 18.0731 34.1798 18.2489 34.004C18.4247 33.8282 18.5235 33.5897 18.5235 33.3411C18.5235 33.0924 18.4247 32.854 18.2489 32.6782C18.0731 32.5023 17.8347 32.4036 17.586 32.4036H9.94727C9.69863 32.4036 9.46017 32.5023 9.28435 32.6782C9.10854 32.854 9.00977 33.0924 9.00977 33.3411C9.00977 33.5897 9.10854 33.8282 9.28435 34.004C9.46017 34.1798 9.69863 34.2786 9.94727 34.2786Z" fill="black"/>
<path d="M19.4995 36.2239H9.94727C9.69863 36.2239 9.46017 36.3226 9.28435 36.4985C9.10854 36.6743 9.00977 36.9127 9.00977 37.1614C9.00977 37.41 9.10854 37.6485 9.28435 37.8243C9.46017 38.0001 9.69863 38.0989 9.94727 38.0989H19.4995C19.7481 38.0989 19.9866 38.0001 20.1624 37.8243C20.3382 37.6485 20.437 37.41 20.437 37.1614C20.437 36.9127 20.3382 36.6743 20.1624 36.4985C19.9866 36.3226 19.7481 36.2239 19.4995 36.2239Z" fill="black"/>
</svg>
