<svg width="60" height="60" viewBox="0 0 60 60" fill="none" xmlns="http://www.w3.org/2000/svg">
<path d="M45.0305 40H43.0263C39.1545 40.0049 36.0166 43.1362 36.0117 47V53C36.0166 56.8638 39.1545 59.9951 43.0263 60H45.0305C48.9023 59.9951 52.0402 56.8638 52.0451 53V47C52.0402 43.1362 48.9023 40.0049 45.0305 40ZM43.0263 42H45.0305C47.7965 42.0034 50.0375 44.2397 50.0409 47V48H38.0159V47C38.0193 44.2397 40.2603 42.0034 43.0263 42ZM45.0305 58H43.0263C40.2603 57.9966 38.0193 55.7603 38.0159 53V50H50.0409V53C50.0375 55.7603 47.7965 57.9966 45.0305 58Z" fill="black"/>
<path d="M43.0273 44H45.0315V46H43.0273V44Z" fill="black"/>
<path d="M9.9573 49V3C9.9573 2.44775 10.406 2 10.9594 2H38.0158V9C38.0158 9.44092 38.3044 9.82959 38.7272 9.95703C39.15 10.085 39.6065 9.92188 39.8516 9.55518L41.022 7.7998L42.1924 9.55176C42.4371 9.91797 42.8931 10.0815 43.3154 9.95459C43.7376 9.82764 44.0273 9.43994 44.0283 9V2H45.0304C45.5838 2 46.0325 2.44775 46.0325 3V38H48.0366V3C48.0366 1.34326 46.6906 0 45.0304 0H10.9594C9.29919 0 7.95312 1.34326 7.95312 3V49C7.95312 50.6567 9.29919 52 10.9594 52H13.9657V50H10.9594C10.406 50 9.9573 49.5522 9.9573 49ZM42.0241 5.7002L41.8558 5.44824C41.6591 5.18555 41.3503 5.03125 41.022 5.03125C40.6937 5.03125 40.3849 5.18555 40.1883 5.44824L40.0199 5.7002V2H42.0241V5.7002Z" fill="black"/>
<path d="M25.9922 50H34.0089V52H25.9922V50Z" fill="black"/>
<path d="M13.9668 6H21.9835V8H13.9668V6Z" fill="black"/>
<path d="M13.9668 10H25.9918V12H13.9668V10Z" fill="black"/>
<path d="M13.9668 16H42.0253V18H13.9668V16Z" fill="black"/>
<path d="M13.9668 20H42.0253V22H13.9668V20Z" fill="black"/>
<path d="M13.9668 24H42.0253V26H13.9668V24Z" fill="black"/>
<path d="M20.8808 30.5532C20.6925 30.2378 20.3519 30.0444 19.9839 30.0444C19.6165 30.0444 19.2754 30.2378 19.0871 30.5532L16.0808 36.5532C16.0098 36.6914 15.9722 36.8442 15.9707 37V56C15.9707 58.209 17.7655 60 19.9791 60C22.1926 60 23.9874 58.209 23.9874 56V37C23.9874 36.8447 23.9517 36.6919 23.8822 36.5532L20.8808 30.5532ZM19.9791 33.2358L21.3638 36H18.5943L19.9791 33.2358ZM18.977 38V51H20.9811V38H21.9832V53H17.9749V38H18.977ZM19.9791 58C18.8723 58 17.9749 57.1045 17.9749 56V55H21.9832V56C21.9832 57.1045 21.0859 58 19.9791 58Z" fill="black"/>
<path d="M27.9961 36H42.0253V38H27.9961V36Z" fill="black"/>
<path d="M27.9961 32H42.0253V34H27.9961V32Z" fill="black"/>
</svg>
