<svg width="60" height="60" viewBox="0 0 60 60" fill="none" xmlns="http://www.w3.org/2000/svg">
<g clip-path="url(#clip0_233_460)">
<path d="M59.0509 40.3243C59.0501 40.32 59.0491 40.3157 59.0482 40.3115C58.7318 38.8442 58.3388 37.3916 57.866 35.9589C57.7139 35.498 57.2173 35.2474 56.756 35.3997C56.295 35.5518 56.0447 36.0488 56.1968 36.5097C56.5352 37.5356 56.8321 38.572 57.0871 39.6171H52.9563C52.1794 39.6171 51.4785 40.047 51.1271 40.7391C50.7765 41.43 50.8427 42.2476 51.3001 42.873L52.003 43.8343C53.0473 45.2623 54.7281 46.1149 56.4994 46.1149H58.1214C58.2011 47.1521 58.2421 48.1937 58.2421 49.2384V50.5192C58.2421 52.6473 56.7833 54.4396 54.8164 54.9435C55.08 54.1804 55.2251 53.3628 55.2251 52.5116C55.2251 48.3843 51.8606 45.0267 47.7251 45.0267C43.5895 45.0267 40.2251 48.3843 40.2251 52.5116C40.2251 53.4154 40.3866 54.2823 40.682 55.0851H38.077V54.0967C38.077 52.645 36.8943 51.464 35.4403 51.464H30.1096C29.6242 51.464 29.2307 51.8575 29.2307 52.3429C29.2307 52.8283 29.6242 53.2218 30.1096 53.2218H35.4403C35.925 53.2218 36.3192 53.6143 36.3192 54.0967V55.0851H23.516V54.0967C23.516 53.6143 23.9102 53.2218 24.3949 53.2218H26.0256C26.511 53.2218 26.9045 52.8283 26.9045 52.3429C26.9045 51.8575 26.511 51.464 26.0256 51.464H24.3949C22.941 51.464 21.7582 52.645 21.7582 54.0967V55.0851H19.2961C19.5927 54.2808 19.7549 53.4124 19.7549 52.5067C19.7549 48.3796 16.3904 45.0219 12.2549 45.0219C8.11934 45.0219 4.75488 48.3795 4.75488 52.5067C4.75488 53.3579 4.89996 54.1754 5.1634 54.9384C3.2066 54.4273 1.75781 52.6399 1.75781 50.5191V47.5938C1.75781 46.9919 1.79918 46.3948 1.87957 45.8061H3.86004C5.15766 45.8061 6.36996 45.2285 7.18594 44.2214L8.98477 42.001C9.34324 41.5586 9.41367 40.9646 9.16863 40.4507C8.92336 39.9363 8.41664 39.6166 7.84617 39.6166H4.46051C4.81102 39.1539 5.40574 38.4931 5.99098 37.8944H19.9139C20.4302 37.8944 20.914 37.6177 21.1761 37.1722C22.8545 34.3192 24.3182 32.622 27.1976 30.1903L28.3802 29.2267C28.7955 28.9099 28.9659 28.3685 28.8045 27.8688C28.6396 27.359 28.1692 27.0165 27.6337 27.0165H24.0545C27.7013 25.966 31.4943 25.426 35.3331 25.426H51.3267C51.4423 25.426 51.5473 25.4949 51.5943 25.6016L54.758 32.7776C54.9538 33.2219 55.4727 33.4231 55.9167 33.2273C56.361 33.0315 56.5622 32.5127 56.3664 32.0685L53.4377 25.4258H54.951C55.4364 25.4258 55.8299 25.0323 55.8299 24.5469C55.8299 24.0615 55.4364 23.668 54.951 23.668C54.5198 23.668 51.5843 23.6678 51.0938 23.6682V3.80491C51.0938 2.35097 49.911 1.16819 48.457 1.16819H41.7711C41.2857 1.16819 40.8922 1.56171 40.8922 2.0471C40.8922 2.53249 41.2857 2.926 41.7711 2.926H48.457C48.9417 2.926 49.3359 3.32022 49.3359 3.80491V23.6684H35.333C27.4373 23.6684 19.7276 25.8591 13.0078 30.0049V22.8567C15.4222 22.5362 17.7538 21.4526 19.605 19.6013C20.0385 19.1678 20.4288 18.7074 20.7784 18.2265H34.0841C34.8919 18.2265 35.5489 17.5694 35.5489 16.7616V14.4179C35.5489 13.6101 34.8919 12.953 34.0841 12.953H22.8666C22.9413 12.3698 22.9711 11.7822 22.9566 11.1952H43.9153C44.4007 11.1952 44.7942 10.8017 44.7942 10.3163C44.7942 9.83093 44.4007 9.43741 43.9153 9.43741H22.779C22.6724 8.84268 22.5213 8.25452 22.3206 7.6796H43.9154C44.4008 7.6796 44.7943 7.28608 44.7943 6.80069C44.7943 6.3153 44.4008 5.92179 43.9154 5.92179H21.5312C20.9571 4.90237 20.1659 3.8335 19.1454 2.926H37.6771C38.1625 2.926 38.556 2.53249 38.556 2.0471C38.556 1.56171 38.1625 1.16819 37.6771 1.16819H16.5327C12.2471 -0.925011 6.92027 -0.196573 3.36375 3.35995C1.24102 5.48268 0.046875 8.30444 0.00140625 11.3053C-0.00597656 11.7907 0.381563 12.19 0.866836 12.1974C1.34836 12.2023 1.7516 11.8173 1.75898 11.332C1.79754 8.79054 2.80887 6.40073 4.60664 4.60296C8.39906 0.810653 14.5697 0.810653 18.3621 4.60296C22.1545 8.39538 22.1545 14.566 18.3621 18.3584C14.5697 22.1507 8.39906 22.1507 4.60664 18.3584C3.6402 17.392 2.90227 16.2615 2.41324 14.9983C2.23793 14.5456 1.72898 14.3205 1.27629 14.4959C0.823594 14.6711 0.598711 15.1802 0.773906 15.6329C1.35176 17.1257 2.22305 18.461 3.36363 19.6014C5.54309 21.7807 8.3877 22.8962 11.25 22.9541V31.207C8.6032 32.9499 6.03469 35.1973 3.87551 37.5775C1.38668 40.3008 0.0152344 43.867 0 47.5939V50.5192C0 53.9507 2.7416 56.7506 6.14449 56.8387C7.50527 58.7449 9.73629 59.9916 12.2549 59.9916C14.7717 59.9916 17.0012 58.7467 18.3623 56.8429H41.6146C42.9753 58.7494 45.2065 59.9963 47.7253 59.9963C50.2458 59.9963 52.4782 58.7477 53.8388 56.8392C57.2494 56.7598 60 53.9564 60 50.5191V49.2383C60 46.2315 59.6804 43.2482 59.0509 40.3243ZM33.7911 14.7107V16.4685H21.8266C22.101 15.8983 22.3274 15.3107 22.5022 14.7107H33.7911ZM7.23012 41.3745L5.82012 43.1149C5.33953 43.7082 4.62504 44.0484 3.86004 44.0484H2.24414C2.50406 43.12 2.86605 42.2238 3.32344 41.3746L7.23012 41.3745ZM10.3058 34.015C12.9137 32.0913 16.1348 30.0079 19.158 28.7744H26.1525L26.0814 28.8323C26.0774 28.8356 26.0734 28.8389 26.0694 28.8421C23.0612 31.3819 21.5052 33.173 19.7462 36.1366H7.79578C8.6052 35.3956 9.44273 34.686 10.3058 34.015ZM12.2549 58.2337C10.1884 58.2337 8.37398 57.1389 7.36242 55.5009C7.35539 55.4896 7.34871 55.4782 7.34121 55.4671C6.81563 54.6026 6.5127 53.5893 6.5127 52.5066C6.5127 49.3488 9.08859 46.7796 12.2549 46.7796C15.4212 46.7796 17.9971 49.3487 17.9971 52.5066C17.9971 55.6646 15.4211 58.2337 12.2549 58.2337ZM47.7252 58.2385C44.5589 58.2385 41.983 55.6694 41.983 52.5114C41.983 49.3535 44.5589 46.7844 47.7252 46.7844C50.8915 46.7844 53.4674 49.3535 53.4674 52.5114C53.4674 55.6693 50.8915 58.2385 47.7252 58.2385ZM56.4994 44.3571C55.2867 44.3571 54.1363 43.7737 53.4219 42.7968L52.719 41.8355C52.6281 41.7111 52.6646 41.5938 52.6945 41.5348C52.7248 41.4752 52.7992 41.375 52.9562 41.375H57.4733C57.6683 42.3629 57.8275 43.3573 57.9483 44.3572H56.4994V44.3571Z" fill="black"/>
<path d="M12.2656 48.6511C10.1333 48.6511 8.39844 50.3829 8.39844 52.5115C8.39844 54.6401 10.1333 56.3718 12.2656 56.3718C14.398 56.3718 16.1328 54.6401 16.1328 52.5115C16.1328 50.3829 14.398 48.6511 12.2656 48.6511ZM12.2656 54.614C11.1025 54.614 10.1562 53.6708 10.1562 52.5115C10.1562 51.3522 11.1025 50.4089 12.2656 50.4089C13.4287 50.4089 14.375 51.3522 14.375 52.5115C14.375 53.6708 13.4287 54.614 12.2656 54.614Z" fill="black"/>
<path d="M47.7246 48.6511C45.5923 48.6511 43.8574 50.3829 43.8574 52.5115C43.8574 54.6401 45.5923 56.3718 47.7246 56.3718C49.857 56.3718 51.5918 54.6401 51.5918 52.5115C51.5918 50.3829 49.8571 48.6511 47.7246 48.6511ZM47.7246 54.614C46.5615 54.614 45.6152 53.6708 45.6152 52.5115C45.6152 51.3522 46.5615 50.4089 47.7246 50.4089C48.8877 50.4089 49.834 51.3522 49.834 52.5115C49.834 53.6708 48.8878 54.614 47.7246 54.614Z" fill="black"/>
<path d="M44.8207 37.9049H44.8218C45.7839 37.9049 46.606 37.2509 46.8209 36.3143C47.3501 33.924 48.1662 31.262 49.0194 28.898C49.1515 28.4499 49.0669 27.9783 48.7872 27.6042C48.5079 27.2308 48.0805 27.0167 47.6145 27.0167H42.331C35.8339 26.9998 29.7451 30.4137 26.3362 35.9971C26.0925 36.3762 26.0754 36.8573 26.2913 37.2528C26.5075 37.6486 26.9221 37.8946 27.3728 37.8946L44.8207 37.9049ZM42.331 28.7745H47.2014C46.4001 30.9974 45.6435 33.5418 45.1076 35.9212C45.0771 36.0542 44.9596 36.1471 44.8219 36.1471C44.8219 36.1471 44.8219 36.1471 44.8218 36.1471L42.7832 36.1459L43.2575 34.0058C43.6174 32.5546 42.418 30.8153 40.7243 30.843C39.4985 30.843 38.4567 31.6803 38.1911 32.879L37.4678 36.1426L28.3453 36.1372C31.5203 31.5164 36.7085 28.7745 42.331 28.7745ZM39.2679 36.1438L39.9072 33.2594C39.9931 32.8716 40.3292 32.6008 40.7242 32.6008C41.1196 32.6097 41.6366 32.9629 41.5412 33.6255L40.9828 36.1449L39.2679 36.1438Z" fill="black"/>
<path d="M38.543 39.5706C38.0576 39.5706 37.6641 39.9641 37.6641 40.4495C37.6641 40.9349 38.0576 41.3284 38.543 41.3284H41.2856C41.771 41.3284 42.1645 40.9349 42.1645 40.4495C42.1645 39.9641 41.771 39.5706 41.2856 39.5706H38.543Z" fill="black"/>
<path d="M43.9152 19.9841H23.1543C22.6689 19.9841 22.2754 20.3776 22.2754 20.863C22.2754 21.3484 22.6689 21.7419 23.1543 21.7419H43.9152C44.4006 21.7419 44.7941 21.3484 44.7941 20.863C44.7941 20.3776 44.4006 19.9841 43.9152 19.9841Z" fill="black"/>
<path d="M43.9153 16.4685H38.1855C37.7002 16.4685 37.3066 16.862 37.3066 17.3474C37.3066 17.8328 37.7002 18.2263 38.1855 18.2263H43.9153C44.4007 18.2263 44.7942 17.8328 44.7942 17.3474C44.7942 16.862 44.4007 16.4685 43.9153 16.4685Z" fill="black"/>
<path d="M5.86181 5.85889C4.82998 6.89073 4.82986 8.56979 5.86181 9.60174C6.81337 10.5443 8.50521 10.6853 9.60466 9.60174C10.6365 8.56979 10.6365 6.89073 9.60466 5.85889C8.63845 4.8703 6.89037 4.83526 5.86181 5.85889ZM8.36177 8.35873C8.01525 8.70538 7.45123 8.70538 7.10482 8.35873C6.75818 8.01221 6.75818 7.4483 7.10482 7.10178C7.38232 6.84584 7.90076 6.69936 8.36177 7.10178C8.7083 7.4483 8.7083 8.01221 8.36177 8.35873Z" fill="black"/>
<path d="M13.3619 13.3587C12.3299 14.3906 12.3299 16.0696 13.3619 17.1014C14.2664 18.0376 16.0524 18.181 17.1047 17.1014C18.0409 16.1967 18.1842 14.4109 17.1047 13.3586C16.0728 12.3267 14.3938 12.3267 13.3619 13.3587ZM15.8617 15.8585C15.5971 16.1113 15.0524 16.2614 14.6049 15.8585C14.2583 15.512 14.2583 14.9481 14.6049 14.6016C14.8827 14.3458 15.4006 14.199 15.8618 14.6016C16.1145 14.8663 16.2647 15.4109 15.8617 15.8585Z" fill="black"/>
<path d="M15.8201 5.90114L5.90392 15.8173C5.56067 16.1606 5.56067 16.7171 5.90392 17.0602C6.17872 17.3137 6.6906 17.4588 7.14681 17.0602L17.063 7.14403C17.4062 6.80079 17.4062 6.24427 17.063 5.90114C16.7199 5.55802 16.1633 5.55802 15.8201 5.90114Z" fill="black"/>
</g>
<defs>
<clipPath id="clip0_233_460">
<rect width="60" height="60" fill="white"/>
</clipPath>
</defs>
</svg>
