<svg width="60" height="60" viewBox="0 0 60 60" fill="none" xmlns="http://www.w3.org/2000/svg">
<g clip-path="url(#clip0_233_440)">
<path d="M56.25 20H55V18.75C55 16.75 53.25 15 51.25 15H50V13.75C50 11.75 48.25 10 46.25 10H3.75C1.75 10 0 11.75 0 13.75V38.75C0 40.75 1.75 42.5 3.75 42.5H5V43.75C5 45.75 6.75 47.5 8.75 47.5H10V48.75C10 50.75 11.75 52.5 13.75 52.5H56.25C58.25 52.5 60 50.75 60 48.75V23.75C60 21.75 58.25 20 56.25 20ZM2.5 38.75V13.75C2.5 13 3 12.5 3.75 12.5H46.25C47 12.5 47.5 13 47.5 13.75V38.75C47.5 39.5 47 40 46.25 40H3.75C3 40 2.5 39.5 2.5 38.75ZM7.5 43.75V42.5H46.25C48.25 42.5 50 40.75 50 38.75V17.5H51.25C52 17.5 52.5 18 52.5 18.75V43.75C52.5 44.5 52 45 51.25 45H8.75C8 45 7.5 44.5 7.5 43.75ZM57.5 48.75C57.5 49.5 57 50 56.25 50H13.75C13 50 12.5 49.5 12.5 48.75V47.5H51.25C53.25 47.5 55 45.75 55 43.75V22.5H56.25C57 22.5 57.5 23 57.5 23.75V48.75Z" fill="black"/>
<path d="M43.75 20C41.75 20 40 18.25 40 16.25C40 15.5 39.5 15 38.75 15H11.25C10.5 15 10 15.5 10 16.25C10 18.25 8.25 20 6.25 20C5.5 20 5 20.5 5 21.25V31.25C5 32 5.5 32.5 6.25 32.5C8.25 32.5 10 34.25 10 36.25C10 37 10.5 37.5 11.25 37.5H38.75C39.5 37.5 40 37 40 36.25C40 34.25 41.75 32.5 43.75 32.5C44.5 32.5 45 32 45 31.25V21.25C45 20.5 44.5 20 43.75 20ZM30 26.25C30 31 27.75 35 25 35C22.25 35 20 31 20 26.25C20 21.5 22.25 17.5 25 17.5C27.75 17.5 30 21.5 30 26.25ZM7.5 30.25V22.25C10 22 12 20 12.25 17.5H20.25C18.5 19.5 17.5 22.75 17.5 26.25C17.5 29.75 18.5 33 20.25 35H12.25C12 32.5 10 30.5 7.5 30.25ZM42.5 30.25C40 30.75 38 32.75 37.5 35H29.5C31.25 33 32.25 29.75 32.25 26.25C32.25 22.75 31.5 19.5 29.75 17.5H37.5C38 20 40 22 42.5 22.25V30.25Z" fill="black"/>
</g>
<defs>
<clipPath id="clip0_233_440">
<rect width="60" height="60" fill="white"/>
</clipPath>
</defs>
</svg>
