<svg width="60" height="60" viewBox="0 0 60 60" fill="none" xmlns="http://www.w3.org/2000/svg">
<path d="M56.25 51.5624H55.3125V48.7499C55.3125 48.5013 55.2137 48.2628 55.0379 48.087C54.8621 47.9112 54.6236 47.8124 54.375 47.8124H53.4375V25.3124H54.375C54.6236 25.3124 54.8621 25.2137 55.0379 25.0378C55.2137 24.862 55.3125 24.6236 55.3125 24.3749V20.6249C55.3169 20.597 55.3169 20.5685 55.3125 20.5405C55.3204 20.4783 55.3204 20.4153 55.3125 20.353L55.2562 20.1937L55.1531 20.053C55.1169 19.9997 55.0726 19.9523 55.0219 19.9124L54.9656 19.8562L30.5906 2.98117C30.4337 2.8723 30.2472 2.81396 30.0563 2.81396C29.8653 2.81396 29.6788 2.8723 29.5219 2.98117L5.14687 19.8562L5.09062 19.9124C5.03991 19.9523 4.99565 19.9997 4.95937 20.053L4.85625 20.1937L4.8 20.353C4.79206 20.4153 4.79206 20.4783 4.8 20.5405C4.75575 20.5583 4.71695 20.5874 4.6875 20.6249V24.3749C4.6875 24.6236 4.78627 24.862 4.96209 25.0378C5.1379 25.2137 5.37636 25.3124 5.625 25.3124H6.5625V47.8124H5.625C5.37636 47.8124 5.1379 47.9112 4.96209 48.087C4.78627 48.2628 4.6875 48.5013 4.6875 48.7499V51.5624H3.75C3.50136 51.5624 3.2629 51.6612 3.08709 51.837C2.91127 52.0128 2.8125 52.2513 2.8125 52.4999V56.2499C2.8125 56.4986 2.91127 56.737 3.08709 56.9128C3.2629 57.0887 3.50136 57.1874 3.75 57.1874H56.25C56.4986 57.1874 56.7371 57.0887 56.9129 56.9128C57.0887 56.737 57.1875 56.4986 57.1875 56.2499V52.4999C57.1875 52.2513 57.0887 52.0128 56.9129 51.837C56.7371 51.6612 56.4986 51.5624 56.25 51.5624ZM51.5625 47.8124H49.6875V25.3124H51.5625V47.8124ZM40.3125 47.8124V25.3124H47.8125V47.8124H40.3125ZM25.3125 47.8124V25.3124H34.6875V47.8124H25.3125ZM12.1875 47.8124V25.3124H19.6875V47.8124H12.1875ZM21.5625 25.3124H23.4375V47.8124H21.5625V25.3124ZM36.5625 25.3124H38.4375V47.8124H36.5625V25.3124ZM53.4375 23.4374H6.5625V21.5624H53.4375V23.4374ZM30 4.89367L51.375 19.6874H8.625L30 4.89367ZM8.4375 25.3124H10.3125V47.8124H8.4375V25.3124ZM6.5625 49.6874H53.4375V51.5624H6.5625V49.6874ZM55.3125 55.3124H4.6875V53.4374H55.3125V55.3124Z" fill="black"/>
<path d="M25.3125 16.875H34.6875C34.9361 16.875 35.1746 16.7762 35.3504 16.6004C35.5262 16.4246 35.625 16.1861 35.625 15.9375C35.625 15.6888 35.5262 15.4504 35.3504 15.2745C35.1746 15.0987 34.9361 15 34.6875 15H33.6188C33.4029 14.2056 32.9316 13.5043 32.2776 13.0043C31.6236 12.5043 30.8232 12.2334 30 12.2334C29.1768 12.2334 28.3764 12.5043 27.7224 13.0043C27.0684 13.5043 26.5971 14.2056 26.3812 15H25.3125C25.0639 15 24.8254 15.0987 24.6496 15.2745C24.4738 15.4504 24.375 15.6888 24.375 15.9375C24.375 16.1861 24.4738 16.4246 24.6496 16.6004C24.8254 16.7762 25.0639 16.875 25.3125 16.875ZM30 14.0625C30.3272 14.0644 30.6482 14.152 30.9311 14.3165C31.214 14.4809 31.4489 14.7166 31.6125 15H28.3875C28.5511 14.7166 28.786 14.4809 29.0689 14.3165C29.3518 14.152 29.6728 14.0644 30 14.0625Z" fill="black"/>
</svg>
