<svg width="60" height="60" viewBox="0 0 60 60" fill="none" xmlns="http://www.w3.org/2000/svg">
<g clip-path="url(#clip0_233_451)">
<path d="M59.4085 36.8097C57.6092 34.4107 55.81 34.4107 51.4118 36.7098L50.3122 37.3874V19.9168H54.3105C54.7103 19.9168 55.1102 19.7168 55.2101 19.317C55.3101 18.9172 55.2101 18.5173 54.9103 18.2174L36.9179 2.02416C33.8192 -0.674719 29.3211 -0.674719 26.3223 2.02416L8.42971 18.3173C8.12984 18.6172 8.02992 19.017 8.12984 19.4169C8.22975 19.7168 8.62967 20.0167 9.02946 20.0167H13.1278V33.325C10.7711 33.9024 8.49191 35.1711 7.03037 36.1049V34.0109H0.0332031V60.0001H7.03025V57.0014H20.0248C22.024 57.0014 24.1231 56.8014 26.1222 56.6016L39.1168 54.6024C39.6166 54.6024 40.1163 54.5024 40.5162 54.4024C41.7157 54.2024 42.8153 53.6027 43.8149 52.7031L58.9086 40.808C60.1083 39.8084 60.3081 38.0092 59.4085 36.8097ZM11.6284 18.0175L27.6217 3.52353C29.9208 1.52433 33.3194 1.52433 35.5184 3.52353L51.5117 18.0175H49.1127C48.513 18.0175 48.1132 18.4173 48.1132 19.017V38.7425L42.8153 42.0074C41.6398 42.6931 39.0244 42.8987 36.5681 42.9066C37.0001 42.0258 36.7848 40.9565 35.9182 39.6084C34.3189 37.3093 31.62 35.9099 28.7212 35.9099H28.6213H24.8228C22.7237 35.9099 20.7245 35.3102 19.1252 34.1107C18.0256 33.311 16.7262 32.9112 15.1269 33.0111V19.0171C15.1269 18.4174 14.7271 18.0176 14.1273 18.0176L11.6284 18.0175ZM5.03116 58.0009H2.03241V36.01H5.03116V37.5094V57.0012V58.0009ZM57.7093 39.5086L42.5156 51.3036L42.4156 51.4035C41.716 52.0033 41.0162 52.4031 40.2166 52.5031H40.1167C39.7169 52.603 39.417 52.603 39.0171 52.603L25.8226 54.6022C23.9234 54.9021 21.9242 55.002 20.025 55.002H7.03037V38.5089C8.55025 37.4323 11.3541 35.7544 13.9167 35.2281C14.0469 35.2587 14.187 35.2571 14.3274 35.2103C15.2378 35.0889 16.0369 35.0792 16.7262 35.246C17.1252 35.3665 17.4953 35.5501 17.826 35.81C19.7252 37.2095 22.1242 38.0091 24.7231 38.0091H24.823H28.6215C30.9206 38.0091 32.9197 39.0086 34.3191 41.0078C34.5877 41.4107 34.7205 41.813 34.7487 42.0946C34.7432 42.1396 34.7335 42.1782 34.7189 42.2073C34.519 42.6071 33.5194 43.007 31.8201 43.007C31.5857 43.007 31.3823 43.0841 31.2209 43.207C31.0759 43.207 30.94 43.207 30.8204 43.207H22.224C19.1253 43.207 17.226 44.7064 17.226 47.2053C17.226 47.805 17.6258 48.2048 18.2256 48.2048C18.8253 48.2048 19.2251 47.805 19.2251 47.2053C19.2251 46.7055 19.2251 45.2061 22.2239 45.2061H30.7203C31.0028 45.2061 31.3763 45.2061 31.9198 45.2061C31.9532 45.2061 31.985 45.2061 32.0197 45.2061C32.1196 45.2061 32.3196 45.2061 32.5195 45.2061C37.2176 45.306 41.6157 45.2061 43.9148 44.0066L52.5113 38.7087C56.7095 36.6096 57.1093 37.1094 57.909 38.3089C58.1091 38.6089 58.1091 39.2087 57.7093 39.5086Z" fill="black"/>
<path d="M26.0217 21.0161C28.2208 21.0161 30.02 19.2169 30.02 17.0178C30.02 14.8188 28.2208 13.0195 26.0217 13.0195C23.8227 13.0195 22.0234 14.8188 22.0234 17.0178C22.0234 19.2169 23.8227 21.0161 26.0217 21.0161ZM26.0217 15.0186C27.1213 15.0186 28.0209 15.9182 28.0209 17.0178C28.0209 18.1174 27.1213 19.017 26.0217 19.017C24.9222 19.017 24.0225 18.1174 24.0225 17.0178C24.0225 15.9182 24.9222 15.0186 26.0217 15.0186Z" fill="black"/>
<path d="M38.0178 25.0146C35.8188 25.0146 34.0195 26.8139 34.0195 29.0129C34.0195 31.212 35.8188 33.0112 38.0178 33.0112C40.2169 33.0112 42.0161 31.212 42.0161 29.0129C42.0161 26.8139 40.2169 25.0146 38.0178 25.0146ZM38.0178 31.0122C36.9182 31.0122 36.0186 30.1125 36.0186 29.0129C36.0186 27.9134 36.9182 27.0137 38.0178 27.0137C39.1174 27.0137 40.017 27.9134 40.017 29.0129C40.017 30.1125 39.1174 31.0122 38.0178 31.0122Z" fill="black"/>
<path d="M23.0231 33.0113C23.3229 33.0113 23.5229 32.9113 23.7227 32.7114L41.7153 14.7189C42.115 14.3191 42.115 13.7193 41.7153 13.3194C41.3155 12.9195 40.7157 12.9196 40.3158 13.3194L22.3233 31.3119C21.9235 31.7117 21.9235 32.3115 22.3233 32.7114C22.5232 32.9113 22.7232 33.0113 23.0231 33.0113Z" fill="black"/>
</g>
<defs>
<clipPath id="clip0_233_451">
<rect width="60" height="60" fill="white"/>
</clipPath>
</defs>
</svg>
