<svg width="60" height="60" viewBox="0 0 60 60" fill="none" xmlns="http://www.w3.org/2000/svg">
<g clip-path="url(#clip0_233_415)">
<path d="M45.1614 43.3192L39.7007 48.769L36.8712 45.9174C36.5809 45.6248 36.1083 45.6224 35.8151 45.9121C35.5219 46.2018 35.5199 46.674 35.8097 46.9666L39.1673 50.3501C39.3074 50.4913 39.4975 50.5704 39.6964 50.5709H39.6983C39.8962 50.5709 40.0863 50.4927 40.2264 50.353L46.2175 44.3737C46.4106 44.1859 46.4874 43.9098 46.4188 43.6497C46.3503 43.3896 46.147 43.1867 45.8869 43.1183C45.6262 43.0499 45.3491 43.127 45.1614 43.3192Z" fill="black"/>
<path d="M41.0139 33.6674C39.7496 33.6669 38.4917 33.8479 37.2795 34.2056V5.71476C37.2756 2.5599 34.714 0.00339703 31.5533 0H11.6363C8.47515 0.00339703 5.91356 2.5599 5.91016 5.71476V49.1966C5.91356 52.3515 8.47515 54.908 11.6363 54.9114H30.5983C34.3872 59.7788 41.0533 61.3715 46.6399 58.7437C52.2269 56.1159 55.2393 49.9716 53.8899 43.957C52.5406 37.9418 47.1898 33.6664 41.0139 33.6674ZM11.6363 1.49081H31.5533C33.8898 1.49323 35.7832 3.38295 35.7857 5.71476V7.45403H34.0429C33.6306 7.45403 33.296 7.78791 33.296 8.19944C33.296 8.61096 33.6306 8.94484 34.0429 8.94484H35.7857V34.7462C34.4276 35.3344 33.1779 36.1453 32.0887 37.1459H30.4082C29.9953 37.1459 29.6613 37.4798 29.6613 37.8913C29.6613 38.3029 29.9953 38.6367 30.4082 38.6367H30.6965C29.3374 40.3328 28.4218 42.339 28.0314 44.4757H7.40393V8.94484H27.6944C28.1067 8.94484 28.4413 8.61096 28.4413 8.19944C28.4413 7.78791 28.1067 7.45403 27.6944 7.45403H7.40393V5.71476C7.40636 3.38295 9.29984 1.49323 11.6363 1.49081ZM11.6363 53.4206C9.29984 53.4181 7.40636 51.5284 7.40393 49.1966V45.9665H27.8485C27.8296 46.2543 27.8189 46.544 27.8189 46.8362C27.816 49.1486 28.4272 51.4202 29.5903 53.4206H11.6363ZM41.0139 58.5142C37.2697 58.5137 33.7526 56.7239 31.5533 53.7001V53.4206H31.3549C28.1816 48.7953 28.7569 42.5705 32.7242 38.6023C32.9425 38.5324 33.1166 38.3674 33.1973 38.1534C37.0786 34.6734 42.8004 34.1794 47.2229 36.9421C51.6459 39.7053 53.7003 45.0571 52.26 50.0624C50.8192 55.0672 46.2314 58.5151 41.0139 58.5142Z" fill="black"/>
<path d="M30.1473 8.94491H31.5307C31.9435 8.94491 32.2776 8.61103 32.2776 8.1995C32.2776 7.78798 31.9435 7.4541 31.5307 7.4541H30.1473C29.7344 7.4541 29.4004 7.78798 29.4004 8.1995C29.4004 8.61103 29.7344 8.94491 30.1473 8.94491Z" fill="black"/>
<path d="M21.5946 47.0847C20.1509 47.0847 18.9805 48.2528 18.9805 49.6936C18.9805 51.1345 20.1509 52.3025 21.5946 52.3025C23.0383 52.3025 24.2087 51.1345 24.2087 49.6936C24.2067 48.2533 23.0378 47.0862 21.5946 47.0847ZM21.5946 50.8117C20.9756 50.8117 20.4742 50.3109 20.4742 49.6936C20.4742 49.0763 20.9756 48.5755 21.5946 48.5755C22.2131 48.5755 22.7149 49.0763 22.7149 49.6936C22.7139 50.3109 22.2131 50.8112 21.5946 50.8117Z" fill="black"/>
<path d="M10.6902 17.7655H14.873C15.2854 17.7655 15.6199 17.4316 15.6199 17.0201C15.6199 16.6085 15.2854 16.2747 14.873 16.2747H10.6902C10.2779 16.2747 9.94336 16.6085 9.94336 17.0201C9.94336 17.4316 10.2779 17.7655 10.6902 17.7655Z" fill="black"/>
<path d="M18.3094 17.7655H20.9984C21.4107 17.7655 21.7453 17.4316 21.7453 17.0201C21.7453 16.6085 21.4107 16.2747 20.9984 16.2747H18.3094C17.897 16.2747 17.5625 16.6085 17.5625 17.0201C17.5625 17.4316 17.897 17.7655 18.3094 17.7655Z" fill="black"/>
<path d="M24.582 17.0201C24.582 17.4316 24.9166 17.7655 25.3289 17.7655H32.4988C32.9116 17.7655 33.2456 17.4316 33.2456 17.0201C33.2456 16.6085 32.9116 16.2747 32.4988 16.2747H25.3289C24.9166 16.2747 24.582 16.6085 24.582 17.0201Z" fill="black"/>
<path d="M10.6902 24.7225H17.8606C18.2729 24.7225 18.6075 24.3886 18.6075 23.9771C18.6075 23.5656 18.2729 23.2317 17.8606 23.2317H10.6902C10.2779 23.2317 9.94336 23.5656 9.94336 23.9771C9.94336 24.3886 10.2779 24.7225 10.6902 24.7225Z" fill="black"/>
<path d="M25.4785 24.7225C25.8908 24.7225 26.2254 24.3886 26.2254 23.9771C26.2254 23.5656 25.8908 23.2317 25.4785 23.2317H21.2957C20.8834 23.2317 20.5488 23.5656 20.5488 23.9771C20.5488 24.3886 20.8834 24.7225 21.2957 24.7225H25.4785Z" fill="black"/>
<path d="M32.4998 23.2317H29.8113C29.399 23.2317 29.0645 23.5656 29.0645 23.9771C29.0645 24.3886 29.399 24.7225 29.8113 24.7225H32.4998C32.9127 24.7225 33.2467 24.3886 33.2467 23.9771C33.2467 23.5656 32.9127 23.2317 32.4998 23.2317Z" fill="black"/>
<path d="M12.4831 30.1887H10.6902C10.2779 30.1887 9.94336 30.5226 9.94336 30.9341C9.94336 31.3456 10.2779 31.6795 10.6902 31.6795H12.4831C12.8954 31.6795 13.23 31.3456 13.23 30.9341C13.23 30.5226 12.8954 30.1887 12.4831 30.1887Z" fill="black"/>
<path d="M20.1015 30.1887H15.9188C15.5064 30.1887 15.1719 30.5226 15.1719 30.9341C15.1719 31.3456 15.5064 31.6795 15.9188 31.6795H20.1015C20.5139 31.6795 20.8484 31.3456 20.8484 30.9341C20.8484 30.5226 20.5139 30.1887 20.1015 30.1887Z" fill="black"/>
<path d="M32.4984 30.1887H24.4324C24.0196 30.1887 23.6855 30.5226 23.6855 30.9341C23.6855 31.3456 24.0196 31.6795 24.4324 31.6795H32.4984C32.9113 31.6795 33.2453 31.3456 33.2453 30.9341C33.2453 30.5226 32.9113 30.1887 32.4984 30.1887Z" fill="black"/>
<path d="M12.4831 37.146H10.6902C10.2779 37.146 9.94336 37.4799 9.94336 37.8914C9.94336 38.3029 10.2779 38.6368 10.6902 38.6368H12.4831C12.8954 38.6368 13.23 38.3029 13.23 37.8914C13.23 37.4799 12.8954 37.146 12.4831 37.146Z" fill="black"/>
<path d="M26.0766 37.146H15.9188C15.5064 37.146 15.1719 37.4799 15.1719 37.8914C15.1719 38.3029 15.5064 38.6368 15.9188 38.6368H26.0766C26.489 38.6368 26.8235 38.3029 26.8235 37.8914C26.8235 37.4799 26.489 37.146 26.0766 37.146Z" fill="black"/>
</g>
<defs>
<clipPath id="clip0_233_415">
<rect width="60" height="60" fill="white"/>
</clipPath>
</defs>
</svg>
