<svg width="60" height="60" viewBox="0 0 60 60" fill="none" xmlns="http://www.w3.org/2000/svg">
<path d="M25.886 28.5863L25.0072 27.6976C24.8117 27.8908 24.6854 28.1431 24.6478 28.4153L25.886 28.5863ZM31.2025 34.0838L31.3852 35.3203C31.6585 35.2801 31.9107 35.1503 32.1025 34.9513L31.2025 34.0838ZM25 35.0001L23.7617 34.8291C23.7079 35.2188 23.8407 35.6111 24.1203 35.8881C24.3998 36.1651 24.7934 36.2941 25.1827 36.2366L25 35.0001ZM20 41.2501C20.6903 41.2501 21.25 40.6903 21.25 40.0001C21.25 39.3096 20.6903 38.7501 20 38.7501V41.2501ZM50 51.2501C50.6902 51.2501 51.25 50.6903 51.25 50.0001C51.25 49.3096 50.6902 48.7501 50 48.7501V51.2501ZM26.765 29.4753L43.2362 13.189L41.4785 11.4113L25.0072 27.6976L26.765 29.4753ZM46.5 16.4113L30.3025 33.2163L32.1025 34.9513L48.3 18.1462L46.5 16.4113ZM31.0197 32.8473L24.8173 33.7636L25.1827 36.2366L31.3852 35.3203L31.0197 32.8473ZM26.2382 35.1711L27.1242 28.7576L24.6478 28.4153L23.7617 34.8291L26.2382 35.1711ZM46.3457 13.0824C47.3432 13.942 47.4137 15.4632 46.5 16.4113L48.3 18.1462C50.21 16.1646 50.0627 12.9852 47.9777 11.1885L46.3457 13.0824ZM43.2362 13.189C44.0865 12.3483 45.44 12.3019 46.3457 13.0824L47.9777 11.1885C46.0845 9.55715 43.2555 9.6541 41.4785 11.4113L43.2362 13.189ZM20 38.7501H15V41.2501H20V38.7501ZM15 51.2501H50V48.7501H15V51.2501ZM8.75 45.0001C8.75 48.4518 11.5482 51.2501 15 51.2501V48.7501C12.9289 48.7501 11.25 47.0711 11.25 45.0001H8.75ZM15 38.7501C11.5482 38.7501 8.75 41.5483 8.75 45.0001H11.25C11.25 42.9291 12.9289 41.2501 15 41.2501V38.7501Z" fill="white"/>
</svg>
