<svg width="100" height="100" viewBox="0 0 100 100" fill="none" xmlns="http://www.w3.org/2000/svg">
<g clip-path="url(#clip0_2_2349)">
<path d="M85.4206 25.1167V25.0001H85.3372C81.3212 20.0533 76.252 16.0647 70.4992 13.3252C64.7464 10.5856 58.4549 9.16406 52.0831 9.16406C45.7113 9.16406 39.4197 10.5856 33.6669 13.3252C27.9141 16.0647 22.845 20.0533 18.8289 25.0001H18.7497V25.1167C12.5553 32.739 9.17383 42.2615 9.17383 52.0834C9.17383 61.9053 12.5553 71.4278 18.7497 79.0501V79.1667H18.8331C22.8491 84.1136 27.9183 88.1021 33.6711 90.8416C39.4239 93.5812 45.7154 95.0028 52.0872 95.0028C58.459 95.0028 64.7506 93.5812 70.5034 90.8416C76.2562 88.1021 81.3253 84.1136 85.3414 79.1667H85.4289V79.0501C91.6233 71.4278 95.0048 61.9053 95.0048 52.0834C95.0048 42.2615 91.6233 32.739 85.4289 25.1167H85.4206ZM54.1664 25.0001V13.6334C56.6354 14.6696 58.8558 16.2189 60.6804 18.1786C62.5051 20.1383 63.8922 22.4635 64.7497 25.0001H54.1664ZM66.3956 29.1667C68.6261 35.8917 69.8245 42.9159 69.9497 50.0001H54.1664V29.1667H66.3956ZM49.9997 13.6334V25.0001H39.4164C40.274 22.4635 41.6611 20.1383 43.4857 18.1786C45.3103 16.2189 47.5308 14.6696 49.9997 13.6334ZM49.9997 29.1667V50.0001H34.2164C34.3417 42.9159 35.54 35.8917 37.7706 29.1667H49.9997ZM30.0539 50.0001H13.4414C13.8362 42.4742 16.4325 35.2301 20.9081 29.1667H33.3414C31.2657 35.9209 30.1616 42.935 30.0539 50.0001ZM30.0539 54.1667C30.1603 61.2316 31.2671 68.2458 33.3414 75.0001H20.9081C16.4325 68.9368 13.8362 61.6926 13.4414 54.1667H30.0539ZM34.2206 54.1667H49.9997V75.0001H37.7706C35.54 68.2751 34.3417 61.2509 34.2164 54.1667H34.2206ZM49.9997 79.1667V90.5334C47.5308 89.4972 45.3103 87.9479 43.4857 85.9882C41.6611 84.0285 40.274 81.7033 39.4164 79.1667H49.9997ZM54.1664 90.5334V79.1667H64.7497C63.8922 81.7033 62.5051 84.0285 60.6804 85.9882C58.8558 87.9479 56.6354 89.4972 54.1664 90.5334ZM54.1664 75.0001V54.1667H69.9497C69.8245 61.2509 68.6261 68.2751 66.3956 75.0001H54.1664ZM74.1122 54.1667H90.7247C90.3299 61.6926 87.7336 68.9368 83.2581 75.0001H70.8247C72.9004 68.246 74.0045 61.2318 74.1122 54.1667ZM74.1122 50.0001C74.0059 42.9352 72.899 35.9211 70.8247 29.1667H83.2581C87.7336 35.2301 90.3299 42.4742 90.7247 50.0001H74.1122ZM79.7456 25.0001H69.3247C67.8873 21.3616 65.8586 17.9856 63.3206 15.0084C69.5475 16.9073 75.1961 20.3435 79.7456 25.0001ZM40.8456 15.0084C38.309 17.9859 36.2817 21.3619 34.8456 25.0001H24.4164C28.9658 20.3435 34.6144 16.9073 40.8414 15.0084H40.8456ZM24.4206 79.1667H34.8414C36.2788 82.8053 38.3075 86.1813 40.8456 89.1584C34.6186 87.2595 28.97 83.8233 24.4206 79.1667ZM63.3206 89.1584C65.8571 86.181 67.8844 82.805 69.3206 79.1667H79.7456C75.1961 83.8233 69.5475 87.2595 63.3206 89.1584Z" fill="white"/>
</g>
<defs>
<clipPath id="clip0_2_2349">
<rect width="100" height="100" fill="white"/>
</clipPath>
</defs>
</svg>
