<svg width="150" height="150" viewBox="0 0 150 150" fill="none" xmlns="http://www.w3.org/2000/svg">
<g opacity="0.2">
<path d="M130.061 86.8564C129.369 86.8564 128.692 86.5049 128.306 85.8691C124.638 79.831 118.931 75.331 112.233 73.1982C111.155 72.8555 110.558 71.7012 110.9 70.623C111.243 69.5449 112.397 68.9473 113.476 69.293C121.116 71.7275 127.626 76.8574 131.807 83.7422C132.396 84.709 132.088 85.9717 131.118 86.5605C130.79 86.7627 130.424 86.8564 130.061 86.8564Z" fill="black"/>
<path d="M37.1458 80.8037C36.9407 80.8037 36.7298 80.7715 36.5218 80.707C27.7356 77.9092 20.4436 71.5049 16.5149 63.1377C16.0345 62.1123 16.4739 60.8906 17.4993 60.4102C18.5247 59.9268 19.7464 60.3691 20.2269 61.3945C23.6722 68.7305 30.0647 74.3467 37.7669 76.7988C38.845 77.1416 39.4427 78.2959 39.0999 79.374C38.8216 80.2471 38.013 80.8037 37.1458 80.8037Z" fill="black"/>
<path d="M103.424 86.8594C102.29 86.8594 101.373 85.9424 101.373 84.8086V67.998H48.624V82.7578H91.9482C93.082 82.7578 93.999 83.6748 93.999 84.8086C93.999 85.9424 93.082 86.8594 91.9482 86.8594H46.5732C45.4395 86.8594 44.5225 85.9424 44.5225 84.8086V65.9473C44.5225 64.8135 45.4395 63.8965 46.5732 63.8965H103.424C104.558 63.8965 105.475 64.8135 105.475 65.9473V84.8086C105.475 85.9395 104.558 86.8594 103.424 86.8594Z" fill="black"/>
<path d="M138.07 146.045H119.209C118.075 146.045 117.158 145.128 117.158 143.994V107.748C117.158 106.614 118.075 105.697 119.209 105.697H138.07C139.204 105.697 140.121 106.614 140.121 107.748C140.121 108.882 139.204 109.799 138.07 109.799H121.26V141.943H136.02V115.884C136.02 114.75 136.937 113.833 138.07 113.833C139.204 113.833 140.121 114.75 140.121 115.884V143.994C140.121 145.128 139.204 146.045 138.07 146.045Z" fill="black"/>
<path d="M30.5215 29.0713C30.3896 29.0713 30.2549 29.0596 30.123 29.0332C29.9912 29.0068 29.8623 28.9658 29.7393 28.916C29.6133 28.8633 29.4961 28.8018 29.3848 28.7256C29.2705 28.6523 29.168 28.5674 29.0713 28.4707C28.9775 28.377 28.8926 28.2715 28.8164 28.1602C28.7432 28.0488 28.6787 27.9287 28.6289 27.8057C28.5762 27.6826 28.5381 27.5537 28.5117 27.4219C28.4854 27.29 28.4707 27.1553 28.4707 27.0205C28.4707 26.8887 28.4854 26.7539 28.5117 26.6221C28.5381 26.4902 28.5762 26.3613 28.6289 26.2383C28.6787 26.1123 28.7432 25.9951 28.8164 25.8838C28.8926 25.7695 28.9775 25.667 29.0713 25.5703C29.168 25.4766 29.2705 25.3916 29.3848 25.3154C29.4961 25.2422 29.6133 25.1777 29.7393 25.1279C29.8623 25.0781 29.9912 25.0371 30.1201 25.0107C30.3867 24.958 30.6592 24.958 30.9229 25.0107C31.0547 25.0371 31.1836 25.0781 31.3066 25.1279C31.4297 25.1777 31.5498 25.2422 31.6611 25.3154C31.7725 25.3916 31.8779 25.4766 31.9717 25.5703C32.0684 25.667 32.1533 25.7695 32.2266 25.8838C32.3027 25.9951 32.3643 26.1123 32.417 26.2383C32.4668 26.3613 32.5078 26.4902 32.5342 26.6221C32.5605 26.7539 32.5723 26.8887 32.5723 27.0205C32.5723 27.1553 32.5605 27.29 32.5342 27.4219C32.5078 27.5537 32.4668 27.6826 32.417 27.8057C32.3643 27.9287 32.3027 28.0488 32.2266 28.1602C32.1533 28.2715 32.0684 28.377 31.9717 28.4707C31.8779 28.5674 31.7725 28.6523 31.6611 28.7256C31.5498 28.8018 31.4297 28.8633 31.3066 28.916C31.1836 28.9658 31.0547 29.0068 30.9229 29.0332C30.791 29.0596 30.6562 29.0713 30.5215 29.0713Z" fill="black"/>
<path d="M30.5215 44.3027H11.6602C10.5264 44.3027 9.60938 43.3857 9.60938 42.252V6.00586C9.60938 4.87207 10.5264 3.95508 11.6602 3.95508H30.5215C31.6553 3.95508 32.5723 4.87207 32.5723 6.00586V21.0381C32.5723 22.1719 31.6553 23.0889 30.5215 23.0889C29.3877 23.0889 28.4707 22.1719 28.4707 21.0381V8.05664H13.7109V40.2012H28.4707V33.5039C28.4707 32.3701 29.3877 31.4531 30.5215 31.4531C31.6553 31.4531 32.5723 32.3701 32.5723 33.5039V42.252C32.5723 43.3857 31.6553 44.3027 30.5215 44.3027Z" fill="black"/>
<path d="M143.994 109.799H113.956C112.822 109.799 111.905 108.882 111.905 107.748V100.928C111.905 96.252 108.103 92.4463 103.427 92.4463C102.293 92.4463 101.376 91.5293 101.376 90.3955V60.3574C101.376 59.2236 102.293 58.3066 103.427 58.3066C126.926 58.3066 146.045 77.4258 146.045 100.925V107.745C146.045 108.882 145.128 109.799 143.994 109.799ZM116.007 105.697H141.943V100.928C141.943 80.376 125.766 63.5332 105.478 62.4639V88.5146C111.442 89.4961 116.007 94.6904 116.007 100.931V105.697Z" fill="#970010"/>
<path d="M46.5732 91.6934C37.3418 91.6934 28.5527 88.7783 21.1523 83.2617C20.2441 82.585 20.0566 81.2988 20.7334 80.3906C21.4102 79.4824 22.6963 79.2949 23.6045 79.9717C29.7393 84.5449 36.9346 87.1406 44.5225 87.5361V61.4853C38.5576 60.5039 33.9932 55.3096 33.9932 49.0693V44.2998H8.05664V49.0693C8.05664 57.1406 10.5381 64.8721 15.2314 71.4316C15.8906 72.3516 15.6797 73.6348 14.7568 74.2939C13.8369 74.9531 12.5537 74.7422 11.8945 73.8193C6.7002 66.5596 3.95508 58.002 3.95508 49.0723V42.252C3.95508 41.1182 4.87207 40.2012 6.00586 40.2012H36.0439C37.1777 40.2012 38.0947 41.1182 38.0947 42.252V49.0723C38.0947 53.748 41.8975 57.5537 46.5732 57.5537C47.707 57.5537 48.624 58.4707 48.624 59.6045V89.6426C48.624 90.7734 47.707 91.6934 46.5732 91.6934Z" fill="#970010"/>
</g>
</svg>
