<svg width="150" height="150" viewBox="0 0 150 150" fill="none" xmlns="http://www.w3.org/2000/svg">
<g opacity="0.2">
<path d="M41.5811 93.5185C40.7871 93.5185 40.0312 93.0527 39.6973 92.2764C37.8545 87.9902 36.917 83.4258 36.917 78.706C36.917 59.7129 52.3682 44.2617 71.3613 44.2617C72.4951 44.2617 73.4121 45.1787 73.4121 46.3125C73.4121 47.4463 72.4951 48.3633 71.3613 48.3633C54.6299 48.3633 41.0186 61.9746 41.0186 78.706C41.0186 82.8633 41.8418 86.8828 43.4648 90.6562C43.9131 91.6963 43.4326 92.9033 42.3926 93.3516C42.126 93.4629 41.8506 93.5185 41.5811 93.5185Z" fill="black"/>
<path d="M71.3614 113.15C66.6475 113.15 62.0831 112.216 57.7969 110.376C57.1729 110.106 56.7217 109.547 56.5928 108.879C56.4639 108.211 56.6749 107.522 57.1553 107.042L99.6973 64.5029C100.178 64.0225 100.866 63.8115 101.534 63.9404C102.202 64.0693 102.762 64.5205 103.031 65.1445C104.874 69.4336 105.806 73.9951 105.806 78.706C105.806 97.6992 90.3545 113.15 71.3614 113.15ZM62.3145 107.681C65.2237 108.589 68.2559 109.049 71.3614 109.049C88.0928 109.049 101.704 95.4375 101.704 78.706C101.704 75.6035 101.244 72.5713 100.336 69.6621L62.3145 107.681Z" fill="black"/>
<path d="M30.249 104.848C29.5459 104.848 28.8604 104.484 28.4795 103.834C26.168 99.8994 24.4219 95.6895 23.2764 91.2949L14.5518 90.2871C13.5176 90.167 12.7354 89.291 12.7354 88.251V70.96C12.7354 69.9199 13.5146 69.0439 14.5488 68.9238L22.8311 67.9629C23.9473 62.9033 25.834 58.0898 28.459 53.6133L23.001 46.7227C22.3535 45.9053 22.4209 44.7363 23.1592 43.998L35.3848 31.7725C36.1201 31.0371 37.292 30.9697 38.1094 31.6143L44.6455 36.7939C49.0225 33.9961 53.7598 31.9248 58.7725 30.6182L59.7803 21.8936C59.9004 20.8594 60.7764 20.0771 61.8164 20.0771H79.1074C80.1475 20.0771 81.0234 20.8564 81.1436 21.8906L82.1045 30.1729C87.1729 31.292 92.0039 33.1875 96.4834 35.8213C97.459 36.3955 97.7871 37.6523 97.2129 38.6279C96.6387 39.6035 95.3818 39.9316 94.4062 39.3574C89.9004 36.7061 85.0049 34.8721 79.8604 33.8994C78.9785 33.7324 78.3076 33.0117 78.2051 32.1211L77.2822 24.1758H63.6475L62.6865 32.502C62.5869 33.3633 61.9541 34.0723 61.1074 34.2656C55.582 35.5342 50.3965 37.8047 45.6973 41.0156C44.9561 41.5225 43.9717 41.4873 43.2686 40.9307L36.999 35.9619L27.3574 45.6035L32.5664 52.1777C33.1055 52.8574 33.1582 53.8037 32.6982 54.5391C29.6807 59.3555 27.6182 64.626 26.5664 70.2012C26.3994 71.083 25.6787 71.7539 24.7881 71.8594L16.8428 72.7822V86.417L25.1689 87.3779C26.0303 87.4775 26.7393 88.1104 26.9326 88.957C27.9639 93.4541 29.6777 97.7578 32.0215 101.751C32.5957 102.727 32.2676 103.983 31.292 104.558C30.9609 104.754 30.6035 104.848 30.249 104.848Z" fill="black"/>
<path d="M80.9029 137.332H63.6119C62.5718 137.332 61.6959 136.553 61.5757 135.519L60.6148 127.236C55.5464 126.117 50.7183 124.222 46.2388 121.591C45.691 121.269 45.3248 120.712 45.2427 120.082C45.1636 119.452 45.3775 118.822 45.8257 118.371L57.1519 107.042L111.026 53.1738C111.474 52.7256 112.107 52.5088 112.737 52.5908C113.367 52.6728 113.923 53.0391 114.246 53.5869C116.554 57.5244 118.3 61.7344 119.446 66.123L128.17 67.1309C129.205 67.251 129.987 68.1269 129.987 69.167V86.458C129.987 87.498 129.208 88.374 128.173 88.4941L119.891 89.4551C118.775 94.5146 116.888 99.3281 114.263 103.805L119.721 110.692C120.369 111.51 120.301 112.679 119.563 113.417L107.337 125.643C106.602 126.378 105.43 126.445 104.613 125.801L98.0767 120.621C93.2925 123.68 88.0718 125.874 82.5347 127.143C81.4302 127.397 80.3316 126.706 80.0767 125.602C79.8218 124.497 80.5132 123.398 81.6177 123.144C87.1431 121.875 92.3287 119.604 97.0279 116.394C97.7691 115.887 98.7535 115.922 99.4566 116.479L105.726 121.447L115.368 111.806L110.159 105.231C109.62 104.552 109.567 103.605 110.027 102.87C113.044 98.0537 115.107 92.7832 116.159 87.208C116.326 86.3262 117.046 85.6553 117.937 85.5498L125.882 84.6269V70.9922L117.556 70.0312C116.695 69.9316 115.986 69.2988 115.793 68.4521C114.961 64.8281 113.686 61.3242 111.99 58.0078L50.6597 119.338C54.5035 121.304 58.5962 122.701 62.8619 123.507C63.7437 123.674 64.4146 124.395 64.5171 125.285L65.44 133.23H79.0806C79.271 132.173 80.2525 131.435 81.3336 131.558C82.4586 131.687 83.2642 132.706 83.1353 133.831L82.939 135.516C82.8189 136.55 81.9429 137.332 80.9029 137.332Z" fill="black"/>
<path d="M24.5944 145.978C21.7292 145.978 18.9548 145.4 16.3473 144.261C15.3102 143.807 14.8356 142.6 15.2868 141.56C15.7409 140.522 16.9479 140.048 17.988 140.502C20.0739 141.413 22.2975 141.876 24.5944 141.876C33.7145 141.876 41.1325 134.458 41.1325 125.338C41.1325 124.901 41.1178 124.509 41.0856 124.134C41.0358 123.533 41.2526 122.941 41.6803 122.517L57.152 107.045L113.918 50.2822C114.301 49.8984 114.823 49.6816 115.368 49.6816H129.77L141.94 37.5088L141.943 23.8066L126.293 39.457C125.909 39.8408 125.387 40.0576 124.842 40.0576C124.298 40.0576 123.776 39.8408 123.392 39.457L110.619 26.6777C109.819 25.8779 109.819 24.5771 110.619 23.7773L126.269 8.12695L112.564 8.12988L100.397 20.2998L100.394 34.7051C100.394 35.25 100.177 35.7715 99.7936 36.1553L66.404 69.5391C65.6042 70.3389 64.3034 70.3389 63.5036 69.5391C62.7038 68.7393 62.7038 67.4385 63.5036 66.6387L96.2897 33.8496L96.2926 19.4443C96.2926 18.8994 96.5095 18.3779 96.8932 17.9941L110.261 4.62305C110.645 4.23926 111.167 4.02246 111.712 4.02246L130.62 4.01953C131.165 4.01953 131.686 4.23633 132.07 4.62012L132.369 4.91895C133.169 5.71875 133.169 7.01953 132.369 7.81934L114.964 25.2246L124.84 35.1006L142.245 17.6924C142.629 17.3086 143.15 17.0918 143.695 17.0918C143.698 17.0918 143.698 17.0918 143.701 17.0918C144.246 17.0918 144.77 17.3115 145.154 17.7012L145.45 18C145.831 18.3838 146.042 18.9023 146.042 19.4414L146.039 38.3496C146.039 38.8945 145.822 39.416 145.438 39.7998L132.067 53.1738C131.683 53.5576 131.162 53.7744 130.617 53.7744H116.215L45.2253 124.77C45.2311 124.954 45.2341 125.142 45.2341 125.338C45.2341 136.72 35.9733 145.978 24.5944 145.978Z" fill="#970010"/>
<path d="M11.7246 140.256C11.5928 140.256 11.458 140.241 11.3232 140.215C11.1943 140.188 11.0654 140.15 10.9395 140.098C10.8164 140.048 10.6963 139.983 10.5879 139.91C10.4736 139.837 10.3682 139.749 10.2744 139.655C10.1807 139.562 10.0957 139.456 10.0195 139.345C9.94629 139.233 9.88184 139.113 9.83203 138.99C9.7793 138.867 9.74121 138.738 9.71484 138.606C9.68848 138.475 9.67383 138.34 9.67383 138.205C9.67383 138.073 9.68848 137.938 9.71484 137.804C9.74121 137.675 9.7793 137.546 9.83203 137.42C9.88184 137.297 9.94629 137.177 10.0195 137.068C10.0957 136.954 10.1807 136.849 10.2744 136.755C10.3682 136.661 10.4736 136.576 10.5879 136.5C10.6963 136.427 10.8164 136.362 10.9395 136.312C11.0654 136.26 11.1943 136.222 11.3232 136.195C11.5898 136.143 11.8623 136.143 12.126 136.195C12.2578 136.222 12.3867 136.26 12.5098 136.312C12.6328 136.362 12.7529 136.427 12.8643 136.5C12.9756 136.576 13.0811 136.661 13.1748 136.755C13.2686 136.849 13.3564 136.954 13.4297 137.068C13.5029 137.177 13.5674 137.297 13.6172 137.42C13.6699 137.546 13.708 137.675 13.7344 137.804C13.7637 137.938 13.7754 138.073 13.7754 138.205C13.7754 138.34 13.7637 138.475 13.7344 138.606C13.708 138.738 13.6699 138.867 13.6172 138.99C13.5674 139.113 13.5029 139.233 13.4297 139.345C13.3564 139.456 13.2686 139.562 13.1748 139.655C13.0811 139.749 12.9756 139.837 12.8643 139.91C12.7529 139.983 12.6328 140.048 12.5098 140.098C12.3867 140.15 12.2578 140.188 12.126 140.215C11.9941 140.241 11.8594 140.256 11.7246 140.256Z" fill="black"/>
<path d="M7.69336 135.135C6.91699 135.135 6.17285 134.692 5.82715 133.939C4.58496 131.232 3.95508 128.338 3.95508 125.338C3.95508 113.956 13.2129 104.698 24.5947 104.698C24.873 104.698 25.1514 104.704 25.4297 104.716L53.0713 77.0742C53.8711 76.2744 55.1719 76.2744 55.9717 77.0742C56.7715 77.874 56.7715 79.1748 55.9717 79.9746L27.6738 108.272C27.2432 108.703 26.6396 108.92 26.0361 108.864C25.5645 108.82 25.0811 108.8 24.5947 108.8C15.4746 108.8 8.05664 116.218 8.05664 125.338C8.05664 127.743 8.56055 130.061 9.55664 132.229C10.0283 133.257 9.57715 134.476 8.54883 134.947C8.27051 135.073 7.98047 135.135 7.69336 135.135Z" fill="#970010"/>
<path d="M24.5947 135.387C24.1055 135.387 23.6221 135.352 23.1533 135.281C18.7764 134.66 15.2725 131.159 14.6514 126.765C14.584 126.313 14.5488 125.827 14.5488 125.338C14.5488 119.798 19.0576 115.289 24.5977 115.289C30.1377 115.289 34.6465 119.798 34.6465 125.338C34.6465 130.878 30.1348 135.387 24.5947 135.387ZM24.5947 119.391C21.3164 119.391 18.6475 122.06 18.6475 125.338C18.6475 125.622 18.668 125.903 18.709 126.173C19.0781 128.786 21.1494 130.854 23.7451 131.224C24.0293 131.268 24.3105 131.285 24.5947 131.285C27.873 131.285 30.542 128.616 30.542 125.338C30.542 122.06 27.873 119.391 24.5947 119.391Z" fill="black"/>
<path d="M24.5947 135.387C24.1055 135.387 23.6221 135.352 23.1533 135.281C18.7764 134.66 15.2725 131.159 14.6514 126.765C14.584 126.313 14.5488 125.827 14.5488 125.338C14.5488 119.798 19.0576 115.289 24.5977 115.289C30.1377 115.289 34.6465 119.798 34.6465 125.338C34.6465 130.878 30.1348 135.387 24.5947 135.387ZM24.5947 119.391C21.3164 119.391 18.6475 122.06 18.6475 125.338C18.6475 125.622 18.668 125.903 18.709 126.173C19.0781 128.786 21.1494 130.854 23.7451 131.224C24.0293 131.268 24.3105 131.285 24.5947 131.285C27.873 131.285 30.542 128.616 30.542 125.338C30.542 122.06 27.873 119.391 24.5947 119.391Z" fill="black"/>
</g>
</svg>
