<svg width="150" height="150" viewBox="0 0 150 150" fill="none" xmlns="http://www.w3.org/2000/svg">
<g opacity="0.2">
<path d="M121.224 64.96H28.7722C27.8493 64.96 27.0407 64.3418 26.7946 63.4541C26.405 62.0332 26.8181 60.5127 27.8728 59.4873L31.3591 56.1035L29.0681 51.8232C28.5583 50.8711 28.4499 49.7754 28.7663 48.7383C29.0827 47.7012 29.7888 46.8516 30.7468 46.3477L35.0417 44.0859L34.0485 39.334C33.8288 38.2705 34.0339 37.1895 34.6286 36.2871C35.2233 35.3848 36.1345 34.7666 37.198 34.5498L41.9646 33.5889L42.3513 28.752C42.4392 27.668 42.946 26.6865 43.7722 25.9893C44.5983 25.292 45.6472 24.9609 46.7253 25.0547L51.5593 25.4736L53.2966 20.9385C53.6862 19.9248 54.445 19.1279 55.4353 18.6914C56.4255 18.2549 57.5271 18.2314 58.5349 18.624L63.0583 20.3906L66.0026 16.5264C66.6589 15.665 67.614 15.1113 68.6892 14.9707C69.7644 14.8301 70.8249 15.1172 71.6804 15.7822L75.5212 18.7471L79.4323 15.8701C80.3054 15.2285 81.3747 14.9678 82.4411 15.1348C83.5105 15.3018 84.4509 15.873 85.0896 16.749L87.9401 20.6836L92.5046 19.0283C93.5183 18.6592 94.6198 18.7061 95.5983 19.166C96.5798 19.626 97.321 20.4434 97.6843 21.4658L99.3132 26.0391L104.159 25.7373C105.234 25.6699 106.274 26.0244 107.086 26.7422C107.897 27.4629 108.378 28.4531 108.439 29.5371L108.712 34.3828L113.446 35.4551C114.504 35.6953 115.4 36.334 115.974 37.251C116.549 38.168 116.73 39.2549 116.487 40.3096L115.383 45.041L119.622 47.4053C120.568 47.9326 121.251 48.7998 121.544 49.8428C121.837 50.8857 121.702 51.9785 121.169 52.9219L118.778 57.1465L122.182 60.6123C122.669 61.1045 123.02 61.7168 123.196 62.3848C123.36 63 123.225 63.6562 122.839 64.1602C122.452 64.6641 121.86 64.96 121.224 64.96ZM32.3493 60.8584H116.686L115.831 59.9883C114.577 58.7109 114.316 56.7305 115.195 55.1748L117.58 50.959L113.352 48.6035C111.788 47.7305 110.979 45.9023 111.389 44.1592L112.488 39.4482L107.768 38.3789C106.019 37.9834 104.727 36.457 104.628 34.667L104.355 29.8389L99.5241 30.1377C97.7312 30.2549 96.0671 29.1475 95.4694 27.457L93.8493 22.9043L89.2995 24.5566C87.6179 25.166 85.7077 24.5801 84.656 23.1328L81.8142 19.2129L77.9148 22.0811C76.4704 23.1416 74.4724 23.1182 73.0573 22.0225L69.2282 19.0635L66.2956 22.9131C65.2087 24.334 63.2868 24.873 61.6228 24.2285L57.1081 22.4648L55.3767 26.9854C54.7351 28.6582 53.0388 29.7188 51.2575 29.5605L46.4382 29.1445L46.0515 33.9668C45.9079 35.7481 44.5837 37.2422 42.8317 37.5996L38.0798 38.5576L39.07 43.2949C39.4333 45.0527 38.5808 46.8604 36.9958 47.6924L32.7185 49.9453L35.0007 54.2109C35.8415 55.7959 35.5339 57.7676 34.2507 59.0127L32.3493 60.8584Z" fill="#970010"/>
<path d="M92.9121 64.96H57.0879C55.9541 64.96 55.0371 64.043 55.0371 62.9092C55.0371 51.8994 63.9932 42.9434 75 42.9434C86.0068 42.9434 94.9629 51.8994 94.9629 62.9092C94.9629 64.043 94.0459 64.96 92.9121 64.96ZM59.2705 60.8584H90.7324C89.7246 53.0771 83.0537 47.0449 75.0029 47.0449C66.9522 47.0449 60.2783 53.0771 59.2705 60.8584Z" fill="black"/>
<path d="M104.464 59.2324C103.5 59.2324 102.641 58.5498 102.454 57.5713C101.692 53.6338 100.122 49.9746 97.7838 46.6963C97.1276 45.7734 97.3415 44.4932 98.2614 43.8369C99.1842 43.1777 100.465 43.3945 101.121 44.3145C103.801 48.0732 105.606 52.2715 106.479 56.792C106.693 57.9023 105.966 58.9805 104.856 59.1943C104.724 59.2207 104.592 59.2324 104.464 59.2324Z" fill="#970010"/>
<path d="M50.5464 47.5576C50.1333 47.5576 49.7173 47.4346 49.3569 47.1768C48.4341 46.5205 48.2202 45.2373 48.8764 44.3174C52.9868 38.5518 58.9692 34.2539 65.7163 32.2148C66.8032 31.8867 67.9458 32.502 68.2739 33.5859C68.602 34.6699 67.9868 35.8154 66.9028 36.1406C61.02 37.916 55.8051 41.666 52.2163 46.6963C51.8178 47.2588 51.185 47.5576 50.5464 47.5576Z" fill="#970010"/>
<path d="M83.6895 64.96H66.3105C65.1768 64.96 64.2598 64.043 64.2598 62.9092C64.2598 56.9883 69.0791 52.1689 75 52.1689C76.1338 52.1689 77.0508 53.0859 77.0508 54.2197C77.0508 55.3535 76.1338 56.2705 75 56.2705C72.0557 56.2705 69.5508 58.1982 68.6836 60.8584H81.3164C81.123 60.2637 80.8477 59.6982 80.4902 59.1738C79.8516 58.2393 80.0947 56.9619 81.0293 56.3232C81.9639 55.6846 83.2412 55.9277 83.8799 56.8623C85.0986 58.6494 85.7402 60.7383 85.7402 62.9062C85.7402 64.043 84.8232 64.96 83.6895 64.96Z" fill="#970010"/>
<path d="M134.848 78.8174H15.1523C14.0186 78.8174 13.1016 77.9004 13.1016 76.7666V71.001C13.1016 69.8672 14.0186 68.9502 15.1523 68.9502C16.2861 68.9502 17.2031 69.8672 17.2031 71.001V74.7158H132.797V64.9629H15.1523C14.0186 64.9629 13.1016 64.0459 13.1016 62.9121C13.1016 61.7783 14.0186 60.8613 15.1523 60.8613H134.848C135.981 60.8613 136.898 61.7783 136.898 62.9121V76.7666C136.898 77.8975 135.981 78.8174 134.848 78.8174Z" fill="black"/>
<path d="M93.832 135.062C93.293 135.062 92.7656 134.845 92.3818 134.461C92.2881 134.367 92.2031 134.262 92.127 134.15C92.0537 134.039 91.9893 133.919 91.9395 133.796C91.8867 133.673 91.8486 133.544 91.8223 133.412C91.7959 133.28 91.7812 133.146 91.7812 133.011C91.7812 132.879 91.7959 132.744 91.8223 132.612C91.8486 132.48 91.8867 132.352 91.9395 132.229C91.9893 132.103 92.0537 131.985 92.127 131.874C92.2031 131.76 92.2881 131.657 92.3818 131.561C92.4756 131.467 92.5811 131.382 92.6953 131.306C92.8037 131.232 92.9238 131.168 93.0469 131.118C93.1729 131.065 93.3018 131.027 93.4307 131.001C93.6973 130.948 93.9697 130.948 94.2334 131.001C94.3652 131.027 94.4941 131.065 94.6172 131.118C94.7402 131.168 94.8604 131.232 94.9717 131.306C95.083 131.382 95.1885 131.467 95.2822 131.561C95.376 131.657 95.4639 131.76 95.5371 131.874C95.6104 131.985 95.6748 132.103 95.7246 132.229C95.7773 132.352 95.8154 132.48 95.8418 132.612C95.8682 132.744 95.8828 132.879 95.8828 133.011C95.8828 133.146 95.8682 133.28 95.8418 133.412C95.8154 133.544 95.7773 133.673 95.7246 133.796C95.6748 133.919 95.6104 134.039 95.5371 134.15C95.4639 134.262 95.376 134.367 95.2822 134.461C95.1885 134.558 95.083 134.643 94.9717 134.716C94.8604 134.792 94.7402 134.854 94.6172 134.906C94.4941 134.956 94.3652 134.997 94.2334 135.023C94.1016 135.05 93.9668 135.062 93.832 135.062Z" fill="black"/>
<path d="M26.0332 87.8906H9.68555C8.55176 87.8906 7.63477 86.9736 7.63477 85.8398C7.63477 84.7061 8.55176 83.7891 9.68555 83.7891H26.0332C27.167 83.7891 28.084 84.7061 28.084 85.8398C28.084 86.9736 27.167 87.8906 26.0332 87.8906Z" fill="#970010"/>
<path d="M26.0332 97.415H9.68555C8.55176 97.415 7.63477 96.498 7.63477 95.3643C7.63477 94.2305 8.55176 93.3135 9.68555 93.3135H26.0332C27.167 93.3135 28.084 94.2305 28.084 95.3643C28.084 96.498 27.167 97.415 26.0332 97.415Z" fill="#970010"/>
<path d="M26.0332 106.939H9.68555C8.55176 106.939 7.63477 106.022 7.63477 104.889C7.63477 103.755 8.55176 102.838 9.68555 102.838H26.0332C27.167 102.838 28.084 103.755 28.084 104.889C28.084 106.022 27.167 106.939 26.0332 106.939Z" fill="#970010"/>
<path d="M26.0332 116.464H9.68555C8.55176 116.464 7.63477 115.547 7.63477 114.413C7.63477 113.279 8.55176 112.362 9.68555 112.362H26.0332C27.167 112.362 28.084 113.279 28.084 114.413C28.084 115.547 27.167 116.464 26.0332 116.464Z" fill="#970010"/>
<path d="M26.0332 125.991H9.68555C8.55176 125.991 7.63477 125.074 7.63477 123.94C7.63477 122.807 8.55176 121.89 9.68555 121.89H26.0332C27.167 121.89 28.084 122.807 28.084 123.94C28.084 125.074 27.167 125.991 26.0332 125.991Z" fill="#970010"/>
<path d="M140.314 87.8906H123.967C122.833 87.8906 121.916 86.9736 121.916 85.8398C121.916 84.7061 122.833 83.7891 123.967 83.7891H140.314C141.448 83.7891 142.365 84.7061 142.365 85.8398C142.365 86.9736 141.448 87.8906 140.314 87.8906Z" fill="#970010"/>
<path d="M140.314 97.415H123.967C122.833 97.415 121.916 96.498 121.916 95.3643C121.916 94.2305 122.833 93.3135 123.967 93.3135H140.314C141.448 93.3135 142.365 94.2305 142.365 95.3643C142.365 96.498 141.448 97.415 140.314 97.415Z" fill="#970010"/>
<path d="M140.314 106.939H123.967C122.833 106.939 121.916 106.022 121.916 104.889C121.916 103.755 122.833 102.838 123.967 102.838H140.314C141.448 102.838 142.365 103.755 142.365 104.889C142.365 106.022 141.448 106.939 140.314 106.939Z" fill="#970010"/>
<path d="M140.314 116.464H123.967C122.833 116.464 121.916 115.547 121.916 114.413C121.916 113.279 122.833 112.362 123.967 112.362H140.314C141.448 112.362 142.365 113.279 142.365 114.413C142.365 115.547 141.448 116.464 140.314 116.464Z" fill="#970010"/>
<path d="M140.314 125.991H123.967C122.833 125.991 121.916 125.074 121.916 123.94C121.916 122.807 122.833 121.89 123.967 121.89H140.314C141.448 121.89 142.365 122.807 142.365 123.94C142.365 125.074 141.448 125.991 140.314 125.991Z" fill="#970010"/>
<path d="M140.314 135.062H104.719C103.585 135.062 102.668 134.145 102.668 133.011C102.668 131.877 103.585 130.96 104.719 130.96H138.264V78.8174H11.7363V130.963H82.9453C84.0791 130.963 84.9961 131.88 84.9961 133.014C84.9961 134.147 84.0791 135.064 82.9453 135.064H9.68555C8.55176 135.064 7.63477 134.147 7.63477 133.014V76.7666C7.63477 75.6328 8.55176 74.7158 9.68555 74.7158H140.314C141.448 74.7158 142.365 75.6328 142.365 76.7666V133.014C142.365 134.145 141.448 135.062 140.314 135.062Z" fill="black"/>
</g>
</svg>
