<svg width="150" height="150" viewBox="0 0 150 150" fill="none" xmlns="http://www.w3.org/2000/svg">
<g opacity="0.2">
<path d="M107.389 31.1074C106.53 31.1074 105.754 30.5654 105.461 29.748C105.206 29.1416 105.259 28.4443 105.61 27.8789C105.985 27.2754 106.644 26.9062 107.353 26.9062H107.391C108.525 26.9062 109.442 27.8232 109.442 28.957V29.0537C109.442 30.0791 108.683 30.9492 107.667 31.0869C107.57 31.1016 107.479 31.1074 107.389 31.1074Z" fill="#020202"/>
<path d="M100.934 106.465H91.8926C87.2022 106.465 83.3877 102.65 83.3877 97.96V89.9033C83.3877 88.7695 84.3047 87.8525 85.4385 87.8525C86.5723 87.8525 87.4893 88.7695 87.4893 89.9033V97.96C87.4893 100.389 89.4639 102.363 91.8926 102.363H100.934C103.362 102.363 105.337 100.389 105.337 97.96V35.9619C104.317 36.46 103.178 36.7353 101.982 36.7353C99.876 36.7353 97.8486 35.8535 96.4131 34.3184C94.9775 35.8564 92.9502 36.7353 90.8437 36.7353C89.6455 36.7353 88.5029 36.46 87.4863 35.9619V81.7559C87.4863 82.8896 86.5693 83.8066 85.4355 83.8066C84.3018 83.8066 83.3848 82.8896 83.3848 81.7559V30.4424C83.3848 29.4053 84.1611 28.5293 85.1924 28.4062C86.2207 28.2803 87.1846 28.9482 87.4277 29.959C87.8115 31.5352 89.2148 32.6338 90.8437 32.6338C91.8398 32.6338 92.7568 32.2324 93.4307 31.5C94.1924 30.6738 95.2764 30.1963 96.4072 30.1963H96.4102C97.541 30.1963 98.6279 30.6709 99.3926 31.5C100.066 32.2324 100.986 32.6338 101.979 32.6338C103.603 32.6338 105.006 31.5352 105.396 29.9648C105.645 28.957 106.605 28.2978 107.634 28.4209C108.662 28.5469 109.438 29.4199 109.438 30.457V97.96C109.438 102.65 105.624 106.465 100.934 106.465Z" fill="#020202"/>
<path d="M96.4131 91.9541C95.2793 91.9541 94.3623 91.0371 94.3623 89.9033V48.3867C94.3623 47.2529 95.2793 46.3359 96.4131 46.3359C97.5469 46.3359 98.4639 47.2529 98.4639 48.3867V89.9033C98.4639 91.0371 97.5469 91.9541 96.4131 91.9541Z" fill="#020202"/>
<path d="M96.4131 43.5322C95.874 43.5322 95.3467 43.3154 94.9629 42.9316C94.8691 42.8379 94.7842 42.7324 94.708 42.6211C94.6348 42.5097 94.5703 42.3926 94.5205 42.2666C94.4678 42.1435 94.4297 42.0146 94.4033 41.8828C94.377 41.751 94.3623 41.6162 94.3623 41.4844C94.3623 41.3496 94.377 41.2148 94.4033 41.083C94.4297 40.9512 94.4678 40.8222 94.5205 40.6992C94.5703 40.5762 94.6348 40.456 94.708 40.3447C94.7842 40.2334 94.8691 40.1279 94.9629 40.0342C95.4404 39.5566 96.1494 39.3398 96.8145 39.4717C96.9463 39.498 97.0752 39.539 97.1982 39.5889C97.3213 39.6416 97.4414 39.7031 97.5527 39.7793C97.6641 39.8525 97.7695 39.9375 97.8633 40.0342C97.957 40.1279 98.0449 40.2334 98.1182 40.3447C98.1914 40.456 98.2559 40.5762 98.3086 40.6992C98.3584 40.8222 98.3994 40.9512 98.4258 41.083C98.4521 41.2148 98.4639 41.3496 98.4639 41.4844C98.4639 42.0234 98.2471 42.5508 97.8633 42.9316C97.7695 43.0283 97.6641 43.1133 97.5527 43.1865C97.4414 43.2627 97.3213 43.3242 97.1982 43.3769C97.0752 43.4267 96.9463 43.4678 96.8145 43.4941C96.6826 43.5205 96.5479 43.5322 96.4131 43.5322Z" fill="#020202"/>
<path d="M101.983 36.7354C99.8764 36.7354 97.8491 35.8535 96.4135 34.3184C94.978 35.8564 92.9506 36.7354 90.8442 36.7354C87.3168 36.7354 84.2729 34.3477 83.4409 30.9258C83.394 30.7324 83.3559 30.542 83.3237 30.3486C83.2153 29.6982 83.2739 29.0303 83.4878 28.4033C83.517 28.3154 83.5493 28.2305 83.5874 28.1455C83.6811 27.9141 83.8012 27.6885 83.9418 27.4746L94.562 5.11816C94.9018 4.40332 95.6225 3.94629 96.4135 3.94629C97.2045 3.94629 97.9253 4.40332 98.2651 5.11816L108.885 27.4834C109.02 27.6885 109.134 27.9053 109.228 28.1279C109.272 28.2246 109.31 28.3242 109.339 28.4238C109.544 29.0361 109.603 29.6895 109.503 30.3193C109.468 30.5361 109.427 30.7295 109.383 30.9199C108.54 34.3564 105.498 36.7354 101.983 36.7354ZM96.4135 30.1963C97.5444 30.1963 98.6313 30.6709 99.396 31.5C100.07 32.2324 100.99 32.6338 101.983 32.6338C103.606 32.6338 105.009 31.5352 105.399 29.9648C105.414 29.8975 105.434 29.8125 105.449 29.7217V29.7188C105.375 29.6162 105.308 29.5078 105.252 29.3906L96.4135 10.7842L87.5747 29.3906C87.519 29.5049 87.4545 29.6133 87.3813 29.7158C87.396 29.7949 87.4106 29.877 87.4311 29.959C87.812 31.5293 89.2182 32.6279 90.8471 32.6279C91.8432 32.6279 92.7602 32.2266 93.434 31.4941C94.1958 30.668 95.2797 30.1904 96.4106 30.1904C96.4106 30.1963 96.4135 30.1963 96.4135 30.1963Z" fill="#970010"/>
<path d="M101.865 19.5322H90.9639C89.8301 19.5322 88.9131 18.6152 88.9131 17.4814C88.9131 16.3477 89.8301 15.4307 90.9639 15.4307H101.865C102.999 15.4307 103.916 16.3477 103.916 17.4814C103.916 18.6152 102.996 19.5322 101.865 19.5322Z" fill="#970010"/>
<path d="M101.361 106.465H91.4648C87.0117 106.465 83.3877 102.841 83.3877 98.3877V89.9033C83.3877 88.7695 84.3047 87.8525 85.4385 87.8525H107.391C108.524 87.8525 109.441 88.7695 109.441 89.9033V98.3877C109.438 102.841 105.817 106.465 101.361 106.465ZM87.4863 91.9541V98.3877C87.4863 100.579 89.2705 102.363 91.4619 102.363H101.361C103.553 102.363 105.337 100.579 105.337 98.3877V91.9541H87.4863Z" fill="#970010"/>
<path d="M107.388 120.328C107.256 120.328 107.121 120.313 106.989 120.287C106.857 120.261 106.729 120.223 106.605 120.17C106.479 120.12 106.362 120.056 106.251 119.982C106.137 119.906 106.034 119.821 105.938 119.728C105.844 119.634 105.759 119.528 105.683 119.414C105.609 119.306 105.548 119.186 105.495 119.063C105.445 118.937 105.404 118.808 105.378 118.679C105.352 118.547 105.337 118.412 105.337 118.277C105.337 118.143 105.352 118.008 105.378 117.876C105.404 117.747 105.445 117.615 105.495 117.492C105.548 117.369 105.609 117.249 105.683 117.138C105.759 117.026 105.844 116.921 105.938 116.827C106.034 116.733 106.137 116.646 106.251 116.572C106.362 116.499 106.479 116.435 106.605 116.385C106.729 116.332 106.857 116.294 106.989 116.268C107.253 116.215 107.525 116.215 107.789 116.268C107.921 116.294 108.05 116.332 108.173 116.385C108.296 116.435 108.416 116.499 108.527 116.572C108.639 116.646 108.744 116.733 108.838 116.827C108.935 116.921 109.02 117.026 109.093 117.138C109.169 117.249 109.23 117.369 109.283 117.492C109.333 117.615 109.374 117.747 109.4 117.876C109.427 118.008 109.438 118.143 109.438 118.277C109.438 118.412 109.427 118.547 109.4 118.679C109.374 118.808 109.333 118.937 109.283 119.063C109.23 119.186 109.169 119.306 109.093 119.414C109.02 119.528 108.935 119.634 108.838 119.728C108.744 119.821 108.639 119.906 108.527 119.982C108.416 120.056 108.296 120.12 108.173 120.17C108.05 120.223 107.921 120.261 107.789 120.287C107.657 120.313 107.522 120.328 107.388 120.328Z" fill="#970010"/>
<path d="M25.3652 146.045H24.5098C23.376 146.045 22.459 145.128 22.459 143.994V7.47656C22.459 6.34277 23.376 5.42578 24.5098 5.42578H61.0869C62.2207 5.42578 63.1377 6.34277 63.1377 7.47656V104.414C63.1377 105.548 62.2207 106.465 61.0869 106.465C59.9531 106.465 59.0361 105.548 59.0361 104.414V9.52734H26.5605V140.607L59.8887 116.613C60.8086 115.951 62.0889 116.159 62.751 117.079C63.4131 117.999 63.2051 119.279 62.2852 119.941L26.5635 145.658C26.2148 145.91 25.7959 146.045 25.3652 146.045Z" fill="#020202"/>
<path d="M37.8252 23.8359H24.5098C23.376 23.8359 22.459 22.9189 22.459 21.7852C22.459 20.6514 23.376 19.7344 24.5098 19.7344H37.8252C38.959 19.7344 39.876 20.6514 39.876 21.7852C39.876 22.9189 38.9561 23.8359 37.8252 23.8359Z" fill="#020202"/>
<path d="M37.8252 43.7344H24.5098C23.376 43.7344 22.459 42.8174 22.459 41.6836C22.459 40.5498 23.376 39.6328 24.5098 39.6328H37.8252C38.959 39.6328 39.876 40.5498 39.876 41.6836C39.876 42.8174 38.9561 43.7344 37.8252 43.7344Z" fill="#020202"/>
<path d="M37.8252 63.6299C37.6904 63.6299 37.5557 63.6152 37.4238 63.5889C37.292 63.5625 37.1631 63.5244 37.04 63.4717C36.917 63.4219 36.7969 63.3574 36.6855 63.2842C36.5742 63.2109 36.4688 63.1231 36.375 63.0293C35.9912 62.6484 35.7744 62.1182 35.7744 61.5791C35.7744 61.4473 35.7861 61.3125 35.8125 61.1777C35.8389 61.0488 35.8799 60.9199 35.9297 60.794C35.9824 60.6709 36.0439 60.5537 36.1201 60.4424C36.1934 60.3281 36.2783 60.2227 36.375 60.1289C36.4688 60.0352 36.5742 59.9502 36.6855 59.874C36.7969 59.8008 36.917 59.7363 37.04 59.6865C37.1631 59.6338 37.292 59.5957 37.4238 59.5693C38.0889 59.4346 38.7979 59.6514 39.2754 60.1289C39.3691 60.2227 39.4541 60.3281 39.5303 60.4424C39.6035 60.5537 39.668 60.6709 39.7178 60.794C39.7705 60.9199 39.8086 61.0488 39.835 61.1777C39.8613 61.3125 39.876 61.4473 39.876 61.5791C39.876 62.1182 39.6562 62.6484 39.2754 63.0293C39.1787 63.1231 39.0762 63.2109 38.9619 63.2842C38.8506 63.3574 38.7334 63.4219 38.6074 63.4717C38.4844 63.5244 38.3555 63.5625 38.2266 63.5889C38.0918 63.6152 37.957 63.6299 37.8252 63.6299Z" fill="#020202"/>
<path d="M31.166 63.6299H24.5098C23.376 63.6299 22.459 62.7129 22.459 61.5791C22.459 60.4453 23.376 59.5283 24.5098 59.5283H31.166C32.2998 59.5283 33.2168 60.4453 33.2168 61.5791C33.2168 62.7129 32.2998 63.6299 31.166 63.6299Z" fill="#020202"/>
<path d="M37.8252 83.5283H24.5098C23.376 83.5283 22.459 82.6113 22.459 81.4775C22.459 80.3438 23.376 79.4268 24.5098 79.4268H37.8252C38.959 79.4268 39.876 80.3438 39.876 81.4775C39.876 82.6113 38.9561 83.5283 37.8252 83.5283Z" fill="#020202"/>
<path d="M37.8252 103.424H24.5098C23.376 103.424 22.459 102.507 22.459 101.373C22.459 100.239 23.376 99.3223 24.5098 99.3223H37.8252C38.959 99.3223 39.876 100.239 39.876 101.373C39.876 102.507 38.9561 103.424 37.8252 103.424Z" fill="#020202"/>
<path d="M37.8252 123.322H24.5098C23.376 123.322 22.459 122.405 22.459 121.271C22.459 120.138 23.376 119.221 24.5098 119.221H37.8252C38.959 119.221 39.876 120.138 39.876 121.271C39.876 122.405 38.9561 123.322 37.8252 123.322Z" fill="#020202"/>
<path d="M125.49 146.045H25.3653C24.4747 146.045 23.6866 145.471 23.4141 144.624C23.1417 143.777 23.4464 142.852 24.1671 142.33L59.8887 116.613C60.2374 116.361 60.6563 116.227 61.087 116.227H100.506C101.64 116.227 102.557 117.144 102.557 118.277C102.557 119.411 101.64 120.328 100.506 120.328H61.7462L31.7227 141.943H123.44V120.328H114.17C113.036 120.328 112.119 119.411 112.119 118.277C112.119 117.144 113.036 116.227 114.17 116.227H125.49C126.624 116.227 127.541 117.144 127.541 118.277V143.994C127.541 145.128 126.624 146.045 125.49 146.045Z" fill="#970010"/>
</g>
</svg>
