<svg width="150" height="150" viewBox="0 0 150 150" fill="none" xmlns="http://www.w3.org/2000/svg">
<g opacity="0.2">
<path d="M54.2256 38.2881H43.2275C42.0938 38.2881 41.1768 37.3711 41.1768 36.2373V16.9424C41.1768 15.8086 42.0938 14.8916 43.2275 14.8916H54.2256C55.3594 14.8916 56.2764 15.8086 56.2764 16.9424V36.2402C56.2764 37.3711 55.3594 38.2881 54.2256 38.2881ZM45.2783 34.1865H52.1748V18.9932H45.2783V34.1865Z" fill="black"/>
<path d="M54.2256 145.854H43.2275C42.0938 145.854 41.1768 144.938 41.1768 143.804V63.3193C41.1768 62.1855 42.0938 61.2686 43.2275 61.2686H54.2256C55.3594 61.2686 56.2764 62.1855 56.2764 63.3193C56.2764 64.4531 55.3594 65.3701 54.2256 65.3701H45.2783V141.756H52.1748V75.085C52.1748 73.9512 53.0918 73.0342 54.2256 73.0342C55.3594 73.0342 56.2764 73.9512 56.2764 75.085V143.804C56.2764 144.938 55.3594 145.854 54.2256 145.854Z" fill="black"/>
<path d="M30.3867 65.3672H6.00586C4.87207 65.3672 3.95508 64.4502 3.95508 63.3164V36.2402C3.95508 35.1064 4.87207 34.1895 6.00586 34.1895H30.3867C31.5205 34.1895 32.4375 35.1064 32.4375 36.2402V63.3193C32.4375 64.4502 31.5205 65.3672 30.3867 65.3672ZM8.05664 61.2656H28.3359V38.291H8.05664V61.2656Z" fill="black"/>
<path d="M39.5391 56.2676H30.3867C29.2529 56.2676 28.3359 55.3506 28.3359 54.2168V45.3896C28.3359 44.2559 29.2529 43.3389 30.3867 43.3389H39.5391C40.6729 43.3389 41.5898 44.2559 41.5898 45.3896V54.2168C41.5898 55.3477 40.6729 56.2676 39.5391 56.2676ZM32.4375 52.166H37.4883V47.4404H32.4375V52.166Z" fill="black"/>
<path d="M105.387 56.2676H57.9141C56.7803 56.2676 55.8633 55.3506 55.8633 54.2168V45.3896C55.8633 44.2559 56.7803 43.3389 57.9141 43.3389H98.8301C99.9639 43.3389 100.881 44.2559 100.881 45.3896C100.881 46.5234 99.9639 47.4404 98.8301 47.4404H59.9648V52.166H103.336V45.3896C103.336 44.2559 104.253 43.3389 105.387 43.3389C106.521 43.3389 107.438 44.2559 107.438 45.3896V54.2168C107.438 55.3477 106.521 56.2676 105.387 56.2676Z" fill="black"/>
<path d="M131.218 56.2676H118.163C117.029 56.2676 116.112 55.3506 116.112 54.2168V45.3896C116.112 44.2559 117.029 43.3389 118.163 43.3389H131.218C132.352 43.3389 133.269 44.2559 133.269 45.3896V54.2168C133.269 55.3477 132.352 56.2676 131.218 56.2676ZM120.214 52.166H129.167V47.4404H120.214V52.166Z" fill="black"/>
<path d="M118.163 69.1055H105.387C104.253 69.1055 103.336 68.1885 103.336 67.0547V42.3223C103.336 41.1885 104.253 40.2715 105.387 40.2715H118.163C119.297 40.2715 120.214 41.1885 120.214 42.3223V67.0547C120.214 68.1885 119.297 69.1055 118.163 69.1055ZM107.438 65.0039H116.112V44.3731H107.438V65.0039Z" fill="black"/>
<path d="M136.093 44.3731C135.568 44.3731 135.044 44.1738 134.643 43.7725L104.487 13.6172H61.5674C60.4336 13.6172 59.5166 12.7002 59.5166 11.5664C59.5166 10.4326 60.4336 9.51562 61.5674 9.51562H105.337C105.882 9.51562 106.403 9.73242 106.787 10.1162L137.543 40.8721C138.343 41.6719 138.343 42.9727 137.543 43.7725C137.142 44.1738 136.617 44.3731 136.093 44.3731Z" fill="black"/>
<path d="M18.1934 38.291C17.7803 38.291 17.3613 38.1651 17.001 37.9073C16.0811 37.2481 15.8701 35.9649 16.5293 35.045L34.2188 10.3741C34.8779 9.45413 36.1611 9.24319 37.0811 9.90237C38.001 10.5616 38.2119 11.8448 37.5527 12.7647L19.8633 37.4326C19.4619 37.9922 18.832 38.291 18.1934 38.291Z" fill="black"/>
<path d="M143.994 122.865H79.5557C78.4219 122.865 77.5049 121.948 77.5049 120.814V109.942C77.5049 108.809 78.4219 107.892 79.5557 107.892H143.994C145.128 107.892 146.045 108.809 146.045 109.942V120.814C146.045 121.945 145.128 122.865 143.994 122.865ZM81.6064 118.764H141.943V111.993H81.6064V118.764Z" fill="black"/>
<path d="M111.776 111.993C110.643 111.993 109.726 111.076 109.726 109.942V91.5117C109.726 90.3779 110.643 89.4609 111.776 89.4609C112.91 89.4609 113.827 90.3779 113.827 91.5117V109.942C113.827 111.073 112.91 111.993 111.776 111.993Z" fill="black"/>
<path d="M111.776 77.1357C110.643 77.1357 109.726 76.2188 109.726 75.085V67.0547C109.726 65.9209 110.643 65.0039 111.776 65.0039C112.91 65.0039 113.827 65.9209 113.827 67.0547V75.085C113.827 76.2188 112.91 77.1357 111.776 77.1357Z" fill="black"/>
<path d="M95.9271 111.993C95.5668 111.993 95.2006 111.899 94.8695 111.7C93.8998 111.114 93.5863 109.855 94.1723 108.885L105.276 90.4541C105.862 89.4844 107.121 89.1709 108.091 89.7568C109.061 90.3428 109.374 91.6026 108.788 92.5723L97.6849 111.003C97.3012 111.639 96.6244 111.993 95.9271 111.993Z" fill="black"/>
<path d="M127.626 111.993C126.932 111.993 126.252 111.639 125.869 111L114.762 92.5694C114.176 91.5996 114.49 90.3399 115.459 89.7539C116.429 89.168 117.689 89.4815 118.275 90.4512L129.381 108.882C129.967 109.852 129.654 111.111 128.684 111.697C128.35 111.897 127.987 111.993 127.626 111.993Z" fill="black"/>
<path d="M61.5674 18.9932H35.8857C34.752 18.9932 33.835 18.0762 33.835 16.9424V6.19629C33.835 5.0625 34.752 4.14551 35.8857 4.14551H41.7187C42.8525 4.14551 43.7695 5.0625 43.7695 6.19629C43.7695 7.33008 42.8525 8.24707 41.7187 8.24707H37.9365V14.8916H59.5166V8.24707H52.9277C51.7939 8.24707 50.877 7.33008 50.877 6.19629C50.877 5.0625 51.7939 4.14551 52.9277 4.14551H61.5674C62.7012 4.14551 63.6182 5.0625 63.6182 6.19629V16.9424C63.6182 18.0732 62.7012 18.9932 61.5674 18.9932Z" fill="#970010"/>
<path d="M47.2939 8.24708C46.752 8.24708 46.2246 8.02736 45.8437 7.6465C45.7471 7.54982 45.6621 7.44435 45.5889 7.33302C45.5127 7.22169 45.4512 7.10158 45.3984 6.97853C45.3486 6.85548 45.3076 6.72658 45.2812 6.59474C45.2549 6.46291 45.2402 6.32814 45.2402 6.19337C45.2402 5.65431 45.46 5.12697 45.8437 4.74318C46.3184 4.26857 47.0273 4.04884 47.6924 4.18361C47.8242 4.20998 47.9531 4.25099 48.0762 4.3008C48.2022 4.35353 48.3193 4.41505 48.4307 4.4883C48.5449 4.56447 48.6475 4.64943 48.7412 4.74318C49.125 5.12697 49.3447 5.65431 49.3447 6.19337C49.3447 6.32814 49.3301 6.46291 49.3037 6.59474C49.2773 6.72658 49.2393 6.85548 49.1865 6.97853C49.1338 7.10158 49.0723 7.22169 48.999 7.33302C48.9229 7.44435 48.8379 7.54982 48.7412 7.6465C48.6475 7.74025 48.5449 7.82521 48.4307 7.89845C48.3193 7.97462 48.2022 8.03615 48.0762 8.08888C47.9531 8.13869 47.8242 8.1797 47.6924 8.20607C47.5605 8.23244 47.4258 8.24708 47.2939 8.24708Z" fill="#970010"/>
<path d="M57.9141 65.3701H39.5391C38.4053 65.3701 37.4883 64.4531 37.4883 63.3193V36.2402C37.4883 35.1064 38.4053 34.1895 39.5391 34.1895H57.9141C59.0478 34.1895 59.9648 35.1064 59.9648 36.2402V63.3193C59.9648 64.4502 59.0478 65.3701 57.9141 65.3701ZM41.5898 61.2686H55.8633V38.291H41.5898V61.2686Z" fill="#970010"/>
<path d="M143.994 59.335H131.218C130.084 59.335 129.167 58.418 129.167 57.2842V42.3252C129.167 41.1914 130.084 40.2744 131.218 40.2744H143.994C145.128 40.2744 146.045 41.1914 146.045 42.3252V57.2842C146.045 58.415 145.128 59.335 143.994 59.335ZM133.269 55.2334H141.943V44.376H133.269V55.2334Z" fill="#970010"/>
<path d="M116.517 93.5596H107.033C106.301 93.5596 105.624 93.1699 105.258 92.5342L100.518 84.3223C100.152 83.6865 100.152 82.9072 100.518 82.2715L105.258 74.0596C105.624 73.4238 106.301 73.0342 107.033 73.0342H116.517C117.249 73.0342 117.926 73.4238 118.292 74.0596L123.035 82.2715C123.402 82.9072 123.402 83.6895 123.035 84.3223L118.292 92.5342C117.926 93.1699 117.249 93.5596 116.517 93.5596ZM108.217 89.458H115.333L118.893 83.2969L115.333 77.1357H108.217L104.66 83.2969L108.217 89.458Z" fill="#970010"/>
</g>
</svg>
