<svg width="150" height="150" viewBox="0 0 150 150" fill="none" xmlns="http://www.w3.org/2000/svg">
<g opacity="0.2">
<path d="M106.037 43.2305H96.6738C95.54 43.2305 94.6231 42.3135 94.6231 41.1797C94.6231 40.0459 95.54 39.1289 96.6738 39.1289H103.986V18.123C103.986 16.8457 102.946 15.8057 101.669 15.8057H48.3311C47.0537 15.8057 46.0137 16.8457 46.0137 18.123V39.1289H51.2754V23.1182C51.2754 21.9844 52.1924 21.0674 53.3262 21.0674H96.6738C97.8076 21.0674 98.7246 21.9844 98.7246 23.1182V32.7744C98.7246 33.9082 97.8076 34.8252 96.6738 34.8252C95.54 34.8252 94.6231 33.9082 94.6231 32.7744V25.1689H55.377V41.1797C55.377 42.3135 54.46 43.2305 53.3262 43.2305H43.9629C42.8291 43.2305 41.9121 42.3135 41.9121 41.1797V18.123C41.9121 14.584 44.792 11.7041 48.3311 11.7041H101.669C105.208 11.7041 108.088 14.584 108.088 18.123V41.1797C108.088 42.3105 107.171 43.2305 106.037 43.2305Z" fill="#970010"/>
<path d="M134.772 68.335H116.203C115.069 68.335 114.152 67.418 114.152 66.2842V56.5518H88.9601V66.2842C88.9601 67.418 88.0431 68.335 86.9093 68.335H63.091C61.9572 68.335 61.0402 67.418 61.0402 66.2842V56.5518H35.8478V66.2842C35.8478 67.418 34.9308 68.335 33.797 68.335H15.2287C14.5285 68.335 13.8751 67.9775 13.5001 67.3857C13.1222 66.7939 13.0753 66.0527 13.3712 65.417L25.0753 40.3154C25.4123 39.5918 26.1359 39.1318 26.9328 39.1318H123.062C123.859 39.1318 124.582 39.5947 124.919 40.3154L128.608 48.2227C129.085 49.248 128.643 50.4697 127.614 50.9473C126.589 51.4248 125.367 50.9824 124.89 49.9541L121.755 43.2305H28.2423L18.4484 64.2305H31.7462V54.498C31.7462 53.3643 32.6632 52.4473 33.797 52.4473H63.091C64.2248 52.4473 65.1418 53.3643 65.1418 54.498V64.2305H84.8585V54.498C84.8585 53.3643 85.7755 52.4473 86.9093 52.4473H116.203C117.337 52.4473 118.254 53.3643 118.254 54.498V64.2305H131.552L130.248 61.4355C129.771 60.4102 130.213 59.1885 131.241 58.7109C132.267 58.2334 133.488 58.6758 133.966 59.7041L136.629 65.417C136.925 66.0527 136.875 66.7939 136.5 67.3857C136.122 67.9746 135.472 68.335 134.772 68.335Z" fill="black"/>
<path d="M129.275 56.5518C128.736 56.5518 128.209 56.332 127.825 55.9512C127.731 55.8574 127.646 55.752 127.57 55.6377C127.497 55.5293 127.436 55.4092 127.383 55.2861C127.33 55.1602 127.292 55.0312 127.266 54.9023C127.239 54.7705 127.225 54.6357 127.225 54.501C127.225 54.3662 127.239 54.2314 127.266 54.0996C127.292 53.9678 127.33 53.8389 127.383 53.7158C127.436 53.5928 127.497 53.4727 127.57 53.3613C127.646 53.25 127.731 53.1445 127.825 53.0508C128.209 52.6699 128.736 52.4502 129.275 52.4502C129.817 52.4502 130.345 52.6699 130.726 53.0508C130.822 53.1445 130.907 53.25 130.98 53.3613C131.054 53.4727 131.118 53.5928 131.171 53.7158C131.221 53.8389 131.262 53.9678 131.288 54.0996C131.314 54.2314 131.326 54.3662 131.326 54.501C131.326 54.6357 131.314 54.7705 131.288 54.9023C131.262 55.0312 131.221 55.1602 131.171 55.2861C131.118 55.4092 131.054 55.5293 130.98 55.6377C130.907 55.752 130.822 55.8574 130.726 55.9512C130.345 56.332 129.817 56.5518 129.275 56.5518Z" fill="black"/>
<path d="M33.7969 81.4307H5.83594C4.70215 81.4307 3.78516 80.5137 3.78516 79.3799V66.2842C3.78516 65.1504 4.70215 64.2334 5.83594 64.2334H33.7969C34.9307 64.2334 35.8477 65.1504 35.8477 66.2842V79.3799C35.8477 80.5137 34.9307 81.4307 33.7969 81.4307ZM7.88672 77.3291H31.7461V68.335H7.88672V77.3291Z" fill="black"/>
<path d="M86.9092 81.4307H63.0908C61.957 81.4307 61.04 80.5137 61.04 79.3799V66.2842C61.04 65.1504 61.957 64.2334 63.0908 64.2334H86.9092C88.043 64.2334 88.96 65.1504 88.96 66.2842V79.3799C88.96 80.5137 88.043 81.4307 86.9092 81.4307ZM65.1416 77.3291H84.8584V68.335H65.1416V77.3291Z" fill="black"/>
<path d="M144.164 81.4307H116.203C115.069 81.4307 114.152 80.5137 114.152 79.3799V66.2842C114.152 65.1504 115.069 64.2334 116.203 64.2334H144.164C145.298 64.2334 146.215 65.1504 146.215 66.2842V79.3799C146.215 80.5137 145.298 81.4307 144.164 81.4307ZM118.254 77.3291H142.113V68.335H118.254V77.3291Z" fill="black"/>
<path d="M134.771 138.299H15.2285C14.0947 138.299 13.1777 137.382 13.1777 136.248V90.0205C13.1777 88.8867 14.0947 87.9697 15.2285 87.9697C16.3623 87.9697 17.2793 88.8867 17.2793 90.0205V134.197H132.718V81.4307H118.251V91.1631C118.251 92.2969 117.334 93.2139 116.2 93.2139H86.9062C85.7725 93.2139 84.8555 92.2969 84.8555 91.1631V81.4307H65.1387V91.1631C65.1387 92.2969 64.2217 93.2139 63.0879 93.2139H33.7939C32.6602 93.2139 31.7432 92.2969 31.7432 91.1631V81.4307H15.2285C14.0947 81.4307 13.1777 80.5137 13.1777 79.3799C13.1777 78.2461 14.0947 77.3291 15.2285 77.3291H33.7969C34.9307 77.3291 35.8477 78.2461 35.8477 79.3799V89.1123H61.04V79.3799C61.04 78.2461 61.957 77.3291 63.0908 77.3291H86.9092C88.043 77.3291 88.9599 78.2461 88.9599 79.3799V89.1123H114.152V79.3799C114.152 78.2461 115.069 77.3291 116.203 77.3291H134.771C135.905 77.3291 136.822 78.2461 136.822 79.3799V136.248C136.822 137.379 135.902 138.299 134.771 138.299Z" fill="black"/>
<path d="M56.4316 56.5518H40.4561C39.3223 56.5518 38.4053 55.6348 38.4053 54.501V41.1797C38.4053 40.0459 39.3223 39.1289 40.4561 39.1289H56.4316C57.5654 39.1289 58.4824 40.0459 58.4824 41.1797V54.501C58.4824 55.6348 57.5654 56.5518 56.4316 56.5518ZM42.5068 52.4502H54.3809V43.2305H42.5068V52.4502Z" fill="black"/>
<path d="M56.4316 138.299H40.4561C39.3223 138.299 38.4053 137.382 38.4053 136.248V91.1631C38.4053 90.0293 39.3223 89.1123 40.4561 89.1123H56.4316C57.5654 89.1123 58.4824 90.0293 58.4824 91.1631V136.248C58.4824 137.379 57.5654 138.299 56.4316 138.299ZM42.5068 134.197H54.3809V93.2139H42.5068V134.197Z" fill="black"/>
<path d="M63.0908 93.2139H33.7969C32.6631 93.2139 31.7461 92.2969 31.7461 91.1631V54.501C31.7461 53.3672 32.6631 52.4502 33.7969 52.4502H63.0908C64.2246 52.4502 65.1416 53.3672 65.1416 54.501V91.1631C65.1416 92.294 64.2246 93.2139 63.0908 93.2139ZM35.8477 89.1123H61.04V56.5518H35.8477V89.1123Z" fill="#970010"/>
<path d="M109.544 56.5518H93.5684C92.4346 56.5518 91.5176 55.6348 91.5176 54.501V41.1797C91.5176 40.0459 92.4346 39.1289 93.5684 39.1289H109.544C110.678 39.1289 111.595 40.0459 111.595 41.1797V54.501C111.595 55.6348 110.678 56.5518 109.544 56.5518ZM95.6191 52.4502H107.493V43.2305H95.6191V52.4502Z" fill="black"/>
<path d="M109.544 138.299H93.5684C92.4346 138.299 91.5176 137.382 91.5176 136.248V91.1631C91.5176 90.0293 92.4346 89.1123 93.5684 89.1123H109.544C110.678 89.1123 111.595 90.0293 111.595 91.1631V106.679C111.595 107.812 110.678 108.729 109.544 108.729C108.41 108.729 107.493 107.812 107.493 106.679V93.2139H95.6191V134.197H107.493V119.842C107.493 118.708 108.41 117.791 109.544 117.791C110.678 117.791 111.595 118.708 111.595 119.842V136.248C111.595 137.379 110.678 138.299 109.544 138.299Z" fill="black"/>
<path d="M109.544 115.755C109.005 115.755 108.478 115.535 108.094 115.154C108 115.061 107.912 114.955 107.839 114.844C107.766 114.732 107.701 114.612 107.651 114.489C107.599 114.363 107.561 114.234 107.534 114.105C107.508 113.974 107.493 113.839 107.493 113.704C107.493 113.569 107.508 113.435 107.534 113.303C107.561 113.174 107.599 113.045 107.651 112.919C107.701 112.796 107.766 112.676 107.839 112.564C107.912 112.453 108 112.348 108.094 112.254C108.187 112.16 108.293 112.075 108.404 111.999C108.516 111.926 108.636 111.861 108.759 111.812C108.885 111.759 109.014 111.721 109.143 111.694C109.409 111.639 109.679 111.639 109.945 111.694C110.074 111.721 110.206 111.759 110.329 111.812C110.452 111.861 110.572 111.926 110.684 111.999C110.795 112.075 110.9 112.16 110.994 112.254C111.088 112.348 111.176 112.453 111.249 112.564C111.322 112.676 111.387 112.796 111.437 112.919C111.489 113.045 111.527 113.174 111.554 113.303C111.58 113.435 111.595 113.569 111.595 113.704C111.595 113.839 111.58 113.974 111.554 114.105C111.527 114.234 111.489 114.363 111.437 114.489C111.387 114.612 111.322 114.732 111.249 114.844C111.176 114.955 111.088 115.061 110.994 115.154C110.61 115.535 110.083 115.755 109.544 115.755Z" fill="black"/>
<path d="M116.203 93.2139H86.9092C85.7754 93.2139 84.8584 92.2969 84.8584 91.1631V54.501C84.8584 53.3672 85.7754 52.4502 86.9092 52.4502H116.203C117.337 52.4502 118.254 53.3672 118.254 54.501V91.1631C118.254 92.294 117.334 93.2139 116.203 93.2139ZM88.96 89.1123H114.152V56.5518H88.96V89.1123Z" fill="#970010"/>
</g>
</svg>
