<svg width="59" height="63" viewBox="0 0 59 63" fill="none" xmlns="http://www.w3.org/2000/svg">
<path d="M12.72 62.52C12.72 61.8 12.64 61.48 12.32 61.48L10.48 62.36C10.48 61.96 10.24 61.72 9.84 61.56L9.2 61.48C8.64 61.48 8.4 61.56 7.6 62.04C7.36 61.56 7.04 61 6.8 60.52C4.72 56.52 2.56 50.52 1.6 47.88C1.12 46.52 0.64 43.72 0.0800002 39.48C0.72 39.88 1.2 40.04 1.44 40.04C1.76 40.04 2.16 39.48 2.48 38.36C2.64 38.6 2.96 38.68 3.36 38.68C3.6 38.68 3.92 38.6 4.08 38.36L5.36 36.44L6.8 36.92H6.88C7.04 36.92 7.28 36.68 7.68 36.44C8.08 36.2 8.4 36.04 8.64 36.04L8.88 36.12C10.16 36.76 11.04 37.88 11.44 39.64C12.4 43.72 13.28 45.72 14.32 45.72C15.2 45.72 16.4 44.68 17.68 42.68C18.96 40.68 20.24 37.96 21.68 34.68C21.76 35.32 21.84 35.64 22 35.64C22.48 35.64 23.68 32.84 26.64 28.12C31.04 21 41.92 7.32 44.72 5.4C46.8 3.96 48.4 2.6 49.52 1.4C49.36 2.2 49.2 2.76 49.2 3C49.2 3.24 49.36 3.32 49.52 3.32L51.76 2.2V2.52C51.76 2.92 51.84 3.16 52.08 3.16C52.4 3.16 53.68 1.88 53.84 1.4L53.68 2.52L56.4 0.919999L55.76 2.36C56.56 1.8 57.2 1.48 57.6 1.48C58 1.48 58.24 2.12 58.24 2.52C58.24 3.16 57.68 4.04 56.8 5.16C55.84 6.44 53.44 8.92 46.24 17.16C43.12 20.68 29.28 39.48 26.64 43.96L21.68 52.36C19.52 55.96 18.16 58.28 17.44 59.16C16.72 60.04 15.84 60.92 14.8 61.72L14.08 61.32L13.44 61.72L12.72 62.52Z" fill="#970010"/>
</svg>
