<svg width="200" height="50" viewBox="0 0 200 50" fill="none" xmlns="http://www.w3.org/2000/svg">
<path d="M56.6 11.25H64C65.6388 11.239 67.2164 11.8722 68.3929 13.0132C69.5694 14.1542 70.2507 15.7116 70.29 17.35C70.2741 19.005 69.6035 20.5865 68.4247 21.7483C67.246 22.9102 65.6551 23.558 64 23.55H59.4V28.55H56.6V11.25ZM63.73 20.92C64.2127 20.9401 64.6945 20.8629 65.1468 20.6929C65.599 20.5229 66.0124 20.2637 66.3623 19.9305C66.7122 19.5974 66.9915 19.1972 67.1835 18.7539C67.3756 18.3106 67.4764 17.8331 67.48 17.35C67.4835 16.8648 67.3875 16.3841 67.1979 15.9374C67.0084 15.4908 66.7293 15.0877 66.3778 14.7532C66.0264 14.4186 65.6101 14.1597 65.1547 13.9923C64.6993 13.8249 64.2144 13.7527 63.73 13.78H59.41V20.91L63.73 20.92ZM71.14 22.23C71.0995 21.3641 71.2387 20.4992 71.5488 19.6898C71.8589 18.8803 72.3333 18.1438 72.942 17.5267C73.5507 16.9095 74.2805 16.4251 75.0856 16.1038C75.8907 15.7826 76.7536 15.6314 77.62 15.66C81.62 15.66 83.62 19.04 83.62 22.42V23.08H74C74.38 25.24 76.25 26.46 78.79 26.46C80.2008 26.4506 81.5828 26.0602 82.79 25.33V27.68C81.4131 28.5375 79.8108 28.9625 78.19 28.9C74.24 28.89 71.14 26.27 71.14 22.23ZM80.81 20.92C80.7987 20.5054 80.704 20.0972 80.5316 19.7199C80.3593 19.3426 80.1127 19.0039 79.8066 18.724C79.5005 18.444 79.1412 18.2286 78.7501 18.0904C78.3589 17.9523 77.944 17.8943 77.53 17.92C76.6736 17.8647 75.8299 18.1483 75.1807 18.7095C74.5316 19.2708 74.129 20.0647 74.06 20.92H80.81ZM86.06 15.94H88.88V20.82H95.26V15.94H98.08V28.52H95.26V23.26H88.88V28.52H86.06V15.94ZM100.42 22.23C100.379 21.3641 100.519 20.4992 100.829 19.6898C101.139 18.8803 101.613 18.1438 102.222 17.5267C102.831 16.9095 103.561 16.4251 104.366 16.1038C105.171 15.7826 106.034 15.6314 106.9 15.66C110.9 15.66 112.9 19.04 112.9 22.42V23.08H103.23C103.61 25.24 105.48 26.46 108.02 26.46C109.431 26.4506 110.813 26.0602 112.02 25.33V27.68C110.643 28.5375 109.041 28.9625 107.42 28.9C103.52 28.89 100.42 26.27 100.42 22.23ZM110.09 20.92C110.079 20.5054 109.984 20.0972 109.812 19.7199C109.639 19.3426 109.393 19.0039 109.087 18.724C108.781 18.444 108.421 18.2286 108.03 18.0904C107.639 17.9523 107.224 17.8943 106.81 17.92C105.954 17.8647 105.11 18.1483 104.461 18.7095C103.812 19.2708 103.409 20.0647 103.34 20.92H110.09ZM114.5 22.23C114.495 21.3419 114.671 20.4621 115.017 19.6442C115.363 18.8263 115.872 18.0875 116.513 17.4727C117.154 16.858 117.913 16.3802 118.745 16.0685C119.576 15.7569 120.463 15.6179 121.35 15.66C122.65 15.6275 123.938 15.916 125.1 16.5V18.85C124.059 18.298 122.898 18.0096 121.72 18.01C121.144 17.9789 120.568 18.0647 120.027 18.2622C119.485 18.4597 118.989 18.7648 118.569 19.1591C118.148 19.5534 117.812 20.0288 117.58 20.5566C117.348 21.0843 117.226 21.6536 117.22 22.23C117.219 22.8085 117.336 23.3812 117.566 23.9123C117.795 24.4435 118.131 24.9218 118.553 25.3175C118.975 25.7133 119.474 26.018 120.019 26.2129C120.564 26.4077 121.143 26.4884 121.72 26.45C122.977 26.4983 124.22 26.1711 125.29 25.51V27.86C124.066 28.5349 122.688 28.8796 121.29 28.86C120.405 28.8869 119.523 28.735 118.697 28.4134C117.872 28.0917 117.12 27.607 116.486 26.9881C115.852 26.3692 115.35 25.6289 115.008 24.8113C114.667 23.9938 114.494 23.1159 114.5 22.23ZM126.7 22.23C126.695 21.3419 126.871 20.4621 127.217 19.6442C127.563 18.8263 128.072 18.0875 128.713 17.4727C129.354 16.858 130.113 16.3802 130.945 16.0685C131.776 15.7569 132.663 15.6179 133.55 15.66C134.85 15.6275 136.138 15.916 137.3 16.5V18.85C136.259 18.298 135.098 18.0096 133.92 18.01C133.344 17.9789 132.768 18.0647 132.227 18.2622C131.685 18.4597 131.189 18.7648 130.769 19.1591C130.348 19.5534 130.012 20.0288 129.78 20.5566C129.548 21.0843 129.426 21.6536 129.42 22.23C129.419 22.8085 129.536 23.3812 129.766 23.9123C129.995 24.4435 130.331 24.9218 130.753 25.3175C131.175 25.7133 131.674 26.018 132.219 26.2129C132.764 26.4077 133.343 26.4884 133.92 26.45C135.177 26.4983 136.42 26.1711 137.49 25.51V27.86C136.266 28.5349 134.888 28.8796 133.49 28.86C132.607 28.8786 131.728 28.721 130.907 28.3964C130.085 28.0718 129.336 27.5867 128.704 26.9695C128.072 26.3522 127.569 25.6152 127.225 24.8014C126.881 23.9877 126.702 23.1135 126.7 22.23ZM152.88 26.17V28.23C152.395 28.5095 151.839 28.6415 151.28 28.61C150.705 28.6563 150.131 28.5053 149.652 28.1817C149.174 27.8581 148.821 27.3814 148.65 26.83C148.073 27.4755 147.363 27.9885 146.569 28.3338C145.775 28.679 144.916 28.8483 144.05 28.83C141.42 28.83 139.36 27.33 139.36 24.61C139.36 21.89 141.42 20.95 144.15 20.95H148.47V20.76C148.47 18.6 146.69 18.04 144.81 18.04C143.422 18.0744 142.065 18.4634 140.87 19.17V16.7C142.298 15.9952 143.878 15.6518 145.47 15.7C148.85 15.7 151.29 17.3 151.29 20.49V25.18C151.273 25.3261 151.286 25.4741 151.328 25.6152C151.37 25.7562 151.439 25.8875 151.532 26.0013C151.625 26.115 151.741 26.2089 151.871 26.2774C152.001 26.3459 152.143 26.3876 152.29 26.4C152.505 26.3817 152.71 26.3018 152.88 26.17ZM148.28 23.07H145C143.22 23.07 142 23.45 142 24.67C142 26.08 143.22 26.55 144.72 26.55C145.385 26.5499 146.043 26.4172 146.656 26.1596C147.269 25.9021 147.825 25.5248 148.29 25.05L148.28 23.07ZM154.85 15.94H157.67V20.82H164V15.94H166.82V28.52H164V23.26H157.62V28.52H154.8L154.85 15.94ZM169.21 22.23C169.205 21.3419 169.381 20.4621 169.727 19.6442C170.073 18.8263 170.582 18.0875 171.223 17.4727C171.864 16.858 172.623 16.3802 173.455 16.0685C174.286 15.7569 175.173 15.6179 176.06 15.66C177.36 15.6275 178.648 15.916 179.81 16.5V18.85C178.769 18.298 177.608 18.0096 176.43 18.01C175.854 17.9789 175.278 18.0647 174.737 18.2622C174.195 18.4597 173.699 18.7648 173.279 19.1591C172.858 19.5534 172.522 20.0288 172.29 20.5566C172.058 21.0843 171.936 21.6536 171.93 22.23C171.929 22.8085 172.046 23.3812 172.276 23.9123C172.505 24.4435 172.841 24.9218 173.263 25.3175C173.685 25.7133 174.184 26.018 174.729 26.2129C175.274 26.4077 175.853 26.4884 176.43 26.45C177.687 26.4983 178.93 26.1711 180 25.51V27.86C178.776 28.5349 177.398 28.8796 176 28.86C175.115 28.8869 174.233 28.735 173.407 28.4134C172.582 28.0917 171.83 27.607 171.196 26.9881C170.562 26.3692 170.06 25.6289 169.718 24.8113C169.377 23.9938 169.204 23.1159 169.21 22.23ZM56.6 35.28H57.91V37.72L60.16 35.28H61.76L59.13 38.1L62.23 41.48H60.63L58 38.65V41.47H56.6V35.28ZM63.92 35.28H66.64C66.9119 35.2355 67.1902 35.2506 67.4556 35.3243C67.7211 35.398 67.9673 35.5286 68.1773 35.707C68.3873 35.8853 68.5559 36.1072 68.6716 36.3573C68.7873 36.6073 68.8472 36.8795 68.8472 37.155C68.8472 37.4305 68.7873 37.7027 68.6716 37.9527C68.5559 38.2028 68.3873 38.4247 68.1773 38.6031C67.9673 38.7814 67.7211 38.912 67.4556 38.9857C67.1902 39.0594 66.9119 39.0745 66.64 39.03H65.23V41.47H63.92V35.28ZM66.55 37.91C67.11 37.91 67.49 37.63 67.49 37.16C67.49 36.69 67.11 36.41 66.55 36.41H65.23V37.91H66.55ZM70.67 35.28H75.17V36.4H71.89V37.62H74.52V38.75H71.89V40.35H75.36V41.48H70.67V35.28ZM77.06 40.34H77.62C78.2917 39.1199 78.5841 37.7272 78.46 36.34V35.4H82.78V40.47H83.62V42.91H82.4V41.66H78.18V42.88H77V40.34H77.06ZM81.56 40.34V36.4H79.78C79.8363 37.7449 79.6115 39.0868 79.12 40.34H81.56ZM85.6 35.28H86.91V39.28L89.91 35.28H91V41.47H89.82V37.47L86.63 41.47H85.63L85.6 35.28ZM98 35.28V36.4H96V41.47H94.7V36.4H92.7V35.28H98Z" fill="#323E48"/>
<path d="M24 35.28H20V17.91C20.0158 15.0532 21.1576 12.3178 23.1777 10.2977C25.1978 8.27761 27.9332 7.13575 30.79 7.12H44.12V17.82C44.12 20.6817 42.9832 23.4262 40.9597 25.4497C38.9362 27.4732 36.1917 28.61 33.33 28.61H26.57L28.07 24.61H33.23C34.1222 24.6153 35.0066 24.4432 35.8317 24.1036C36.6568 23.764 37.4061 23.2638 38.0361 22.6319C38.6661 22.0001 39.1641 21.2493 39.5013 20.4232C39.8384 19.5971 40.008 18.7122 40 17.82V11.16H30.7C29.8112 11.156 28.9303 11.3282 28.1084 11.6665C27.2864 12.0048 26.5396 12.5026 25.9111 13.1311C25.2826 13.7596 24.7848 14.5064 24.4465 15.3284C24.1082 16.1503 23.936 17.0311 23.94 17.92V35.28H24Z" fill="url(#paint0_radial_2_2168)"/>
<defs>
<radialGradient id="paint0_radial_2_2168" cx="0" cy="0" r="1" gradientUnits="userSpaceOnUse" gradientTransform="translate(20.81 34.14) scale(23.35)">
<stop stop-color="#D6005E"/>
<stop offset="1" stop-color="#E3448A"/>
</radialGradient>
</defs>
</svg>
