<svg width="280" height="160" viewBox="0 0 280 160" fill="none" xmlns="http://www.w3.org/2000/svg">
<rect x="0.5" y="0.5" width="279" height="159" rx="14.5" stroke="black" stroke-opacity="0.2"/>
<path d="M96.6 66.25H104C105.639 66.239 107.216 66.8722 108.393 68.0132C109.569 69.1542 110.251 70.7116 110.29 72.35C110.274 74.005 109.603 75.5865 108.425 76.7483C107.246 77.9102 105.655 78.558 104 78.55H99.4V83.55H96.6V66.25ZM103.73 75.92C104.213 75.9401 104.694 75.8629 105.147 75.6929C105.599 75.5229 106.012 75.2637 106.362 74.9305C106.712 74.5974 106.991 74.1972 107.183 73.7539C107.376 73.3106 107.476 72.8331 107.48 72.35C107.483 71.8648 107.387 71.3841 107.198 70.9374C107.008 70.4908 106.729 70.0877 106.378 69.7532C106.026 69.4186 105.61 69.1597 105.155 68.9923C104.699 68.8249 104.214 68.7527 103.73 68.78H99.41V75.91L103.73 75.92ZM111.14 77.23C111.099 76.3641 111.239 75.4992 111.549 74.6898C111.859 73.8803 112.333 73.1438 112.942 72.5267C113.551 71.9095 114.28 71.4251 115.086 71.1038C115.891 70.7826 116.754 70.6314 117.62 70.66C121.62 70.66 123.62 74.04 123.62 77.42V78.08H114C114.38 80.24 116.25 81.46 118.79 81.46C120.201 81.4506 121.583 81.0602 122.79 80.33V82.68C121.413 83.5375 119.811 83.9625 118.19 83.9C114.24 83.89 111.14 81.27 111.14 77.23ZM120.81 75.92C120.799 75.5054 120.704 75.0972 120.532 74.7199C120.359 74.3426 120.113 74.0039 119.807 73.724C119.5 73.444 119.141 73.2286 118.75 73.0904C118.359 72.9523 117.944 72.8943 117.53 72.92C116.674 72.8647 115.83 73.1483 115.181 73.7095C114.532 74.2708 114.129 75.0647 114.06 75.92H120.81ZM126.06 70.94H128.88V75.82H135.26V70.94H138.08V83.52H135.26V78.26H128.88V83.52H126.06V70.94ZM140.42 77.23C140.379 76.3641 140.519 75.4992 140.829 74.6898C141.139 73.8803 141.613 73.1438 142.222 72.5267C142.831 71.9095 143.561 71.4251 144.366 71.1038C145.171 70.7826 146.034 70.6314 146.9 70.66C150.9 70.66 152.9 74.04 152.9 77.42V78.08H143.23C143.61 80.24 145.48 81.46 148.02 81.46C149.431 81.4506 150.813 81.0602 152.02 80.33V82.68C150.643 83.5375 149.041 83.9625 147.42 83.9C143.52 83.89 140.42 81.27 140.42 77.23ZM150.09 75.92C150.079 75.5054 149.984 75.0972 149.812 74.7199C149.639 74.3426 149.393 74.0039 149.087 73.724C148.781 73.444 148.421 73.2286 148.03 73.0904C147.639 72.9523 147.224 72.8943 146.81 72.92C145.954 72.8647 145.11 73.1483 144.461 73.7095C143.812 74.2708 143.409 75.0647 143.34 75.92H150.09ZM154.5 77.23C154.495 76.3419 154.671 75.4621 155.017 74.6442C155.363 73.8263 155.872 73.0875 156.513 72.4727C157.154 71.858 157.913 71.3802 158.745 71.0685C159.576 70.7569 160.463 70.6179 161.35 70.66C162.65 70.6275 163.938 70.916 165.1 71.5V73.85C164.059 73.298 162.898 73.0096 161.72 73.01C161.144 72.9789 160.568 73.0647 160.027 73.2622C159.485 73.4597 158.989 73.7648 158.569 74.1591C158.148 74.5534 157.812 75.0288 157.58 75.5566C157.348 76.0843 157.226 76.6536 157.22 77.23C157.219 77.8085 157.336 78.3812 157.566 78.9123C157.795 79.4435 158.131 79.9218 158.553 80.3175C158.975 80.7133 159.474 81.018 160.019 81.2129C160.564 81.4077 161.143 81.4884 161.72 81.45C162.977 81.4983 164.22 81.1711 165.29 80.51V82.86C164.066 83.5349 162.688 83.8796 161.29 83.86C160.405 83.8869 159.523 83.735 158.697 83.4134C157.872 83.0917 157.12 82.607 156.486 81.9881C155.852 81.3692 155.35 80.6289 155.008 79.8113C154.667 78.9938 154.494 78.1159 154.5 77.23ZM166.7 77.23C166.695 76.3419 166.871 75.4621 167.217 74.6442C167.563 73.8263 168.072 73.0875 168.713 72.4727C169.354 71.858 170.113 71.3802 170.945 71.0685C171.776 70.7569 172.663 70.6179 173.55 70.66C174.85 70.6275 176.138 70.916 177.3 71.5V73.85C176.259 73.298 175.098 73.0096 173.92 73.01C173.344 72.9789 172.768 73.0647 172.227 73.2622C171.685 73.4597 171.189 73.7648 170.769 74.1591C170.348 74.5534 170.012 75.0288 169.78 75.5566C169.548 76.0843 169.426 76.6536 169.42 77.23C169.419 77.8085 169.536 78.3812 169.766 78.9123C169.995 79.4435 170.331 79.9218 170.753 80.3175C171.175 80.7133 171.674 81.018 172.219 81.2129C172.764 81.4077 173.343 81.4884 173.92 81.45C175.177 81.4983 176.42 81.1711 177.49 80.51V82.86C176.266 83.5349 174.888 83.8796 173.49 83.86C172.607 83.8786 171.728 83.721 170.907 83.3964C170.085 83.0718 169.336 82.5867 168.704 81.9695C168.072 81.3522 167.569 80.6152 167.225 79.8014C166.881 78.9877 166.702 78.1135 166.7 77.23ZM192.88 81.17V83.23C192.395 83.5095 191.839 83.6415 191.28 83.61C190.705 83.6563 190.131 83.5053 189.652 83.1817C189.174 82.8581 188.821 82.3814 188.65 81.83C188.073 82.4755 187.363 82.9885 186.569 83.3338C185.775 83.679 184.916 83.8483 184.05 83.83C181.42 83.83 179.36 82.33 179.36 79.61C179.36 76.89 181.42 75.95 184.15 75.95H188.47V75.76C188.47 73.6 186.69 73.04 184.81 73.04C183.422 73.0744 182.065 73.4634 180.87 74.17V71.7C182.298 70.9952 183.878 70.6518 185.47 70.7C188.85 70.7 191.29 72.3 191.29 75.49V80.18C191.273 80.3261 191.286 80.4741 191.328 80.6152C191.37 80.7562 191.439 80.8875 191.532 81.0013C191.625 81.115 191.741 81.2089 191.871 81.2774C192.001 81.3459 192.143 81.3876 192.29 81.4C192.505 81.3817 192.71 81.3018 192.88 81.17ZM188.28 78.07H185C183.22 78.07 182 78.45 182 79.67C182 81.08 183.22 81.55 184.72 81.55C185.385 81.5499 186.043 81.4172 186.656 81.1596C187.269 80.9021 187.825 80.5248 188.29 80.05L188.28 78.07ZM194.85 70.94H197.67V75.82H204V70.94H206.82V83.52H204V78.26H197.62V83.52H194.8L194.85 70.94ZM209.21 77.23C209.205 76.3419 209.381 75.4621 209.727 74.6442C210.073 73.8263 210.582 73.0875 211.223 72.4727C211.864 71.858 212.623 71.3802 213.455 71.0685C214.286 70.7569 215.173 70.6179 216.06 70.66C217.36 70.6275 218.648 70.916 219.81 71.5V73.85C218.769 73.298 217.608 73.0096 216.43 73.01C215.854 72.9789 215.278 73.0647 214.737 73.2622C214.195 73.4597 213.699 73.7648 213.279 74.1591C212.858 74.5534 212.522 75.0288 212.29 75.5566C212.058 76.0843 211.936 76.6536 211.93 77.23C211.929 77.8085 212.046 78.3812 212.276 78.9123C212.505 79.4435 212.841 79.9218 213.263 80.3175C213.685 80.7133 214.184 81.018 214.729 81.2129C215.274 81.4077 215.853 81.4884 216.43 81.45C217.687 81.4983 218.93 81.1711 220 80.51V82.86C218.776 83.5349 217.398 83.8796 216 83.86C215.115 83.8869 214.233 83.735 213.407 83.4134C212.582 83.0917 211.83 82.607 211.196 81.9881C210.562 81.3692 210.06 80.6289 209.718 79.8113C209.377 78.9938 209.204 78.1159 209.21 77.23ZM96.6 90.28H97.91V92.72L100.16 90.28H101.76L99.13 93.1L102.23 96.48H100.63L98 93.65V96.47H96.6V90.28ZM103.92 90.28H106.64C106.912 90.2355 107.19 90.2506 107.456 90.3243C107.721 90.398 107.967 90.5286 108.177 90.707C108.387 90.8853 108.556 91.1072 108.672 91.3573C108.787 91.6073 108.847 91.8795 108.847 92.155C108.847 92.4305 108.787 92.7027 108.672 92.9527C108.556 93.2028 108.387 93.4247 108.177 93.6031C107.967 93.7814 107.721 93.912 107.456 93.9857C107.19 94.0594 106.912 94.0745 106.64 94.03H105.23V96.47H103.92V90.28ZM106.55 92.91C107.11 92.91 107.49 92.63 107.49 92.16C107.49 91.69 107.11 91.41 106.55 91.41H105.23V92.91H106.55ZM110.67 90.28H115.17V91.4H111.89V92.62H114.52V93.75H111.89V95.35H115.36V96.48H110.67V90.28ZM117.06 95.34H117.62C118.292 94.1199 118.584 92.7272 118.46 91.34V90.4H122.78V95.47H123.62V97.91H122.4V96.66H118.18V97.88H117V95.34H117.06ZM121.56 95.34V91.4H119.78C119.836 92.7449 119.611 94.0868 119.12 95.34H121.56ZM125.6 90.28H126.91V94.28L129.91 90.28H131V96.47H129.82V92.47L126.63 96.47H125.63L125.6 90.28ZM138 90.28V91.4H136V96.47H134.7V91.4H132.7V90.28H138Z" fill="#323E48"/>
<path d="M64 90.28H60V72.91C60.0158 70.0532 61.1576 67.3178 63.1777 65.2977C65.1978 63.2776 67.9332 62.1357 70.79 62.12H84.12V72.82C84.12 75.6817 82.9832 78.4262 80.9597 80.4497C78.9362 82.4732 76.1917 83.61 73.33 83.61H66.57L68.07 79.61H73.23C74.1222 79.6153 75.0066 79.4432 75.8317 79.1036C76.6568 78.764 77.4061 78.2638 78.0361 77.6319C78.6661 77.0001 79.1641 76.2493 79.5013 75.4232C79.8384 74.5971 80.008 73.7122 80 72.82V66.16H70.7C69.8112 66.156 68.9303 66.3282 68.1084 66.6665C67.2864 67.0048 66.5396 67.5026 65.9111 68.1311C65.2826 68.7596 64.7848 69.5064 64.4465 70.3284C64.1082 71.1503 63.936 72.0311 63.94 72.92V90.28H64Z" fill="url(#paint0_radial_2_2166)"/>
<defs>
<radialGradient id="paint0_radial_2_2166" cx="0" cy="0" r="1" gradientUnits="userSpaceOnUse" gradientTransform="translate(60.81 89.14) scale(23.35)">
<stop stop-color="#D6005E"/>
<stop offset="1" stop-color="#E3448A"/>
</radialGradient>
</defs>
</svg>
