<svg width="200" height="50" viewBox="0 0 200 50" fill="none" xmlns="http://www.w3.org/2000/svg">
<path d="M108.956 6.49707L90.5959 8.89558V14.3288L108.956 12.6903V6.49707Z" fill="#E4003A"/>
<path fill-rule="evenodd" clip-rule="evenodd" d="M105.48 18.9482L90.5959 8.90125V14.3216L95.237 17.4653L96.1501 17.998C94.4827 18.018 93.6842 18.3567 92.8821 18.841C90.5903 20.2227 89.4007 22.6525 89.4007 26.2381C89.4007 32.2799 92.7356 35.1405 99.0884 35.1405C105.442 35.1405 108.793 32.2799 108.793 26.2381C108.793 22.7413 107.659 20.3502 105.48 18.9482ZM99.0884 30.7227C95.939 30.7227 94.9478 29.5762 94.9478 26.2845C94.9478 22.9928 95.9316 21.8463 99.0884 21.8463C102.246 21.8463 103.213 22.9705 103.213 26.2845C103.213 29.5982 102.262 30.7227 99.0884 30.7227ZM52.8585 26.2845C52.8585 29.5818 53.8423 30.7227 56.9991 30.7227C60.156 30.7227 61.1233 29.5762 61.1233 26.2845C61.1233 22.9928 60.1708 21.8463 56.9991 21.8463C53.8271 21.8463 52.8585 22.9705 52.8585 26.2845ZM47.3114 26.2365C47.3114 20.1947 50.6686 17.4301 56.9991 17.4301C63.3298 17.4301 66.7017 20.1947 66.7017 26.2365C66.7017 32.278 63.3668 35.1389 56.9991 35.1389C50.6315 35.1389 47.3114 32.278 47.3114 26.2365ZM31.7209 20.0227C32.3249 19.257 34.7614 17.4078 37.7589 17.4078C42.7481 17.4078 45.4993 20.0967 45.4993 26.2049C45.4993 32.3128 42.7444 35.0278 37.7422 35.0278C34.7277 35.0278 32.3082 33.2118 31.6877 32.4295V40.5033H26.4019V17.8036H31.7209V20.0227ZM31.7247 26.1918C31.7247 29.4854 32.7159 30.63 35.8654 30.63V30.6228C39.037 30.6228 39.9876 29.5019 39.9876 26.1918C39.9876 22.8817 39.0222 21.7536 35.8654 21.7536C32.7085 21.7536 31.7247 22.8981 31.7247 26.1918ZM145.165 17.8109V23.9746H138.147V17.8109H132.828V34.4915H138.147V28.2425H145.165V34.4915H150.486V17.8109H145.165ZM118.381 35.0278C113.375 35.0278 110.623 32.3072 110.623 26.2049C110.623 20.1132 113.373 17.4078 118.362 17.4078C121.358 17.4078 123.794 19.257 124.402 20.0116V17.7925H129.721V34.4931H124.433V32.4295C123.813 33.2118 121.393 35.0278 118.381 35.0278ZM120.258 21.7424C117.084 21.7424 116.133 22.8669 116.133 26.1806C116.131 29.4779 117.103 30.6191 120.258 30.6191C123.413 30.6191 124.396 29.491 124.396 26.1806C124.396 22.8705 123.431 21.7424 120.258 21.7424ZM82.1364 28.3277C81.7213 30.0717 80.6098 30.7224 78.2011 30.7224C75.0517 30.7224 74.0621 29.5758 74.0621 26.2842C74.0621 22.9925 75.0517 21.846 78.2011 21.846C80.6098 21.846 81.7213 22.495 82.1381 24.2502L87.6852 23.8303C86.8569 19.4661 83.6091 17.4373 78.2011 17.4373C71.8705 17.4373 68.5153 20.2019 68.5153 26.2437C68.5153 32.2852 71.8499 35.1461 78.2011 35.1461C83.6054 35.1461 86.8199 33.075 87.6684 28.7532L82.1364 28.3277ZM164.581 25.7315L173 34.4895H166.162L158.829 26.8096V27.2127V28.6568V34.4895H153.604V17.8109H158.829V25.0564L165.967 17.8109H172.548L164.581 25.7315Z" fill="#00274F"/>
</svg>
