<svg width="280" height="160" viewBox="0 0 280 160" fill="none" xmlns="http://www.w3.org/2000/svg">
<rect x="0.5" y="0.5" width="279" height="159" rx="14.5" stroke="black" stroke-opacity="0.2"/>
<path d="M148.956 61.4971L130.596 63.8956V69.3288L148.956 67.6903V61.4971Z" fill="#E4003A"/>
<path fill-rule="evenodd" clip-rule="evenodd" d="M145.48 73.9482L130.596 63.9012V69.3216L135.237 72.4653L136.15 72.998C134.483 73.018 133.684 73.3567 132.882 73.841C130.59 75.2227 129.401 77.6525 129.401 81.2381C129.401 87.2799 132.736 90.1405 139.088 90.1405C145.442 90.1405 148.793 87.2799 148.793 81.2381C148.793 77.7413 147.659 75.3502 145.48 73.9482ZM139.088 85.7227C135.939 85.7227 134.948 84.5762 134.948 81.2845C134.948 77.9928 135.932 76.8463 139.088 76.8463C142.246 76.8463 143.213 77.9705 143.213 81.2845C143.213 84.5982 142.262 85.7227 139.088 85.7227ZM92.8585 81.2845C92.8585 84.5818 93.8423 85.7227 96.9991 85.7227C100.156 85.7227 101.123 84.5762 101.123 81.2845C101.123 77.9928 100.171 76.8463 96.9991 76.8463C93.8271 76.8463 92.8585 77.9705 92.8585 81.2845ZM87.3114 81.2365C87.3114 75.1947 90.6686 72.4301 96.9991 72.4301C103.33 72.4301 106.702 75.1947 106.702 81.2365C106.702 87.278 103.367 90.1389 96.9991 90.1389C90.6315 90.1389 87.3114 87.278 87.3114 81.2365ZM71.7209 75.0227C72.3249 74.257 74.7614 72.4078 77.7589 72.4078C82.7481 72.4078 85.4993 75.0967 85.4993 81.2049C85.4993 87.3128 82.7444 90.0278 77.7422 90.0278C74.7277 90.0278 72.3082 88.2118 71.6877 87.4295V95.5033H66.4019V72.8036H71.7209V75.0227ZM71.7247 81.1918C71.7247 84.4854 72.7159 85.63 75.8654 85.63V85.6228C79.037 85.6228 79.9876 84.5019 79.9876 81.1918C79.9876 77.8817 79.0222 76.7536 75.8654 76.7536C72.7085 76.7536 71.7247 77.8981 71.7247 81.1918ZM185.165 72.8109V78.9746H178.147V72.8109H172.828V89.4915H178.147V83.2425H185.165V89.4915H190.486V72.8109H185.165ZM158.381 90.0278C153.375 90.0278 150.623 87.3072 150.623 81.2049C150.623 75.1132 153.373 72.4078 158.362 72.4078C161.358 72.4078 163.794 74.257 164.402 75.0116V72.7925H169.721V89.4931H164.433V87.4295C163.813 88.2118 161.393 90.0278 158.381 90.0278ZM160.258 76.7424C157.084 76.7424 156.133 77.8669 156.133 81.1806C156.131 84.4779 157.103 85.6191 160.258 85.6191C163.413 85.6191 164.396 84.491 164.396 81.1806C164.396 77.8705 163.431 76.7424 160.258 76.7424ZM122.136 83.3277C121.721 85.0717 120.61 85.7224 118.201 85.7224C115.052 85.7224 114.062 84.5758 114.062 81.2842C114.062 77.9925 115.052 76.846 118.201 76.846C120.61 76.846 121.721 77.495 122.138 79.2502L127.685 78.8303C126.857 74.4661 123.609 72.4373 118.201 72.4373C111.87 72.4373 108.515 75.2019 108.515 81.2437C108.515 87.2852 111.85 90.1461 118.201 90.1461C123.605 90.1461 126.82 88.075 127.668 83.7532L122.136 83.3277ZM204.581 80.7315L213 89.4895H206.162L198.829 81.8096V82.2127V83.6568V89.4895H193.604V72.8109H198.829V80.0564L205.967 72.8109H212.548L204.581 80.7315Z" fill="#00274F"/>
</svg>
