<svg width="200" height="50" viewBox="0 0 200 50" fill="none" xmlns="http://www.w3.org/2000/svg">
<path fill-rule="evenodd" clip-rule="evenodd" d="M18.0924 28.0637L22.9549 23.3003V20.055L18.0924 24.8074V28.0637ZM18.0924 15.9846L22.9549 11.1991V8.1518L18.0924 12.8933V15.9736V15.9846ZM18.0924 19.978L22.9549 15.2145V12.1562L18.0924 16.9086V19.978ZM16.7063 8.1848L16.0462 7.56874V0H15.3201V6.84267L14.6821 6.21561V0H13.945V5.50054L13.2959 4.86247V0H12.5699V7.2167L17.4543 11.9802V0H16.7173V8.1848H16.7063ZM18.0924 23.9713L22.9549 19.2079V16.1496L18.0924 20.902V23.9713ZM12.5589 23.3003L17.4433 28.0637V24.8074L12.5589 20.055V23.3003ZM22.2288 4.86247L21.5797 5.50054V0H20.8537V6.22661L20.1936 6.84267V0H19.4675V7.55774L18.8295 8.1848V0H18.0924V11.9912L22.9549 7.2167V0H22.2288V4.86247ZM12.5589 11.1991L17.4433 15.9846V12.9043L12.5589 8.14079V11.1881V11.1991ZM12.5589 15.2145L17.4433 19.978V16.8976L12.5589 12.1672V15.2145ZM12.5589 19.2079L17.4433 23.9713V20.902L12.5589 16.1606V19.2079ZM41.5687 21.7271H29.7315C29.9899 21.3272 30.1274 20.8611 30.1276 20.385C30.1216 18.9948 28.9545 17.8377 27.5643 17.8437C26.1826 17.8497 25.029 19.0032 25.0231 20.385C25.0231 20.935 25.1991 21.4411 25.4961 21.8591C25.2747 22.0065 25.1353 22.2642 25.1331 22.5302C25.1331 22.8162 25.2871 23.0693 25.4961 23.2123C25.1896 23.6428 25.0243 24.1579 25.0231 24.6864C25.0231 26.0705 26.1802 27.2277 27.5643 27.2277C28.9545 27.2337 30.1216 26.0766 30.1276 24.6864C30.1276 24.1914 29.9846 23.7293 29.7315 23.3443H38.5434V23.8833H37.6633V24.6314H38.5434V25.4015H37.6633V26.8316H38.5434V26.1936H39.8305V26.8316H40.6996V25.4015H39.8305V24.6314H40.6996V23.8833H39.8305V23.3333H41.5687C41.9042 23.3333 42.1848 23.0528 42.1848 22.7172V22.3432C42.179 22.01 41.9019 21.7329 41.5687 21.7271ZM28.8845 24.6974C28.8845 25.4164 28.2834 26.0175 27.5643 26.0175C26.8453 26.0175 26.2442 25.4164 26.2442 24.6974C26.2442 24.1923 26.5877 23.768 26.8383 23.3553C26.6002 23.1519 26.4602 22.8433 26.4642 22.5302C26.4642 22.2002 26.6072 21.9141 26.8273 21.7161C26.5903 21.3015 26.2473 20.8722 26.2552 20.374C26.2552 19.655 26.8563 19.0539 27.5753 19.0539C28.2944 19.0539 28.8955 19.655 28.8955 20.374C28.8955 20.913 28.2794 22.1892 28.2794 22.1892V22.8712C28.2684 22.8822 28.8845 24.1584 28.8845 24.6974ZM8.13644 20.176V23.3553C8.13644 26.3806 9.45657 28.3388 10.2266 29.0868L15.2651 34.0373C16.6733 35.4125 16.9153 35.8635 17.2343 36.6446V33.1242C17.2343 30.2592 15.9021 29.0038 15.0448 28.1959C13.5471 26.7845 12.0777 25.3384 10.6227 23.8833C9.52193 22.8534 8.67148 21.5853 8.13644 20.176ZM10.6227 31.7381C9.59909 30.8104 8.75937 29.6983 8.14744 28.4598V31.199C8.11456 33.3098 8.85398 35.3598 10.2266 36.9636L15.2651 41.8811C16.624 43.2081 16.8969 43.8692 17.2011 44.6059L17.2343 44.6864V40.979C17.2343 38.1088 15.8975 36.8519 15.0469 36.0523L15.0464 36.0518L15.0451 36.0506C13.5502 34.6448 12.0746 33.19 10.6227 31.7381ZM24.8591 5.8744C24.5104 5.8744 24.1617 5.87461 23.8131 5.8964V7.37055C32.2103 6.72655 40.3396 11.5068 43.8591 19.1581C45.0123 21.6653 45.6436 24.3809 45.7146 27.1397C45.8569 32.6746 43.6785 38.1335 39.7646 42.0497C35.8507 45.9659 30.3931 48.1476 24.8582 48.0085C19.4624 48.0144 14.2851 45.8772 10.4646 42.067C6.64402 38.2568 4.49292 33.0853 4.48417 27.6895C4.48417 21.4519 7.28945 15.8854 11.7229 12.145V10.2528C9.01284 12.2805 6.81319 14.9125 5.29876 17.9394C3.78433 20.9664 2.99689 24.3049 2.99903 27.6895C2.99903 39.7357 12.79 49.5047 24.8692 49.5047C30.6588 49.5076 36.2127 47.2112 40.3097 43.1204C44.4067 39.0296 46.7115 33.4792 46.7173 27.6895C46.7173 15.6437 36.9268 5.8749 24.8591 5.8744ZM41.2828 37.6565C40.9857 38.1516 40.6557 38.6356 40.3257 39.0866V34.7302H41.2828V37.6565ZM43.2119 33.3699C43.1814 33.4703 43.1507 33.5716 43.1199 33.6741C42.5919 33.1351 41.6458 33.1461 40.7987 33.1681H40.3257V32.398H43.494C43.4096 32.7186 43.3122 33.0394 43.2119 33.3699ZM21.1508 32.277H22.0089V32.288V40.9788H21.1508V32.277ZM19.1705 30.615H22.0088C22.7459 30.615 23.2629 30.769 23.5489 31.055C23.846 31.33 23.989 31.8471 23.989 32.5732V40.7139C23.989 41.44 23.857 41.9461 23.5489 42.2321C23.1089 42.6831 22.2728 42.6831 21.5907 42.6831L21.1507 42.6721V46.5225L22.0088 46.6765V43.5082C23.3289 43.5082 24.176 43.0682 24.583 42.1661V46.8855H24.8691L25.4191 46.8745V32.7162C25.4191 31.9681 25.5621 31.44 25.8592 31.143C26.1342 30.846 26.6512 30.703 27.3663 30.703C27.4675 30.703 27.5751 30.7009 27.6869 30.6987C28.3896 30.6852 29.2585 30.6685 29.7425 31.143C30.0286 31.44 30.1606 31.9791 30.1606 32.7162V36.8966H28.2134V32.4301H27.3663V46.7205C27.6523 46.6875 27.9164 46.6435 28.2134 46.5885V37.7327H30.1606V46.1375C30.5566 46.0275 30.9527 45.9064 31.3487 45.7634V38.0627C31.3487 37.1826 31.5577 36.5225 32.4488 36.2255L31.4587 30.868H33.4389L33.7689 36.7095H34.011L34.341 30.868H36.4092L35.2981 36.2255C36.2222 36.5555 36.4092 37.1166 36.4092 38.0517V43.0352C36.9863 42.6024 37.5373 42.1359 38.0593 41.638V30.824H43.8349L43.9449 30.0319H30.4246L30.6116 31.011C30.1936 30.2189 29.3795 29.8229 28.1914 29.8229H27.3443C25.9142 29.8229 25.0341 30.3949 24.704 31.528C24.407 30.3399 23.4939 29.7459 21.9978 29.7459H18.3014V45.7194C18.5874 45.8184 18.8735 45.9174 19.1595 45.9945V30.626L19.1705 30.615ZM37.0913 36.7536L36.1562 35.8735L37.0913 31.066V36.7536ZM33.5786 44.7944C33.5282 44.8203 33.4779 44.8463 33.4279 44.8722V44.8612V37.8205H34.308V44.3991C34.0792 44.5364 33.8277 44.666 33.5786 44.7944Z" fill="#42AB44"/>
<path fill-rule="evenodd" clip-rule="evenodd" d="M166.135 19.0103L165.889 17.1445C165.095 17.3238 164.281 17.4068 163.477 17.5318C161.8 17.7824 160.151 18.4637 159.147 19.8904C158.092 21.4307 157.915 23.4085 157.915 25.2237C157.915 28.1901 159.052 31.0499 162.333 31.0499C165.008 31.0499 166.646 28.8459 166.646 26.3502C166.646 23.8893 165.3 21.8266 162.668 21.8266C161.806 21.8266 160.943 22.1 160.221 22.5659C160.385 21.4628 160.761 20.7001 161.348 20.2072C161.997 19.6353 162.903 19.4247 163.741 19.3271C164.542 19.2413 165.344 19.1685 166.135 19.0103ZM160.151 24.4316C160.682 23.8737 161.529 23.6396 162.28 23.6396C163.811 23.6396 164.481 24.9753 164.481 26.3502C164.481 27.7044 163.897 29.2017 162.333 29.2017C161.07 29.2017 160.403 28.2086 160.221 27.0543C160.091 26.2321 160.022 25.2675 160.151 24.4316ZM172.093 29.3071C172.751 29.3071 173.249 29.2719 173.59 29.2015V26.8429C172.962 26.6545 172.263 26.6452 171.618 26.7373C170.944 26.8384 170.333 27.2223 170.333 27.9694C170.333 29.0104 171.182 29.3071 172.093 29.3071ZM171.917 21.3688C174.257 21.3688 175.649 22.6601 175.649 25.0123V30.5921C173.981 30.9495 172.087 31.2269 170.404 30.8385C168.995 30.5134 168.204 29.4568 168.204 28.0222C168.204 26.5845 169.187 25.5936 170.562 25.3116C171.557 25.0878 172.6 25.1091 173.59 25.3468C173.59 24.0743 173.124 23.1641 171.706 23.1641C170.919 23.1641 170.093 23.2452 169.348 23.5162L169.084 21.7912C169.979 21.4797 170.975 21.3688 171.917 21.3688ZM183.855 30.8033H185.984V21.5976H183.855V25.1884H180.387V21.5976H178.257V30.8033H180.387V26.9485H183.855V30.8033ZM190.821 25.294V21.5976H188.691V30.8033H190.821V26.6669C192.28 27.7475 193.567 29.2748 194.535 30.8033H196.999C195.957 28.9387 194.445 27.1585 192.81 25.7868C194.159 24.4374 195.502 23.055 196.735 21.5976H194.236C193.158 22.8771 192.003 24.1114 190.821 25.294ZM149.026 21.8799C149.951 21.5244 151.016 21.387 152.001 21.387C153.638 21.387 155.768 21.9764 155.768 23.9745C155.768 24.8555 155.22 25.6125 154.43 25.9811C155.469 26.3735 156.067 27.2284 156.067 28.3397C156.067 30.4182 153.83 31.0328 152.089 31.0328C151.007 31.0328 149.797 30.9176 148.797 30.4695L149.167 28.7446C150.054 29.1178 151.028 29.255 151.983 29.255C153.274 29.255 153.92 28.8795 153.92 28.1285C153.92 27.1307 152.892 26.8788 152.054 26.8788H150.294V25.2946H152.036C152.746 25.2946 153.62 25.0796 153.62 24.2209C153.62 23.3672 152.582 23.1472 151.913 23.1472C151.105 23.1472 150.16 23.2733 149.414 23.6049L149.026 21.8799ZM147.495 26.1916C147.495 23.6024 145.79 21.3688 143.077 21.3688C140.359 21.3688 138.659 23.6036 138.659 26.1916C138.659 28.7854 140.346 31.0497 143.077 31.0497C145.822 31.0497 147.495 28.7977 147.495 26.1916ZM145.312 26.1916C145.312 27.5903 144.706 29.2015 143.077 29.2015C141.432 29.2015 140.841 27.6015 140.841 26.1916C140.841 24.7893 141.45 23.217 143.077 23.217C144.689 23.217 145.312 24.8004 145.312 26.1916ZM133.471 24.6075L135.425 21.5976H137.66L134.633 25.9452C135.816 27.4787 137.01 29.0718 137.889 30.8033H135.583C135.008 29.5878 134.198 28.4318 133.401 27.3534C132.566 28.4266 131.849 29.5997 131.218 30.8033H129.036C129.89 29.0952 131.05 27.5147 132.221 26.0156L129.176 21.5976H131.517L133.471 24.6075ZM123.406 24.8715C123.066 24.9067 122.807 24.9478 122.631 24.9947V21.5976H120.502V30.5745C121.734 30.8588 122.987 30.9969 124.251 30.9969C126.255 30.9969 128.229 30.1958 128.229 27.9166C128.229 25.2625 125.572 24.6474 123.406 24.8715ZM123.3 29.3072C123.007 29.2837 122.784 29.2602 122.631 29.2367V26.6141C122.807 26.5672 123.03 26.5378 123.3 26.5261C124.317 26.4377 126.099 26.4539 126.099 27.8814C126.099 29.412 124.418 29.3501 123.3 29.3072ZM113.315 23.3578C113.279 24.9685 113.263 26.6371 112.682 28.163C112.047 29.8292 110.571 30.8077 108.827 30.9793L108.528 29.2015C109.951 28.9224 110.738 27.9763 110.992 26.5789C111.167 25.7504 111.234 24.8896 111.256 24.0442C111.277 23.2288 111.273 22.4132 111.273 21.5976H117.786V30.8033H115.656V23.3578H113.315ZM99.1409 26.2444C99.1409 29.1098 100.989 31.0321 103.876 31.0321C104.834 31.0321 105.979 30.9222 106.85 30.4865L106.569 28.7439C105.816 29.0665 104.952 29.1839 104.14 29.1839C102.638 29.1839 101.466 28.4367 101.341 26.8605H107.414C107.44 26.5998 107.449 26.3304 107.449 26.0684C107.449 23.5227 106.172 21.3688 103.418 21.3688C100.724 21.3688 99.1409 23.7448 99.1409 26.2444ZM105.319 25.294H101.359C101.506 24.1683 102.2 23.1465 103.436 23.1465C104.631 23.1465 105.319 24.1778 105.319 25.294ZM90.8385 26.2092C90.8385 23.5538 92.6584 21.3688 95.3974 21.3688C96.2657 21.3688 97.0871 21.5272 97.8616 21.844L97.404 23.5866C96.8295 23.3404 96.1973 23.217 95.5734 23.217C93.8295 23.217 93.0211 24.6012 93.0211 26.2092C93.0211 27.9534 93.8864 29.1839 95.7142 29.1839C96.3853 29.1839 97.0801 29.0692 97.7032 28.8143L98.0024 30.5745C97.2542 30.9486 96.29 31.0321 95.4678 31.0321C92.5872 31.0321 90.8385 29.0285 90.8385 26.2092ZM82.5361 26.2092C82.5361 29.0285 84.2848 31.0321 87.1654 31.0321C87.9876 31.0321 88.9519 30.9486 89.7 30.5745L89.4008 28.8143C88.7777 29.0692 88.0829 29.1839 87.4118 29.1839C85.584 29.1839 84.7188 27.9534 84.7188 26.2092C84.7188 24.6012 85.5271 23.217 87.271 23.217C87.895 23.217 88.5272 23.3404 89.1016 23.5866L89.5592 21.844C88.7848 21.5272 87.9633 21.3688 87.095 21.3688C84.356 21.3688 82.5361 23.5538 82.5361 26.2092ZM80.8524 26.1916C80.8524 28.7977 79.1793 31.0497 76.4344 31.0497C73.7039 31.0497 72.0164 28.7854 72.0164 26.1916C72.0164 23.6036 73.7168 21.3688 76.4344 21.3688C79.1472 21.3688 80.8524 23.6024 80.8524 26.1916ZM78.6698 26.1916C78.6698 24.8005 78.0468 23.217 76.4344 23.217C74.8073 23.217 74.199 24.7893 74.199 26.1916C74.199 27.6015 74.79 29.2015 76.4344 29.2015C78.0639 29.2015 78.6698 27.5903 78.6698 26.1916ZM69.1815 19.4502C68.2427 18.8048 66.8874 18.4821 65.1155 18.4821C63.9704 18.4821 62.7853 18.5268 61.6655 18.7813V30.8033H63.8833V26.5084H64.9923C65.8841 26.5084 66.6761 26.4322 67.3685 26.2796C69.322 25.8492 70.6072 24.5336 70.6072 22.4777C70.6072 21.1047 70.132 20.0956 69.1815 19.4502ZM63.8833 20.4535C64.2471 20.4183 64.7106 20.4007 65.2739 20.4007C66.6686 20.4007 68.2838 20.7746 68.2838 22.4601C68.2838 24.3376 66.4838 24.6075 64.957 24.6075H63.8833V20.4535Z" fill="#1C1C1C"/>
</svg>
