<svg width="280" height="160" viewBox="0 0 280 160" fill="none" xmlns="http://www.w3.org/2000/svg">
<rect x="0.5" y="0.5" width="279" height="159" rx="14.5" stroke="black" stroke-opacity="0.2"/>
<path fill-rule="evenodd" clip-rule="evenodd" d="M58.0924 83.0637L62.9549 78.3003V75.055L58.0924 79.8074V83.0637ZM58.0924 70.9846L62.9549 66.1991V63.1518L58.0924 67.8933V70.9736V70.9846ZM58.0924 74.978L62.9549 70.2145V67.1562L58.0924 71.9086V74.978ZM56.7063 63.1848L56.0462 62.5687V55H55.3201V61.8427L54.6821 61.2156V55H53.945V60.5005L53.2959 59.8625V55H52.5699V62.2167L57.4543 66.9802V55H56.7173V63.1848H56.7063ZM58.0924 78.9713L62.9549 74.2079V71.1496L58.0924 75.902V78.9713ZM52.5589 78.3003L57.4433 83.0637V79.8074L52.5589 75.055V78.3003ZM62.2288 59.8625L61.5797 60.5005V55H60.8537V61.2266L60.1936 61.8427V55H59.4675V62.5577L58.8295 63.1848V55H58.0924V66.9912L62.9549 62.2167V55H62.2288V59.8625ZM52.5589 66.1991L57.4433 70.9846V67.9043L52.5589 63.1408V66.1881V66.1991ZM52.5589 70.2145L57.4433 74.978V71.8976L52.5589 67.1672V70.2145ZM52.5589 74.2079L57.4433 78.9713V75.902L52.5589 71.1606V74.2079ZM81.5687 76.7271H69.7315C69.9899 76.3272 70.1274 75.8611 70.1276 75.385C70.1216 73.9948 68.9545 72.8377 67.5643 72.8437C66.1826 72.8497 65.029 74.0032 65.0231 75.385C65.0231 75.935 65.1991 76.4411 65.4961 76.8591C65.2747 77.0065 65.1353 77.2642 65.1331 77.5302C65.1331 77.8162 65.2871 78.0693 65.4961 78.2123C65.1896 78.6428 65.0243 79.1579 65.0231 79.6864C65.0231 81.0705 66.1802 82.2277 67.5643 82.2277C68.9545 82.2337 70.1216 81.0766 70.1276 79.6864C70.1276 79.1914 69.9846 78.7293 69.7315 78.3443H78.5434V78.8833H77.6633V79.6314H78.5434V80.4015H77.6633V81.8316H78.5434V81.1936H79.8305V81.8316H80.6996V80.4015H79.8305V79.6314H80.6996V78.8833H79.8305V78.3333H81.5687C81.9042 78.3333 82.1848 78.0528 82.1848 77.7172V77.3432C82.179 77.01 81.9019 76.7329 81.5687 76.7271ZM68.8845 79.6974C68.8845 80.4164 68.2834 81.0175 67.5643 81.0175C66.8453 81.0175 66.2442 80.4164 66.2442 79.6974C66.2442 79.1923 66.5877 78.768 66.8383 78.3553C66.6002 78.1519 66.4602 77.8433 66.4642 77.5302C66.4642 77.2002 66.6072 76.9141 66.8273 76.7161C66.5903 76.3015 66.2473 75.8722 66.2552 75.374C66.2552 74.655 66.8563 74.0539 67.5753 74.0539C68.2944 74.0539 68.8955 74.655 68.8955 75.374C68.8955 75.913 68.2794 77.1892 68.2794 77.1892V77.8712C68.2684 77.8822 68.8845 79.1584 68.8845 79.6974ZM48.1364 75.176V78.3553C48.1364 81.3806 49.4566 83.3388 50.2266 84.0868L55.2651 89.0373C56.6733 90.4125 56.9153 90.8635 57.2343 91.6446V88.1242C57.2343 85.2592 55.9021 84.0038 55.0448 83.1959C53.5471 81.7845 52.0777 80.3384 50.6227 78.8833C49.5219 77.8534 48.6715 76.5853 48.1364 75.176ZM50.6227 86.7381C49.5991 85.8104 48.7594 84.6983 48.1474 83.4598V86.199C48.1146 88.3098 48.854 90.3598 50.2266 91.9636L55.2651 96.8811C56.624 98.2081 56.8969 98.8692 57.2011 99.6059L57.2343 99.6864V95.979C57.2343 93.1088 55.8975 91.8519 55.0469 91.0523L55.0464 91.0518L55.0451 91.0506C53.5502 89.6448 52.0746 88.19 50.6227 86.7381ZM64.8591 60.8744C64.5104 60.8744 64.1617 60.8746 63.8131 60.8964V62.3705C72.2103 61.7266 80.3396 66.5068 83.8591 74.1581C85.0123 76.6653 85.6436 79.3809 85.7146 82.1397C85.8569 87.6746 83.6785 93.1335 79.7646 97.0497C75.8507 100.966 70.3931 103.148 64.8582 103.009C59.4624 103.014 54.2851 100.877 50.4646 97.067C46.644 93.2568 44.4929 88.0853 44.4842 82.6895C44.4842 76.4519 47.2894 70.8854 51.7229 67.145V65.2528C49.0128 67.2805 46.8132 69.9125 45.2988 72.9394C43.7843 75.9664 42.9969 79.3049 42.999 82.6895C42.999 94.7357 52.79 104.505 64.8692 104.505C70.6588 104.508 76.2127 102.211 80.3097 98.1204C84.4067 94.0296 86.7115 88.4792 86.7173 82.6895C86.7173 70.6437 76.9268 60.8749 64.8591 60.8744ZM81.2828 92.6565C80.9857 93.1516 80.6557 93.6356 80.3257 94.0866V89.7302H81.2828V92.6565ZM83.2119 88.3699C83.1814 88.4703 83.1507 88.5716 83.1199 88.6741C82.5919 88.1351 81.6458 88.1461 80.7987 88.1681H80.3257V87.398H83.494C83.4096 87.7186 83.3122 88.0394 83.2119 88.3699ZM61.1508 87.277H62.0089V87.288V95.9788H61.1508V87.277ZM59.1705 85.615H62.0088C62.7459 85.615 63.2629 85.769 63.5489 86.055C63.846 86.33 63.989 86.8471 63.989 87.5732V95.7139C63.989 96.44 63.857 96.9461 63.5489 97.2321C63.1089 97.6831 62.2728 97.6831 61.5907 97.6831L61.1507 97.6721V101.523L62.0088 101.677V98.5082C63.3289 98.5082 64.176 98.0682 64.583 97.1661V101.886H64.8691L65.4191 101.875V87.7162C65.4191 86.9681 65.5621 86.44 65.8592 86.143C66.1342 85.846 66.6512 85.703 67.3663 85.703C67.4675 85.703 67.5751 85.7009 67.6869 85.6987C68.3896 85.6852 69.2585 85.6685 69.7425 86.143C70.0286 86.44 70.1606 86.9791 70.1606 87.7162V91.8966H68.2134V87.4301H67.3663V101.721C67.6523 101.688 67.9164 101.644 68.2134 101.589V92.7327H70.1606V101.137C70.5566 101.027 70.9527 100.906 71.3487 100.763V93.0627C71.3487 92.1826 71.5577 91.5225 72.4488 91.2255L71.4587 85.868H73.4389L73.7689 91.7095H74.011L74.341 85.868H76.4092L75.2981 91.2255C76.2222 91.5555 76.4092 92.1166 76.4092 93.0517V98.0352C76.9863 97.6024 77.5373 97.1359 78.0593 96.638V85.824H83.8349L83.9449 85.0319H70.4246L70.6116 86.011C70.1936 85.2189 69.3795 84.8229 68.1914 84.8229H67.3443C65.9142 84.8229 65.0341 85.3949 64.704 86.528C64.407 85.3399 63.4939 84.7459 61.9978 84.7459H58.3014V100.719C58.5874 100.818 58.8735 100.917 59.1595 100.994V85.626L59.1705 85.615ZM77.0913 91.7536L76.1562 90.8735L77.0913 86.066V91.7536ZM73.5786 99.7944C73.5282 99.8203 73.4779 99.8463 73.4279 99.8722V99.8612V92.8205H74.308V99.3991C74.0792 99.5364 73.8277 99.666 73.5786 99.7944Z" fill="#42AB44"/>
<path fill-rule="evenodd" clip-rule="evenodd" d="M206.135 74.0103L205.889 72.1445C205.095 72.3238 204.281 72.4068 203.477 72.5318C201.8 72.7824 200.151 73.4637 199.147 74.8904C198.092 76.4307 197.915 78.4085 197.915 80.2237C197.915 83.1901 199.052 86.0499 202.333 86.0499C205.008 86.0499 206.646 83.8459 206.646 81.3502C206.646 78.8893 205.3 76.8266 202.668 76.8266C201.806 76.8266 200.943 77.1 200.221 77.5659C200.385 76.4628 200.761 75.7001 201.348 75.2072C201.997 74.6353 202.903 74.4247 203.741 74.3271C204.542 74.2413 205.344 74.1685 206.135 74.0103ZM200.151 79.4316C200.682 78.8737 201.529 78.6396 202.28 78.6396C203.811 78.6396 204.481 79.9753 204.481 81.3502C204.481 82.7044 203.897 84.2017 202.333 84.2017C201.07 84.2017 200.403 83.2086 200.221 82.0543C200.091 81.2321 200.022 80.2675 200.151 79.4316ZM212.093 84.3071C212.751 84.3071 213.249 84.2719 213.59 84.2015V81.8429C212.962 81.6545 212.263 81.6452 211.618 81.7373C210.944 81.8384 210.333 82.2223 210.333 82.9694C210.333 84.0104 211.182 84.3071 212.093 84.3071ZM211.917 76.3688C214.257 76.3688 215.649 77.6601 215.649 80.0123V85.5921C213.981 85.9495 212.087 86.2269 210.404 85.8385C208.995 85.5134 208.204 84.4568 208.204 83.0222C208.204 81.5845 209.187 80.5936 210.562 80.3116C211.557 80.0878 212.6 80.1091 213.59 80.3468C213.59 79.0743 213.124 78.1641 211.706 78.1641C210.919 78.1641 210.093 78.2452 209.348 78.5162L209.084 76.7912C209.979 76.4797 210.975 76.3688 211.917 76.3688ZM223.855 85.8033H225.984V76.5976H223.855V80.1884H220.387V76.5976H218.257V85.8033H220.387V81.9485H223.855V85.8033ZM230.821 80.294V76.5976H228.691V85.8033H230.821V81.6669C232.28 82.7475 233.567 84.2748 234.535 85.8033H236.999C235.957 83.9387 234.445 82.1585 232.81 80.7868C234.159 79.4374 235.502 78.055 236.735 76.5976H234.236C233.158 77.8771 232.003 79.1114 230.821 80.294ZM189.026 76.8799C189.951 76.5244 191.016 76.387 192.001 76.387C193.638 76.387 195.768 76.9764 195.768 78.9745C195.768 79.8555 195.22 80.6125 194.43 80.9811C195.469 81.3735 196.067 82.2284 196.067 83.3397C196.067 85.4182 193.83 86.0328 192.089 86.0328C191.007 86.0328 189.797 85.9176 188.797 85.4695L189.167 83.7446C190.054 84.1178 191.028 84.255 191.983 84.255C193.274 84.255 193.92 83.8795 193.92 83.1285C193.92 82.1307 192.892 81.8788 192.054 81.8788H190.294V80.2946H192.036C192.746 80.2946 193.62 80.0796 193.62 79.2209C193.62 78.3672 192.582 78.1472 191.913 78.1472C191.105 78.1472 190.16 78.2733 189.414 78.6049L189.026 76.8799ZM187.495 81.1916C187.495 78.6024 185.79 76.3688 183.077 76.3688C180.359 76.3688 178.659 78.6036 178.659 81.1916C178.659 83.7854 180.346 86.0497 183.077 86.0497C185.822 86.0497 187.495 83.7977 187.495 81.1916ZM185.312 81.1916C185.312 82.5903 184.706 84.2015 183.077 84.2015C181.432 84.2015 180.841 82.6015 180.841 81.1916C180.841 79.7893 181.45 78.217 183.077 78.217C184.689 78.217 185.312 79.8004 185.312 81.1916ZM173.471 79.6075L175.425 76.5976H177.66L174.633 80.9452C175.816 82.4787 177.01 84.0718 177.889 85.8033H175.583C175.008 84.5878 174.198 83.4318 173.401 82.3534C172.566 83.4266 171.849 84.5997 171.218 85.8033H169.036C169.89 84.0952 171.05 82.5147 172.221 81.0156L169.176 76.5976H171.517L173.471 79.6075ZM163.406 79.8715C163.066 79.9067 162.807 79.9478 162.631 79.9947V76.5976H160.502V85.5745C161.734 85.8588 162.987 85.9969 164.251 85.9969C166.255 85.9969 168.229 85.1958 168.229 82.9166C168.229 80.2625 165.572 79.6474 163.406 79.8715ZM163.3 84.3072C163.007 84.2837 162.784 84.2602 162.631 84.2367V81.6141C162.807 81.5672 163.03 81.5378 163.3 81.5261C164.317 81.4377 166.099 81.4539 166.099 82.8814C166.099 84.412 164.418 84.3501 163.3 84.3072ZM153.315 78.3578C153.279 79.9685 153.263 81.6371 152.682 83.163C152.047 84.8292 150.571 85.8077 148.827 85.9793L148.528 84.2015C149.951 83.9224 150.738 82.9763 150.992 81.5789C151.167 80.7504 151.234 79.8896 151.256 79.0442C151.277 78.2288 151.273 77.4132 151.273 76.5976H157.786V85.8033H155.656V78.3578H153.315ZM139.141 81.2444C139.141 84.1098 140.989 86.0321 143.876 86.0321C144.834 86.0321 145.979 85.9222 146.85 85.4865L146.569 83.7439C145.816 84.0665 144.952 84.1839 144.14 84.1839C142.638 84.1839 141.466 83.4367 141.341 81.8605H147.414C147.44 81.5998 147.449 81.3304 147.449 81.0684C147.449 78.5227 146.172 76.3688 143.418 76.3688C140.724 76.3688 139.141 78.7448 139.141 81.2444ZM145.319 80.294H141.359C141.506 79.1683 142.2 78.1465 143.436 78.1465C144.631 78.1465 145.319 79.1778 145.319 80.294ZM130.839 81.2092C130.839 78.5538 132.658 76.3688 135.397 76.3688C136.266 76.3688 137.087 76.5272 137.862 76.844L137.404 78.5866C136.83 78.3404 136.197 78.217 135.573 78.217C133.83 78.217 133.021 79.6012 133.021 81.2092C133.021 82.9534 133.886 84.1839 135.714 84.1839C136.385 84.1839 137.08 84.0692 137.703 83.8143L138.002 85.5745C137.254 85.9486 136.29 86.0321 135.468 86.0321C132.587 86.0321 130.839 84.0285 130.839 81.2092ZM122.536 81.2092C122.536 84.0285 124.285 86.0321 127.165 86.0321C127.988 86.0321 128.952 85.9486 129.7 85.5745L129.401 83.8143C128.778 84.0692 128.083 84.1839 127.412 84.1839C125.584 84.1839 124.719 82.9534 124.719 81.2092C124.719 79.6012 125.527 78.217 127.271 78.217C127.895 78.217 128.527 78.3404 129.102 78.5866L129.559 76.844C128.785 76.5272 127.963 76.3688 127.095 76.3688C124.356 76.3688 122.536 78.5538 122.536 81.2092ZM120.852 81.1916C120.852 83.7977 119.179 86.0497 116.434 86.0497C113.704 86.0497 112.016 83.7854 112.016 81.1916C112.016 78.6036 113.717 76.3688 116.434 76.3688C119.147 76.3688 120.852 78.6024 120.852 81.1916ZM118.67 81.1916C118.67 79.8005 118.047 78.217 116.434 78.217C114.807 78.217 114.199 79.7893 114.199 81.1916C114.199 82.6015 114.79 84.2015 116.434 84.2015C118.064 84.2015 118.67 82.5903 118.67 81.1916ZM109.181 74.4502C108.243 73.8048 106.887 73.4821 105.115 73.4821C103.97 73.4821 102.785 73.5268 101.666 73.7813V85.8033H103.883V81.5084H104.992C105.884 81.5084 106.676 81.4322 107.368 81.2796C109.322 80.8492 110.607 79.5336 110.607 77.4777C110.607 76.1047 110.132 75.0956 109.181 74.4502ZM103.883 75.4535C104.247 75.4183 104.711 75.4007 105.274 75.4007C106.669 75.4007 108.284 75.7746 108.284 77.4601C108.284 79.3376 106.484 79.6075 104.957 79.6075H103.883V75.4535Z" fill="#1C1C1C"/>
</svg>
