<svg width="280" height="160" viewBox="0 0 280 160" fill="none" xmlns="http://www.w3.org/2000/svg">
<rect x="0.5" y="0.5" width="279" height="159" rx="14.5" stroke="black" stroke-opacity="0.2"/>
<path d="M91.36 68.94H87.53C87.8 69.25 87.84 69.53 87.84 70.2V78C87.9009 78.4441 87.79 78.8948 87.53 79.26H90.41C90.14 78.94 90.1 78.68 90.1 78V76H91.4C94.06 76 95.72 74.65 95.72 72.35C95.72 70.05 94.1 68.94 91.36 68.94ZM91 74.74H90V70.11H91C91.3171 70.0675 91.6397 70.0962 91.9442 70.1942C92.2488 70.2921 92.5276 70.4568 92.7604 70.6762C92.9933 70.8956 93.1742 71.1642 93.29 71.4624C93.4059 71.7607 93.4537 72.081 93.43 72.4C93.4523 72.7209 93.404 73.0427 93.2885 73.3429C93.1729 73.643 92.993 73.9142 92.7613 74.1373C92.5296 74.3604 92.2519 74.53 91.9475 74.6341C91.6432 74.7383 91.3198 74.7744 91 74.74ZM100.18 79.06L97 71.87C96.7939 71.3254 96.4887 70.8236 96.1 70.39H99.25C99.1497 70.6168 99.0979 70.862 99.0979 71.11C99.0979 71.358 99.1497 71.6032 99.25 71.83L101.25 76.51L103.01 71.74C103.099 71.526 103.145 71.2967 103.145 71.065C103.145 70.8333 103.099 70.6039 103.01 70.39H105.22C104.856 70.7483 104.594 71.1969 104.46 71.69L101.98 78.22C101.31 79.98 100.49 81.55 98.38 81.55C97.483 81.5825 96.6094 81.259 95.95 80.65L96.54 79.39C96.7293 79.7059 96.9998 79.9654 97.3234 80.1413C97.6471 80.3171 98.0119 80.403 98.38 80.39C99.23 80.46 99.82 80 100.22 79.07L100.18 79.06ZM109.5 79.38C107.16 79.38 105.27 77.9 105.27 74.79C105.249 74.164 105.36 73.5405 105.594 72.9595C105.828 72.3786 106.181 71.8529 106.63 71.4161C107.079 70.9793 107.614 70.6411 108.201 70.4231C108.789 70.2051 109.415 70.1121 110.04 70.15C111.21 70.15 111.89 70.42 112.47 70.42C112.735 70.4291 112.997 70.367 113.23 70.24L112.38 72.24C112.103 71.9299 111.764 71.6808 111.385 71.5087C111.006 71.3365 110.596 71.245 110.18 71.24C108.52 71.24 107.52 72.68 107.52 74.84C107.52 77 108.29 78.22 110.04 78.22C110.578 78.2298 111.112 78.1126 111.596 77.8781C112.081 77.6436 112.504 77.2982 112.83 76.87L113.23 77.87C112.759 78.3865 112.179 78.7918 111.532 79.0565C110.886 79.3211 110.188 79.4384 109.49 79.4L109.5 79.38ZM117.91 79.38C115.57 79.38 113.68 77.9 113.68 74.79C113.659 74.164 113.77 73.5405 114.004 72.9595C114.238 72.3786 114.591 71.8529 115.04 71.4161C115.489 70.9793 116.024 70.6411 116.611 70.4231C117.199 70.2051 117.825 70.1121 118.45 70.15C119.62 70.15 120.3 70.42 120.88 70.42C121.145 70.4291 121.407 70.367 121.64 70.24L120.83 72.24C120.553 71.9299 120.214 71.6808 119.835 71.5087C119.456 71.3365 119.046 71.245 118.63 71.24C117 71.23 116 72.68 116 74.83C116 76.98 116.76 78.21 118.52 78.21C119.058 78.2198 119.592 78.1026 120.076 77.8681C120.561 77.6336 120.984 77.2882 121.31 76.86L121.71 77.86C121.235 78.3616 120.658 78.7566 120.018 79.0186C119.379 79.2806 118.691 79.4038 118 79.38H117.91ZM125.2 74.7L128.26 71.5C128.8 70.96 128.85 70.73 128.85 70.33H131.6C131.022 70.7084 130.485 71.1476 130 71.64L127.35 74.29L130.23 77.8C130.662 78.375 131.198 78.8636 131.81 79.24H128.35C128.364 79.0539 128.335 78.8671 128.265 78.6939C128.196 78.5206 128.088 78.3654 127.95 78.24L125.2 74.88V78C125.133 78.4445 125.244 78.8975 125.51 79.26H122.72C122.97 78.8906 123.07 78.4403 123 78V71.6C123.067 71.1555 122.956 70.7025 122.69 70.34H125.48C125.22 70.7052 125.109 71.1558 125.17 71.6V74.7H125.2ZM138.7 71.6C138.767 71.1555 138.656 70.7025 138.39 70.34H141.18C140.92 70.7052 140.809 71.1558 140.87 71.6V78C140.803 78.4445 140.914 78.8975 141.18 79.26H138.38C138.644 78.8962 138.758 78.4454 138.7 78V73.66L134.92 77.66V78C134.853 78.4445 134.964 78.8975 135.23 79.26H132.44C132.704 78.8962 132.818 78.4454 132.76 78V71.6C132.827 71.1555 132.716 70.7025 132.45 70.34H135.24C134.98 70.7052 134.869 71.1558 134.93 71.6V75.92L138.71 71.92L138.7 71.6ZM149 71.6C149.067 71.1555 148.956 70.7025 148.69 70.34H151.48C151.22 70.7052 151.109 71.1558 151.17 71.6V78C151.103 78.4445 151.214 78.8975 151.48 79.26H148.69C148.95 78.8948 149.061 78.4441 149 78V73.66L145.22 77.66V78C145.153 78.4445 145.264 78.8975 145.53 79.26H142.74C143 78.8948 143.111 78.4441 143.05 78V71.6C143.117 71.1555 143.006 70.7025 142.74 70.34H145.53C145.27 70.7052 145.159 71.1558 145.22 71.6V75.92L149 71.92V71.6ZM146.66 67.73C146.506 67.9411 146.413 68.19 146.39 68.45C146.39 68.72 146.57 68.99 147.15 68.99C147.73 68.99 147.91 68.68 147.91 68.45C147.902 68.1867 147.807 67.9335 147.64 67.73H148.49C148.672 67.9781 148.779 68.273 148.8 68.58C148.8 69.3 148.12 69.71 147.09 69.71C146.06 69.71 145.38 69.31 145.38 68.59C145.386 68.4286 145.424 68.27 145.493 68.1239C145.561 67.9777 145.659 67.8471 145.78 67.74H146.64L146.66 67.73ZM165.06 71.11C164.725 70.7396 164.316 70.444 163.86 70.2424C163.403 70.0408 162.909 69.9378 162.41 69.94C160.34 69.94 159.12 71.56 159.12 74.13C159.12 76.7 160.02 78.23 162.45 78.23C163.022 78.2076 163.583 78.0683 164.099 77.8206C164.615 77.5729 165.075 77.2222 165.45 76.79L166.03 77.79C165.487 78.3428 164.833 78.7733 164.11 79.0527C163.387 79.3321 162.613 79.4539 161.84 79.41C158.69 79.41 156.71 77.52 156.71 74.19C156.69 73.4699 156.819 72.7534 157.089 72.0858C157.36 71.4181 157.766 70.8138 158.282 70.3111C158.798 69.8083 159.412 69.418 160.087 69.1648C160.761 68.9116 161.481 68.801 162.2 68.84C163.64 68.84 164.2 69.11 165.13 69.11C165.531 69.1364 165.929 69.0272 166.26 68.8L165.06 71.11Z" fill="#414042"/>
<path d="M167.85 71.5C167.152 71.4244 166.448 71.5826 165.85 71.95L166.57 70.38H174.62L173.93 72C173.766 71.8362 173.569 71.7109 173.351 71.6331C173.133 71.5552 172.9 71.5269 172.67 71.55H171.23V77.99C171.166 78.4358 171.281 78.889 171.55 79.25H168.76C169.024 78.8862 169.138 78.4354 169.08 77.99V71.5H167.85ZM183.2 79.24C182.786 78.8776 182.475 78.4117 182.3 77.89L179.1 70.37H176.58C176.854 70.6117 177.084 70.8994 177.26 71.22L174.38 77.88C174.165 78.3698 173.879 78.8248 173.53 79.23H175.69C175.42 78.69 175.51 78.46 175.69 77.79L175.87 77.25H179.79L179.97 77.79C180.15 78.47 180.29 78.69 179.97 79.23L183.2 79.24ZM176.36 76.18L177.93 72.45L179.37 76.18H176.36ZM190.18 75.18H186.4V77.93C186.336 78.3758 186.451 78.829 186.72 79.19H183.93C184.194 78.8262 184.308 78.3755 184.25 77.93V71.55C184.314 71.1042 184.199 70.651 183.93 70.29H186.72C186.456 70.6538 186.342 71.1046 186.4 71.55V74H190.18V71.55C190.244 71.1042 190.129 70.651 189.86 70.29H192.65C192.386 70.6538 192.272 71.1046 192.33 71.55V77.94C192.266 78.3858 192.381 78.839 192.65 79.2H189.86C190.124 78.8362 190.238 78.3855 190.18 77.94V75.18ZM201.52 77.18V71.65C201.462 71.2046 201.576 70.7538 201.84 70.39H194.84C195.11 70.71 195.16 70.97 195.16 71.65V75.16C195.16 76.78 194.89 78.04 193.27 78.63V80.2C193.908 79.6155 194.744 79.294 195.61 79.3H200.24C201.102 79.3152 201.93 79.6339 202.58 80.2V78.62C202.255 78.5567 201.965 78.3736 201.769 78.1068C201.573 77.8401 201.484 77.5092 201.52 77.18ZM199.45 77.67C199.45 77.7894 199.403 77.9038 199.318 77.9882C199.234 78.0726 199.119 78.12 199 78.12H196C196.542 77.2632 196.778 76.2481 196.67 75.24V71.91C196.662 71.849 196.668 71.7868 196.687 71.7285C196.707 71.6701 196.74 71.6171 196.784 71.5736C196.827 71.53 196.88 71.4971 196.938 71.4774C196.997 71.4577 197.059 71.4517 197.12 71.46H199.46L199.45 77.67ZM212.95 79.24C212.536 78.8776 212.225 78.4117 212.05 77.89L208.85 70.38H206.33C206.604 70.6217 206.834 70.9094 207.01 71.23L204.13 77.89C203.915 78.3798 203.629 78.8348 203.28 79.24H205.44C205.17 78.7 205.26 78.47 205.44 77.8L205.62 77.26H209.45L209.72 77.8C209.9 78.48 210.04 78.7 209.72 79.24H212.95ZM206.07 76.18L207.64 72.45L209.08 76.18H206.07ZM217.07 70.38H213.47C213.74 70.7 213.79 70.96 213.79 71.64V78.03C213.848 78.4755 213.734 78.9262 213.47 79.29H216.26C215.99 78.97 215.94 78.71 215.94 78.03V76.59H217C219.47 76.59 221 75.33 221 73.39C221 71.45 219.7 70.38 217 70.38H217.07ZM216.75 75.51H216V71.51H216.77C218.21 71.51 218.93 72.09 218.93 73.51C218.93 74.93 218.16 75.51 216.73 75.51H216.75ZM90.81 87.21H90V84.78H92.16C92.3872 84.7517 92.6179 84.7737 92.8357 84.8446C93.0535 84.9154 93.2529 85.0334 93.42 85.19L94.09 83.71H87.58C87.85 84.03 87.89 84.29 87.89 84.97V91.36C87.9509 91.8042 87.84 92.2548 87.58 92.62H90.87C92.94 92.62 94.51 91.95 94.51 89.96C94.51 87.97 92.93 87.21 90.81 87.21ZM90.58 91.48H89.91V88.2H90.58C91.71 88.2 92.42 88.65 92.42 89.82C92.42 90.99 91.67 91.48 90.59 91.48H90.58ZM104.71 92.61C104.296 92.2476 103.985 91.7817 103.81 91.26L100.62 83.74H98.11C98.3852 83.9847 98.6153 84.2758 98.79 84.6L95.9 91.26C95.6701 91.753 95.3666 92.2082 95 92.61H97.16C96.89 92.07 96.98 91.85 97.16 91.17L97.34 90.63H101.17L101.44 91.17C101.62 91.85 101.75 92.07 101.44 92.61H104.71ZM97.87 89.55L99.36 85.82L100.84 89.55H97.87ZM111.87 88.55H108.14V91.3C108.073 91.7445 108.184 92.1975 108.45 92.56H105.67C105.937 92.1977 106.055 91.7467 106 91.3V84.92C106.067 84.4755 105.956 84.0225 105.69 83.66H108.48C108.22 84.0252 108.109 84.4758 108.17 84.92V87.4H111.95V84.92C112.017 84.4755 111.906 84.0225 111.64 83.66H114.4C114.14 84.0252 114.029 84.4758 114.09 84.92V91.31C114.023 91.7545 114.134 92.2075 114.4 92.57H111.61C111.87 92.2048 111.981 91.7542 111.92 91.31L111.87 88.55ZM118.62 88.06L121.68 84.87C122.22 84.33 122.27 84.1 122.27 83.7H125.02C124.466 84.0792 123.954 84.5149 123.49 85L120.79 87.66L123.67 91.17C124.101 91.745 124.637 92.2336 125.25 92.61H121.78C121.793 92.4239 121.765 92.2371 121.695 92.0639C121.626 91.8906 121.518 91.7354 121.38 91.61L118.63 88.28V91.4C118.563 91.8445 118.674 92.2975 118.94 92.66H116.15C116.41 92.2948 116.521 91.8442 116.46 91.4V85C116.527 84.5555 116.416 84.1025 116.15 83.74H118.94C118.68 84.1052 118.569 84.5558 118.63 85L118.67 88.07L118.62 88.06ZM223.25 71.5C222.552 71.4244 221.848 71.5826 221.25 71.95L221.97 70.38H229.97L229.28 72C229.116 71.8285 228.916 71.6949 228.695 71.6085C228.474 71.5222 228.237 71.4851 228 71.5H226.56V77.94C226.496 78.3858 226.611 78.839 226.88 79.2H224.13C224.394 78.8362 224.508 78.3855 224.45 77.94V71.5H223.25ZM66.52 63C63.251 62.9921 60.0531 63.9543 57.3311 65.7647C54.6091 67.5751 52.4855 70.1524 51.229 73.1703C49.9725 76.1882 49.6396 79.5111 50.2726 82.7183C50.9055 85.9255 52.4757 88.8728 54.7844 91.1872C57.0932 93.5016 60.0367 95.0789 63.2424 95.7197C66.448 96.3604 69.7717 96.0355 72.7927 94.7863C75.8136 93.5371 78.3961 91.4198 80.2131 88.7022C82.0301 85.9846 83 82.7891 83 79.52C83.0026 77.3532 82.5784 75.2071 81.7517 73.2042C80.9249 71.2013 79.7117 69.3809 78.1814 67.8469C76.6511 66.3129 74.8336 65.0953 72.8328 64.2637C70.8319 63.4321 68.6868 63.0027 66.52 63ZM66.52 94.32C63.5968 94.316 60.7404 93.4453 58.3121 91.818C55.8837 90.1907 53.9924 87.8798 52.8774 85.1776C51.7624 82.4754 51.4738 79.5032 52.0479 76.637C52.6221 73.7707 54.0333 71.1391 56.1031 69.0748C58.1729 67.0106 60.8084 65.6065 63.6762 65.0401C66.544 64.4738 69.5154 64.7705 72.2145 65.8927C74.9137 67.0151 77.2195 68.9126 78.8402 71.3453C80.461 73.7781 81.324 76.6368 81.32 79.56C81.3174 81.5009 80.9325 83.4224 80.1873 85.2145C79.4421 87.0067 78.3512 88.6346 76.9769 90.0052C75.6026 91.3758 73.9718 92.4623 72.1776 93.2026C70.3834 93.9429 68.4609 94.3226 66.52 94.32Z" fill="#414042"/>
<path d="M70.16 85.37C71.51 86.85 71.33 89.6 70.88 90.86C70.8711 90.9153 70.8505 90.968 70.8194 91.0146C70.7884 91.0612 70.7476 91.1006 70.7 91.13C69.93 91.4 68.99 91.58 68.54 91.71C69.4156 90.9382 70.0385 89.9206 70.3274 88.7898C70.6164 87.6589 70.558 86.4672 70.16 85.37ZM77.9 83.61C76.1492 82.0924 74.0445 81.0401 71.78 80.55C74.0552 81.6806 75.8911 83.5341 77 85.82C77.3898 85.1831 77.7243 84.514 78 83.82C78 83.74 78 83.7 77.9 83.61ZM78.84 79.56C78.8614 79.5019 78.8614 79.4381 78.84 79.38C78.1683 79.0903 77.4765 78.8496 76.77 78.66C77.0771 78.4875 77.3168 78.2161 77.45 77.89C76.7197 78.2414 75.9204 78.4259 75.11 78.43C76.4853 78.9743 77.7726 79.719 78.93 80.64C78.8347 80.2884 78.8042 79.9225 78.84 79.56Z" fill="#414042"/>
<path d="M72.14 83.93C72.6209 84.0866 73.1391 84.0866 73.62 83.93C71.62 83.39 70.47 80.56 65.88 80.15C65.7 80.15 65.21 80.15 65.47 79.74C66.1032 79.0917 66.8001 78.5088 67.55 78C67.23 78 65.66 78.13 65.21 78.18C64.76 78.23 64.63 78.18 64.63 77.77C64.63 77.77 63.73 78.63 64.18 79.08C64.3566 79.1295 64.5434 79.1295 64.72 79.08C64.9 79.08 65.3 78.9 65.58 78.81C65.3967 79.0457 65.2454 79.3046 65.13 79.58C65.13 79.85 65 79.99 65.45 80.12C66.8105 80.5296 68.1066 81.1288 69.3 81.9C70.6099 82.7027 71.6856 83.8358 72.4193 85.1855C73.1529 86.5353 73.5187 88.0542 73.48 89.59C74.0968 89.148 74.6846 88.667 75.24 88.15V87.88C74.5406 86.3324 73.477 84.9771 72.14 83.93Z" fill="#414042"/>
<path d="M77.2701 74C77 73.82 75.6901 73 75.3801 72.83C75.1077 72.7015 74.8781 72.4975 74.7185 72.2422C74.5589 71.9869 74.4762 71.6911 74.48 71.39C74.48 70.54 74.0301 69.39 72.41 68.02C72.3867 68.1523 72.3867 68.2877 72.41 68.42C71.9298 67.9836 71.3379 67.6894 70.7001 67.57C70.7001 67.57 70.83 67.03 70.88 66.72C70.93 66.41 70.7001 66.13 70.2001 66.41C68.2001 67.26 64.98 67.26 61.6 70.5C62.0498 69.4138 62.7608 68.4554 63.67 67.71C62.8128 67.8947 61.9803 68.18 61.19 68.56C60.948 68.6794 60.7464 68.8672 60.61 69.1C59.3774 70.9933 58.55 73.1213 58.18 75.35C57.9688 73.7503 57.9688 72.1297 58.18 70.53C57.5172 71.1118 56.9142 71.7583 56.38 72.46C56.1688 72.6915 56.0574 72.9969 56.07 73.31C56.079 75.6643 56.5691 77.9919 57.51 80.15C56.2429 78.8872 55.2877 77.3464 54.72 75.65C54.3852 76.6732 54.1606 77.7291 54.05 78.8C54.056 79.2503 54.1952 79.6887 54.45 80.06C55.7994 82.3728 57.7434 84.2822 60.08 85.59C58.73 85.46 55.85 83.88 54.46 82.71C54.7178 83.7566 55.1112 84.7652 55.63 85.71C55.81 86.12 56.03 86.29 56.63 86.61C58.9221 87.8902 61.5279 88.5 64.15 88.37C62.1556 89.0803 59.9969 89.1915 57.94 88.69C58.2996 89.0573 58.6912 89.392 59.11 89.69C60.0331 90.3715 61.1067 90.8208 62.24 91C64.9 91.54 68.18 89.65 67.37 86.09C67.2278 86.3992 67.0228 86.6753 66.768 86.9009C66.5132 87.1264 66.2141 87.2964 65.89 87.4C67.2 86.09 67.06 84.02 64.77 83.76C63.8112 83.6915 62.8488 83.6915 61.89 83.76C61.6181 83.7944 61.342 83.7633 61.0845 83.6694C60.8271 83.5755 60.5958 83.4214 60.41 83.22C60.8467 83.1871 61.2808 83.127 61.71 83.04C62.4481 82.7549 63.2221 82.5732 64.01 82.5C64.01 82.37 63.69 81.96 62.66 82.37C62.4799 82.4042 62.294 82.3929 62.1194 82.337C61.9447 82.2811 61.7868 82.1825 61.66 82.05C62.66 82.32 63.1 81.15 64.09 81.78C64.27 81.91 64.63 81.91 64.5 81.65C64.4218 81.4798 64.294 81.3373 64.1335 81.2409C63.9729 81.1446 63.7869 81.0989 63.6 81.11C62.6326 80.9571 61.6422 81.0499 60.72 81.38C60.3101 81.5789 59.9325 81.8385 59.6 82.15C59.528 81.2428 59.8032 80.342 60.37 79.63C61.3418 79.0269 62.4342 78.6445 63.57 78.51C63.5222 78.4048 63.4975 78.2906 63.4975 78.175C63.4975 78.0594 63.5222 77.9452 63.57 77.84C63.89 77.43 64.88 76.72 70.68 76.72L70.23 77.17C71.4718 77.2664 72.6956 77.5252 73.87 77.94C74 77.94 74.32 78.07 74.73 77.4C74.86 77.22 74.73 77.22 74.41 77C74.4272 76.894 74.4272 76.786 74.41 76.68C74.41 76.5 74.28 76.55 74.23 76.68C74.18 76.81 73.65 76.81 73.55 76.68C73.4419 76.4688 73.2829 76.2879 73.0873 76.1534C72.8918 76.019 72.666 75.9354 72.43 75.91C72.6183 75.7308 72.8518 75.6064 73.1056 75.55C73.3593 75.4936 73.6236 75.5074 73.87 75.59C73.87 75.59 73.87 75.86 74.14 75.77C74.41 75.68 74.4601 75.5 74.59 75.77C74.6124 75.8755 74.6124 75.9845 74.59 76.09C74.59 76.22 74.59 76.27 74.7701 76.09L75.09 75.77C75.3398 75.8546 75.6103 75.8546 75.8601 75.77C76.0912 75.6728 76.2947 75.5194 76.4519 75.3239C76.609 75.1284 76.7148 74.8968 76.76 74.65C77.14 74.47 77.41 74.07 77.2701 74ZM66.15 73.73C66.3992 73.6199 66.6566 73.5296 66.92 73.46C67.19 73.46 67.37 73.46 67.19 73.64C66.61 74.49 66.61 76.11 67.46 76.43C66.9339 76.4269 66.4085 76.4704 65.89 76.56C65.849 75.7888 65.9096 75.0155 66.07 74.26L65.17 74.66C65.2265 73.6517 65.5365 72.674 66.0715 71.8175C66.6064 70.9609 67.3488 70.2532 68.23 69.76C67.0829 70.7827 66.3442 72.1855 66.15 73.71V73.73ZM69.88 67.34C69.7 67.61 69.2 68.19 69.34 68.6C69.0479 68.6875 68.7608 68.791 68.48 68.91C68.3 69.05 68.21 68.91 68.3 68.73C68.5884 68.1336 69.0434 67.6334 69.61 67.29C70 67.05 70 67.23 69.89 67.32L69.88 67.34ZM73.6101 71.84C73.6101 72.11 73.6101 72.16 73.2901 72.11C73.1681 72.0491 73.0359 72.0117 72.9001 72H72.7701C72.9172 72.2758 72.9799 72.5888 72.9501 72.9C72.6674 72.3047 72.2697 71.7711 71.78 71.33C72.221 71.2896 72.6656 71.3337 73.09 71.46C73.2701 71.46 73.5001 71.46 73.6301 70.69C73.7691 71.0545 73.7654 71.458 73.62 71.82L73.6101 71.84Z" fill="#414042"/>
</svg>
