<svg width="200" height="50" viewBox="0 0 200 50" fill="none" xmlns="http://www.w3.org/2000/svg">
<path d="M51.36 13.94H47.53C47.8 14.25 47.84 14.53 47.84 15.2V23C47.9009 23.4441 47.79 23.8948 47.53 24.26H50.41C50.14 23.94 50.1 23.68 50.1 23V21H51.4C54.06 21 55.72 19.65 55.72 17.35C55.72 15.05 54.1 13.94 51.36 13.94ZM51 19.74H50V15.11H51C51.3171 15.0675 51.6397 15.0962 51.9442 15.1942C52.2488 15.2921 52.5276 15.4568 52.7604 15.6762C52.9933 15.8956 53.1742 16.1642 53.29 16.4624C53.4059 16.7607 53.4537 17.081 53.43 17.4C53.4523 17.7209 53.404 18.0427 53.2885 18.3429C53.1729 18.643 52.993 18.9142 52.7613 19.1373C52.5296 19.3604 52.2519 19.53 51.9475 19.6341C51.6432 19.7383 51.3198 19.7744 51 19.74ZM60.18 24.06L57 16.87C56.7939 16.3254 56.4887 15.8236 56.1 15.39H59.25C59.1497 15.6168 59.0979 15.862 59.0979 16.11C59.0979 16.358 59.1497 16.6032 59.25 16.83L61.25 21.51L63.01 16.74C63.0988 16.526 63.1446 16.2967 63.1446 16.065C63.1446 15.8333 63.0988 15.6039 63.01 15.39H65.22C64.8559 15.7483 64.5936 16.1969 64.46 16.69L61.98 23.22C61.31 24.98 60.49 26.55 58.38 26.55C57.483 26.5825 56.6094 26.259 55.95 25.65L56.54 24.39C56.7293 24.7059 56.9998 24.9654 57.3234 25.1413C57.6471 25.3171 58.0119 25.403 58.38 25.39C59.23 25.46 59.82 25 60.22 24.07L60.18 24.06ZM69.5 24.38C67.16 24.38 65.27 22.9 65.27 19.79C65.2494 19.164 65.3597 18.5405 65.5938 17.9595C65.828 17.3786 66.1808 16.8529 66.6298 16.4161C67.0788 15.9793 67.6141 15.6411 68.2013 15.4231C68.7885 15.2051 69.4148 15.1121 70.04 15.15C71.21 15.15 71.89 15.42 72.47 15.42C72.7349 15.4291 72.9974 15.367 73.23 15.24L72.38 17.24C72.1027 16.9299 71.7639 16.6808 71.3851 16.5087C71.0064 16.3365 70.596 16.245 70.18 16.24C68.52 16.24 67.52 17.68 67.52 19.84C67.52 22 68.29 23.22 70.04 23.22C70.5784 23.2298 71.1115 23.1126 71.5962 22.8781C72.0809 22.6436 72.5036 22.2982 72.83 21.87L73.23 22.87C72.7592 23.3865 72.1793 23.7918 71.5324 24.0565C70.8855 24.3211 70.1879 24.4384 69.49 24.4L69.5 24.38ZM77.91 24.38C75.57 24.38 73.68 22.9 73.68 19.79C73.6594 19.164 73.7697 18.5405 74.0038 17.9595C74.238 17.3786 74.5908 16.8529 75.0398 16.4161C75.4888 15.9793 76.0241 15.6411 76.6113 15.4231C77.1985 15.2051 77.8248 15.1121 78.45 15.15C79.62 15.15 80.3 15.42 80.88 15.42C81.1449 15.4291 81.4074 15.367 81.64 15.24L80.83 17.24C80.5527 16.9299 80.2139 16.6808 79.8351 16.5087C79.4564 16.3365 79.046 16.245 78.63 16.24C77 16.23 76 17.68 76 19.83C76 21.98 76.76 23.21 78.52 23.21C79.0584 23.2198 79.5915 23.1026 80.0762 22.8681C80.5609 22.6336 80.9836 22.2882 81.31 21.86L81.71 22.86C81.2345 23.3616 80.6579 23.7566 80.0183 24.0186C79.3787 24.2806 78.6908 24.4038 78 24.38H77.91ZM85.2 19.7L88.26 16.5C88.8 15.96 88.85 15.73 88.85 15.33H91.6C91.0215 15.7084 90.4851 16.1476 90 16.64L87.35 19.29L90.23 22.8C90.6615 23.375 91.1975 23.8636 91.81 24.24H88.35C88.3635 24.0539 88.3346 23.8671 88.2653 23.6939C88.196 23.5206 88.0882 23.3654 87.95 23.24L85.2 19.88V23C85.1327 23.4445 85.2441 23.8975 85.51 24.26H82.72C82.9695 23.8906 83.0696 23.4403 83 23V16.6C83.0673 16.1555 82.9559 15.7025 82.69 15.34H85.48C85.22 15.7052 85.1091 16.1558 85.17 16.6V19.7H85.2ZM98.7 16.6C98.7673 16.1555 98.6559 15.7025 98.39 15.34H101.18C100.92 15.7052 100.809 16.1558 100.87 16.6V23C100.803 23.4445 100.914 23.8975 101.18 24.26H98.38C98.6436 23.8962 98.758 23.4454 98.7 23V18.66L94.92 22.66V23C94.8527 23.4445 94.9641 23.8975 95.23 24.26H92.44C92.7036 23.8962 92.818 23.4454 92.76 23V16.6C92.8273 16.1555 92.7159 15.7025 92.45 15.34H95.24C94.98 15.7052 94.8691 16.1558 94.93 16.6V20.92L98.71 16.92L98.7 16.6ZM109 16.6C109.067 16.1555 108.956 15.7025 108.69 15.34H111.48C111.22 15.7052 111.109 16.1558 111.17 16.6V23C111.103 23.4445 111.214 23.8975 111.48 24.26H108.69C108.95 23.8948 109.061 23.4441 109 23V18.66L105.22 22.66V23C105.153 23.4445 105.264 23.8975 105.53 24.26H102.74C103 23.8948 103.111 23.4441 103.05 23V16.6C103.117 16.1555 103.006 15.7025 102.74 15.34H105.53C105.27 15.7052 105.159 16.1558 105.22 16.6V20.92L109 16.92V16.6ZM106.66 12.73C106.506 12.9411 106.413 13.19 106.39 13.45C106.39 13.72 106.57 13.99 107.15 13.99C107.73 13.99 107.91 13.68 107.91 13.45C107.902 13.1867 107.807 12.9335 107.64 12.73H108.49C108.672 12.9781 108.779 13.273 108.8 13.58C108.8 14.3 108.12 14.71 107.09 14.71C106.06 14.71 105.38 14.31 105.38 13.59C105.386 13.4286 105.424 13.27 105.493 13.1239C105.561 12.9777 105.659 12.8471 105.78 12.74H106.64L106.66 12.73ZM125.06 16.11C124.725 15.7396 124.316 15.444 123.86 15.2424C123.403 15.0408 122.909 14.9378 122.41 14.94C120.34 14.94 119.12 16.56 119.12 19.13C119.12 21.7 120.02 23.23 122.45 23.23C123.022 23.2076 123.583 23.0683 124.099 22.8206C124.615 22.5729 125.075 22.2222 125.45 21.79L126.03 22.79C125.487 23.3428 124.833 23.7733 124.11 24.0527C123.387 24.3321 122.613 24.4539 121.84 24.41C118.69 24.41 116.71 22.52 116.71 19.19C116.69 18.4699 116.819 17.7534 117.089 17.0858C117.36 16.4181 117.766 15.8138 118.282 15.3111C118.798 14.8083 119.412 14.418 120.087 14.1648C120.761 13.9116 121.481 13.801 122.2 13.84C123.64 13.84 124.2 14.11 125.13 14.11C125.531 14.1364 125.929 14.0272 126.26 13.8L125.06 16.11Z" fill="#414042"/>
<path d="M127.85 16.5C127.152 16.4244 126.448 16.5826 125.85 16.95L126.57 15.38H134.62L133.93 17C133.766 16.8362 133.569 16.7109 133.351 16.6331C133.133 16.5552 132.9 16.5269 132.67 16.55H131.23V22.99C131.166 23.4358 131.281 23.889 131.55 24.25H128.76C129.024 23.8862 129.138 23.4354 129.08 22.99V16.5H127.85ZM143.2 24.24C142.786 23.8776 142.475 23.4117 142.3 22.89L139.1 15.37H136.58C136.854 15.6117 137.084 15.8994 137.26 16.22L134.38 22.88C134.165 23.3698 133.879 23.8248 133.53 24.23H135.69C135.42 23.69 135.51 23.46 135.69 22.79L135.87 22.25H139.79L139.97 22.79C140.15 23.47 140.29 23.69 139.97 24.23L143.2 24.24ZM136.36 21.18L137.93 17.45L139.37 21.18H136.36ZM150.18 20.18H146.4V22.93C146.336 23.3758 146.451 23.829 146.72 24.19H143.93C144.194 23.8262 144.308 23.3755 144.25 22.93V16.55C144.314 16.1042 144.199 15.651 143.93 15.29H146.72C146.456 15.6538 146.342 16.1046 146.4 16.55V19H150.18V16.55C150.244 16.1042 150.129 15.651 149.86 15.29H152.65C152.386 15.6538 152.272 16.1046 152.33 16.55V22.94C152.266 23.3858 152.381 23.839 152.65 24.2H149.86C150.124 23.8362 150.238 23.3855 150.18 22.94V20.18ZM161.52 22.18V16.65C161.462 16.2046 161.576 15.7538 161.84 15.39H154.84C155.11 15.71 155.16 15.97 155.16 16.65V20.16C155.16 21.78 154.89 23.04 153.27 23.63V25.2C153.908 24.6155 154.744 24.294 155.61 24.3H160.24C161.102 24.3152 161.93 24.6339 162.58 25.2V23.62C162.255 23.5567 161.965 23.3736 161.769 23.1068C161.573 22.8401 161.484 22.5092 161.52 22.18ZM159.45 22.67C159.45 22.7894 159.403 22.9038 159.318 22.9882C159.234 23.0726 159.119 23.12 159 23.12H156C156.542 22.2632 156.778 21.2481 156.67 20.24V16.91C156.662 16.849 156.668 16.7868 156.687 16.7285C156.707 16.6701 156.74 16.6171 156.784 16.5736C156.827 16.53 156.88 16.4971 156.938 16.4774C156.997 16.4577 157.059 16.4517 157.12 16.46H159.46L159.45 22.67ZM172.95 24.24C172.536 23.8776 172.225 23.4117 172.05 22.89L168.85 15.38H166.33C166.604 15.6217 166.834 15.9094 167.01 16.23L164.13 22.89C163.915 23.3798 163.629 23.8348 163.28 24.24H165.44C165.17 23.7 165.26 23.47 165.44 22.8L165.62 22.26H169.45L169.72 22.8C169.9 23.48 170.04 23.7 169.72 24.24H172.95ZM166.07 21.18L167.64 17.45L169.08 21.18H166.07ZM177.07 15.38H173.47C173.74 15.7 173.79 15.96 173.79 16.64V23.03C173.848 23.4755 173.734 23.9262 173.47 24.29H176.26C175.99 23.97 175.94 23.71 175.94 23.03V21.59H177C179.47 21.59 181 20.33 181 18.39C181 16.45 179.7 15.38 177 15.38H177.07ZM176.75 20.51H176V16.51H176.77C178.21 16.51 178.93 17.09 178.93 18.51C178.93 19.93 178.16 20.51 176.73 20.51H176.75ZM50.81 32.21H50V29.78H52.16C52.3872 29.7517 52.6179 29.7737 52.8357 29.8446C53.0535 29.9154 53.2529 30.0334 53.42 30.19L54.09 28.71H47.58C47.85 29.03 47.89 29.29 47.89 29.97V36.36C47.9509 36.8042 47.84 37.2548 47.58 37.62H50.87C52.94 37.62 54.51 36.95 54.51 34.96C54.51 32.97 52.93 32.21 50.81 32.21ZM50.58 36.48H49.91V33.2H50.58C51.71 33.2 52.42 33.65 52.42 34.82C52.42 35.99 51.67 36.48 50.59 36.48H50.58ZM64.71 37.61C64.2958 37.2476 63.9853 36.7817 63.81 36.26L60.62 28.74H58.11C58.3852 28.9847 58.6153 29.2758 58.79 29.6L55.9 36.26C55.6701 36.753 55.3666 37.2082 55 37.61H57.16C56.89 37.07 56.98 36.85 57.16 36.17L57.34 35.63H61.17L61.44 36.17C61.62 36.85 61.75 37.07 61.44 37.61H64.71ZM57.87 34.55L59.36 30.82L60.84 34.55H57.87ZM71.87 33.55H68.14V36.3C68.0727 36.7445 68.1841 37.1975 68.45 37.56H65.67C65.9371 37.1977 66.0552 36.7467 66 36.3V29.92C66.0673 29.4755 65.9559 29.0225 65.69 28.66H68.48C68.22 29.0252 68.1091 29.4758 68.17 29.92V32.4H71.95V29.92C72.0173 29.4755 71.9059 29.0225 71.64 28.66H74.4C74.14 29.0252 74.0291 29.4758 74.09 29.92V36.31C74.0227 36.7545 74.1341 37.2075 74.4 37.57H71.61C71.87 37.2048 71.9809 36.7542 71.92 36.31L71.87 33.55ZM78.62 33.06L81.68 29.87C82.22 29.33 82.27 29.1 82.27 28.7H85.02C84.4664 29.0792 83.9537 29.5149 83.49 30L80.79 32.66L83.67 36.17C84.1015 36.745 84.6375 37.2336 85.25 37.61H81.78C81.7935 37.4239 81.7646 37.2371 81.6953 37.0639C81.626 36.8906 81.5182 36.7354 81.38 36.61L78.63 33.28V36.4C78.5627 36.8445 78.6741 37.2975 78.94 37.66H76.15C76.41 37.2948 76.5209 36.8442 76.46 36.4V30C76.5273 29.5555 76.4159 29.1025 76.15 28.74H78.94C78.68 29.1052 78.5691 29.5558 78.63 30L78.67 33.07L78.62 33.06ZM183.25 16.5C182.552 16.4244 181.848 16.5826 181.25 16.95L181.97 15.38H189.97L189.28 17C189.116 16.8285 188.916 16.6949 188.695 16.6085C188.474 16.5222 188.237 16.4851 188 16.5H186.56V22.94C186.496 23.3858 186.611 23.839 186.88 24.2H184.13C184.394 23.8362 184.508 23.3855 184.45 22.94V16.5H183.25ZM26.52 8.00005C23.251 7.99214 20.0531 8.95429 17.3311 10.7647C14.6091 12.5751 12.4855 15.1524 11.229 18.1703C9.97248 21.1882 9.63962 24.5111 10.2726 27.7183C10.9055 30.9255 12.4757 33.8728 14.7844 36.1872C17.0932 38.5016 20.0367 40.0789 23.2424 40.7197C26.448 41.3604 29.7717 41.0355 32.7927 39.7863C35.8136 38.5371 38.3961 36.4198 40.2131 33.7022C42.0301 30.9846 43 27.7891 43 24.52C43.0026 22.3532 42.5784 20.2071 41.7517 18.2042C40.9249 16.2013 39.7117 14.3809 38.1814 12.8469C36.6511 11.3129 34.8336 10.0953 32.8328 9.26369C30.8319 8.43206 28.6868 8.00268 26.52 8.00005ZM26.52 39.32C23.5968 39.316 20.7404 38.4453 18.3121 36.818C15.8837 35.1907 13.9924 32.8798 12.8774 30.1776C11.7624 27.4754 11.4738 24.5032 12.0479 21.637C12.6221 18.7707 14.0333 16.1391 16.1031 14.0748C18.1729 12.0106 20.8084 10.6065 23.6762 10.0401C26.544 9.47376 29.5154 9.77047 32.2145 10.8927C34.9137 12.0151 37.2195 13.9126 38.8402 16.3453C40.461 18.7781 41.324 21.6368 41.32 24.56C41.3174 26.5009 40.9325 28.4224 40.1873 30.2145C39.4421 32.0067 38.3512 33.6346 36.9769 35.0052C35.6026 36.3758 33.9718 37.4623 32.1776 38.2026C30.3834 38.9429 28.4609 39.3226 26.52 39.32Z" fill="#414042"/>
<path d="M30.16 30.37C31.51 31.85 31.33 34.6 30.88 35.86C30.8711 35.9153 30.8505 35.968 30.8194 36.0146C30.7884 36.0612 30.7476 36.1006 30.7 36.13C29.93 36.4 28.99 36.58 28.54 36.71C29.4156 35.9382 30.0385 34.9206 30.3274 33.7898C30.6164 32.6589 30.558 31.4672 30.16 30.37ZM37.9 28.61C36.1492 27.0924 34.0445 26.0401 31.78 25.55C34.0552 26.6806 35.8911 28.5341 37 30.82C37.3898 30.1831 37.7243 29.514 38 28.82C38 28.74 38 28.7 37.9 28.61ZM38.84 24.56C38.8614 24.5019 38.8614 24.4381 38.84 24.38C38.1683 24.0903 37.4765 23.8496 36.77 23.66C37.0771 23.4875 37.3168 23.2161 37.45 22.89C36.7197 23.2414 35.9204 23.4259 35.11 23.43C36.4853 23.9743 37.7726 24.719 38.93 25.64C38.8347 25.2884 38.8042 24.9225 38.84 24.56Z" fill="#414042"/>
<path d="M32.14 28.93C32.6209 29.0866 33.1391 29.0866 33.62 28.93C31.62 28.39 30.47 25.56 25.88 25.15C25.7 25.15 25.21 25.15 25.47 24.74C26.1032 24.0917 26.8001 23.5088 27.55 23C27.23 23 25.66 23.13 25.21 23.18C24.76 23.23 24.63 23.18 24.63 22.77C24.63 22.77 23.73 23.63 24.18 24.08C24.3566 24.1295 24.5434 24.1295 24.72 24.08C24.9 24.08 25.3 23.9 25.58 23.81C25.3967 24.0457 25.2454 24.3046 25.13 24.58C25.13 24.85 25 24.99 25.45 25.12C26.8105 25.5296 28.1066 26.1288 29.3 26.9C30.6099 27.7027 31.6856 28.8358 32.4193 30.1855C33.1529 31.5353 33.5187 33.0542 33.48 34.59C34.0968 34.148 34.6846 33.667 35.24 33.15V32.88C34.5406 31.3324 33.477 29.9771 32.14 28.93Z" fill="#414042"/>
<path d="M37.2701 19C37 18.82 35.6901 18 35.3801 17.83C35.1077 17.7015 34.8781 17.4975 34.7185 17.2422C34.5589 16.9869 34.4762 16.6911 34.48 16.39C34.48 15.54 34.0301 14.39 32.41 13.02C32.3867 13.1523 32.3867 13.2877 32.41 13.42C31.9298 12.9836 31.3379 12.6894 30.7001 12.57C30.7001 12.57 30.83 12.03 30.88 11.72C30.93 11.41 30.7001 11.13 30.2001 11.41C28.2001 12.26 24.98 12.26 21.6 15.5C22.0498 14.4138 22.7608 13.4554 23.67 12.71C22.8128 12.8947 21.9803 13.18 21.19 13.56C20.948 13.6794 20.7464 13.8672 20.61 14.1C19.3774 15.9933 18.55 18.1213 18.18 20.35C17.9688 18.7503 17.9688 17.1297 18.18 15.53C17.5172 16.1118 16.9142 16.7583 16.38 17.46C16.1688 17.6915 16.0574 17.9969 16.07 18.31C16.079 20.6643 16.5691 22.9919 17.51 25.15C16.2429 23.8872 15.2877 22.3464 14.72 20.65C14.3852 21.6732 14.1606 22.7291 14.05 23.8C14.056 24.2503 14.1952 24.6887 14.45 25.06C15.7994 27.3728 17.7434 29.2822 20.08 30.59C18.73 30.46 15.85 28.88 14.46 27.71C14.7178 28.7566 15.1112 29.7652 15.63 30.71C15.81 31.12 16.03 31.29 16.63 31.61C18.9221 32.8902 21.5279 33.5 24.15 33.37C22.1556 34.0803 19.9969 34.1915 17.94 33.69C18.2996 34.0573 18.6912 34.392 19.11 34.69C20.0331 35.3715 21.1067 35.8208 22.24 36C24.9 36.54 28.18 34.65 27.37 31.09C27.2278 31.3992 27.0228 31.6753 26.768 31.9009C26.5132 32.1264 26.2141 32.2964 25.89 32.4C27.2 31.09 27.06 29.02 24.77 28.76C23.8112 28.6915 22.8488 28.6915 21.89 28.76C21.6181 28.7944 21.342 28.7633 21.0845 28.6694C20.8271 28.5755 20.5958 28.4214 20.41 28.22C20.8467 28.1871 21.2808 28.127 21.71 28.04C22.4481 27.7549 23.2221 27.5732 24.01 27.5C24.01 27.37 23.69 26.96 22.66 27.37C22.4799 27.4042 22.294 27.3929 22.1194 27.337C21.9447 27.2811 21.7868 27.1825 21.66 27.05C22.66 27.32 23.1 26.15 24.09 26.78C24.27 26.91 24.63 26.91 24.5 26.65C24.4218 26.4798 24.294 26.3373 24.1335 26.2409C23.9729 26.1446 23.7869 26.0989 23.6 26.11C22.6326 25.9571 21.6422 26.0499 20.72 26.38C20.3101 26.5789 19.9325 26.8385 19.6 27.15C19.528 26.2428 19.8032 25.342 20.37 24.63C21.3418 24.0269 22.4342 23.6445 23.57 23.51C23.5222 23.4048 23.4975 23.2906 23.4975 23.175C23.4975 23.0594 23.5222 22.9452 23.57 22.84C23.89 22.43 24.88 21.72 30.68 21.72L30.23 22.17C31.4718 22.2664 32.6956 22.5252 33.87 22.94C34 22.94 34.32 23.07 34.73 22.4C34.86 22.22 34.73 22.22 34.41 22C34.4272 21.894 34.4272 21.786 34.41 21.68C34.41 21.5 34.28 21.55 34.23 21.68C34.18 21.81 33.65 21.81 33.55 21.68C33.4419 21.4688 33.2829 21.2879 33.0873 21.1534C32.8918 21.019 32.666 20.9354 32.43 20.91C32.6183 20.7308 32.8518 20.6064 33.1056 20.55C33.3593 20.4936 33.6236 20.5074 33.87 20.59C33.87 20.59 33.87 20.86 34.14 20.77C34.41 20.68 34.4601 20.5 34.59 20.77C34.6124 20.8755 34.6124 20.9845 34.59 21.09C34.59 21.22 34.59 21.27 34.7701 21.09L35.09 20.77C35.3398 20.8546 35.6103 20.8546 35.8601 20.77C36.0912 20.6728 36.2947 20.5194 36.4519 20.3239C36.609 20.1284 36.7148 19.8968 36.76 19.65C37.14 19.47 37.41 19.07 37.2701 19ZM26.15 18.73C26.3992 18.6199 26.6566 18.5296 26.92 18.46C27.19 18.46 27.37 18.46 27.19 18.64C26.61 19.49 26.61 21.11 27.46 21.43C26.9339 21.4269 26.4085 21.4704 25.89 21.56C25.849 20.7888 25.9096 20.0155 26.07 19.26L25.17 19.66C25.2265 18.6517 25.5365 17.674 26.0715 16.8175C26.6064 15.9609 27.3488 15.2532 28.23 14.76C27.0829 15.7827 26.3442 17.1855 26.15 18.71V18.73ZM29.88 12.34C29.7 12.61 29.2 13.19 29.34 13.6C29.0479 13.6875 28.7608 13.791 28.48 13.91C28.3 14.05 28.21 13.91 28.3 13.73C28.5884 13.1336 29.0434 12.6334 29.61 12.29C30 12.05 30 12.23 29.89 12.32L29.88 12.34ZM33.6101 16.84C33.6101 17.11 33.6101 17.16 33.2901 17.11C33.1681 17.0491 33.0359 17.0117 32.9001 17H32.7701C32.9172 17.2758 32.9799 17.5888 32.9501 17.9C32.6674 17.3047 32.2697 16.7711 31.78 16.33C32.221 16.2896 32.6656 16.3337 33.09 16.46C33.2701 16.46 33.5001 16.46 33.6301 15.69C33.7691 16.0545 33.7654 16.458 33.62 16.82L33.6101 16.84Z" fill="#414042"/>
</svg>
