<svg width="280" height="160" viewBox="0 0 280 160" fill="none" xmlns="http://www.w3.org/2000/svg">
<rect x="0.5" y="0.5" width="279" height="159" rx="14.5" stroke="black" stroke-opacity="0.2"/>
<path d="M130.5 74.5004L134.3 71.7004H121.7V88.3004H134.3V85.5004H125.3V81.3004H132.9V78.5004H125.3V74.5004H130.5ZM114.8 74.5004L118.6 71.7004H104.2V88.3004H111.7C115.9 88.3004 118.3 86.4004 118.3 83.1004C118.3 79.9004 116.1 78.2004 112.1 78.2004H107.7V74.5004H114.8ZM111.6 80.9004C113.9 80.9004 114.9 81.7004 114.9 83.2004C114.9 84.7004 113.8 85.5004 111.6 85.5004H107.8V80.9004H111.6ZM144.4 71.7004H137.6V88.3004H141.2V83.6004H144.5C148.9 83.6004 151.6 81.3004 151.6 77.6004C151.6 73.9004 148.8 71.7004 144.4 71.7004ZM144.4 80.8004H141.2V74.4004H144.4C146.7 74.4004 148 75.5004 148 77.6004C147.9 79.7004 146.7 80.8004 144.4 80.8004ZM98.1 84.7004C97.1 85.2004 96.1 85.5004 95 85.5004C91.8 85.5004 89.4 83.2004 89.4 80.0004C89.4 76.8004 91.7 74.5004 95 74.5004C96.2 74.5004 97.3 74.9004 98.3 75.5004L100.9 73.6004L100.7 73.4004C99.2 72.1004 97.2 71.4004 94.9 71.4004C92.4 71.4004 90.2 72.2004 88.5 73.8004C86.9 75.4004 85.9 77.6004 86 79.9004C86 82.2004 86.9 84.4004 88.5 86.1004C90.2 87.7004 92.5 88.6004 94.8 88.5004C97.4 88.5004 99.6 87.6004 101.2 86.0004L98.9 84.3004L98.1 84.7004ZM206 78.5004H198.3V71.7004H194.7V88.3004H198.3V81.5004H206V88.3004H209.6V71.7004H206V78.5004ZM181.7 71.7004L174.5 88.3004H178.1L179.5 85.0004H187.1L188.5 88.3004H192.3L185.3 71.7004H181.7ZM180.7 82.2004L183.5 75.5004L186.1 82.2004H180.7ZM222.6 79.7004L229.1 71.7004H225L219.6 78.8004H217.6V71.7004H214V88.3004H217.6V81.6004H219.9L225.4 88.3004H230L222.6 79.7004ZM167 78.2004H162.6V74.5004H172V71.7004H159V88.3004H166.5C170.7 88.3004 173.1 86.4004 173.1 83.1004C173.2 79.9004 171 78.2004 167 78.2004ZM166.4 85.6004H162.6V81.0004H166.4C168.7 81.0004 169.7 81.8004 169.7 83.3004C169.8 84.8004 168.6 85.6004 166.4 85.6004Z" fill="#21A038"/>
<path d="M74.4811 71.3813C75.1303 72.232 75.6799 73.1561 76.1187 74.1352L63.6698 83.4355L58.4671 80.1302V76.1538L63.6698 79.4591L74.4811 71.3813Z" fill="#21A038"/>
<path d="M53.1573 79.8494C53.1573 79.6709 53.1616 79.4937 53.1702 79.3175L50.0172 79.1609C50.0064 79.3893 50 79.6199 50 79.8526C49.9987 81.671 50.3516 83.4716 51.0385 85.1514C51.7254 86.8312 52.7328 88.3569 54.003 89.6412L56.2395 87.3757C55.2618 86.3889 54.4862 85.2159 53.9572 83.9243C53.4283 82.6326 53.1564 81.2478 53.1573 79.8494Z" fill="url(#paint0_linear_2_2154)"/>
<path d="M63.6669 69.1993C63.8429 69.1993 64.0178 69.2059 64.1916 69.2145L64.3494 66.018C64.1234 66.0072 63.8958 66.0017 63.6669 66.0017C61.8718 65.9995 60.0941 66.3566 58.4357 67.0526C56.7773 67.7486 55.2708 68.7698 54.0029 70.0575L56.2394 72.3241C57.2132 71.3329 58.3707 70.5466 59.6454 70.0103C60.9201 69.4741 62.2867 69.1984 63.6669 69.1993Z" fill="url(#paint1_linear_2_2154)"/>
<path d="M63.6669 90.5008C63.4909 90.5008 63.316 90.5008 63.1411 90.4867L62.9833 93.6821C63.2101 93.6937 63.438 93.6995 63.6669 93.6995C65.4612 93.7014 67.2381 93.344 68.8956 92.6478C70.5532 91.9516 72.0586 90.9303 73.3256 89.6427L71.0934 87.3772C70.1194 88.3678 68.962 89.1537 67.6876 89.6898C66.4132 90.2258 65.0468 90.5015 63.6669 90.5008Z" fill="url(#paint2_linear_2_2154)"/>
<path d="M69.591 71.0575L72.2482 69.0725C69.8195 67.0794 66.7879 65.9945 63.6627 66V69.1987C65.7789 69.1961 67.846 69.8442 69.591 71.0575Z" fill="url(#paint3_linear_2_2154)"/>
<path d="M77.3329 79.85C77.3346 79.0179 77.2628 78.1872 77.1182 77.368L74.1767 79.565C74.1767 79.6597 74.1767 79.7543 74.1767 79.85C74.1774 81.3382 73.8696 82.8099 73.2733 84.1698C72.6768 85.5297 71.8051 86.7474 70.7146 87.7439L72.8363 90.1204C74.254 88.8233 75.3869 87.2388 76.1615 85.4695C76.9362 83.7002 77.3353 81.7856 77.3329 79.85Z" fill="#21A038"/>
<path d="M63.667 90.5014C62.1985 90.5019 60.7462 90.1898 59.4042 89.5854C58.0623 88.981 56.8605 88.0976 55.8768 86.9927L53.533 89.1418C54.8127 90.5788 56.3761 91.7272 58.122 92.5125C59.8678 93.2977 61.7569 93.7023 63.667 93.7V90.5014Z" fill="url(#paint4_linear_2_2154)"/>
<path d="M56.6194 71.9557L54.4988 69.5792C53.0806 70.8761 51.9473 72.4605 51.1723 74.2298C50.3973 75.9991 49.9979 77.9138 50 79.8496H53.1573C53.1566 78.3615 53.4645 76.8898 54.0609 75.5299C54.6573 74.1701 55.529 72.9523 56.6194 71.9557Z" fill="url(#paint5_linear_2_2154)"/>
<defs>
<linearGradient id="paint0_linear_2_2154" x1="54.6415" y1="89.2421" x2="51.1091" y2="79.1661" gradientUnits="userSpaceOnUse">
<stop offset="0.14" stop-color="#F1E813"/>
<stop offset="0.3" stop-color="#E6E418"/>
<stop offset="0.58" stop-color="#C9DA26"/>
<stop offset="0.89" stop-color="#A2CC39"/>
</linearGradient>
<linearGradient id="paint1_linear_2_2154" x1="54.9044" y1="70.623" x2="63.819" y2="67.2709" gradientUnits="userSpaceOnUse">
<stop offset="0.06" stop-color="#0FA7DF"/>
<stop offset="0.54" stop-color="#0098F8"/>
<stop offset="0.92" stop-color="#0290EA"/>
</linearGradient>
<linearGradient id="paint2_linear_2_2154" x1="62.7752" y1="91.769" x2="72.8351" y2="89.5265" gradientUnits="userSpaceOnUse">
<stop offset="0.12" stop-color="#A2CC39"/>
<stop offset="0.28" stop-color="#86C239"/>
<stop offset="0.87" stop-color="#219F38"/>
</linearGradient>
<linearGradient id="paint3_linear_2_2154" x1="63.006" y1="67.0713" x2="71.6154" y2="69.6929" gradientUnits="userSpaceOnUse">
<stop offset="0.06" stop-color="#0290EA"/>
<stop offset="0.79" stop-color="#0C89CA"/>
</linearGradient>
<linearGradient id="paint4_linear_2_2154" x1="54.325" y1="88.7524" x2="63.7049" y2="92.2115" gradientUnits="userSpaceOnUse">
<stop offset="0.13" stop-color="#F1E813"/>
<stop offset="0.3" stop-color="#EAE616"/>
<stop offset="0.53" stop-color="#D8DF1F"/>
<stop offset="0.8" stop-color="#BAD52D"/>
<stop offset="0.98" stop-color="#A2CC39"/>
</linearGradient>
<linearGradient id="paint5_linear_2_2154" x1="51.1762" y1="80.2368" x2="55.0174" y2="70.3771" gradientUnits="userSpaceOnUse">
<stop offset="0.07" stop-color="#A2CC39"/>
<stop offset="0.26" stop-color="#81C45E"/>
<stop offset="0.92" stop-color="#0FA7DF"/>
</linearGradient>
</defs>
</svg>
