<svg width="280" height="160" viewBox="0 0 280 160" fill="none" xmlns="http://www.w3.org/2000/svg">
<rect x="0.5" y="0.5" width="279" height="159" rx="14.5" stroke="black" stroke-opacity="0.2"/>
<path d="M88.5383 95.735C85.8033 93.8041 84.5937 91.8018 85.6288 89.9901C85.6288 89.9901 90.2144 83.542 87.0723 70.0976C87.0723 70.0976 95.7543 66.2955 97.1978 58.5959L90.7853 61.6472C91.0987 61.0035 91.3551 60.3361 91.5415 59.6448C91.7041 59.1442 91.8786 58.5363 91.9831 58L90.4245 58.7509L76.7485 65.1751C76.6784 65.2109 76.6203 65.2586 76.5977 65.3301C75.8641 66.9391 75.6196 68.8461 75.6659 70.8604C74.4207 70.4433 73.1173 70.2048 71.7439 70.2048C69.7188 70.2048 67.81 70.7174 66.1113 71.5875C66.0995 71.5517 66.0876 71.5041 66.065 71.4683C65.9594 71.361 65.7968 71.3372 65.6686 71.4206L64.0399 72.4575L63.6316 69.1798C63.6209 69.0249 63.4808 68.9057 63.3301 68.8938C63.1663 68.8938 63.038 69.013 63.0155 69.1679L62.5264 72.4337L60.9085 71.361C60.7803 71.2776 60.6177 71.2894 60.5132 71.3967C60.4087 71.5041 60.385 71.6708 60.4669 71.802L61.4795 73.4706L58.278 73.8759C58.1154 73.8998 57.999 74.0308 57.999 74.1977C57.999 74.3645 58.1154 74.4957 58.2673 74.5195L61.4557 75.0201L60.3969 76.6649C60.315 76.784 60.3268 76.9628 60.4313 77.0701C60.455 77.094 60.5013 77.1059 60.5357 77.1179C59.5814 78.9414 59.0353 81.0272 59.0353 83.2321C59.0353 90.4072 64.7379 96.2475 71.7439 96.2475C73.4782 96.2475 75.1305 95.89 76.644 95.2464C76.7485 95.3298 76.8423 95.4013 76.9586 95.4847C81.8932 99.1677 85.4306 97.7374 88.213 98.9769C90.5052 100.002 91.5059 101.933 91.5059 101.933L95.708 100.491C94.0782 97.5228 90.6453 97.2248 88.5383 95.735ZM77.1212 65.7115L91.018 59.2038C90.8079 60.0262 90.5052 60.8367 90.1218 61.6114L80.3797 66.2359C80.3096 66.2717 80.2515 66.3193 80.2289 66.3908C78.5647 70.1095 78.4483 75.0916 78.3546 79.4777C78.3201 80.9676 78.2845 82.374 78.1919 83.5898C78.1219 82.7197 77.983 81.7542 77.7848 80.7411C77.7029 80.3478 77.6222 79.9426 77.5403 79.5373C76.5859 74.7936 75.5033 69.4063 77.1212 65.7115ZM72.3956 87.2369C72.1047 86.9389 71.8258 86.1523 70.8132 85.8782C70.3123 85.7351 69.8232 85.7947 69.4636 85.8782C69.1027 85.9616 68.5673 85.89 68.1709 85.7113C68.0082 85.6517 67.81 85.5444 67.81 85.5444C67.5429 85.4252 67.2521 85.306 66.9494 85.3417C66.4947 85.4013 65.8324 85.8424 65.8324 85.8424L67.8919 86.8197C67.8919 86.8197 68.2991 87.0104 68.5899 87.3918C69.4517 88.5598 70.1615 88.9294 70.6269 89.1558C72.3149 90.5741 72.8965 92.1117 75.6196 94.424C74.41 94.865 73.0947 95.1272 71.732 95.1272C65.3196 95.1272 60.106 89.7875 60.106 83.2321C60.106 80.5504 60.9785 78.0833 62.4338 76.0928C62.422 76.0928 62.4101 76.0928 62.3982 76.0928L62.422 76.069L62.8173 79.3585C62.841 79.5134 62.9692 79.6446 63.1318 79.6446C63.2826 79.6446 63.4227 79.5254 63.4464 79.3704L63.9461 76.1047L65.5404 77.1893C65.6686 77.2728 65.8324 77.2608 65.9368 77.1536C66.0413 77.0463 66.065 76.8794 65.9831 76.7483L64.9706 75.0797L68.1827 74.6744C68.3335 74.6506 68.4617 74.5195 68.4617 74.3526C68.4617 74.1857 68.3454 74.0547 68.1946 74.0308L65.005 73.5184C66.9031 72.1477 69.2072 71.3253 71.7095 71.3253C73.1054 71.3253 74.4444 71.5994 75.6778 72.0642C75.8523 74.5671 76.3876 77.2012 76.8767 79.6803C76.9586 80.0856 77.0393 80.4789 77.1212 80.8841C77.691 83.7804 77.983 87.0104 77.0168 87.8566C75.1198 88.9055 72.8965 87.7494 72.3956 87.2369Z" fill="#005187"/>
<path fill-rule="evenodd" clip-rule="evenodd" d="M99.3049 85.0196C101.05 86.8432 103.261 87.749 105.926 87.749C107.556 87.749 109.046 87.3676 110.385 86.5809C111.735 85.8062 112.793 84.7574 113.55 83.4463L110.536 81.6585C110.117 82.457 109.489 83.0888 108.673 83.5416C107.859 84.0065 106.939 84.233 105.926 84.233C104.204 84.233 102.82 83.6847 101.76 82.5762C100.701 81.4797 100.177 80.0494 100.177 78.2974C100.177 76.5214 100.701 75.0911 101.76 73.9828C102.808 72.8743 104.204 72.326 105.926 72.326C106.939 72.326 107.847 72.5644 108.661 73.0174C109.465 73.4702 110.093 74.1138 110.536 74.9244L113.55 73.1365C112.793 71.8134 111.735 70.7766 110.373 70.0019C109.011 69.2271 107.532 68.8457 105.926 68.8457C103.249 68.8457 101.05 69.7515 99.3049 71.5632C97.5706 73.3629 96.697 75.6156 96.697 78.2974C96.697 80.9553 97.5587 83.2079 99.3049 85.0196ZM209.696 99.4414C210.464 100.24 211.43 100.645 212.605 100.645C213.316 100.645 213.956 100.502 214.55 100.156C215.143 99.8109 215.608 99.358 215.946 98.7739L214.62 97.9873C214.433 98.3329 214.165 98.607 213.804 98.8097C213.443 99.0123 213.036 99.1077 212.594 99.1077C211.837 99.1077 211.221 98.8693 210.756 98.3807C210.289 97.892 210.057 97.2722 210.057 96.4974C210.057 95.7227 210.289 95.091 210.756 94.6024C211.221 94.1137 211.837 93.8753 212.594 93.8753C213.048 93.8753 213.443 93.9707 213.804 94.1733C214.165 94.364 214.433 94.65 214.63 95.0077L215.957 94.221C215.632 93.637 215.155 93.184 214.561 92.8383C213.968 92.4928 213.316 92.3259 212.605 92.3259C211.43 92.3259 210.464 92.7192 209.696 93.5178C208.928 94.3163 208.544 95.3056 208.544 96.4855C208.544 97.6536 208.928 98.6429 209.696 99.4414ZM174.874 92.4815H176.41L174.07 98.2741C173.442 99.8235 172.418 100.562 170.986 100.479V99.0011C171.405 99.0369 171.742 98.9773 171.999 98.8224C172.255 98.6673 172.464 98.4171 172.638 98.0596L170.078 92.4696H171.615L173.326 96.3313L174.874 92.4815ZM163.595 93.9949V92.4932H159.162V100.491H160.698V93.9949H163.595ZM169.159 93.256C168.646 92.7434 168.018 92.4812 167.262 92.4812H164.353V100.479H165.889V97.8447H167.262C168.018 97.8447 168.646 97.5825 169.159 97.07C169.671 96.5574 169.927 95.9138 169.927 95.163C169.927 94.4121 169.671 93.7685 169.159 93.256ZM168.077 96.033C167.856 96.2595 167.587 96.3787 167.262 96.3787H165.889V93.9592H167.262C167.587 93.9592 167.856 94.0784 168.077 94.3048C168.297 94.5313 168.403 94.8292 168.403 95.1749C168.403 95.5087 168.297 95.8066 168.077 96.033ZM182.986 100.479V92.4812H177.155V100.479H178.691V93.983H181.45V100.479H182.986ZM190.166 92.4812V100.479H188.63V93.983H185.872V100.479H184.336V92.4812H190.166ZM196.113 99.0366L196.58 100.479H198.267L195.52 92.4812H193.611L190.876 100.479H192.54L193.006 99.0366H196.113ZM195.626 97.5706H193.483L194.555 94.3048L195.626 97.5706ZM207.59 92.4812V100.479H206.053V93.983H203.295V100.479H201.759V92.4812H207.59ZM219.775 95.5087C220.531 95.5087 221.16 95.735 221.637 96.1999C222.126 96.6647 222.359 97.2606 222.359 97.9877C222.359 98.7268 222.115 99.3227 221.637 99.7875C221.148 100.252 220.531 100.479 219.775 100.479H216.784V92.4812H221.696V93.9949H218.321V95.5205H219.775V95.5087ZM219.775 99.0009C220.078 99.0009 220.334 98.9055 220.531 98.7266C220.729 98.5479 220.834 98.2976 220.834 97.9758C220.834 97.654 220.729 97.4037 220.531 97.2369C220.334 97.0581 220.078 96.9747 219.775 96.9747H218.321V99.0009H219.775ZM132.73 69.2155V87.3916H129.262V75.604L124.268 84.0425H123.861L118.868 75.6278V87.3916H115.365V69.2155H118.962L124.059 77.8089L129.134 69.2155H132.73ZM149.012 87.3916V69.2155H135.757V87.3797H139.26V72.6361H145.521V87.3916H149.012ZM165.959 76.0927C167.681 76.0927 169.089 76.617 170.194 77.6659C171.289 78.7147 171.848 80.0734 171.848 81.7302C171.848 83.4107 171.3 84.7695 170.194 85.8184C169.101 86.8672 167.681 87.3916 165.959 87.3916H159.162V69.2155H170.322V72.6481H162.665V76.1045H165.959V76.0927ZM165.959 84.0425C166.657 84.0425 167.227 83.8398 167.681 83.4346C168.135 83.0293 168.367 82.4573 168.367 81.7302C168.367 81.0031 168.135 80.443 167.681 80.0377C167.227 79.6444 166.645 79.4418 165.959 79.4418H162.665V84.0425H165.959ZM183.987 84.1139L185.057 87.3916H188.851L182.613 69.2155H178.272L172.057 87.3916H175.84L176.911 84.1139H183.987ZM182.904 80.7648H178.039L180.472 73.3393L182.904 80.7648ZM200.466 69.2155H203.935V87.3916H200.466V79.8589H193.88V87.3916H190.377V69.2155H193.88V76.4382H200.466V69.2155ZM216.795 87.3916H220.823L214.002 78.0473L220.567 69.2155H216.539L210.453 77.2369V69.2155H206.949V87.3916H210.453V78.8697L216.795 87.3916Z" fill="#005187"/>
<path d="M222.999 90.6935H99.1647L98.0002 89.1798H221.824L222.999 90.6935Z" fill="#E85919"/>
</svg>
