<svg width="280" height="160" viewBox="0 0 280 160" fill="none" xmlns="http://www.w3.org/2000/svg">
<rect x="0.5" y="0.5" width="279" height="159" rx="14.5" stroke="black" stroke-opacity="0.2"/>
<path d="M109.5 84.5465C109.483 83.0919 109.159 81.6573 108.55 80.3364C107.94 79.0156 107.059 77.8383 105.963 76.8815C106.318 75.9144 106.498 74.8921 106.495 73.862C106.495 73.2965 106.438 72.7385 106.335 72.2015C105.561 68.105 101.97 65 97.6665 65H87.2295V84.2315C87.2295 87.9335 84.0645 90.9485 80.1735 90.9485C80.051 90.9476 79.9284 90.9446 79.806 90.9395C76.086 90.7595 73.116 87.818 73.116 84.2345V70.6775C73.116 69.7805 73.8555 69.0515 74.763 69.0515H78.849C79.1172 69.0539 79.3831 69.0034 79.6317 68.9028C79.8804 68.8023 80.1067 68.6538 80.2978 68.4657C80.489 68.2776 80.6412 68.0537 80.7457 67.8067C80.8502 67.5598 80.905 67.2947 80.907 67.0265C80.907 65.909 79.9845 65.0015 78.849 65.0015H74.7645C71.5845 65.0015 69 67.547 69 70.6775V72.4955H69.0015H69V84.2345L69.0015 84.383C69.09 90.251 74.064 95 80.175 95C86.3355 95 91.3485 90.17 91.3485 84.2345V69.05H97.668C97.71 69.05 97.7505 69.0515 97.788 69.0575C100.33 69.122 102.378 71.252 102.378 73.862C102.384 74.8218 102.102 75.7612 101.568 76.559C100.95 77.513 101.106 78.563 102.056 79.094C103.064 79.6348 103.906 80.4393 104.493 81.4215C105.079 82.4038 105.388 83.527 105.385 84.671C105.386 87.9005 102.977 90.566 99.8955 90.9125C99.6708 90.9361 99.445 90.9481 99.219 90.9485H92.565C91.431 90.9485 90.51 91.8575 90.51 92.975C90.51 94.0955 91.431 95 92.565 95H99.2175C104.883 95 109.497 90.365 109.497 84.6725C109.501 84.629 109.5 84.5885 109.5 84.5465Z" fill="#CC163F"/>
<path d="M135.381 69.563C135.735 69.563 135.855 69.77 135.735 70.067L129.665 86.912C128.6 89.9045 126.941 90.911 123.891 90.911C123.092 90.911 122.055 90.821 121.049 90.497C120.545 90.3485 120.426 90.2615 120.516 89.846L120.99 87.389C121.077 86.945 121.226 87.005 121.671 87.0635C122.322 87.152 122.796 87.1835 123.3 87.1835C124.634 87.1535 125.253 87.0335 125.727 85.7015L126.203 84.3695H125.432C124.482 84.3695 124.188 84.1625 123.773 83.0975L118.56 70.127C118.383 69.743 118.62 69.566 118.974 69.566H122.409C123.089 69.566 123.237 69.686 123.386 70.157L125.577 76.166L127.236 81.053H127.443L129.011 75.9305L130.877 70.1855C131.055 69.683 131.174 69.563 131.793 69.563H135.381V69.5615V69.563ZM138.279 88.601V71.6645C138.279 70.3025 138.753 69.6515 140.174 69.6515H151.722C152.166 69.6515 152.255 69.7985 152.255 70.3025V72.9365C152.255 73.352 152.135 73.499 151.722 73.499H142.779V77.171H147.101C154.146 77.171 154.622 81.848 154.622 83.861C154.622 87.6215 151.512 90.374 147.515 90.374H140.057C138.605 90.377 138.279 89.873 138.279 88.601ZM147.104 80.933H142.781V86.438H147.074C149.324 86.438 149.946 84.752 149.946 83.6255C149.946 82.088 148.94 80.933 147.104 80.933ZM162.47 89.756C162.47 90.2885 162.35 90.3785 161.759 90.3785H158.649C158.175 90.3785 157.968 90.23 157.968 89.756V71.429C157.968 70.334 158.322 69.6215 159.744 69.6215H166.998C171.291 69.6215 173.928 72.3455 173.928 76.106C173.928 78.119 173.069 82.856 166.407 82.856H162.47V89.756ZM166.317 73.5905H162.467V79.2155H166.346C168.36 79.2155 169.277 77.9735 169.277 76.4015C169.28 75.278 168.717 73.5905 166.317 73.5905ZM176.739 75.305C176.739 74.951 176.888 74.8325 177.272 74.8325H180.44C180.914 74.8325 181.002 74.9225 181.002 75.3065V84.3665H181.151C182.69 81.8195 182.958 81.3455 183.461 80.576C184.2 79.421 185.12 77.9105 186.42 75.809C186.983 75.0095 187.25 74.8325 188.256 74.8325H189.707C190.802 74.8325 191.366 75.1865 191.366 76.49V89.903C191.366 90.287 191.216 90.377 190.833 90.377H187.635C187.19 90.377 187.073 90.3185 187.073 89.903V81.0215H186.924C186.036 82.3835 185.237 83.774 184.377 85.1075C183.462 86.528 182.571 87.98 181.625 89.4005C181.092 90.2285 180.737 90.377 179.789 90.377H178.397C177.035 90.377 176.739 89.816 176.739 88.7195V75.305ZM200.04 89.756C200.04 90.2885 199.92 90.3785 199.329 90.3785H196.221C195.747 90.3785 195.54 90.23 195.54 89.756V71.429C195.54 70.334 195.896 69.6215 197.316 69.6215H204.572C208.863 69.6215 211.5 72.3455 211.5 76.106C211.5 78.119 210.641 82.856 203.981 82.856H200.04V89.756H200.039H200.04ZM203.888 73.5905H200.04V79.2155H203.919C205.932 79.2155 206.85 77.9735 206.85 76.4015C206.85 75.278 206.288 73.5905 203.889 73.5905H203.888Z" fill="black" fill-opacity="0.85"/>
</svg>
