<svg width="280" height="160" viewBox="0 0 280 160" fill="none" xmlns="http://www.w3.org/2000/svg">
<rect x="0.5" y="0.5" width="279" height="159" rx="14.5" stroke="black" stroke-opacity="0.2"/>
<path d="M127.745 75.5249C125.662 75.5249 124.104 76.2957 123.334 77.5705H123.167V75.9166H119.36V93.4354H123.167V87.8819H123.334C124.1 89.1567 125.662 89.9275 127.745 89.9275C131.653 89.9275 134.752 86.7361 134.752 82.7241C134.752 78.7163 131.653 75.5249 127.745 75.5249ZM126.975 86.4612C124.85 86.4612 123.167 84.8072 123.167 82.7241C123.167 80.6201 124.85 78.987 126.975 78.987C129.162 78.987 130.824 80.6201 130.824 82.7241C130.824 84.828 129.141 86.4612 126.975 86.4612Z" fill="#3B175C"/>
<path d="M212.904 76.5534C210.725 76.5534 209.021 77.3784 207.983 78.8115H207.813C208.096 76.2201 209.563 74.9619 212.72 74.512L218.248 73.712V70.2083L212.354 71.0457C206.91 71.8039 204.298 74.6869 204.298 79.8822C204.298 83.6401 204.538 84.8275 205.209 86.2482C206.263 88.5271 208.875 89.927 212.033 89.927C216.286 89.927 219.568 86.9106 219.568 82.9611C219.565 79.1614 216.852 76.5534 212.904 76.5534ZM211.991 86.444C209.826 86.444 208.225 84.965 208.225 82.9611C208.225 80.9363 209.804 79.4573 211.991 79.4573C214.136 79.4573 215.719 80.9363 215.719 82.9611C215.719 84.965 214.115 86.444 211.991 86.444Z" fill="#3B175C"/>
<path d="M115.368 71.8032L111.082 80.444L105.241 71.8032H100.688L109.165 84.3102L108.932 84.7851C108.566 85.5433 108.082 85.9516 106.966 85.9516H103.967V89.5512H107.391C110.003 89.5512 111.057 88.8888 112.148 86.7099L119.642 71.7991H115.368V71.8032Z" fill="#3B175C"/>
<path d="M156.746 75.9314L156.096 84.3971C155.996 85.7221 155.55 86.2053 154.496 86.2053H153.563V89.6507H155.834C158.387 89.6507 159.52 88.4842 159.704 86.0512L160.203 79.4727H164.886V89.5341H168.735V75.9314H156.746Z" fill="#3B175C"/>
<path d="M178.658 79.0266C180.216 79.0266 181.453 79.9015 182.04 81.0722L185.444 79.7891C184.494 77.2018 181.799 75.5271 178.579 75.5271C174.263 75.5271 171.006 78.6392 171.006 82.7304C171.006 86.8175 174.267 89.9338 178.579 89.9338C181.799 89.9338 184.494 88.259 185.444 85.6717L182.04 84.3885C181.453 85.5551 180.216 86.4341 178.658 86.4341C176.492 86.4341 174.93 84.8968 174.93 82.7346C174.93 80.564 176.492 79.0266 178.658 79.0266Z" fill="#3B175C"/>
<path d="M197.467 75.9124L191.555 84.5614V75.9124H187.748V89.5358H191.959L197.833 80.9494V89.5358H201.64V75.9124H197.467Z" fill="#3B175C"/>
<path d="M147.829 77.5661H147.662C146.896 76.2913 145.334 75.5205 143.251 75.5205C139.343 75.5205 136.244 78.7119 136.244 82.7239C136.244 86.7317 139.343 89.9272 143.251 89.9272C145.334 89.9272 146.892 89.1565 147.662 87.8816H147.829V89.5356H151.636V75.9122H147.829V77.5661ZM144.026 86.461C141.859 86.461 140.177 84.8279 140.177 82.7239C140.177 80.62 141.839 78.9868 144.026 78.9868C146.15 78.9868 147.833 80.62 147.833 82.7239C147.829 84.8069 146.15 86.461 144.026 86.461Z" fill="#3B175C"/>
<path fill-rule="evenodd" clip-rule="evenodd" d="M76.1721 65.0154C76.366 65.0248 76.5675 65.0378 76.7779 65.0544V67.9327C76.7779 80.6148 77.2614 86.0971 79.1361 94.5511C76.7407 95.1504 74.1999 95.1504 71.8086 94.5464C73.6958 86.0309 74.1828 80.5486 74.1828 67.9327V65.0544C74.4351 65.0343 74.6733 65.0201 74.9014 65.0118C75.103 65.0035 75.2956 65 75.483 65C75.704 65 75.9322 65.0047 76.1721 65.0154ZM89.9565 81.0734C89.9565 76.1408 87.2698 71.8038 83.2331 69.3334L83.2875 72.6821C85.687 74.7448 87.2071 77.7448 87.2071 81.0734C87.2071 81.6278 87.164 82.1727 87.0812 82.7058C86.937 83.6349 86.674 84.5274 86.3117 85.369C84.5747 83.7189 83.3371 81.7779 82.567 79.486C81.6379 76.7117 81.421 73.6738 81.3879 69.9622L81.392 68.3665C81.142 68.2589 80.8885 68.1584 80.632 68.0639C80.0339 67.8452 79.4204 67.6643 78.7969 67.5248L78.801 69.9575C78.8885 82.7732 81.1089 88.0558 84.4122 92.0263C87.7905 89.4766 89.9565 85.5191 89.9565 81.0734ZM72.1597 69.9599L72.1638 67.5272C71.6863 67.6348 71.2146 67.766 70.7519 67.9197C70.3506 68.052 69.9558 68.2022 69.5686 68.3688L69.5728 69.9646C69.5355 73.6727 69.3228 76.7141 68.3937 79.4883C67.6277 81.7803 66.386 83.7177 64.649 85.3714C64.425 84.8501 64.2388 84.3099 64.0952 83.7543C63.8736 82.8962 63.7536 81.999 63.7536 81.0758C63.7536 77.7424 65.2695 74.7471 67.6732 72.6845L67.7276 69.3357C63.6868 71.8015 61 76.1384 61 81.0758C61 85.5215 63.1702 89.479 66.5444 92.0286C69.8559 88.0629 72.0722 82.7756 72.1597 69.9599Z" fill="#3B175C"/>
</svg>
