<svg width="80" height="80" viewBox="0 0 80 80" fill="none" xmlns="http://www.w3.org/2000/svg">
<g clip-path="url(#clip0_79_445)">
<path fill-rule="evenodd" clip-rule="evenodd" d="M40 17.5024C27.5737 17.5024 17.5 27.5762 17.5 40.0024C17.5 52.4287 27.5737 62.5024 40 62.5024C52.4263 62.5024 62.5 52.4287 62.5 40.0024C62.5 27.5762 52.4263 17.5024 40 17.5024ZM40 60.0024C28.9538 60.0024 20 51.0474 20 40.0024C20 28.9574 28.9538 20.0024 40 20.0024C51.0462 20.0024 60 28.9574 60 40.0024C60 51.0474 51.0462 60.0024 40 60.0024Z" fill="#231F20"/>
<path fill-rule="evenodd" clip-rule="evenodd" d="M40 25.0024C39.3088 25.0024 38.75 25.5612 38.75 26.2524C38.75 26.9437 39.3088 27.5024 40 27.5024C46.9025 27.5024 52.5 33.0987 52.5 40.0024C52.5 40.6937 53.0588 41.2524 53.75 41.2524C54.4412 41.2524 55 40.6937 55 40.0024C55 31.7187 48.2837 25.0024 40 25.0024Z" fill="#231F20"/>
<path fill-rule="evenodd" clip-rule="evenodd" d="M78.75 38.75H66.25C65.5588 38.75 65 39.3088 65 40C65 40.6912 65.5588 41.25 66.25 41.25H78.75C79.4412 41.25 80 40.6912 80 40C80 39.3088 79.4412 38.75 78.75 38.75Z" fill="#231F20"/>
<path fill-rule="evenodd" clip-rule="evenodd" d="M14.3213 45.5876L9.49259 46.8813C8.82509 47.0613 8.42884 47.7463 8.60884 48.4138C8.78759 49.0801 9.47134 49.4763 10.1401 49.2963L14.9688 48.0026C15.6351 47.8238 16.0313 47.1401 15.8526 46.4713C15.6738 45.8051 14.9876 45.4088 14.3213 45.5876Z" fill="#231F20"/>
<path fill-rule="evenodd" clip-rule="evenodd" d="M61.6503 27.4999C61.9966 28.0987 62.7603 28.3037 63.3591 27.9574L74.1841 21.7074C74.7828 21.3624 74.9878 20.5974 74.6403 19.9999C74.2966 19.4012 73.5316 19.1974 72.9341 19.5437L62.1091 25.7937C61.5103 26.1399 61.3066 26.9012 61.6503 27.4999Z" fill="#231F20"/>
<path fill-rule="evenodd" clip-rule="evenodd" d="M22.3227 57.6789C21.8352 57.1901 21.044 57.1926 20.5552 57.6789L17.0202 61.2139C16.5315 61.7026 16.5327 62.4951 17.0215 62.9826C17.509 63.4714 18.299 63.4701 18.7877 62.9814L22.3227 59.4464C22.8115 58.9601 22.8115 58.1676 22.3227 57.6789Z" fill="#231F20"/>
<path fill-rule="evenodd" clip-rule="evenodd" d="M52.5002 18.3499C53.099 18.6949 53.8627 18.4912 54.209 17.8924L60.459 7.06744C60.8052 6.46869 60.6002 5.70369 60.0002 5.35869C59.4027 5.01369 58.6402 5.21869 58.294 5.81619L52.0453 16.6424C51.6978 17.2412 51.9027 18.0037 52.5002 18.3499Z" fill="#231F20"/>
<path fill-rule="evenodd" clip-rule="evenodd" d="M33.5298 64.1475C32.8648 63.9687 32.1798 64.3675 31.9986 65.0312L30.7048 69.86C30.5261 70.5287 30.9248 71.2137 31.5911 71.3925C32.2573 71.5725 32.9411 71.1762 33.1198 70.5075L34.4136 65.6787C34.5948 65.015 34.1986 64.3287 33.5298 64.1475Z" fill="#231F20"/>
<path fill-rule="evenodd" clip-rule="evenodd" d="M39.9997 15C40.6922 15 41.251 14.4425 41.2522 13.75V1.25C41.2522 0.55875 40.6935 0 39.9997 0C39.311 0 38.7522 0.55875 38.751 1.25L38.7522 13.75C38.7522 14.4412 39.311 15 39.9997 15Z" fill="#231F20"/>
<path fill-rule="evenodd" clip-rule="evenodd" d="M48.0029 65.0313C47.8267 64.3663 47.1417 63.9688 46.4717 64.1476C45.8054 64.3263 45.4117 65.0126 45.5879 65.6788L46.8817 70.5075C47.0617 71.1763 47.7479 71.5701 48.4154 71.3913C49.0829 71.2126 49.4767 70.5301 49.2967 69.8601L48.0029 65.0313Z" fill="#231F20"/>
<path fill-rule="evenodd" clip-rule="evenodd" d="M25.796 17.8901C26.1398 18.4888 26.9048 18.6938 27.4998 18.3488C28.0998 18.0026 28.306 17.2401 27.9598 16.6401L21.7098 5.81508C21.3648 5.21758 20.5998 5.01258 19.9998 5.35883C19.4035 5.70258 19.1985 6.46758 19.5435 7.06508L25.796 17.8901Z" fill="#231F20"/>
<path fill-rule="evenodd" clip-rule="evenodd" d="M59.4471 57.6774C58.9621 57.1899 58.1696 57.1899 57.6796 57.6774C57.1909 58.1649 57.1946 58.9574 57.6796 59.4449L61.2146 62.9799C61.7046 63.4699 62.4959 63.4661 62.9834 62.9786C63.4721 62.4911 63.4721 61.7024 62.9821 61.2124L59.4471 57.6774Z" fill="#231F20"/>
<path fill-rule="evenodd" clip-rule="evenodd" d="M5.81723 21.7064L16.6447 27.9551C17.241 28.3001 18.0047 28.0964 18.3485 27.5001C18.6947 26.9014 18.4922 26.1376 17.8935 25.7914L7.06723 19.5414C6.46973 19.1951 5.70473 19.4001 5.35848 20.0001C5.01598 20.5964 5.21973 21.3614 5.81723 21.7064Z" fill="#231F20"/>
<path fill-rule="evenodd" clip-rule="evenodd" d="M65.0334 48.0001L69.8621 49.2939C70.5309 49.4751 71.2146 49.0739 71.3934 48.4076C71.5734 47.7426 71.1784 47.0588 70.5096 46.8788L65.6809 45.5851C65.0171 45.4038 64.3296 45.8013 64.1496 46.4688C63.9696 47.1363 64.3696 47.8201 65.0334 48.0001Z" fill="#231F20"/>
<path fill-rule="evenodd" clip-rule="evenodd" d="M15 40.0001C15.0013 39.3076 14.4437 38.7501 13.7525 38.7476L1.25 38.7501C0.56 38.7501 0 39.3063 0 40.0001C0.00125 40.6888 0.56 41.2501 1.25125 41.2501L13.7525 41.2476C14.4412 41.2476 15.0013 40.6901 15 40.0001Z" fill="#231F20"/>
<path fill-rule="evenodd" clip-rule="evenodd" d="M65.6816 34.4113L70.5103 33.1176C71.1791 32.9388 71.5728 32.2513 71.3928 31.5838C71.2153 30.9201 70.5328 30.5238 69.8628 30.7026L65.0341 31.9963C64.3678 32.1726 63.9716 32.8601 64.1503 33.5276C64.3266 34.1951 65.0153 34.5876 65.6816 34.4113Z" fill="#231F20"/>
<path fill-rule="evenodd" clip-rule="evenodd" d="M18.3504 52.5C18.0067 51.9 17.2429 51.695 16.6442 52.04L5.81792 58.2925C5.22042 58.6375 5.01292 59.4 5.35917 60C5.70542 60.5962 6.47042 60.8012 7.06792 60.4562L17.8929 54.2037C18.4892 53.86 18.6967 53.0987 18.3504 52.5Z" fill="#231F20"/>
<path fill-rule="evenodd" clip-rule="evenodd" d="M57.68 22.3201C58.1663 22.8101 58.9575 22.8051 59.4475 22.3201L62.9825 18.7851C63.4725 18.2951 63.47 17.5051 62.98 17.0163C62.495 16.5288 61.7038 16.5276 61.215 17.0176L57.68 20.5526C57.19 21.0376 57.1925 21.8326 57.68 22.3201Z" fill="#231F20"/>
<path fill-rule="evenodd" clip-rule="evenodd" d="M27.5001 61.6499C26.9013 61.3036 26.1401 61.5086 25.7938 62.1049L19.5438 72.9336C19.2001 73.5311 19.4001 74.2936 20.0001 74.6399C20.5988 74.9824 21.3626 74.7774 21.7088 74.1811L27.9563 63.3536C28.3013 62.7586 28.1001 61.9961 27.5001 61.6499Z" fill="#231F20"/>
<path fill-rule="evenodd" clip-rule="evenodd" d="M46.4723 15.85C47.1361 16.0312 47.8198 15.63 48.0036 14.9662L49.2973 10.1375C49.4761 9.46874 49.0773 8.78374 48.4111 8.60624C47.7473 8.42624 47.0611 8.82124 46.8823 9.48999L45.5886 14.3187C45.4048 14.9825 45.8061 15.67 46.4723 15.85Z" fill="#231F20"/>
<path fill-rule="evenodd" clip-rule="evenodd" d="M40 65C39.3088 64.9975 38.7525 65.5575 38.75 66.2475L38.7525 78.7525C38.7525 79.44 39.3062 80 40 80C40.6912 80 41.25 79.4388 41.2512 78.75L41.2475 66.2475C41.2475 65.5588 40.6938 65 40 65Z" fill="#231F20"/>
<path fill-rule="evenodd" clip-rule="evenodd" d="M31.9996 14.9662C32.1734 15.6325 32.8634 16.0287 33.5309 15.85C34.1959 15.6737 34.5884 14.9862 34.4146 14.3187L33.1209 9.48999C32.9396 8.82124 32.2546 8.42624 31.5871 8.60749C30.9234 8.78499 30.5246 9.46749 30.7059 10.1375L31.9996 14.9662Z" fill="#231F20"/>
<path fill-rule="evenodd" clip-rule="evenodd" d="M54.2039 62.1087C53.8601 61.5112 53.1001 61.3037 52.5001 61.6524C51.9014 61.9949 51.6989 62.7587 52.0414 63.3574L58.2964 74.1837C58.6401 74.7812 59.4001 74.9887 60.0001 74.6412C60.5989 74.2949 60.8026 73.5299 60.4589 72.9324L54.2039 62.1087Z" fill="#231F20"/>
<path fill-rule="evenodd" clip-rule="evenodd" d="M20.554 22.3201C21.0378 22.8126 21.8328 22.8076 22.3215 22.3201C22.8103 21.8351 22.8053 21.0439 22.3215 20.5526L18.7865 17.0176C18.2953 16.5276 17.5053 16.5301 17.0178 17.0201C16.5303 17.5051 16.5278 18.2964 17.019 18.7851L20.554 22.3201Z" fill="#231F20"/>
<path fill-rule="evenodd" clip-rule="evenodd" d="M74.1846 58.2913L63.3559 52.0451C62.7584 51.7001 61.9971 51.9001 61.6521 52.5026C61.3046 53.0988 61.5121 53.8601 62.1071 54.2076L72.9371 60.4563C73.5334 60.8001 74.2946 60.6001 74.6409 60.0001C74.9846 59.4013 74.7796 58.6376 74.1846 58.2913Z" fill="#231F20"/>
<path fill-rule="evenodd" clip-rule="evenodd" d="M14.9673 31.9986L10.1373 30.7036C9.46733 30.5236 8.78358 30.9224 8.60608 31.5886C8.42608 32.2524 8.81983 32.9386 9.48983 33.1199L14.3186 34.4124C14.9823 34.5949 15.6698 34.1936 15.8498 33.5286C16.0311 32.8661 15.6311 32.1824 14.9673 31.9986Z" fill="#231F20"/>
</g>
<defs>
<clipPath id="clip0_79_445">
<rect width="80" height="80" fill="white"/>
</clipPath>
</defs>
</svg>
