<svg width="80" height="80" viewBox="0 0 80 80" fill="none" xmlns="http://www.w3.org/2000/svg">
<path d="M59.6019 77.5567V74.7876H57.1586V77.5567H55.6927V74.7876H53.2494V77.5567H51.9464V74.7876H49.5032V77.5567H37.2869V74.7876H34.8436V77.5567H33.3777V74.7876H30.9344V77.5567H29.7943V74.7876H27.351V77.5567H17.415V79.9999H69.5378V77.5567H59.6019Z" fill="black"/>
<path d="M65.7914 67.6208H72.1145L63.4395 21.1769L55.015 53.9919L42.8251 0L33.5203 44.8384L23.6803 7.18969L7.88574 67.6208H21.324V65.1777H11.0496L23.6803 16.8517L36.3107 65.1777H26.2106V67.6208H28.2981L27.0515 72.5073H41.0329V70.0641H30.1962L30.8195 67.6208H39.4748L34.9112 50.1603L42.9257 11.5398L56.1389 70.0641H46.0823V72.5073H59.1951L58.092 67.6208H60.7418V65.1777H57.5403L56.1951 59.22L63.0629 32.4684L69.1728 65.1777H65.7914V67.6208Z" fill="black"/>
<path d="M26.5237 55.5338L24.7442 57.3135V52.6355H22.3009V61.9422L20.8361 60.4774L19.1084 62.205L22.3009 65.3975V76.0908H24.7442V60.7686L28.2514 57.2614L26.5237 55.5338Z" fill="black"/>
<path d="M46.2979 61.7133L44.6161 63.3949V60.1282H42.1729V76.0908H44.6161V66.8502L48.0257 63.4408L46.2979 61.7133Z" fill="black"/>
<path d="M66.2579 59.0888L64.325 60.3776V57.6851H61.8818V60.2113L60.1981 59.0888L58.8428 61.1218L61.8818 63.1476V76.0908H64.325V63.314L67.6132 61.1218L66.2579 59.0888Z" fill="black"/>
</svg>
