<svg width="60" height="60" viewBox="0 0 60 60" fill="none" xmlns="http://www.w3.org/2000/svg">
<g clip-path="url(#clip0_203_229)">
<path d="M59 57.9998H54.9382C54.9809 57.6712 55.0001 57.3357 55.0001 56.9999C55.0001 54.1773 53.3757 51.7747 51.0001 50.6621V16.9999C51.0001 16.3999 50.6002 16 50.0002 16H35.0002V0.999961C35.0002 0.399961 34.6002 2.57448e-08 34.0002 2.57448e-08H7.0002C6.39996 -0.000117162 6 0.399844 6 0.999844V57.9998H0.999961C0.399961 57.9998 0 58.3998 0 58.9998C0 59.5998 0.399961 59.9999 0.999961 59.9999H6.99996H9.99996H34H53.7H59C59.6 59.9999 60 59.5999 60 58.9999C60 58.3999 59.6 57.9998 59 57.9998ZM49 50.0705C48.6736 50.0249 48.3401 49.9998 48 49.9998C47.2451 49.9998 46.5046 50.1284 45.805 50.3687C45.6307 50.1364 45.3498 49.9998 45 49.9998C44.4 49.9998 44 50.3998 44 50.9998V51.3062C43.6211 51.5793 43.2687 51.8907 42.9489 52.237C42.8984 52.2905 42.8487 52.3446 42.8 52.3997C41.9714 51.3639 40.9041 50.6146 39.6973 50.2498C39.5239 50.0907 39.285 49.9997 39 49.9997C38.8886 49.9997 38.784 50.0136 38.6876 50.04C38.4618 50.0136 38.2324 49.9997 38 49.9997C37.3733 49.9997 36.6676 50.081 36.0959 50.3132C36.0251 50.3371 35.9548 50.3617 35.8852 50.388C35.1941 49.8262 34.3859 49.4218 33.5341 49.1993C33.5251 49.1968 33.5159 49.1951 33.507 49.1926C33.4327 49.1735 33.3581 49.1553 33.2832 49.1391C33.2225 49.1257 33.1611 49.1141 33.0998 49.1026C33.0732 49.0977 33.0466 49.0924 33.0199 49.0878C32.9556 49.0767 32.891 49.0669 32.826 49.0578C32.7969 49.0537 32.7679 49.0501 32.7387 49.0465C32.679 49.0391 32.6191 49.0322 32.5589 49.0267C32.515 49.0226 32.4709 49.0195 32.4268 49.0164C32.3797 49.0131 32.3327 49.0092 32.2853 49.007C32.1902 49.0024 32.0952 48.9996 32 48.9996C31.9264 48.9996 31.8534 49.0011 31.7808 49.0038C31.7332 49.0055 31.6857 49.0084 31.6383 49.0111C31.6193 49.0123 31.6001 49.0131 31.5811 49.0144C30.6701 49.0748 29.775 49.3319 28.9999 49.7873V17.9999H34H49V50.0705ZM8.00004 1.99992H33V16H28C27.4 16 27 16.3999 27 16.9999V48.1C26.4889 47.5889 25.8998 47.1566 25.2585 46.8183C25.2019 46.788 25.1447 46.7587 25.0873 46.7302C25.0646 46.719 25.0423 46.7074 25.0195 46.6965C24.3059 46.3503 23.5293 46.1232 22.7177 46.0383C22.7064 46.0371 22.6949 46.0362 22.6834 46.035C22.5892 46.0256 22.4945 46.0182 22.3993 46.0127C22.3741 46.0112 22.3489 46.0097 22.3236 46.0084C22.2162 46.0034 22.1084 46 22 46C20.5117 46 19.1329 46.4894 18 47.3121V47C18 46.4 17.6 46.0001 17 46.0001C16.4 46.0001 16.0001 46.4 16.0001 47V49.0001C16.0001 49.1501 16.025 49.2875 16.0719 49.4094C15.5809 50.2186 15.2426 51.1308 15.1001 52.1002C13.9488 52.2318 12.8961 52.646 12.0001 53.2654V53.0002C12.0001 52.4002 11.6002 52.0002 11.0002 52.0002C10.4002 52.0002 10.0002 52.4002 10.0002 53.0002V55.0002C10.0002 55.1169 10.0158 55.2258 10.0446 55.3259C9.54879 56.1278 9.21141 57.0352 9.07242 58.0001H8.00027V1.99992H8.00004ZM15.5449 54.0206C15.5647 54.0189 15.5848 54.0177 15.6047 54.0162C15.6574 54.0121 15.7102 54.0081 15.7634 54.0056C15.8418 54.0021 15.9206 53.9998 16.0001 53.9998C16.6001 53.9998 17 53.5998 17 52.9998C17 50.1998 19.2 47.9998 22.0001 47.9998C24.5 47.9998 26.6 49.7998 26.9 52.2997C26.9677 52.5702 27.1282 52.7931 27.3478 52.9412C27.3616 52.9509 27.3758 52.9601 27.3902 52.9691C27.4057 52.9786 27.4211 52.9882 27.4371 52.9969C27.474 53.0173 27.5125 53.0359 27.5525 53.0519C27.5541 53.0525 27.5555 53.0531 27.557 53.0538C27.6028 53.0721 27.6506 53.0875 27.7 53.0998C27.7001 53.0998 27.7001 53.0998 27.7002 53.0999C27.7597 53.1197 27.8273 53.1273 27.8988 53.1251C28.2275 53.1299 28.5333 52.9501 28.7 52.7002C28.7 52.7 28.7002 52.7 28.7003 52.6999L28.8002 52.6C29.6003 51.6 30.7002 51 32.0003 51C32.6755 51 33.3504 51.1891 33.9561 51.5428C32.7633 52.6644 32.0869 54.1266 32.0082 55.691C32.003 55.7933 32.0003 55.8964 32.0003 56C32.0003 56.6954 32.1159 57.3619 32.3448 58.0001H11.1C11.568 55.847 13.3505 54.22 15.5449 54.0206ZM34.7055 57.9998C34.3235 57.3537 34.1 56.5897 34.1 55.8998C34.1 54.7941 34.536 53.7978 35.2853 53.0696C35.4285 52.9369 35.5812 52.8143 35.7424 52.7033C35.8986 52.7045 36.0558 52.6719 36.2 52.5998C38.4 51.3998 41 52.4999 41.8001 54.6998C41.9 54.9998 42.2 55.2998 42.7001 55.2998C42.795 55.2998 42.9 55.2696 43.0055 55.2159C43.2564 55.1748 43.4548 54.9906 43.6001 54.6998C43.9876 53.8764 44.5876 53.2189 45.3179 52.758C45.4755 52.7141 45.6109 52.6363 45.7186 52.5307C46.4054 52.1855 47.184 51.9998 48.0001 51.9998C50.8001 51.9998 53.0002 54.1998 53.0002 56.9999C53.0002 57.2999 53.0002 57.6998 52.9002 57.9998H34.7055Z" fill="black"/>
<path d="M33 26C32.4 26 32 26.4 32 27V29C32 29.6 32.4 30 33 30C33.6 30 33.9999 29.6 33.9999 29V27C33.9999 26.4 33.6 26 33 26Z" fill="black"/>
<path d="M33 44C32.4 44 32 44.4 32 45V47C32 47.6 32.4 48 33 48C33.6 48 33.9999 47.6 33.9999 47V45C33.9999 44.4 33.6 44 33 44Z" fill="black"/>
<path d="M33 32C32.4 32 32 32.4 32 33V35C32 35.6 32.4 36 33 36C33.6 36 33.9999 35.6 33.9999 35V33C33.9999 32.4 33.6 32 33 32Z" fill="black"/>
<path d="M33 38C32.4 38 32 38.4 32 39V41C32 41.6 32.4 42 33 42C33.6 42 33.9999 41.6 33.9999 41V39C33.9999 38.4 33.6 38 33 38Z" fill="black"/>
<path d="M33 20C32.4 20 32 20.4 32 21V23C32 23.6 32.4 24 33 24C33.6 24 33.9999 23.6 33.9999 23V21C33.9999 20.4 33.6 20 33 20Z" fill="black"/>
<path d="M39 30C39.6 30 39.9999 29.6 39.9999 29V27C39.9999 26.4 39.6 26 39 26C38.4 26 38 26.4 38 27V29C38 29.6 38.4 30 39 30Z" fill="black"/>
<path d="M39 24C39.6 24 39.9999 23.6 39.9999 23V21C39.9999 20.4 39.6 20 39 20C38.4 20 38 20.4 38 21V23C38 23.6 38.4 24 39 24Z" fill="black"/>
<path d="M39 36C39.6 36 39.9999 35.6 39.9999 35V33C39.9999 32.4 39.6 32 39 32C38.4 32 38 32.4 38 33V35C38 35.6 38.4 36 39 36Z" fill="black"/>
<path d="M39 42C39.6 42 39.9999 41.6 39.9999 41V39C39.9999 38.4 39.6 38 39 38C38.4 38 38 38.4 38 39V41C38 41.6 38.4 42 39 42Z" fill="black"/>
<path d="M39 48C39.6 48 39.9999 47.6 39.9999 47V45C39.9999 44.4 39.6 44 39 44C38.4 44 38 44.4 38 45V47C38 47.6 38.4 48 39 48Z" fill="black"/>
<path d="M45 36C45.6 36 45.9999 35.6 45.9999 35V33C45.9999 32.4 45.6 32 45 32C44.4 32 44 32.4 44 33V35C44 35.6 44.4 36 45 36Z" fill="black"/>
<path d="M45 30C45.6 30 45.9999 29.6 45.9999 29V27C45.9999 26.4 45.6 26 45 26C44.4 26 44 26.4 44 27V29C44 29.6 44.4 30 45 30Z" fill="black"/>
<path d="M45 48C45.6 48 45.9999 47.6 45.9999 47V45C45.9999 44.4 45.6 44 45 44C44.4 44 44 44.4 44 45V47C44 47.6 44.4 48 45 48Z" fill="black"/>
<path d="M45 42C45.6 42 45.9999 41.6 45.9999 41V39C45.9999 38.4 45.6 38 45 38C44.4 38 44 38.4 44 39V41C44 41.6 44.4 42 45 42Z" fill="black"/>
<path d="M45 24C45.6 24 45.9999 23.6 45.9999 23V21C45.9999 20.4 45.6 20 45 20C44.4 20 44 20.4 44 21V23C44 23.6 44.4 24 45 24Z" fill="black"/>
<path d="M11 38C11.6 38 11.9999 37.6 11.9999 37V35C11.9999 34.4 11.6 34 11 34C10.4 34 10 34.4 10 35V37C9.99988 37.5999 10.4 38 11 38Z" fill="black"/>
<path d="M11 44C11.6 44 11.9999 43.6 11.9999 43V41C11.9999 40.4 11.6 40 11 40C10.4 40 10 40.4 10 41V43C9.99988 43.5999 10.4 44 11 44Z" fill="black"/>
<path d="M11 50C11.6 50 11.9999 49.6 11.9999 49V47C11.9999 46.4 11.6 46 11 46C10.4 46 10 46.4 10 47V49C9.99988 49.5999 10.4 50 11 50Z" fill="black"/>
<path d="M11 7.99996C11.6 7.99996 11.9999 7.6 11.9999 7V4.99996C11.9999 4.39996 11.6 4 11 4C10.4 4 10 4.39996 10 4.99996V7C9.99988 7.59988 10.4 7.99996 11 7.99996Z" fill="black"/>
<path d="M11 14C11.6 14 11.9999 13.6 11.9999 13V11C11.9999 10.4 11.6 10 11 10C10.4 10 10 10.4 10 11V13C9.99988 13.5999 10.4 14 11 14Z" fill="black"/>
<path d="M11 20C11.6 20 11.9999 19.6 11.9999 19V17C11.9999 16.4 11.6 16 11 16C10.4 16 10 16.4 10 17V19C9.99988 19.5999 10.4 20 11 20Z" fill="black"/>
<path d="M11 26C11.6 26 11.9999 25.6 11.9999 25V23C11.9999 22.4 11.6 22 11 22C10.4 22 10 22.4 10 23V25C9.99988 25.5999 10.4 26 11 26Z" fill="black"/>
<path d="M11 32C11.6 32 11.9999 31.6 11.9999 31V29C11.9999 28.4 11.6 28 11 28C10.4 28 10 28.4 10 29V31C9.99988 31.5999 10.4 32 11 32Z" fill="black"/>
<path d="M17 14C17.6 14 17.9999 13.6 17.9999 13V11C17.9999 10.4 17.6 10 17 10C16.4 10 16 10.4 16 11V13C15.9999 13.5999 16.4 14 17 14Z" fill="black"/>
<path d="M17 7.99996C17.6 7.99996 17.9999 7.6 17.9999 7V4.99996C17.9999 4.39996 17.6 4 17 4C16.4 4 16 4.39996 16 4.99996V7C15.9999 7.59988 16.4 7.99996 17 7.99996Z" fill="black"/>
<path d="M17 26C17.6 26 17.9999 25.6 17.9999 25V23C17.9999 22.4 17.6 22 17 22C16.4 22 16 22.4 16 23V25C15.9999 25.5999 16.4 26 17 26Z" fill="black"/>
<path d="M17 20C17.6 20 17.9999 19.6 17.9999 19V17C17.9999 16.4 17.6 16 17 16C16.4 16 16 16.4 16 17V19C15.9999 19.5999 16.4 20 17 20Z" fill="black"/>
<path d="M17 32C17.6 32 17.9999 31.6 17.9999 31V29C17.9999 28.4 17.6 28 17 28C16.4 28 16 28.4 16 29V31C15.9999 31.5999 16.4 32 17 32Z" fill="black"/>
<path d="M17 38C17.6 38 17.9999 37.6 17.9999 37V35C17.9999 34.4 17.6 34 17 34C16.4 34 16 34.4 16 35V37C15.9999 37.5999 16.4 38 17 38Z" fill="black"/>
<path d="M17 44C17.6 44 17.9999 43.6 17.9999 43V41C17.9999 40.4 17.6 40 17 40C16.4 40 16 40.4 16 41V43C15.9999 43.5999 16.4 44 17 44Z" fill="black"/>
<path d="M23 20C23.6 20 23.9999 19.6 23.9999 19V17C23.9999 16.4 23.6 16 23 16C22.4 16 22 16.4 22 17V19C21.9999 19.5999 22.4 20 23 20Z" fill="black"/>
<path d="M23 14C23.6 14 23.9999 13.6 23.9999 13V11C23.9999 10.4 23.6 10 23 10C22.4 10 22 10.4 22 11V13C21.9999 13.5999 22.4 14 23 14Z" fill="black"/>
<path d="M23 7.99996C23.6 7.99996 23.9999 7.6 23.9999 7V4.99996C23.9999 4.39996 23.6 4 23 4C22.4 4 22 4.39996 22 4.99996V7C21.9999 7.59988 22.4 7.99996 23 7.99996Z" fill="black"/>
<path d="M23 44C23.6 44 23.9999 43.6 23.9999 43V41C23.9999 40.4 23.6 40 23 40C22.4 40 22 40.4 22 41V43C21.9999 43.5999 22.4 44 23 44Z" fill="black"/>
<path d="M23 38C23.6 38 23.9999 37.6 23.9999 37V35C23.9999 34.4 23.6 34 23 34C22.4 34 22 34.4 22 35V37C21.9999 37.5999 22.4 38 23 38Z" fill="black"/>
<path d="M23 32C23.6 32 23.9999 31.6 23.9999 31V29C23.9999 28.4 23.6 28 23 28C22.4 28 22 28.4 22 29V31C21.9999 31.5999 22.4 32 23 32Z" fill="black"/>
<path d="M23 26C23.6 26 23.9999 25.6 23.9999 25V23C23.9999 22.4 23.6 22 23 22C22.4 22 22 22.4 22 23V25C21.9999 25.5999 22.4 26 23 26Z" fill="black"/>
<path d="M29 14C29.6 14 29.9999 13.6 29.9999 13V11C29.9999 10.4 29.6 10 29 10C28.4 10 28 10.4 28 11V13C27.9999 13.5999 28.4 14 29 14Z" fill="black"/>
<path d="M29 7.99996C29.6 7.99996 29.9999 7.6 29.9999 7V4.99996C29.9999 4.39996 29.6 4 29 4C28.4 4 28 4.39996 28 4.99996V7C27.9999 7.59988 28.4 7.99996 29 7.99996Z" fill="black"/>
</g>
<defs>
<clipPath id="clip0_203_229">
<rect width="60" height="60" fill="white"/>
</clipPath>
</defs>
</svg>
