<svg width="60" height="60" viewBox="0 0 60 60" fill="none" xmlns="http://www.w3.org/2000/svg">
<path d="M45.4901 41.9388C45.3677 41.8163 45.184 41.7551 45.0616 41.8775C44.9391 42 44.8779 42.1837 45.0003 42.3061C45.2452 42.6735 45.2452 43.2857 45.0003 43.653C44.8779 43.7755 44.9391 43.9592 45.0616 44.0816C45.184 44.2041 45.3677 44.1428 45.4901 44.0204C45.8575 43.4081 45.8575 42.551 45.4901 41.9388Z" fill="black"/>
<path d="M43.1628 42.3061C43.2852 42.1837 43.224 42 43.1016 41.8775C42.9791 41.7551 42.7954 41.8163 42.673 41.9388C42.2444 42.4898 42.2444 43.3469 42.673 43.9592C42.7954 44.0816 42.9791 44.1428 43.1016 44.0204C43.224 43.8979 43.2852 43.7143 43.1628 43.5918C42.9179 43.2857 42.9179 42.6735 43.1628 42.3061Z" fill="black"/>
<path d="M1.2255 33.3674H2.44999V50.2654H1.59285C1.28673 50.2654 0.980605 50.5103 0.980605 50.8776V53.449C0.980605 53.7552 1.2255 54.0613 1.59285 54.0613H58.7765C59.0826 54.0613 59.3888 53.8164 59.3888 53.449V50.8164C59.3888 50.5103 59.1439 50.2041 58.7765 50.2041H57.6745V46.4082C57.6745 46.1021 57.4296 45.796 57.0622 45.796H56.6949V33.3674H58.4704C58.7765 33.3674 59.0826 33.1225 59.0826 32.7552C59.0826 32.5103 58.899 32.2654 58.6541 32.2041L52.2867 28.9592V17.3266H53.8173C54.0622 17.3266 54.2459 17.2041 54.3684 17.0205C54.4908 16.8368 54.4296 16.5919 54.3071 16.4082L48.4296 8.69393C48.3071 8.57148 48.1235 8.44903 47.9398 8.44903H19.1643L16.9602 6.24495C16.8377 6.1225 16.7153 6.06128 16.5316 6.06128C16.348 6.06128 16.2255 6.1225 16.1031 6.24495L13.899 8.44903H9.30714C9.12346 8.44903 8.93979 8.51026 8.81734 8.69393L2.87856 16.347C2.75612 16.5307 2.69489 16.7756 2.81734 16.9592C2.93979 17.1429 3.12346 17.2654 3.36836 17.2654H4.9602L4.77652 17.449C4.53163 17.6939 4.53163 18.0613 4.77652 18.3062L6.36836 19.898V29.3878L0.919381 32.1429C0.674483 32.2654 0.552034 32.5715 0.613258 32.8164C0.674483 33.1225 0.919381 33.3674 1.2255 33.3674ZM3.61326 33.3674H29.6949H31.4704V45.9184H31.1031C30.7969 45.9184 30.4908 46.1633 30.4908 46.5307V50.3266H28.5316V38.9388C28.5316 38.7552 28.4092 38.6327 28.2255 38.6327H20.8786C20.6949 38.6327 20.5724 38.7552 20.5724 38.9388V50.2654H3.61326V33.3674ZM50.5724 50.2654V35.3878H52.5316V50.2654H50.5724ZM31.6541 47.0817H35.0214V50.2654H31.6541V47.0817ZM35.5724 35.3878H37.5316V50.2654H35.5724V35.3878ZM38.1439 35.3878H43.7765V50.2654H38.1439V35.3878ZM44.3888 35.3878H50.0214V50.2654H44.3888V35.3878ZM52.5316 34.7756H50.2663H37.8377H35.5724V33.3062H52.5316V34.7756ZM35.0214 45.8572H32.6949V33.3674H35.0214V45.8572ZM27.8582 50.2654H21.1847V39.2449H27.8582V50.2654ZM58.1643 52.8368H2.2051V51.4286H58.1643V52.8368ZM53.1439 50.2654V47.0817H56.5112V50.2654H53.1439ZM55.5316 45.8572H53.2051V33.3674H55.5316V45.8572ZM32.1439 32.1429L44.0214 26.0205L55.9602 32.1429H32.1439ZM26.8786 16.1633L25.2255 14.5103H51.3684L52.6541 16.1633H26.8786ZM50.8786 13.8368H24.6133L22.5928 11.8164H49.3479L50.8786 13.8368ZM47.6337 9.6123L48.9194 11.2654H21.9806L20.3275 9.6123H47.6337ZM9.55203 9.6123H12.6133L10.9602 11.2654H8.26632L9.55203 9.6123ZM8.38877 13.898H6.30714L7.83775 11.8776H10.4092L8.38877 13.898ZM4.59285 16.1633L5.87856 14.5103H7.83775L6.12346 16.1633H4.59285ZM16.4704 7.40822L18.4296 9.3674L26.2051 17.1429L26.8786 17.8164L26.0214 18.6735C23.8173 16.4694 19.1643 11.8164 16.8377 9.48985C16.7153 9.3674 16.5929 9.30618 16.4092 9.30618C16.2255 9.30618 16.1031 9.3674 15.9806 9.48985C13.7153 11.7552 9.12346 16.4082 6.79693 18.6735L5.93979 17.8164L16.4704 7.40822ZM12.8582 14.449H20.0826L21.7357 16.1021H11.2051L12.8582 14.449ZM13.4704 13.8368L16.4704 10.7756L19.5316 13.8368H13.4704ZM7.59285 19.7756L9.98061 17.3266H22.9602L25.5928 19.9592C25.8377 20.2041 26.2051 20.2041 26.45 19.9592L28.1643 18.245C28.2867 18.1225 28.348 18.0001 28.348 17.8164C28.348 17.6327 28.2867 17.5103 28.1643 17.3878L28.0418 17.2654H51.0622V28.2245L44.2663 24.7348C44.0826 24.6735 43.899 24.6735 43.7153 24.7348L37.6541 27.8572H9.42958C9.30714 27.8572 9.24591 27.8572 9.18469 27.9184L7.59285 28.7143V19.7756ZM9.61326 29.1429H35.3888L29.5724 32.1429H3.73571L9.61326 29.1429Z" fill="black"/>
<path d="M16.8391 38.6327H17.6963C17.8799 38.6327 18.0024 38.5102 18.0024 38.3265V36.8571C18.0024 36.6735 17.8799 36.551 17.6963 36.551H6.85953C6.67586 36.551 6.55341 36.6735 6.55341 36.8571V38.3265C6.55341 38.3878 6.61464 38.5102 6.61464 38.5102C6.67586 38.5714 6.73709 38.5714 6.79831 38.5714H7.65545V44.6939H6.79831C6.61464 44.6939 6.49219 44.8163 6.49219 45V46.4694C6.49219 46.6531 6.61464 46.7755 6.79831 46.7755H17.635C17.8187 46.7755 17.9412 46.6531 17.9412 46.4694V45C17.9412 44.8163 17.8187 44.6939 17.635 44.6939H16.7779V38.6327H16.8391ZM11.1452 44.6939V41.9388H13.4106V44.6939H11.1452ZM11.1452 38.6327H12.2473H13.3493V41.3878H11.084V38.6327H11.1452ZM10.533 41.3878H8.2677V38.6327H10.533V41.3878ZM13.9616 42H16.2269V44.6939H13.9616V42ZM16.2269 41.3878H13.9616V38.6327H16.2269V41.3878ZM7.16566 37.1633H17.3901V38.0204C11.9412 38.0204 9.73709 38.0204 7.16566 38.0204V37.1633ZM8.2677 42H10.533V44.6939H8.2677V42ZM17.3289 46.1633H7.16566V45.3061H17.3901V46.1633H17.3289Z" fill="black"/>
<path d="M11.2046 26.6327H22.3474C22.5311 26.6327 22.6535 26.5103 22.6535 26.3266V18.9184C22.6535 18.7348 22.5311 18.6123 22.3474 18.6123H11.2046C11.0209 18.6123 10.8984 18.7348 10.8984 18.9184V26.3266C10.8984 26.5103 11.0209 26.6327 11.2046 26.6327ZM15.2454 26.0205V19.2245H18.3678V26.0205H15.2454ZM22.0413 26.0205H18.9188V19.2245H22.0413V26.0205ZM11.5107 19.2245H14.6331V26.0205H11.5107V19.2245Z" fill="black"/>
<path d="M25.5913 45.1838H26.6321V45.6736C26.6321 45.8573 26.7545 45.9797 26.9382 45.9797C27.1219 45.9797 27.2443 45.8573 27.2443 45.6736V44.0818C27.2443 43.8981 27.1219 43.7756 26.9382 43.7756C26.7545 43.7756 26.6321 43.8981 26.6321 44.0818V44.5716H25.5913C25.4076 44.5716 25.2852 44.694 25.2852 44.8777C25.2852 45.0614 25.4076 45.1838 25.5913 45.1838Z" fill="black"/>
<path d="M30.4311 22.9593H43.5332H47.8801C47.9413 22.9593 48.0638 22.8981 48.0638 22.8981C48.125 22.8369 48.125 22.7756 48.125 22.7144V18.9797C48.125 18.796 48.0026 18.6736 47.8189 18.6736H30.4311C30.2474 18.6736 30.125 18.796 30.125 18.9797V22.6532C30.125 22.7756 30.2474 22.9593 30.4311 22.9593ZM30.7372 21.0613H34.5332V22.2858H30.7372V21.0613ZM39.4311 20.5103V19.2858H43.227V20.5103H39.4311ZM43.227 21.0613V22.2858H39.4311V21.0613H43.227ZM38.8801 20.5103H35.0842V19.2858H38.8801V20.5103ZM38.8801 21.0613V22.2858H35.0842V21.0613H38.8801ZM43.8393 22.3471V21.1226H47.6352V22.3471H43.8393ZM47.6352 20.5103H43.8393V19.2858H47.6352V20.5103ZM34.4719 19.2246V20.4491H30.676V19.2246H34.4719Z" fill="black"/>
</svg>
