<svg width="71" height="72" viewBox="0 0 71 72" fill="none" xmlns="http://www.w3.org/2000/svg">
<g clip-path="url(#clip0_203_359)">
<path d="M57.1576 25.9825C55.5125 24.335 53.4864 23.1188 51.2589 22.4414C49.0314 21.7641 46.6712 21.6466 44.3874 22.0994C42.1036 22.5522 39.9668 23.5613 38.1662 25.0372C36.3656 26.5132 34.9568 28.4105 34.0647 30.561L8.87992 30.561L8.08 30.866L2.94611 35.9999L8.15071 41.2045L8.89465 41.7245L14.8992 41.7245L16.2044 40.4193L17.5081 41.723L23.738 41.7245L25.0432 40.4193L26.3484 41.7245L34.1973 41.7245C35.0382 43.6269 36.2879 45.3208 37.8576 46.6856C39.4273 48.0504 41.2783 49.0526 43.2792 49.621C45.28 50.1894 47.3815 50.3101 49.4343 49.9744C51.487 49.6386 53.4406 48.8548 55.1562 47.6786C56.8717 46.5024 58.3071 44.9627 59.3602 43.169C60.4133 41.3753 61.0583 39.3716 61.2494 37.3004C61.4405 35.2291 61.1729 33.1412 60.4657 31.1851C59.7585 29.229 58.629 27.4527 57.1576 25.9825ZM38.5961 44.5441C37.225 43.1732 36.2064 41.4905 35.6277 39.64L27.2117 39.6415L25.0432 37.473L22.8747 39.6415L18.3728 39.6415L16.2044 37.473L14.0359 39.6415L9.55167 39.6415L9.49422 39.6017L5.89239 35.9999L9.23789 32.6544L9.26146 32.6455L35.5378 32.6441C36.2749 30.0999 37.8278 27.8686 39.9574 26.2936C42.0871 24.7186 44.6753 23.8873 47.3238 23.9276C49.9722 23.9679 52.534 24.8777 54.6147 26.5168C56.6954 28.1558 58.1796 30.4334 58.8389 32.9988C59.4982 35.5642 59.296 38.2752 58.2634 40.7144C57.2308 43.1535 55.4251 45.1857 53.1242 46.498C50.8234 47.8102 48.155 48.3298 45.5299 47.9768C42.9048 47.6237 40.4685 46.4176 38.5961 44.5441ZM33.2618 37.0001L9.84335 37.0046L8.83867 35.9999L9.84041 34.9981L33.2663 34.9952L33.2618 37.0001ZM55.2426 32.317C54.5142 31.5886 53.5861 31.0926 52.5758 30.8916C51.5655 30.6906 50.5183 30.7938 49.5666 31.188C48.6149 31.5822 47.8014 32.2498 47.2291 33.1063C46.6568 33.9628 46.3514 34.9698 46.3514 35.9999C46.3514 37.03 46.6568 38.037 47.2291 38.8935C47.8014 39.75 48.6149 40.4175 49.5666 40.8117C50.5183 41.2059 51.5655 41.3091 52.5758 41.1081C53.5861 40.9072 54.5142 40.4111 55.2425 39.6827C56.2193 38.706 56.768 37.3812 56.768 35.9999C56.768 34.6185 56.2193 33.2938 55.2426 32.317ZM49.35 38.2096C48.913 37.7725 48.6153 37.2157 48.4947 36.6095C48.3742 36.0033 48.4361 35.375 48.6726 34.804C48.9091 34.233 49.3096 33.7449 49.8235 33.4015C50.3374 33.0581 50.9416 32.8749 51.5597 32.8749C52.1778 32.8749 52.782 33.0581 53.2959 33.4015C53.8098 33.7449 54.2103 34.233 54.4468 34.804C54.6833 35.375 54.7452 36.0033 54.6247 36.6095C54.5041 37.2157 54.2065 37.7725 53.7694 38.2096C53.1828 38.7946 52.3882 39.1232 51.5597 39.1231C50.7312 39.1231 49.9366 38.7946 49.35 38.2096Z" fill="white"/>
</g>
<defs>
<clipPath id="clip0_203_359">
<rect width="50" height="50" fill="white" transform="translate(35.3555 0.644531) rotate(45)"/>
</clipPath>
</defs>
</svg>
