<svg width="60" height="60" viewBox="0 0 60 60" fill="none" xmlns="http://www.w3.org/2000/svg">
<g clip-path="url(#clip0_203_277)">
<path d="M4.68372 19.691C5.13872 19.43 5.64672 19.138 6.17672 18.834C6.40572 23.446 6.51772 28.058 6.57872 32.67C6.61272 35.218 6.61272 37.767 6.60372 40.315C6.61972 41.023 6.54272 42.518 6.58572 43.22C6.66472 44.402 7.69872 45.41 8.88972 45.451C9.09171 45.433 16.3747 45.62 21.4167 45.75C21.0327 47.126 20.2327 48.826 19.0907 49.69C17.6447 50.885 15.4777 50.595 13.7427 51.116C9.82872 52.061 5.66772 54.481 5.10672 59.001C5.01072 60.293 6.95971 60.292 6.89971 59.033C6.92271 55.326 10.7077 52.963 13.9847 52.032C15.3707 51.573 16.8677 51.599 18.2487 51.104C20.4567 50.216 21.6377 47.986 22.2227 45.771C24.2787 45.824 25.8267 45.864 26.1117 45.87C28.4157 45.912 30.7187 45.964 33.0227 45.992C32.9057 47.408 32.4647 48.828 31.5357 49.921C30.9867 50.557 30.1717 51.015 29.5997 51.65C27.6527 53.663 26.5927 56.192 26.1067 59.001C25.9117 60.417 28.0967 60.403 27.8977 59.001C27.4127 56.23 28.7257 53.015 31.1197 51.442C33.1437 50.25 34.3087 48.228 34.7817 46.002C36.6177 46.01 38.4537 45.989 40.2897 45.926C40.1057 47.635 39.8947 49.339 39.5937 51.028C39.2057 53.363 38.5717 55.561 37.8647 57.796C37.7417 58.708 38.5037 59.602 39.4227 59.604C39.7417 59.608 40.3707 59.575 40.6807 59.573C42.3137 59.518 45.6007 59.444 47.2347 59.437C47.5067 59.436 48.2227 59.423 48.4847 59.419C49.0677 59.398 49.6107 58.964 49.7587 58.401C49.8767 58.081 49.7757 57.602 49.6477 57.342C47.3527 51.409 46.8347 44.904 46.8957 38.577C49.3827 39.774 52.2507 40.609 54.8397 41.475C55.3277 41.625 55.8597 41.827 56.3687 41.968C57.1797 42.148 57.9917 41.613 58.1717 40.865C58.3067 39.671 57.6747 38.685 57.1987 37.656C56.3797 36.076 55.0377 34.988 53.4827 34.28C55.2207 33.705 56.7797 32.693 58.4317 31.882C59.0057 31.637 59.5227 31.129 59.5767 30.489C59.6877 29.869 59.2767 29.138 58.7397 28.907C57.2017 28.088 55.4867 27.503 53.6917 27.597C52.1957 27.663 50.7797 28.195 49.4537 28.919C49.3077 27.249 49.3577 25.578 49.5177 23.908C49.6557 22.307 50.1587 20.069 49.9517 18.393C50.6727 18.796 51.3517 19.169 51.8877 19.443C55.2247 20.572 56.9157 15.869 53.7587 14.487C48.2927 11.4 36.7257 4.75397 31.3607 1.68997C30.5697 1.29797 29.3987 0.397967 28.4757 0.224967C27.6737 0.0159669 26.6577 0.451967 26.0697 0.821967C25.5107 1.12597 24.0327 1.92897 23.4547 2.24297C18.3977 4.99597 6.58072 11.415 1.72472 14.202C-1.90328 16.253 1.01372 21.628 4.68372 19.691ZM20.4757 10.621C21.6977 11.168 22.9197 10.965 24.1417 10.926C27.9727 10.532 31.8197 10.12 35.6717 10.478C37.6087 11.543 39.6327 12.657 41.3867 13.624C39.4117 13.668 37.4367 13.684 35.4607 13.658C31.1197 13.654 24.9387 13.307 20.5407 13.082C19.1287 13.055 17.7167 12.977 16.3037 13.016C17.7197 12.203 19.1277 11.394 20.4737 10.621H20.4757ZM23.2497 9.02897C24.6917 8.20197 25.9947 7.45497 27.0557 6.84697C27.5607 6.60997 27.8917 6.16397 28.3697 6.49697C29.2327 6.94997 31.4777 8.17597 34.0967 9.61197C33.3517 9.63997 32.6067 9.65397 31.8617 9.64997C29.2807 9.66997 26.7087 9.29197 24.1417 9.07297C23.8447 9.06397 23.5467 9.04397 23.2497 9.02697V9.02897ZM13.4357 14.664C16.6877 15.25 20.8977 14.934 24.6177 14.701C24.5977 15.183 24.6867 15.703 24.8387 15.884C25.4017 16.378 25.6307 15.431 25.5697 14.646C26.1477 14.613 26.7047 14.588 27.2447 14.569C27.1987 15.084 27.2957 15.687 27.4617 15.884C28.0517 16.401 28.2767 15.336 28.1827 14.534C28.7497 14.511 29.3157 14.494 29.8827 14.474C29.8137 15.008 29.9077 15.674 30.0847 15.884C30.6977 16.421 30.9147 15.252 30.7917 14.442C31.3687 14.424 31.9447 14.408 32.5217 14.394C32.4037 14.891 32.4647 15.395 32.7087 15.884C33.3207 16.458 33.5507 15.199 33.4037 14.377C34.1267 14.362 34.8497 14.344 35.5727 14.337C35.4647 14.886 35.5587 15.656 35.7517 15.884C36.3917 16.445 36.6017 15.143 36.4417 14.336C37.1667 14.332 37.8917 14.329 38.6167 14.333C38.5077 14.883 38.6017 15.655 38.7947 15.884C39.4347 16.445 39.6447 15.146 39.4857 14.338C40.2077 14.346 40.9297 14.364 41.6527 14.381C41.5577 14.927 41.6507 15.661 41.8377 15.883C42.4617 16.43 42.6767 15.208 42.5387 14.398C42.6277 14.401 42.7157 14.401 42.8047 14.403C44.1307 15.134 45.1907 15.718 45.7667 16.035C46.3687 16.364 47.1437 16.805 47.9627 17.27C46.1867 17.024 43.2807 16.9 39.2507 17.057C29.1557 17.487 19.0507 17.912 8.95772 17.234C10.3607 16.428 11.8747 15.559 13.4337 14.662L13.4357 14.664ZM8.93172 44.54C7.66372 44.478 7.31872 43.338 7.41972 42.227C7.34672 34.432 7.45572 26.635 7.83371 18.846C11.1397 18.605 14.4457 18.471 17.7527 18.424C20.0767 18.366 22.3997 18.378 24.7217 18.424C24.5267 18.96 24.6187 19.926 24.8387 20.187C25.5357 20.798 25.7237 19.201 25.4777 18.438C26.0907 18.452 26.7037 18.47 27.3157 18.489C27.1527 19.036 27.2507 19.937 27.4607 20.188C28.1367 20.78 28.3317 19.3 28.1197 18.513C28.7187 18.533 29.3167 18.554 29.9157 18.577C29.7867 19.128 29.8837 19.951 30.0837 20.189C30.7327 20.758 30.9387 19.413 30.7657 18.609C31.3517 18.632 31.9377 18.655 32.5247 18.679C32.3997 19.183 32.4607 19.693 32.7067 20.189C33.3107 20.755 33.5417 19.537 33.4057 18.715C34.1187 18.744 34.8307 18.773 35.5437 18.802C35.4807 19.332 35.5757 19.982 35.7497 20.189C36.3397 20.706 36.5637 19.642 36.4707 18.84C37.1717 18.868 37.8727 18.893 38.5737 18.919C38.5377 19.424 38.6317 19.998 38.7927 20.189C39.3557 20.682 39.5847 19.737 39.5237 18.952C40.2587 18.978 40.9577 18.995 41.6157 19.004C41.5947 19.487 41.6837 20.008 41.8367 20.189C42.3857 20.67 42.6177 19.782 42.5717 19.01C44.9437 19.011 46.7587 18.9 47.9997 18.726C47.9477 19.47 48.0517 20.214 48.1167 20.958C48.4637 23.506 48.7947 26.313 48.5627 28.919C47.5857 28.469 46.5617 28.521 45.6827 28.906C46.2157 27.37 45.9357 25.841 45.9047 24.28C45.8817 23.997 45.8697 23.664 45.7537 23.402C45.4847 22.692 44.7617 22.235 44.0497 22.265C42.6277 22.406 40.5907 22.606 39.1817 22.608C38.3927 22.509 37.5267 23.23 37.5987 24.071L37.5777 24.677C37.5377 25.753 37.4677 26.829 37.3417 27.906C36.5927 27.538 35.7717 27.315 34.9277 27.232L34.9427 26.876C34.9567 26.703 34.9547 26.183 34.9707 26.022C35.0797 23.831 33.0397 21.87 30.8917 21.999L28.6147 22.021L26.3377 22.066C25.5407 22.114 24.6087 21.998 23.8017 22.301C21.9097 22.869 20.9377 24.959 21.2147 26.787L21.4607 35.896C21.5487 38.678 21.5567 41.46 21.5877 44.242C17.7537 44.348 14.0467 44.463 10.8207 44.525L8.93072 44.545L8.93172 44.54ZM32.5757 40.234L31.2637 40.858C31.0747 40.951 30.7627 40.834 30.6627 40.59C30.5527 40.438 30.7497 39.808 30.8567 39.377C31.6687 36.125 35.0687 34.338 38.2407 34.912C38.7127 35.415 39.3367 35.766 40.0807 35.882C40.0767 35.923 40.0637 35.958 40.0607 36C40.0507 36.319 40.0727 36.617 40.1187 36.896C37.5587 37.752 34.9817 39.102 32.5757 40.234ZM37.6717 30.452C37.1607 31.354 37.0887 32.442 37.3857 33.416C37.0547 33.467 36.7267 33.53 36.4017 33.605C34.2747 32.815 32.0427 31.805 30.0007 30.862C29.6527 30.697 29.5247 30.623 29.4757 30.304C29.4677 30.057 29.5497 29.89 29.7997 29.776C32.5067 28.206 35.2587 28.791 37.6727 30.453L37.6717 30.452ZM44.6217 29.597C44.3877 29.814 44.1827 30.062 44.0077 30.333C42.9477 28.78 40.8677 28.021 39.0257 29.132C38.9497 29.052 38.8787 28.967 38.7987 28.893C38.5787 27.487 38.4777 26.08 38.4257 24.674C38.4377 24.437 38.3357 23.886 38.4867 23.693C38.5467 23.586 38.6437 23.5 38.7537 23.447C39.6467 23.304 40.6867 23.48 41.6077 23.508L44.0097 23.742C44.1257 23.796 44.1717 23.918 44.1207 23.998C44.0687 25.892 43.6627 27.737 44.6217 29.597ZM41.8527 36C41.6417 32.717 46.5357 32.548 46.4777 36C46.1527 38.884 42.2437 38.758 41.8527 36ZM39.4447 29.986C41.2697 28.29 44.2977 30.525 42.9867 32.648C42.1087 32.815 41.2977 33.28 40.7487 34.043C38.9477 33.625 37.8947 31.483 39.4447 29.986ZM42.7877 39.723C43.5997 39.914 44.4707 39.854 45.2437 39.536C45.3777 40.831 45.5257 42.125 45.7007 43.415C45.0257 43.242 44.1657 43.191 43.9567 43.214C43.5007 43.208 43.0447 43.232 42.5887 43.277C42.6957 42.095 42.7627 40.91 42.7877 39.723ZM44.7077 32.702C44.7247 32.223 44.6467 31.765 44.5037 31.336C44.5087 31.307 44.5087 31.277 44.5147 31.248C45.4747 27.897 50.3367 29.574 48.9227 32.721C48.4837 33.578 47.7617 33.869 46.8897 34.27C46.3847 33.445 45.5907 32.922 44.7077 32.702ZM22.4137 44.215C22.4457 38.972 22.6427 31.907 22.7887 26.783C22.6577 25.088 23.5267 23.826 25.2007 23.917L26.3397 23.94C27.4767 23.963 29.7557 24.008 30.8937 24.007C31.9837 23.977 32.8917 24.766 33.0167 25.82C33.0167 25.82 33.0507 26.628 33.0767 27.263C31.6597 27.453 30.2947 28.007 29.2397 28.89C28.4447 29.345 28.2777 30.621 29.0027 31.235C29.4157 31.604 31.4707 32.281 31.9877 32.539C33.0657 32.984 34.1287 33.463 35.1847 33.961C34.3337 34.26 33.5247 34.662 32.7967 35.215C31.2837 36.371 30.3227 38.068 29.8117 39.87C29.7467 40.074 29.6307 40.494 29.7447 40.866C29.9247 41.614 30.7367 42.149 31.5467 41.969C32.0677 41.794 32.5967 41.623 33.1297 41.452C32.9897 42.299 32.9957 43.152 33.0247 44.01C29.5787 44.036 25.9557 44.12 22.4147 44.216L22.4137 44.215ZM35.0227 44.001C35.0577 42.963 34.9607 41.924 34.7447 40.936C36.8527 40.264 38.9747 39.553 40.9347 38.629L40.9637 38.662C40.8017 40.467 40.6537 42.274 40.4847 44.076C38.7727 44.023 36.9377 44.001 35.0227 44.001ZM48.0537 58.573L47.2347 58.563C45.2127 58.549 41.8767 58.472 39.8617 58.404C39.5307 58.423 39.1017 58.379 39.1637 57.969C40.0417 55.922 40.7337 53.775 41.2357 51.621C43.2117 51.78 45.1877 51.899 47.1507 51.53C47.6587 53.773 48.2537 55.992 48.9757 58.172C48.8657 58.592 48.4007 58.595 48.0537 58.573ZM46.9007 50.404C45.5387 50.133 42.9697 50.24 41.5137 50.345C41.9027 48.472 42.2197 46.588 42.4407 44.695C43.5947 44.848 44.7427 44.907 45.8597 44.509C46.1477 46.487 46.4887 48.454 46.9007 50.404ZM57.2497 40.59C57.1497 40.834 56.8387 40.951 56.6487 40.858L55.3367 40.234C52.8057 39.043 50.0707 37.608 47.3807 36.765C47.4157 36.522 47.4417 36.272 47.4357 36C47.4317 35.939 47.4137 35.887 47.4077 35.828C48.2317 35.884 49.0467 35.511 49.6617 34.92C53.3587 34.249 57.0637 36.719 57.2497 40.59ZM53.7547 28.442C55.3157 28.258 56.9347 28.801 58.2117 29.748C58.5457 29.984 58.4607 30.407 58.1377 30.493C55.7517 31.372 53.2037 31.852 51.1887 33.533C50.9887 33.491 50.7877 33.456 50.5867 33.424C50.5947 33.395 50.6107 33.369 50.6187 33.34C50.9377 32.286 50.7257 31.174 50.1837 30.311C51.1187 29.304 52.3857 28.595 53.7537 28.441L53.7547 28.442ZM2.66572 15.897C2.61772 15.956 10.1357 11.753 10.4847 11.586L24.2977 3.76397C24.8637 3.44297 26.3397 2.60397 26.8857 2.29397C27.4297 1.99497 27.6677 1.76197 28.2007 1.83197C33.6537 4.52797 45.9217 11.378 51.5637 14.351C52.0287 14.626 53.6817 15.445 54.0287 15.772C55.0887 16.741 54.3937 18.648 52.9747 18.737C52.3647 18.812 51.9237 18.51 51.3717 18.206C45.7777 15.15 34.4237 8.79797 28.8627 5.60897C28.5547 5.37997 27.9097 5.24497 27.4977 5.42197C27.0867 5.58197 26.8887 5.75297 26.5377 5.91597L24.7907 6.85797C20.2817 9.28197 8.48972 15.615 3.81272 18.126C2.29172 18.896 1.15272 16.651 2.66572 15.897Z" fill="black"/>
<path d="M18.7905 24.1249C18.8595 23.0559 17.8035 22.1419 16.8225 22.3039L16.2865 22.3309L12.0015 22.5199C11.2025 22.5199 10.5125 23.2579 10.5665 24.0359L10.5805 24.5719C10.6325 27.2029 10.6225 29.9849 10.4685 32.6069C10.4675 32.8199 10.4315 32.9679 10.4605 33.2209C10.4895 34.0479 11.4335 34.7169 12.1805 34.6509C13.7855 34.7549 15.3965 34.8179 17.0015 34.8959C18.0335 34.9569 18.9945 33.9769 18.9605 32.9639L18.9815 32.4279C19.0725 29.9339 18.9045 27.4229 18.8305 24.9289C18.8145 24.7609 18.8095 24.2839 18.7905 24.1249ZM17.0435 32.9629C17.0555 33.0499 17.0745 33.0609 17.0025 33.1039C15.3725 33.1719 13.4505 33.2829 11.8695 33.3559C11.7365 33.3309 11.5995 33.2179 11.5655 33.0629C11.3745 30.3059 11.3725 27.3489 11.4235 24.5719C11.4255 24.1189 11.3785 23.4689 12.0025 23.4799L16.2875 23.6689C16.8125 23.7339 17.1995 23.5779 17.2235 23.9679C17.1115 26.9369 16.9075 29.9979 17.0435 32.9629Z" fill="black"/>
<path d="M11 58C11.5523 58 12 57.5523 12 57C12 56.4477 11.5523 56 11 56C10.4477 56 10 56.4477 10 57C10 57.5523 10.4477 58 11 58Z" fill="black"/>
<path d="M17 56C17.5523 56 18 55.5523 18 55C18 54.4477 17.5523 54 17 54C16.4477 54 16 54.4477 16 55C16 55.5523 16.4477 56 17 56Z" fill="black"/>
<path d="M17 60C17.5523 60 18 59.5523 18 59C18 58.4477 17.5523 58 17 58C16.4477 58 16 58.4477 16 59C16 59.5523 16.4477 60 17 60Z" fill="black"/>
<path d="M23 53C23.5523 53 24 52.5523 24 52C24 51.4477 23.5523 51 23 51C22.4477 51 22 51.4477 22 52C22 52.5523 22.4477 53 23 53Z" fill="black"/>
<path d="M23 58C23.5523 58 24 57.5523 24 57C24 56.4477 23.5523 56 23 56C22.4477 56 22 56.4477 22 57C22 57.5523 22.4477 58 23 58Z" fill="black"/>
<path d="M28 50C28.5523 50 29 49.5523 29 49C29 48.4477 28.5523 48 28 48C27.4477 48 27 48.4477 27 49C27 49.5523 27.4477 50 28 50Z" fill="black"/>
</g>
<defs>
<clipPath id="clip0_203_277">
<rect width="60" height="60" fill="white"/>
</clipPath>
</defs>
</svg>
