<svg width="45" height="45" viewBox="0 0 45 45" fill="none" xmlns="http://www.w3.org/2000/svg">
<g opacity="0.2">
<g clip-path="url(#clip0_2_1738)">
<path d="M2.90332 23.2277H21.7743V13.0664H2.90332V23.2277ZM4.35493 14.518H20.3227V21.7761H4.35493V14.518Z" fill="black"/>
<path d="M4.35449 29.7572H8.70933V25.4023H4.35449V29.7572ZM5.80611 26.854H7.25772V28.3056H5.80611V26.854Z" fill="black"/>
<path d="M10.1611 29.7572H14.516V25.4023H10.1611V29.7572ZM11.6127 26.854H13.0644V28.3056H11.6127V26.854Z" fill="black"/>
<path d="M15.9678 29.7572H20.3226V25.4023H15.9678V29.7572ZM17.4194 26.854H18.871V28.3056H17.4194V26.854Z" fill="black"/>
<path d="M4.35449 35.5658H8.70933V31.2109H4.35449V35.5658ZM5.80611 32.6626H7.25772V34.1142H5.80611V32.6626Z" fill="black"/>
<path d="M10.1611 35.5658H14.516V31.2109H10.1611V35.5658ZM11.6127 32.6626H13.0644V34.1142H11.6127V32.6626Z" fill="black"/>
<path d="M15.9678 35.5658H20.3226V31.2109H15.9678V35.5658ZM17.4194 32.6626H18.871V34.1142H17.4194V32.6626Z" fill="black"/>
<path d="M4.35449 41.3705H8.70933V37.0156H4.35449V41.3705ZM5.80611 38.4672H7.25772V39.9189H5.80611V38.4672Z" fill="black"/>
<path d="M10.1611 41.3705H14.516V37.0156H10.1611V41.3705ZM11.6127 38.4672H13.0644V39.9189H11.6127V38.4672Z" fill="black"/>
<path d="M15.9678 41.3705H20.3226V37.0156H15.9678V41.3705ZM17.4194 38.4672H18.871V39.9189H17.4194V38.4672Z" fill="black"/>
<path d="M18.8706 18.8711H17.4189V20.3227H18.8706V18.8711Z" fill="black"/>
<path d="M15.9681 18.8711H11.6133V20.3227H15.9681V18.8711Z" fill="black"/>
<path d="M17.4191 4.35547H7.25781V5.80708H17.4191V4.35547Z" fill="black"/>
<path d="M17.4194 7.25781H15.9678V8.70943H17.4194V7.25781Z" fill="black"/>
<path d="M36.2903 13.4499V10.1613C36.2903 8.96081 35.3134 7.98387 34.1129 7.98387H24.6774V7.25806C24.6774 5.65694 23.3753 4.35484 21.7742 4.35484H20.3226V0H4.35484V4.35484H2.90323C1.3021 4.35484 0 5.65694 0 7.25806L0.00362903 29.8306L1.25855 42.3864C1.40734 43.8757 2.64992 45 4.14798 45H20.5294C22.0268 45 23.2694 43.8757 23.4181 42.3856L24.4604 31.9355H28.514C28.379 32.7302 28.3065 33.5344 28.3065 34.3401C28.3065 37.1845 29.1404 39.939 30.7183 42.3058L31.2097 43.0425V45H32.6613V42.6027L31.926 41.4994C30.5078 39.3728 29.7581 36.8964 29.7581 34.3401C29.7581 33.2862 29.888 32.2331 30.1427 31.209L31.1872 27.0312L31.2097 20.4583C31.2097 19.5823 31.921 18.871 32.7963 18.871C33.5954 18.871 34.2719 19.4683 34.3713 20.2609L35.6494 30.4839H37.6657L38.4902 23.0625L36.2903 19.3957V15.3406L43.5484 21.3888V28.2128L39.9433 41.9117L39.9194 45H41.371V42.1904L44.976 28.4915L45 20.708L36.2903 13.4499ZM5.80645 1.45161H7.25806V2.90323H8.70968V1.45161H10.1613V2.90323H11.6129V1.45161H13.0645V2.90323H14.5161V1.45161H15.9677V2.90323H17.4194V1.45161H18.871V10.1613H5.80645V1.45161ZM21.9738 42.2412C21.8998 42.9866 21.2785 43.5484 20.5294 43.5484H4.14798C3.39895 43.5484 2.77766 42.9866 2.70363 42.2412L1.45161 29.7581V7.25806C1.45161 6.45823 2.10266 5.80645 2.90323 5.80645H4.35484V10.1613H2.90323V11.6129H21.7742V10.1613H20.3226V5.80645H21.7742C22.574 5.80645 23.2258 6.45823 23.2258 7.25806L23.2294 29.6855L21.9738 42.2412ZM34.8387 18.2199C34.2951 17.7242 33.5787 17.4194 32.7963 17.4194C31.1211 17.4194 29.7581 18.7824 29.7581 20.4583V26.7656L28.8276 30.4839H24.6048L24.6774 29.7581V13.7903V9.43548H34.1129C34.5135 9.43548 34.8387 9.76065 34.8387 10.1613V18.2199ZM36.9936 23.3891L36.6322 26.6415L36.2903 23.9095V22.2177L36.9936 23.3891Z" fill="black"/>
<path d="M27.581 16.6932C28.0927 16.6932 28.5927 16.5553 29.0326 16.2969C29.4724 16.5553 29.9725 16.6932 30.4842 16.6932C32.0853 16.6932 33.3874 15.3911 33.3874 13.7899C33.3874 12.1888 32.0853 10.8867 30.4842 10.8867C29.9725 10.8867 29.4724 11.0246 29.0326 11.283C28.5927 11.0246 28.0927 10.8867 27.581 10.8867C25.9798 10.8867 24.6777 12.1888 24.6777 13.7899C24.6777 15.3911 25.9798 16.6932 27.581 16.6932ZM27.581 12.3383C27.933 12.3383 28.2756 12.4726 28.547 12.7165L29.0326 13.1541L29.5181 12.7165C29.7896 12.4726 30.1322 12.3383 30.4842 12.3383C31.284 12.3383 31.9358 12.9894 31.9358 13.7899C31.9358 14.5905 31.284 15.2416 30.4842 15.2416C30.1322 15.2416 29.7896 15.1073 29.5181 14.8634L29.0326 14.4258L28.547 14.8634C28.2756 15.1073 27.933 15.2416 27.581 15.2416C26.7804 15.2416 26.1293 14.5905 26.1293 13.7899C26.1293 12.9894 26.7804 12.3383 27.581 12.3383Z" fill="black"/>
<path d="M27.5805 18.1445H26.1289V26.1284H27.5805V18.1445Z" fill="black"/>
<path d="M27.5805 27.582H26.1289V29.0336H27.5805V27.582Z" fill="black"/>
</g>
</g>
<defs>
<clipPath id="clip0_2_1738">
<rect width="45" height="45" fill="white"/>
</clipPath>
</defs>
</svg>
