<svg width="120" height="30" viewBox="0 0 120 30" fill="none" xmlns="http://www.w3.org/2000/svg">
<g clip-path="url(#clip0_2_1682)">
<path d="M0 30.3568H120V-0.36084H0V30.3568Z" fill="#EB722E"/>
<path d="M15.4316 7.49246C16.6998 7.49246 17.7313 8.52399 17.7313 9.79212C17.7313 11.0592 16.6995 12.0907 15.4316 12.0907C14.1643 12.0907 13.1325 11.0592 13.1325 9.79212C13.1322 8.52372 14.1646 7.49246 15.4316 7.49246ZM15.4316 15.3443C18.4949 15.3443 20.9859 12.854 20.9859 9.79212C20.9859 6.72865 18.4951 4.2373 15.4316 4.2373C12.3687 4.2373 9.87736 6.72892 9.87736 9.79212C9.87736 12.854 12.3687 15.3443 15.4316 15.3443ZM17.6787 19.8748C18.8213 19.6145 19.9117 19.163 20.9038 18.5394C21.269 18.3096 21.528 17.9441 21.6238 17.5233C21.7196 17.1026 21.6443 16.661 21.4145 16.2958C21.3008 16.1148 21.1526 15.9579 20.9783 15.8342C20.804 15.7105 20.607 15.6224 20.3986 15.5749C20.1902 15.5274 19.9745 15.5214 19.7638 15.5573C19.5531 15.5933 19.3515 15.6704 19.1707 15.7843C16.8952 17.2149 13.9665 17.2138 11.6929 15.7843C11.5121 15.6704 11.3105 15.5932 11.0998 15.5573C10.8891 15.5213 10.6734 15.5273 10.465 15.5748C10.2567 15.6223 10.0597 15.7104 9.8854 15.8342C9.71111 15.9579 9.56293 16.1147 9.44933 16.2958C9.21947 16.6609 9.14406 17.1024 9.23969 17.5232C9.33531 17.9439 9.59414 18.3094 9.95924 18.5394C10.9513 19.1628 12.0415 19.6143 13.1838 19.8748L10.0789 22.9802C9.77375 23.2855 9.60237 23.6994 9.60244 24.131C9.60252 24.5626 9.77404 24.9765 10.0793 25.2816C10.3845 25.5868 10.7985 25.7581 11.2301 25.7581C11.6617 25.758 12.0755 25.5865 12.3807 25.2812L15.4311 22.2302L18.4834 25.2815C18.6343 25.4326 18.8136 25.5525 19.0109 25.6343C19.2082 25.7162 19.4197 25.7583 19.6333 25.7583C19.8468 25.7583 20.0583 25.7162 20.2556 25.6343C20.4529 25.5525 20.6322 25.4326 20.7831 25.2815C20.9344 25.1306 21.0545 24.9513 21.1365 24.7539C21.2184 24.5565 21.2606 24.3449 21.2606 24.1311C21.2606 23.9174 21.2184 23.7058 21.1365 23.5084C21.0545 23.311 20.9344 23.1317 20.7831 22.9808L17.6787 19.8748ZM57.9169 14.8429C58.199 14.6929 58.7206 14.2224 58.8974 13.6096L59.3175 11.9799C59.3214 11.9675 59.3224 11.9543 59.3203 11.9415C59.3182 11.9286 59.3132 11.9165 59.3055 11.906C59.2982 11.8955 59.2884 11.8869 59.2771 11.8809C59.2658 11.875 59.2532 11.8718 59.2404 11.8717H58.1528C58.1352 11.8718 58.1182 11.8776 58.1042 11.8882C58.0902 11.8989 58.0801 11.9138 58.0754 11.9307C58.0754 11.9307 57.8037 13.2055 57.6686 13.5482C57.5338 13.8908 57.1914 14.2011 56.9907 14.3245C56.8931 14.3855 56.784 14.4257 56.6701 14.4425C56.5544 14.46 56.4335 14.4686 56.3109 14.4686H55.2509V11.9546C55.2511 11.9329 55.2428 11.912 55.2276 11.8964C55.2125 11.8808 55.1918 11.8718 55.1701 11.8714H54.0825C54.0607 11.8717 54.04 11.8807 54.0248 11.8963C54.0096 11.9119 54.0012 11.9328 54.0014 11.9546V18.7132C54.0014 18.7592 54.0373 18.7962 54.0825 18.7962H55.1701C55.1809 18.796 55.1915 18.7938 55.2014 18.7895C55.2112 18.7853 55.2202 18.7791 55.2277 18.7714C55.2352 18.7637 55.2411 18.7546 55.2451 18.7446C55.2491 18.7347 55.2511 18.724 55.2509 18.7132V15.5477H56.4558C56.6581 15.5477 57.8281 15.696 57.9321 16.5372L58.1687 18.7361C58.1733 18.7533 58.1833 18.7685 58.1973 18.7795C58.2113 18.7905 58.2285 18.7966 58.2463 18.797H59.3603C59.3731 18.7967 59.3857 18.7934 59.397 18.7875C59.4084 18.7815 59.4182 18.7729 59.4257 18.7625C59.4331 18.7521 59.4381 18.7401 59.4401 18.7274C59.4422 18.7148 59.4412 18.7018 59.4374 18.6896C59.4374 18.6896 59.2343 17.201 59.0681 16.1629C58.9019 15.1239 57.8973 14.8344 57.9169 14.8429ZM77.9355 16.9817C77.9279 16.9732 77.9187 16.9663 77.9083 16.9615C77.898 16.9568 77.8868 16.9542 77.8754 16.954C77.8451 16.9485 77.8307 16.9644 77.8153 16.9817C77.6624 17.1561 77.466 17.3135 77.2317 17.448C77.0043 17.5809 76.7454 17.6506 76.482 17.6498C75.8899 17.6498 75.4271 17.4594 75.1049 17.0841C74.7797 16.7076 74.6149 16.1238 74.6149 15.3475C74.6149 14.5627 74.7792 13.9759 75.1049 13.604C75.4266 13.2334 75.8894 13.0457 76.482 13.0457C76.7266 13.0457 76.9691 13.1055 77.2033 13.2222C77.438 13.337 77.6462 13.4992 77.815 13.6986C77.8228 13.7071 77.8322 13.714 77.8426 13.7189C77.8531 13.7238 77.8644 13.7266 77.8759 13.7271C77.8875 13.7271 77.8989 13.7246 77.9094 13.7198C77.9199 13.715 77.9293 13.7079 77.9368 13.6992L78.6397 12.8814C78.6536 12.8652 78.6608 12.8444 78.66 12.8231C78.6591 12.8018 78.6503 12.7816 78.6352 12.7665C78.3503 12.4825 78.0206 12.2472 77.6595 12.07C77.295 11.8929 76.8816 11.8025 76.4315 11.8025C76.0439 11.8025 75.6624 11.8687 75.2974 11.9979C74.9267 12.1306 74.5904 12.3443 74.3129 12.6235C74.0276 12.9077 73.7961 13.277 73.6243 13.7218C73.4526 14.1657 73.3659 14.7129 73.3659 15.3469C73.3659 15.9728 73.4526 16.5151 73.6243 16.958C73.7961 17.4041 74.0276 17.7737 74.3129 18.0579C74.5899 18.3376 74.9264 18.5513 75.2974 18.6829C75.6624 18.8124 76.0441 18.8783 76.4315 18.8783C76.892 18.8783 77.3096 18.7885 77.6728 18.6114C78.0369 18.4322 78.3673 18.1915 78.6496 17.9C78.6644 17.8846 78.6729 17.8642 78.6735 17.8428C78.674 17.8215 78.6665 17.8007 78.6525 17.7846L77.937 16.9814L77.9355 16.9817ZM83.6501 16.9817C83.6426 16.9732 83.6334 16.9663 83.6231 16.9615C83.6128 16.9568 83.6016 16.9542 83.5902 16.954C83.5756 16.9498 83.545 16.9644 83.5302 16.982C83.3807 17.1532 83.1848 17.3092 82.9477 17.4477C82.7202 17.5806 82.4613 17.6502 82.1979 17.6493C81.6067 17.6493 81.1433 17.4592 80.8197 17.0838C80.4943 16.7052 80.3295 16.1214 80.3295 15.3469C80.3295 14.5643 80.4943 13.9775 80.8195 13.6035C81.1428 13.2334 81.6064 13.0452 82.1979 13.0452C82.4423 13.0452 82.6842 13.105 82.9189 13.2217C83.1534 13.3363 83.3614 13.4986 83.5296 13.6981C83.537 13.707 83.5464 13.7142 83.5569 13.7191C83.5674 13.724 83.5789 13.7266 83.5905 13.7265H83.5908C83.6136 13.7265 83.636 13.7167 83.6516 13.6986L84.3548 12.8809C84.3687 12.8647 84.3759 12.8439 84.3751 12.8226C84.3743 12.8013 84.3656 12.7811 84.3506 12.766C84.0655 12.482 83.7358 12.2467 83.3746 12.0695C83.0091 11.8924 82.5954 11.802 82.1466 11.802C81.7588 11.802 81.3767 11.8682 81.0114 11.9974C80.6412 12.1303 80.3052 12.344 80.0277 12.623C79.742 12.9072 79.5101 13.2764 79.3392 13.7212C79.1677 14.1671 79.0805 14.7142 79.0805 15.3464C79.0805 15.9701 79.1677 16.5122 79.3392 16.9572C79.5101 17.4033 79.7417 17.7732 80.0277 18.0571C80.3047 18.3365 80.6409 18.5502 81.0114 18.6824C81.3767 18.8116 81.7588 18.8775 82.1466 18.8775C82.6063 18.8775 83.0242 18.7877 83.3871 18.6106C83.7515 18.4316 84.0821 18.1909 84.3644 17.8992C84.3792 17.8838 84.3877 17.8635 84.3882 17.8421C84.3887 17.8208 84.3811 17.8001 84.3671 17.7841L83.6508 16.9806V16.9817H83.6501ZM71.2311 16.5183C71.2311 16.7565 71.1856 16.9509 71.0976 17.0947C71.0092 17.2404 70.8863 17.3622 70.7398 17.4493C70.5808 17.5427 70.4061 17.6061 70.2243 17.6362C70.0204 17.6727 69.8212 17.6891 69.6152 17.6891C69.1499 17.6891 68.8027 17.599 68.5845 17.4214C68.3686 17.2457 68.2646 16.8509 68.2646 16.5563C68.2646 16.2636 68.3659 15.8795 68.5752 15.7223C68.7902 15.561 69.1042 15.4791 69.5094 15.4791H71.2319V16.518L71.2311 16.5183ZM72.4806 14.0658C72.4806 13.629 72.4067 13.2584 72.2591 12.9657C72.1129 12.673 71.9106 12.4374 71.6572 12.2673C71.4095 12.0984 71.1152 11.9777 70.7828 11.9065C70.4451 11.8365 70.101 11.8016 69.7561 11.8025C69.2999 11.8025 68.8676 11.8796 68.4704 12.0322C68.0703 12.188 67.7388 12.4185 67.4854 12.7171C67.4721 12.7328 67.4651 12.7529 67.4656 12.7735C67.4662 12.7941 67.4742 12.8137 67.4883 12.8287L68.178 13.5777C68.1857 13.586 68.195 13.5927 68.2055 13.5972C68.2159 13.6017 68.2272 13.6039 68.2386 13.6037C68.2501 13.6033 68.2614 13.6005 68.2717 13.5955C68.2821 13.5904 68.2912 13.5833 68.2987 13.5745C68.4409 13.4033 68.6267 13.2669 68.8527 13.1688C69.0798 13.0688 69.3998 13.0183 69.8013 13.0183C70.3109 13.0183 70.6826 13.1047 70.9062 13.2746C71.1247 13.4407 71.2319 13.6907 71.2319 14.0392V14.3872H69.2446C68.8812 14.3872 68.5603 14.4444 68.2928 14.5565C68.0222 14.6687 67.7943 14.8221 67.6149 15.0114C67.435 15.2021 67.2958 15.4274 67.206 15.6737C67.1145 15.9209 67.0677 16.3514 67.0677 16.6249C67.0677 17.2292 67.2796 17.8992 67.6976 18.2908C68.1128 18.6811 68.7131 18.8781 69.4828 18.8781C69.9411 18.8781 70.3391 18.8116 70.6645 18.6824C70.9038 18.5875 71.0936 18.4684 71.2311 18.3307L71.3696 18.7132C71.3696 18.7595 71.4057 18.7964 71.4504 18.7964H72.5394C72.5611 18.7961 72.5819 18.7871 72.597 18.7716C72.6122 18.756 72.6207 18.735 72.6204 18.7132C72.6204 18.7132 72.4819 18.2575 72.4819 17.6323L72.4806 14.0658ZM110.72 11.8714H109.803C109.776 11.8714 109.752 11.8844 109.737 11.9065L107.288 15.4504L106.452 16.7044V11.9546C106.452 11.9329 106.444 11.912 106.429 11.8964C106.414 11.8808 106.393 11.8718 106.371 11.8714H105.283C105.262 11.8719 105.241 11.8809 105.226 11.8964C105.211 11.912 105.202 11.9329 105.202 11.9546V18.7132C105.202 18.7349 105.211 18.7558 105.226 18.7714C105.241 18.7869 105.262 18.7958 105.283 18.7962H106.33C106.344 18.7962 106.357 18.793 106.368 18.7868C106.38 18.7806 106.39 18.7715 106.397 18.7605L109.526 14.1158V18.7132C109.526 18.7592 109.563 18.7962 109.607 18.7962H110.721C110.765 18.7962 110.802 18.759 110.802 18.7132V11.9549C110.802 11.9331 110.793 11.9121 110.778 11.8965C110.763 11.8809 110.742 11.8719 110.72 11.8714ZM102.78 14.8429C103.063 14.6929 103.584 14.2224 103.761 13.6096L104.181 11.9799C104.185 11.9675 104.186 11.9543 104.184 11.9415C104.182 11.9286 104.177 11.9165 104.169 11.906C104.162 11.8955 104.152 11.887 104.141 11.881C104.129 11.8751 104.117 11.8719 104.104 11.8717H103.016C102.998 11.8718 102.981 11.8777 102.967 11.8883C102.953 11.8989 102.943 11.9138 102.939 11.9307C102.939 11.9307 102.667 13.2055 102.532 13.5482C102.397 13.8908 102.055 14.2011 101.854 14.3245C101.756 14.3856 101.647 14.4258 101.533 14.4425C101.417 14.46 101.296 14.4686 101.173 14.4686H100.114V11.9546C100.114 11.9328 100.106 11.9119 100.09 11.8963C100.075 11.8807 100.054 11.8717 100.033 11.8714H98.9448C98.9231 11.8718 98.9024 11.8808 98.8873 11.8964C98.8721 11.912 98.8638 11.9329 98.864 11.9546V18.7132C98.864 18.7592 98.8999 18.7962 98.9448 18.7962H100.033C100.043 18.7961 100.054 18.7938 100.064 18.7896C100.074 18.7854 100.083 18.7792 100.09 18.7715C100.098 18.7638 100.104 18.7547 100.108 18.7447C100.112 18.7347 100.114 18.724 100.114 18.7132V15.5477H101.318C101.521 15.5477 102.691 15.696 102.795 16.5372L103.032 18.7361C103.036 18.7533 103.046 18.7686 103.06 18.7796C103.074 18.7906 103.091 18.7967 103.109 18.797H104.223C104.236 18.7969 104.248 18.7937 104.26 18.7878C104.271 18.7819 104.281 18.7734 104.288 18.7629C104.295 18.7524 104.3 18.7404 104.303 18.7277C104.305 18.7149 104.304 18.7019 104.3 18.6896C104.3 18.6896 104.096 17.201 103.93 16.1629C103.765 15.1239 102.76 14.8344 102.78 14.8429ZM97.4869 11.8714H96.5686C96.5555 11.8714 96.5426 11.8746 96.5311 11.8807C96.5196 11.8868 96.5097 11.8957 96.5024 11.9065L94.0552 15.4504L93.2188 16.706V11.9546C93.2189 11.9329 93.2105 11.912 93.1954 11.8964C93.1803 11.8809 93.1597 11.8719 93.138 11.8714H92.0503C92.0286 11.8717 92.0078 11.8807 91.9926 11.8963C91.9774 11.9119 91.969 11.9328 91.9693 11.9546V18.7132C91.9693 18.7592 92.0057 18.7962 92.0503 18.7962H93.0978C93.111 18.7962 93.124 18.793 93.1356 18.7868C93.1472 18.7806 93.157 18.7715 93.1643 18.7605L96.2924 14.1166V18.7132C96.2924 18.7592 96.3285 18.7962 96.3732 18.7962H97.4869C97.5315 18.7962 97.5679 18.759 97.5679 18.7132V11.9549C97.568 11.9331 97.5596 11.9122 97.5444 11.8966C97.5293 11.881 97.5086 11.8719 97.4869 11.8714ZM90.4996 11.8714H89.4122C89.3905 11.8717 89.3697 11.8807 89.3545 11.8963C89.3393 11.9119 89.3309 11.9328 89.3312 11.9546V14.4412H86.4429V11.9546C86.4431 11.9328 86.4347 11.9119 86.4195 11.8963C86.4043 11.8807 86.3836 11.8717 86.3618 11.8714H85.2739C85.2521 11.8717 85.2314 11.8807 85.2162 11.8963C85.201 11.9119 85.1926 11.9328 85.1928 11.9546V18.7132C85.1928 18.7592 85.229 18.7962 85.2739 18.7962H86.3618C86.3726 18.7961 86.3832 18.7938 86.3931 18.7896C86.403 18.7854 86.412 18.7792 86.4196 18.7715C86.4271 18.7638 86.433 18.7547 86.437 18.7447C86.441 18.7347 86.443 18.724 86.4429 18.7132V15.507H89.3312V18.7138C89.3312 18.7597 89.3673 18.7967 89.4122 18.7967H90.4996C90.5104 18.7966 90.521 18.7943 90.5309 18.7901C90.5407 18.7858 90.5497 18.7797 90.5572 18.772C90.5647 18.7643 90.5706 18.7552 90.5746 18.7452C90.5786 18.7352 90.5806 18.7245 90.5804 18.7138V11.9546C90.5806 11.9329 90.5723 11.912 90.5571 11.8964C90.542 11.8808 90.5213 11.8718 90.4996 11.8714ZM51.7804 16.1902C51.7804 17.0229 51.0905 17.6979 50.2398 17.6979C49.3888 17.6979 48.6986 17.0229 48.6986 16.1902V14.5143C48.6986 13.6816 49.3888 13.0066 50.2398 13.0066C51.0905 13.0066 51.7804 13.6816 51.7804 14.5143V16.1902ZM50.2448 11.8161C48.7079 11.8161 47.4616 13.0377 47.4616 14.5441V16.1493C47.4616 17.6562 48.7079 18.8781 50.2448 18.8781C51.782 18.8781 53.0281 17.6562 53.0281 16.1493V14.5441C53.0281 13.0374 51.7823 11.8161 50.2448 11.8161ZM37.9971 17.6349H35.0647C35.2231 17.3406 35.3289 16.9801 35.3805 16.5632C35.4379 16.0975 35.5254 15.5025 35.561 14.7932L35.7168 13.0186H37.9976L37.9971 17.6349ZM39.8809 17.6349H39.2721V11.9543C39.2723 11.9326 39.264 11.9117 39.2488 11.8961C39.2337 11.8805 39.213 11.8715 39.1913 11.8711H34.6855C34.6645 11.8715 34.6444 11.8799 34.6294 11.8947C34.6144 11.9094 34.6055 11.9293 34.6047 11.9504L34.391 14.8237C34.3639 15.2592 34.2969 15.6311 34.2705 15.9395C34.244 16.2439 34.2025 16.5071 34.1472 16.7222C34.0911 16.937 34.0153 17.1109 33.9151 17.2539C33.8175 17.3909 33.7013 17.5427 33.5248 17.6259C33.3483 17.7088 32.8775 17.7452 32.8775 17.7452C32.8585 17.7488 32.8415 17.759 32.8293 17.7739C32.8171 17.7888 32.8107 17.8076 32.811 17.8269V20.5524C32.811 20.5984 32.8471 20.6354 32.8921 20.6354H33.9802C34.0249 20.6354 34.0611 20.5982 34.0611 20.5524V18.7964H38.7128V20.5524C38.7128 20.5984 38.7486 20.6354 38.7936 20.6354H39.8804C39.9022 20.6351 39.9229 20.6262 39.9382 20.6107C39.9534 20.5951 39.9619 20.5742 39.9618 20.5524V17.7179C39.9619 17.6961 39.9534 17.6751 39.9382 17.6596C39.9229 17.6441 39.9022 17.6352 39.8804 17.6349H39.8809ZM46.2575 11.8711H45.1694C45.1476 11.8715 45.127 11.8805 45.1118 11.8961C45.0967 11.9117 45.0883 11.9326 45.0885 11.9543V14.4409H42.2005V11.9543C42.2007 11.9326 42.1924 11.9117 42.1772 11.8961C42.1621 11.8805 42.1414 11.8715 42.1197 11.8711H41.0318C41.0101 11.8715 40.9894 11.8805 40.9743 11.8961C40.9592 11.9117 40.9508 11.9326 40.951 11.9543V18.7127C40.951 18.759 40.9869 18.7962 41.0318 18.7962H42.1197C42.1415 18.7958 42.1622 18.7867 42.1773 18.7711C42.1925 18.7555 42.2008 18.7345 42.2005 18.7127V15.507H45.0885V18.7132C45.0885 18.7595 45.1247 18.7964 45.1694 18.7964H46.2575C46.3022 18.7964 46.3383 18.7592 46.3383 18.7132V11.9543C46.3386 11.9326 46.3302 11.9117 46.315 11.8961C46.2999 11.8805 46.2792 11.8715 46.2575 11.8711ZM31.1765 16.19C31.1765 17.0226 30.4863 17.6977 29.6356 17.6977C28.7846 17.6977 28.0944 17.0226 28.0944 16.19V14.514C28.0944 13.6813 28.7846 13.0063 29.6356 13.0063C30.4863 13.0063 31.1765 13.6813 31.1765 14.514V16.19ZM29.6409 11.8158C28.1037 11.8158 26.8577 13.0374 26.8577 14.5438V16.1488C26.8577 17.6562 28.1037 18.8775 29.6409 18.8775C31.1781 18.8775 32.4242 17.6562 32.4242 16.1488V14.5438C32.4242 13.0372 31.1781 11.8158 29.6409 11.8158ZM66.1075 11.8709H61.6985C61.6767 11.8712 61.656 11.8802 61.6408 11.8957C61.6256 11.9113 61.6172 11.9323 61.6174 11.9541C61.6174 11.9541 61.6387 15.084 61.3904 16.4133C61.2915 16.9455 61.241 17.0202 61.132 17.205C61.0261 17.3861 60.8879 17.5198 60.7212 17.6022C60.5367 17.695 60.3277 17.7854 60.0999 17.8721C60.0802 17.8799 60.0642 17.8949 60.0551 17.914C60.0459 17.9331 60.0443 17.9549 60.0504 17.9752L60.3413 18.9158C60.3522 18.9509 60.3838 18.9735 60.4184 18.9735L60.4333 18.9722C60.7853 18.9078 61.103 18.8007 61.3773 18.6577C61.6578 18.5114 61.8982 18.2897 62.0912 17.9965C62.281 17.7096 62.4293 17.3262 62.5336 16.8583C62.6372 16.3931 62.7088 15.7673 62.7502 15.1026L62.8414 13.0186H64.914V18.713C64.914 18.759 64.9499 18.7959 64.9951 18.7959H66.1085C66.1193 18.7958 66.1299 18.7935 66.1398 18.7893C66.1497 18.785 66.1586 18.7789 66.1661 18.7712C66.1736 18.7635 66.1795 18.7544 66.1835 18.7444C66.1875 18.7344 66.1895 18.7237 66.1894 18.713V11.9541C66.1896 11.9324 66.1812 11.9114 66.1661 11.8958C66.1509 11.8803 66.1303 11.8713 66.1085 11.8709" fill="white"/>
</g>
<defs>
<clipPath id="clip0_2_1682">
<rect width="120" height="30" fill="white"/>
</clipPath>
</defs>
</svg>
